  0
SECTION
  2
BLOCKS
  0
ENDSEC
  0
SECTION
  2
ENTITIES
  0
LINE
  8
0
 10
5.33177
 20
-1.9395
 11
5.35433
 21
-1.87008
  0
LINE
  8
0
 10
5.35433
 20
-1.87008
 11
5.35433
 21
1.87008
  0
LINE
  8
0
 10
5.35433
 20
1.87008
 11
5.33177
 21
1.9395
  0
LINE
  8
0
 10
5.33177
 20
1.9395
 11
5.27272
 21
1.98241
  0
LINE
  8
0
 10
5.27272
 20
1.98241
 11
-5.27272
 21
1.98241
  0
LINE
  8
0
 10
-5.27272
 20
1.98241
 11
-5.33177
 21
1.9395
  0
LINE
  8
0
 10
-5.33177
 20
1.9395
 11
-5.35433
 21
1.87008
  0
LINE
  8
0
 10
-5.35433
 20
1.87008
 11
-5.35433
 21
-1.87008
  0
LINE
  8
0
 10
-5.35433
 20
-1.87008
 11
-5.33177
 21
-1.9395
  0
LINE
  8
0
 10
-5.33177
 20
-1.9395
 11
-5.27272
 21
-1.98241
  0
LINE
  8
0
 10
-5.27272
 20
-1.98241
 11
5.27272
 21
-1.98241
  0
LINE
  8
0
 10
5.27272
 20
-1.98241
 11
5.33177
 21
-1.9395
  0
LINE
  8
0
 10
-0.0139906
 20
1.453
 11
-0.0366283
 21
1.46945
  0
LINE
  8
0
 10
-0.0366283
 20
1.46945
 11
-0.0452754
 21
1.49606
  0
LINE
  8
0
 10
-0.0452754
 20
1.49606
 11
-0.0366283
 21
1.52268
  0
LINE
  8
0
 10
-0.0366283
 20
1.52268
 11
-0.0139906
 21
1.53912
  0
LINE
  8
0
 10
-0.0139906
 20
1.53912
 11
0.0139906
 21
1.53912
  0
LINE
  8
0
 10
0.0139906
 20
1.53912
 11
0.0366283
 21
1.52268
  0
LINE
  8
0
 10
0.0366283
 20
1.52268
 11
0.0452754
 21
1.49606
  0
LINE
  8
0
 10
0.0452754
 20
1.49606
 11
0.0366283
 21
1.46945
  0
LINE
  8
0
 10
0.0366283
 20
1.46945
 11
0.0139906
 21
1.453
  0
LINE
  8
0
 10
0.0139906
 20
1.453
 11
-0.0139906
 21
1.453
  0
LINE
  8
0
 10
-4.50218
 20
1.453
 11
-4.52482
 21
1.46945
  0
LINE
  8
0
 10
-4.52482
 20
1.46945
 11
-4.53346
 21
1.49606
  0
LINE
  8
0
 10
-4.53346
 20
1.49606
 11
-4.52482
 21
1.52268
  0
LINE
  8
0
 10
-4.52482
 20
1.52268
 11
-4.50218
 21
1.53912
  0
LINE
  8
0
 10
-4.50218
 20
1.53912
 11
-4.4742
 21
1.53912
  0
LINE
  8
0
 10
-4.4742
 20
1.53912
 11
-4.45156
 21
1.52268
  0
LINE
  8
0
 10
-4.45156
 20
1.52268
 11
-4.44291
 21
1.49606
  0
LINE
  8
0
 10
-4.44291
 20
1.49606
 11
-4.45156
 21
1.46945
  0
LINE
  8
0
 10
-4.45156
 20
1.46945
 11
-4.4742
 21
1.453
  0
LINE
  8
0
 10
-4.4742
 20
1.453
 11
-4.50218
 21
1.453
  0
LINE
  8
0
 10
4.4742
 20
1.453
 11
4.45156
 21
1.46945
  0
LINE
  8
0
 10
4.45156
 20
1.46945
 11
4.44291
 21
1.49606
  0
LINE
  8
0
 10
4.44291
 20
1.49606
 11
4.45156
 21
1.52268
  0
LINE
  8
0
 10
4.45156
 20
1.52268
 11
4.4742
 21
1.53912
  0
LINE
  8
0
 10
4.4742
 20
1.53912
 11
4.50218
 21
1.53912
  0
LINE
  8
0
 10
4.50218
 20
1.53912
 11
4.52482
 21
1.52268
  0
LINE
  8
0
 10
4.52482
 20
1.52268
 11
4.53346
 21
1.49606
  0
LINE
  8
0
 10
4.53346
 20
1.49606
 11
4.52482
 21
1.46945
  0
LINE
  8
0
 10
4.52482
 20
1.46945
 11
4.50218
 21
1.453
  0
LINE
  8
0
 10
4.50218
 20
1.453
 11
4.4742
 21
1.453
  0
LINE
  8
0
 10
-1.05315
 20
0.0531492
 11
-1.05315
 21
0.840551
  0
LINE
  8
0
 10
-1.05315
 20
0.840551
 11
0.344488
 21
0.840551
  0
LINE
  8
0
 10
0.344488
 20
0.840551
 11
0.344488
 21
0.0531492
  0
LINE
  8
0
 10
0.344488
 20
0.0531492
 11
-1.05315
 21
0.0531492
  0
LINE
  8
0
 10
-0.0139906
 20
-0.791091
 11
-0.0366283
 21
-0.774644
  0
LINE
  8
0
 10
-0.0366283
 20
-0.774644
 11
-0.0452754
 21
-0.748031
  0
LINE
  8
0
 10
-0.0452754
 20
-0.748031
 11
-0.0366283
 21
-0.721419
  0
LINE
  8
0
 10
-0.0366283
 20
-0.721419
 11
-0.0139906
 21
-0.704972
  0
LINE
  8
0
 10
-0.0139906
 20
-0.704972
 11
0.0139906
 21
-0.704972
  0
LINE
  8
0
 10
0.0139906
 20
-0.704972
 11
0.0366283
 21
-0.721419
  0
LINE
  8
0
 10
0.0366283
 20
-0.721419
 11
0.0452754
 21
-0.748031
  0
LINE
  8
0
 10
0.0452754
 20
-0.748031
 11
0.0366283
 21
-0.774644
  0
LINE
  8
0
 10
0.0366283
 20
-0.774644
 11
0.0139906
 21
-0.791091
  0
LINE
  8
0
 10
0.0139906
 20
-0.791091
 11
-0.0139906
 21
-0.791091
  0
LINE
  8
0
 10
-4.50218
 20
-1.53912
 11
-4.52482
 21
-1.52268
  0
LINE
  8
0
 10
-4.52482
 20
-1.52268
 11
-4.53346
 21
-1.49606
  0
LINE
  8
0
 10
-4.53346
 20
-1.49606
 11
-4.52482
 21
-1.46945
  0
LINE
  8
0
 10
-4.52482
 20
-1.46945
 11
-4.50218
 21
-1.453
  0
LINE
  8
0
 10
-4.50218
 20
-1.453
 11
-4.4742
 21
-1.453
  0
LINE
  8
0
 10
-4.4742
 20
-1.453
 11
-4.45156
 21
-1.46945
  0
LINE
  8
0
 10
-4.45156
 20
-1.46945
 11
-4.44291
 21
-1.49606
  0
LINE
  8
0
 10
-4.44291
 20
-1.49606
 11
-4.45156
 21
-1.52268
  0
LINE
  8
0
 10
-4.45156
 20
-1.52268
 11
-4.4742
 21
-1.53912
  0
LINE
  8
0
 10
-4.4742
 20
-1.53912
 11
-4.50218
 21
-1.53912
  0
LINE
  8
0
 10
4.4742
 20
-1.53912
 11
4.45156
 21
-1.52268
  0
LINE
  8
0
 10
4.45156
 20
-1.52268
 11
4.44291
 21
-1.49606
  0
LINE
  8
0
 10
4.44291
 20
-1.49606
 11
4.45156
 21
-1.46945
  0
LINE
  8
0
 10
4.45156
 20
-1.46945
 11
4.4742
 21
-1.453
  0
LINE
  8
0
 10
4.4742
 20
-1.453
 11
4.50218
 21
-1.453
  0
LINE
  8
0
 10
4.50218
 20
-1.453
 11
4.52482
 21
-1.46945
  0
LINE
  8
0
 10
4.52482
 20
-1.46945
 11
4.53346
 21
-1.49606
  0
LINE
  8
0
 10
4.53346
 20
-1.49606
 11
4.52482
 21
-1.52268
  0
LINE
  8
0
 10
4.52482
 20
-1.52268
 11
4.50218
 21
-1.53912
  0
LINE
  8
0
 10
4.50218
 20
-1.53912
 11
4.4742
 21
-1.53912
  0
ENDSEC
  0
SECTION
  2
OBJECTS
  0
DICTIONARY
  0
ENDSEC
  0
EOF
