  0
SECTION
  2
BLOCKS
  0
ENDSEC
  0
SECTION
  2
ENTITIES
  0
LINE
  8
0
 10
135.427
 20
-49.2634
 11
136
 21
-47.5
  0
LINE
  8
0
 10
136
 20
-47.5
 11
136
 21
47.5
  0
LINE
  8
0
 10
136
 20
47.5
 11
135.427
 21
49.2634
  0
LINE
  8
0
 10
135.427
 20
49.2634
 11
133.927
 21
50.3532
  0
LINE
  8
0
 10
133.927
 20
50.3532
 11
-133.927
 21
50.3532
  0
LINE
  8
0
 10
-133.927
 20
50.3532
 11
-135.427
 21
49.2634
  0
LINE
  8
0
 10
-135.427
 20
49.2634
 11
-136
 21
47.5
  0
LINE
  8
0
 10
-136
 20
47.5
 11
-136
 21
-47.5
  0
LINE
  8
0
 10
-136
 20
-47.5
 11
-135.427
 21
-49.2634
  0
LINE
  8
0
 10
-135.427
 20
-49.2634
 11
-133.927
 21
-50.3532
  0
LINE
  8
0
 10
-133.927
 20
-50.3532
 11
133.927
 21
-50.3532
  0
LINE
  8
0
 10
133.927
 20
-50.3532
 11
135.427
 21
-49.2634
  0
LINE
  8
0
 10
-0.355362
 20
36.9063
 11
-0.930359
 21
37.324
  0
LINE
  8
0
 10
-0.930359
 20
37.324
 11
-1.14999
 21
38
  0
LINE
  8
0
 10
-1.14999
 20
38
 11
-0.930359
 21
38.6759
  0
LINE
  8
0
 10
-0.930359
 20
38.6759
 11
-0.355362
 21
39.0937
  0
LINE
  8
0
 10
-0.355362
 20
39.0937
 11
0.355362
 21
39.0937
  0
LINE
  8
0
 10
0.355362
 20
39.0937
 11
0.930359
 21
38.6759
  0
LINE
  8
0
 10
0.930359
 20
38.6759
 11
1.14999
 21
38
  0
LINE
  8
0
 10
1.14999
 20
38
 11
0.930359
 21
37.324
  0
LINE
  8
0
 10
0.930359
 20
37.324
 11
0.355362
 21
36.9063
  0
LINE
  8
0
 10
0.355362
 20
36.9063
 11
-0.355362
 21
36.9063
  0
LINE
  8
0
 10
-114.355
 20
36.9063
 11
-114.93
 21
37.324
  0
LINE
  8
0
 10
-114.93
 20
37.324
 11
-115.15
 21
38
  0
LINE
  8
0
 10
-115.15
 20
38
 11
-114.93
 21
38.6759
  0
LINE
  8
0
 10
-114.93
 20
38.6759
 11
-114.355
 21
39.0937
  0
LINE
  8
0
 10
-114.355
 20
39.0937
 11
-113.645
 21
39.0937
  0
LINE
  8
0
 10
-113.645
 20
39.0937
 11
-113.07
 21
38.6759
  0
LINE
  8
0
 10
-113.07
 20
38.6759
 11
-112.85
 21
38
  0
LINE
  8
0
 10
-112.85
 20
38
 11
-113.07
 21
37.324
  0
LINE
  8
0
 10
-113.07
 20
37.324
 11
-113.645
 21
36.9063
  0
LINE
  8
0
 10
-113.645
 20
36.9063
 11
-114.355
 21
36.9063
  0
LINE
  8
0
 10
113.645
 20
36.9063
 11
113.07
 21
37.324
  0
LINE
  8
0
 10
113.07
 20
37.324
 11
112.85
 21
38
  0
LINE
  8
0
 10
112.85
 20
38
 11
113.07
 21
38.6759
  0
LINE
  8
0
 10
113.07
 20
38.6759
 11
113.645
 21
39.0937
  0
LINE
  8
0
 10
113.645
 20
39.0937
 11
114.355
 21
39.0937
  0
LINE
  8
0
 10
114.355
 20
39.0937
 11
114.93
 21
38.6759
  0
LINE
  8
0
 10
114.93
 20
38.6759
 11
115.15
 21
38
  0
LINE
  8
0
 10
115.15
 20
38
 11
114.93
 21
37.324
  0
LINE
  8
0
 10
114.93
 20
37.324
 11
114.355
 21
36.9063
  0
LINE
  8
0
 10
114.355
 20
36.9063
 11
113.645
 21
36.9063
  0
LINE
  8
0
 10
-26.75
 20
1.34999
 11
-26.75
 21
21.35
  0
LINE
  8
0
 10
-26.75
 20
21.35
 11
8.75
 21
21.35
  0
LINE
  8
0
 10
8.75
 20
21.35
 11
8.75
 21
1.34999
  0
LINE
  8
0
 10
8.75
 20
1.34999
 11
-26.75
 21
1.34999
  0
LINE
  8
0
 10
-0.355362
 20
-20.0937
 11
-0.930359
 21
-19.6759
  0
LINE
  8
0
 10
-0.930359
 20
-19.6759
 11
-1.14999
 21
-19
  0
LINE
  8
0
 10
-1.14999
 20
-19
 11
-0.930359
 21
-18.324
  0
LINE
  8
0
 10
-0.930359
 20
-18.324
 11
-0.355362
 21
-17.9063
  0
LINE
  8
0
 10
-0.355362
 20
-17.9063
 11
0.355362
 21
-17.9063
  0
LINE
  8
0
 10
0.355362
 20
-17.9063
 11
0.930359
 21
-18.324
  0
LINE
  8
0
 10
0.930359
 20
-18.324
 11
1.14999
 21
-19
  0
LINE
  8
0
 10
1.14999
 20
-19
 11
0.930359
 21
-19.6759
  0
LINE
  8
0
 10
0.930359
 20
-19.6759
 11
0.355362
 21
-20.0937
  0
LINE
  8
0
 10
0.355362
 20
-20.0937
 11
-0.355362
 21
-20.0937
  0
LINE
  8
0
 10
-114.355
 20
-39.0937
 11
-114.93
 21
-38.6759
  0
LINE
  8
0
 10
-114.93
 20
-38.6759
 11
-115.15
 21
-38
  0
LINE
  8
0
 10
-115.15
 20
-38
 11
-114.93
 21
-37.324
  0
LINE
  8
0
 10
-114.93
 20
-37.324
 11
-114.355
 21
-36.9063
  0
LINE
  8
0
 10
-114.355
 20
-36.9063
 11
-113.645
 21
-36.9063
  0
LINE
  8
0
 10
-113.645
 20
-36.9063
 11
-113.07
 21
-37.324
  0
LINE
  8
0
 10
-113.07
 20
-37.324
 11
-112.85
 21
-38
  0
LINE
  8
0
 10
-112.85
 20
-38
 11
-113.07
 21
-38.6759
  0
LINE
  8
0
 10
-113.07
 20
-38.6759
 11
-113.645
 21
-39.0937
  0
LINE
  8
0
 10
-113.645
 20
-39.0937
 11
-114.355
 21
-39.0937
  0
LINE
  8
0
 10
113.645
 20
-39.0937
 11
113.07
 21
-38.6759
  0
LINE
  8
0
 10
113.07
 20
-38.6759
 11
112.85
 21
-38
  0
LINE
  8
0
 10
112.85
 20
-38
 11
113.07
 21
-37.324
  0
LINE
  8
0
 10
113.07
 20
-37.324
 11
113.645
 21
-36.9063
  0
LINE
  8
0
 10
113.645
 20
-36.9063
 11
114.355
 21
-36.9063
  0
LINE
  8
0
 10
114.355
 20
-36.9063
 11
114.93
 21
-37.324
  0
LINE
  8
0
 10
114.93
 20
-37.324
 11
115.15
 21
-38
  0
LINE
  8
0
 10
115.15
 20
-38
 11
114.93
 21
-38.6759
  0
LINE
  8
0
 10
114.93
 20
-38.6759
 11
114.355
 21
-39.0937
  0
LINE
  8
0
 10
114.355
 20
-39.0937
 11
113.645
 21
-39.0937
  0
ENDSEC
  0
SECTION
  2
OBJECTS
  0
DICTIONARY
  0
ENDSEC
  0
EOF
