<?xml version="1.0" standalone="no"?>
<!DOCTYPE svg PUBLIC "-//W3C//DTD SVG 1.1//EN" "http://www.w3.org/Graphics/SVG/1.1/DTD/svg11.dtd">
<svg width="274" height="102" viewBox="-137 -51 274 102" xmlns="http://www.w3.org/2000/svg" version="1.1">
<title>OpenSCAD Model</title>
<path d="
M 135.777,49.3884 L 136.35,47.625 L 136.35,-47.625 L 135.777,-49.3884 L 134.277,-50.4782 L -134.277,-50.4782
 L -135.777,-49.3884 L -136.35,-47.625 L -136.35,47.625 L -135.777,49.3884 L -134.277,50.4782 L 134.277,50.4782
 z
M -111.868,-30.8147 L -112.018,-30.9237 L -112.075,-31.1 L -112.075,-45.1 L -112.018,-45.2763 L -111.868,-45.3853
 L -97.6823,-45.3853 L -97.5323,-45.2763 L -97.475,-45.1 L -97.475,-31.1 L -97.5323,-30.9237 L -97.6823,-30.8147
 z
M -92.8177,-30.8147 L -92.9677,-30.9237 L -93.025,-31.1 L -93.025,-45.1 L -92.9677,-45.2763 L -92.8177,-45.3853
 L -78.6323,-45.3853 L -78.4823,-45.2763 L -78.425,-45.1 L -78.425,-31.1 L -78.4823,-30.9237 L -78.6323,-30.8147
 z
M -73.7677,-30.8147 L -73.9177,-30.9237 L -73.975,-31.1 L -73.975,-45.1 L -73.9177,-45.2763 L -73.7677,-45.3853
 L -59.5823,-45.3853 L -59.4323,-45.2763 L -59.375,-45.1 L -59.375,-31.1 L -59.4323,-30.9237 L -59.5823,-30.8147
 z
M -54.7177,-30.8147 L -54.8677,-30.9237 L -54.925,-31.1 L -54.925,-45.1 L -54.8677,-45.2763 L -54.7177,-45.3853
 L -40.5323,-45.3853 L -40.3823,-45.2763 L -40.325,-45.1 L -40.325,-31.1 L -40.3823,-30.9237 L -40.5323,-30.8147
 z
M -35.6677,-30.8147 L -35.8177,-30.9237 L -35.875,-31.1 L -35.875,-45.1 L -35.8177,-45.2763 L -35.6677,-45.3853
 L -21.4823,-45.3853 L -21.3323,-45.2763 L -21.275,-45.1 L -21.275,-31.1 L -21.3323,-30.9237 L -21.4823,-30.8147
 z
M -16.6177,-30.8147 L -16.7677,-30.9237 L -16.825,-31.1 L -16.825,-45.1 L -16.7677,-45.2763 L -16.6177,-45.3853
 L -2.43228,-45.3853 L -2.28229,-45.2763 L -2.22499,-45.1 L -2.22499,-31.1 L -2.28229,-30.9237 L -2.43228,-30.8147
 z
M 2.43228,-30.8147 L 2.28229,-30.9237 L 2.22499,-31.1 L 2.22499,-45.1 L 2.28229,-45.2763 L 2.43228,-45.3853
 L 16.6177,-45.3853 L 16.7677,-45.2763 L 16.825,-45.1 L 16.825,-31.1 L 16.7677,-30.9237 L 16.6177,-30.8147
 z
M 40.5323,-30.8147 L 40.3823,-30.9237 L 40.325,-31.1 L 40.325,-45.1 L 40.3823,-45.2763 L 40.5323,-45.3853
 L 54.7177,-45.3853 L 54.8677,-45.2763 L 54.925,-45.1 L 54.925,-31.1 L 54.8677,-30.9237 L 54.7177,-30.8147
 z
M 59.5823,-30.8147 L 59.4323,-30.9237 L 59.375,-31.1 L 59.375,-45.1 L 59.4323,-45.2763 L 59.5823,-45.3853
 L 73.7677,-45.3853 L 73.9177,-45.2763 L 73.975,-45.1 L 73.975,-31.1 L 73.9177,-30.9237 L 73.7677,-30.8147
 z
M 78.6323,-30.8147 L 78.4823,-30.9237 L 78.425,-31.1 L 78.425,-45.1 L 78.4823,-45.2763 L 78.6323,-45.3853
 L 92.8177,-45.3853 L 92.9677,-45.2763 L 93.025,-45.1 L 93.025,-31.1 L 92.9677,-30.9237 L 92.8177,-30.8147
 z
M 97.6823,-30.8147 L 97.5323,-30.9237 L 97.475,-31.1 L 97.475,-45.1 L 97.5323,-45.2763 L 97.6823,-45.3853
 L 111.868,-45.3853 L 112.018,-45.2763 L 112.075,-45.1 L 112.075,-31.1 L 112.018,-30.9237 L 111.868,-30.8147
 z
M 116.732,-30.8147 L 116.582,-30.9237 L 116.525,-31.1 L 116.525,-45.1 L 116.582,-45.2763 L 116.732,-45.3853
 L 130.918,-45.3853 L 131.068,-45.2763 L 131.125,-45.1 L 131.125,-31.1 L 131.068,-30.9237 L 130.918,-30.8147
 z
M -130.918,-30.8147 L -131.068,-30.9237 L -131.125,-31.1 L -131.125,-45.1 L -131.068,-45.2763 L -130.918,-45.3853
 L -116.732,-45.3853 L -116.582,-45.2763 L -116.525,-45.1 L -116.525,-31.1 L -116.582,-30.9237 L -116.732,-30.8147
 z
M 21.4823,-30.8147 L 21.3323,-30.9237 L 21.275,-31.1 L 21.275,-45.1 L 21.3323,-45.2763 L 21.4823,-45.3853
 L 35.6677,-45.3853 L 35.8177,-45.2763 L 35.875,-45.1 L 35.875,-31.1 L 35.8177,-30.9237 L 35.6677,-30.8147
 z
M -114.624,-37.1014 L -115.149,-37.4828 L -115.35,-38.1 L -115.149,-38.7172 L -114.624,-39.0986 L -113.976,-39.0986
 L -113.451,-38.7172 L -113.25,-38.1 L -113.451,-37.4828 L -113.976,-37.1014 z
M 113.976,-37.1014 L 113.451,-37.4828 L 113.25,-38.1 L 113.451,-38.7172 L 113.976,-39.0986 L 114.624,-39.0986
 L 115.149,-38.7172 L 115.35,-38.1 L 115.149,-37.4828 L 114.624,-37.1014 z
M -0.324463,-37.1014 L -0.849457,-37.4828 L -1.04999,-38.1 L -0.849457,-38.7172 L -0.324463,-39.0986 L 0.324463,-39.0986
 L 0.849457,-38.7172 L 1.04999,-38.1 L 0.849457,-37.4828 L 0.324463,-37.1014 z
M 116.732,-11.7647 L 116.582,-11.8737 L 116.525,-12.05 L 116.525,-26.05 L 116.582,-26.2263 L 116.732,-26.3353
 L 130.918,-26.3353 L 131.068,-26.2263 L 131.125,-26.05 L 131.125,-12.05 L 131.068,-11.8737 L 130.918,-11.7647
 z
M -130.918,-11.7647 L -131.068,-11.8737 L -131.125,-12.05 L -131.125,-26.05 L -131.068,-26.2263 L -130.918,-26.3353
 L -116.732,-26.3353 L -116.582,-26.2263 L -116.525,-26.05 L -116.525,-12.05 L -116.582,-11.8737 L -116.732,-11.7647
 z
M -111.868,-11.7647 L -112.018,-11.8737 L -112.075,-12.05 L -112.075,-26.05 L -112.018,-26.2263 L -111.868,-26.3353
 L -97.6823,-26.3353 L -97.5323,-26.2263 L -97.475,-26.05 L -97.475,-12.05 L -97.5323,-11.8737 L -97.6823,-11.7647
 z
M -92.8177,-11.7647 L -92.9677,-11.8737 L -93.025,-12.05 L -93.025,-26.05 L -92.9677,-26.2263 L -92.8177,-26.3353
 L -78.6323,-26.3353 L -78.4823,-26.2263 L -78.425,-26.05 L -78.425,-12.05 L -78.4823,-11.8737 L -78.6323,-11.7647
 z
M -73.7677,-11.7647 L -73.9177,-11.8737 L -73.975,-12.05 L -73.975,-26.05 L -73.9177,-26.2263 L -73.7677,-26.3353
 L -59.5823,-26.3353 L -59.4323,-26.2263 L -59.375,-26.05 L -59.375,-12.05 L -59.4323,-11.8737 L -59.5823,-11.7647
 z
M -35.6677,-11.7647 L -35.8177,-11.8737 L -35.875,-12.05 L -35.875,-26.05 L -35.8177,-26.2263 L -35.6677,-26.3353
 L -21.4823,-26.3353 L -21.3323,-26.2263 L -21.275,-26.05 L -21.275,-12.05 L -21.3323,-11.8737 L -21.4823,-11.7647
 z
M -16.6177,-11.7647 L -16.7677,-11.8737 L -16.825,-12.05 L -16.825,-26.05 L -16.7677,-26.2263 L -16.6177,-26.3353
 L -2.43228,-26.3353 L -2.28229,-26.2263 L -2.22499,-26.05 L -2.22499,-12.05 L -2.28229,-11.8737 L -2.43228,-11.7647
 z
M 2.43228,-11.7647 L 2.28229,-11.8737 L 2.22499,-12.05 L 2.22499,-26.05 L 2.28229,-26.2263 L 2.43228,-26.3353
 L 16.6177,-26.3353 L 16.7677,-26.2263 L 16.825,-26.05 L 16.825,-12.05 L 16.7677,-11.8737 L 16.6177,-11.7647
 z
M 21.4823,-11.7647 L 21.3323,-11.8737 L 21.275,-12.05 L 21.275,-26.05 L 21.3323,-26.2263 L 21.4823,-26.3353
 L 35.6677,-26.3353 L 35.8177,-26.2263 L 35.875,-26.05 L 35.875,-12.05 L 35.8177,-11.8737 L 35.6677,-11.7647
 z
M 40.5323,-11.7647 L 40.3823,-11.8737 L 40.325,-12.05 L 40.325,-26.05 L 40.3823,-26.2263 L 40.5323,-26.3353
 L 54.7177,-26.3353 L 54.8677,-26.2263 L 54.925,-26.05 L 54.925,-12.05 L 54.8677,-11.8737 L 54.7177,-11.7647
 z
M 59.5823,-11.7647 L 59.4323,-11.8737 L 59.375,-12.05 L 59.375,-26.05 L 59.4323,-26.2263 L 59.5823,-26.3353
 L 73.7677,-26.3353 L 73.9177,-26.2263 L 73.975,-26.05 L 73.975,-12.05 L 73.9177,-11.8737 L 73.7677,-11.7647
 z
M 78.6323,-11.7647 L 78.4823,-11.8737 L 78.425,-12.05 L 78.425,-26.05 L 78.4823,-26.2263 L 78.6323,-26.3353
 L 92.8177,-26.3353 L 92.9677,-26.2263 L 93.025,-26.05 L 93.025,-12.05 L 92.9677,-11.8737 L 92.8177,-11.7647
 z
M 97.6823,-11.7647 L 97.5323,-11.8737 L 97.475,-12.05 L 97.475,-26.05 L 97.5323,-26.2263 L 97.6823,-26.3353
 L 111.868,-26.3353 L 112.018,-26.2263 L 112.075,-26.05 L 112.075,-12.05 L 112.018,-11.8737 L 111.868,-11.7647
 z
M -54.7177,-11.7647 L -54.8677,-11.8737 L -54.925,-12.05 L -54.925,-26.05 L -54.8677,-26.2263 L -54.7177,-26.3353
 L -40.5323,-26.3353 L -40.3823,-26.2263 L -40.325,-26.05 L -40.325,-12.05 L -40.3823,-11.8737 L -40.5323,-11.7647
 z
M -54.7177,7.28531 L -54.8677,7.17633 L -54.925,7 L -54.925,-6.99998 L -54.8677,-7.17633 L -54.7177,-7.28531
 L -40.5323,-7.28531 L -40.3823,-7.17633 L -40.325,-6.99998 L -40.325,7 L -40.3823,7.17633 L -40.5323,7.28531
 z
M 21.4823,7.28531 L 21.3323,7.17633 L 21.275,7 L 21.275,-6.99998 L 21.3323,-7.17633 L 21.4823,-7.28531
 L 35.6677,-7.28531 L 35.8177,-7.17633 L 35.875,-6.99998 L 35.875,7 L 35.8177,7.17633 L 35.6677,7.28531
 z
M -130.918,7.28531 L -131.068,7.17633 L -131.125,7 L -131.125,-6.99998 L -131.068,-7.17633 L -130.918,-7.28531
 L -116.732,-7.28531 L -116.582,-7.17633 L -116.525,-6.99998 L -116.525,7 L -116.582,7.17633 L -116.732,7.28531
 z
M -111.868,7.28531 L -112.018,7.17633 L -112.075,7 L -112.075,-6.99998 L -112.018,-7.17633 L -111.868,-7.28531
 L -97.6823,-7.28531 L -97.5323,-7.17633 L -97.475,-6.99998 L -97.475,7 L -97.5323,7.17633 L -97.6823,7.28531
 z
M -92.8177,7.28531 L -92.9677,7.17633 L -93.025,7 L -93.025,-6.99998 L -92.9677,-7.17633 L -92.8177,-7.28531
 L -78.6323,-7.28531 L -78.4823,-7.17633 L -78.425,-6.99998 L -78.425,7 L -78.4823,7.17633 L -78.6323,7.28531
 z
M -73.7677,7.28531 L -73.9177,7.17633 L -73.975,7 L -73.975,-6.99998 L -73.9177,-7.17633 L -73.7677,-7.28531
 L -59.5823,-7.28531 L -59.4323,-7.17633 L -59.375,-6.99998 L -59.375,7 L -59.4323,7.17633 L -59.5823,7.28531
 z
M -35.6677,7.28531 L -35.8177,7.17633 L -35.875,7 L -35.875,-6.99998 L -35.8177,-7.17633 L -35.6677,-7.28531
 L -21.4823,-7.28531 L -21.3323,-7.17633 L -21.275,-6.99998 L -21.275,7 L -21.3323,7.17633 L -21.4823,7.28531
 z
M 2.43228,7.28531 L 2.28229,7.17633 L 2.22499,7 L 2.22499,-6.99998 L 2.28229,-7.17633 L 2.43228,-7.28531
 L 16.6177,-7.28531 L 16.7677,-7.17633 L 16.825,-6.99998 L 16.825,7 L 16.7677,7.17633 L 16.6177,7.28531
 z
M 40.5323,7.28531 L 40.3823,7.17633 L 40.325,7 L 40.325,-6.99998 L 40.3823,-7.17633 L 40.5323,-7.28531
 L 54.7177,-7.28531 L 54.8677,-7.17633 L 54.925,-6.99998 L 54.925,7 L 54.8677,7.17633 L 54.7177,7.28531
 z
M 59.5823,7.28531 L 59.4323,7.17633 L 59.375,7 L 59.375,-6.99998 L 59.4323,-7.17633 L 59.5823,-7.28531
 L 73.7677,-7.28531 L 73.9177,-7.17633 L 73.975,-6.99998 L 73.975,7 L 73.9177,7.17633 L 73.7677,7.28531
 z
M 97.6823,7.28531 L 97.5323,7.17633 L 97.475,7 L 97.475,-6.99998 L 97.5323,-7.17633 L 97.6823,-7.28531
 L 111.868,-7.28531 L 112.018,-7.17633 L 112.075,-6.99998 L 112.075,7 L 112.018,7.17633 L 111.868,7.28531
 z
M 116.732,7.28531 L 116.582,7.17633 L 116.525,7 L 116.525,-6.99998 L 116.582,-7.17633 L 116.732,-7.28531
 L 130.918,-7.28531 L 131.068,-7.17633 L 131.125,-6.99998 L 131.125,7 L 131.068,7.17633 L 130.918,7.28531
 z
M 78.6323,7.28531 L 78.4823,7.17633 L 78.425,7 L 78.425,-6.99998 L 78.4823,-7.17633 L 78.6323,-7.28531
 L 92.8177,-7.28531 L 92.9677,-7.17633 L 93.025,-6.99998 L 93.025,7 L 92.9677,7.17633 L 92.8177,7.28531
 z
M -16.6177,7.28531 L -16.7677,7.17633 L -16.825,7 L -16.825,-6.99998 L -16.7677,-7.17633 L -16.6177,-7.28531
 L -2.43228,-7.28531 L -2.28229,-7.17633 L -2.22499,-6.99998 L -2.22499,7 L -2.28229,7.17633 L -2.43228,7.28531
 z
M -130.918,26.3353 L -131.068,26.2263 L -131.125,26.05 L -131.125,12.05 L -131.068,11.8737 L -130.918,11.7647
 L -116.732,11.7647 L -116.582,11.8737 L -116.525,12.05 L -116.525,26.05 L -116.582,26.2263 L -116.732,26.3353
 z
M -111.868,26.3353 L -112.018,26.2263 L -112.075,26.05 L -112.075,12.05 L -112.018,11.8737 L -111.868,11.7647
 L -97.6823,11.7647 L -97.5323,11.8737 L -97.475,12.05 L -97.475,26.05 L -97.5323,26.2263 L -97.6823,26.3353
 z
M -92.8177,26.3353 L -92.9677,26.2263 L -93.025,26.05 L -93.025,12.05 L -92.9677,11.8737 L -92.8177,11.7647
 L -78.6323,11.7647 L -78.4823,11.8737 L -78.425,12.05 L -78.425,26.05 L -78.4823,26.2263 L -78.6323,26.3353
 z
M -73.7677,26.3353 L -73.9177,26.2263 L -73.975,26.05 L -73.975,12.05 L -73.9177,11.8737 L -73.7677,11.7647
 L -59.5823,11.7647 L -59.4323,11.8737 L -59.375,12.05 L -59.375,26.05 L -59.4323,26.2263 L -59.5823,26.3353
 z
M -54.7177,26.3353 L -54.8677,26.2263 L -54.925,26.05 L -54.925,12.05 L -54.8677,11.8737 L -54.7177,11.7647
 L -40.5323,11.7647 L -40.3823,11.8737 L -40.325,12.05 L -40.325,26.05 L -40.3823,26.2263 L -40.5323,26.3353
 z
M -35.6677,26.3353 L -35.8177,26.2263 L -35.875,26.05 L -35.875,12.05 L -35.8177,11.8737 L -35.6677,11.7647
 L -21.4823,11.7647 L -21.3323,11.8737 L -21.275,12.05 L -21.275,26.05 L -21.3323,26.2263 L -21.4823,26.3353
 z
M -16.6177,26.3353 L -16.7677,26.2263 L -16.825,26.05 L -16.825,12.05 L -16.7677,11.8737 L -16.6177,11.7647
 L -2.43228,11.7647 L -2.28229,11.8737 L -2.22499,12.05 L -2.22499,26.05 L -2.28229,26.2263 L -2.43228,26.3353
 z
M 21.4823,26.3353 L 21.3323,26.2263 L 21.275,26.05 L 21.275,12.05 L 21.3323,11.8737 L 21.4823,11.7647
 L 35.6677,11.7647 L 35.8177,11.8737 L 35.875,12.05 L 35.875,26.05 L 35.8177,26.2263 L 35.6677,26.3353
 z
M 59.5823,26.3353 L 59.4323,26.2263 L 59.375,26.05 L 59.375,12.05 L 59.4323,11.8737 L 59.5823,11.7647
 L 73.7677,11.7647 L 73.9177,11.8737 L 73.975,12.05 L 73.975,26.05 L 73.9177,26.2263 L 73.7677,26.3353
 z
M 78.6323,26.3353 L 78.4823,26.2263 L 78.425,26.05 L 78.425,12.05 L 78.4823,11.8737 L 78.6323,11.7647
 L 92.8177,11.7647 L 92.9677,11.8737 L 93.025,12.05 L 93.025,26.05 L 92.9677,26.2263 L 92.8177,26.3353
 z
M 97.6823,26.3353 L 97.5323,26.2263 L 97.475,26.05 L 97.475,12.05 L 97.5323,11.8737 L 97.6823,11.7647
 L 111.868,11.7647 L 112.018,11.8737 L 112.075,12.05 L 112.075,26.05 L 112.018,26.2263 L 111.868,26.3353
 z
M 116.732,26.3353 L 116.582,26.2263 L 116.525,26.05 L 116.525,12.05 L 116.582,11.8737 L 116.732,11.7647
 L 130.918,11.7647 L 131.068,11.8737 L 131.125,12.05 L 131.125,26.05 L 131.068,26.2263 L 130.918,26.3353
 z
M 40.5323,26.3353 L 40.3823,26.2263 L 40.325,26.05 L 40.325,12.05 L 40.3823,11.8737 L 40.5323,11.7647
 L 54.7177,11.7647 L 54.8677,11.8737 L 54.925,12.05 L 54.925,26.05 L 54.8677,26.2263 L 54.7177,26.3353
 z
M 2.43228,26.3353 L 2.28229,26.2263 L 2.22499,26.05 L 2.22499,12.05 L 2.28229,11.8737 L 2.43228,11.7647
 L 16.6177,11.7647 L 16.7677,11.8737 L 16.825,12.05 L 16.825,26.05 L 16.7677,26.2263 L 16.6177,26.3353
 z
M -0.324463,20.0486 L -0.849457,19.6672 L -1.04999,19.05 L -0.849457,18.4328 L -0.324463,18.0514 L 0.324463,18.0514
 L 0.849457,18.4328 L 1.04999,19.05 L 0.849457,19.6672 L 0.324463,20.0486 z
M -35.6677,45.3853 L -35.8177,45.2763 L -35.875,45.1 L -35.875,31.1 L -35.8177,30.9237 L -35.6677,30.8147
 L -21.4823,30.8147 L -21.3323,30.9237 L -21.275,31.1 L -21.275,45.1 L -21.3323,45.2763 L -21.4823,45.3853
 z
M -111.868,45.3853 L -112.018,45.2763 L -112.075,45.1 L -112.075,31.1 L -112.018,30.9237 L -111.868,30.8147
 L -97.6823,30.8147 L -97.5323,30.9237 L -97.475,31.1 L -97.475,45.1 L -97.5323,45.2763 L -97.6823,45.3853
 z
M 97.6823,45.3853 L 97.5323,45.2763 L 97.475,45.1 L 97.475,31.1 L 97.5323,30.9237 L 97.6823,30.8147
 L 111.868,30.8147 L 112.018,30.9237 L 112.075,31.1 L 112.075,45.1 L 112.018,45.2763 L 111.868,45.3853
 z
M 78.6323,45.3853 L 78.4823,45.2763 L 78.425,45.1 L 78.425,31.1 L 78.4823,30.9237 L 78.6323,30.8147
 L 92.8177,30.8147 L 92.9677,30.9237 L 93.025,31.1 L 93.025,45.1 L 92.9677,45.2763 L 92.8177,45.3853
 z
M 59.5823,45.3853 L 59.4323,45.2763 L 59.375,45.1 L 59.375,31.1 L 59.4323,30.9237 L 59.5823,30.8147
 L 73.7677,30.8147 L 73.9177,30.9237 L 73.975,31.1 L 73.975,45.1 L 73.9177,45.2763 L 73.7677,45.3853
 z
M 40.5323,45.3853 L 40.3823,45.2763 L 40.325,45.1 L 40.325,31.1 L 40.3823,30.9237 L 40.5323,30.8147
 L 54.7177,30.8147 L 54.8677,30.9237 L 54.925,31.1 L 54.925,45.1 L 54.8677,45.2763 L 54.7177,45.3853
 z
M 21.4823,45.3853 L 21.3323,45.2763 L 21.275,45.1 L 21.275,31.1 L 21.3323,30.9237 L 21.4823,30.8147
 L 35.6677,30.8147 L 35.8177,30.9237 L 35.875,31.1 L 35.875,45.1 L 35.8177,45.2763 L 35.6677,45.3853
 z
M -15.57,46.309 L -15.57,44.905 L -17.375,44.905 L -17.375,38.6 L -18.127,38.6 L -18.127,35.61
 L -17.375,35.61 L -17.375,31.295 L -10.625,31.295 L -10.625,32.205 L -7.29999,32.205 L -7.29999,31.1
 L -7.24269,30.9237 L -7.0927,30.8147 L 7.0927,30.8147 L 7.24269,30.9237 L 7.29999,31.1 L 7.29999,32.205
 L 10.625,32.205 L 10.625,31.295 L 17.375,31.295 L 17.375,35.61 L 18.127,35.61 L 18.127,38.6
 L 17.375,38.6 L 17.375,44.905 L 15.57,44.905 L 15.57,46.309 L 12.43,46.309 L 12.43,44.905
 L 10.625,44.905 L 10.625,43.995 L 7.29999,43.995 L 7.29999,45.1 L 7.24269,45.2763 L 7.0927,45.3853
 L -7.0927,45.3853 L -7.24269,45.2763 L -7.29999,45.1 L -7.29999,43.995 L -10.625,43.995 L -10.625,44.905
 L -12.43,44.905 L -12.43,46.309 z
M -54.7177,45.3853 L -54.8677,45.2763 L -54.925,45.1 L -54.925,31.1 L -54.8677,30.9237 L -54.7177,30.8147
 L -40.5323,30.8147 L -40.3823,30.9237 L -40.325,31.1 L -40.325,45.1 L -40.3823,45.2763 L -40.5323,45.3853
 z
M -73.7677,45.3853 L -73.9177,45.2763 L -73.975,45.1 L -73.975,31.1 L -73.9177,30.9237 L -73.7677,30.8147
 L -59.5823,30.8147 L -59.4323,30.9237 L -59.375,31.1 L -59.375,45.1 L -59.4323,45.2763 L -59.5823,45.3853
 z
M -92.8177,45.3853 L -92.9677,45.2763 L -93.025,45.1 L -93.025,31.1 L -92.9677,30.9237 L -92.8177,30.8147
 L -78.6323,30.8147 L -78.4823,30.9237 L -78.425,31.1 L -78.425,45.1 L -78.4823,45.2763 L -78.6323,45.3853
 z
M -130.918,45.3853 L -131.068,45.2763 L -131.125,45.1 L -131.125,31.1 L -131.068,30.9237 L -130.918,30.8147
 L -116.732,30.8147 L -116.582,30.9237 L -116.525,31.1 L -116.525,45.1 L -116.582,45.2763 L -116.732,45.3853
 z
M 116.732,45.3853 L 116.582,45.2763 L 116.525,45.1 L 116.525,31.1 L 116.582,30.9237 L 116.732,30.8147
 L 130.918,30.8147 L 131.068,30.9237 L 131.125,31.1 L 131.125,45.1 L 131.068,45.2763 L 130.918,45.3853
 z
M -114.624,39.0986 L -115.149,38.7172 L -115.35,38.1 L -115.149,37.4828 L -114.624,37.1014 L -113.976,37.1014
 L -113.451,37.4828 L -113.25,38.1 L -113.451,38.7172 L -113.976,39.0986 z
M 113.976,39.0986 L 113.451,38.7172 L 113.25,38.1 L 113.451,37.4828 L 113.976,37.1014 L 114.624,37.1014
 L 115.149,37.4828 L 115.35,38.1 L 115.149,38.7172 L 114.624,39.0986 z
" stroke="black" fill="lightgray" stroke-width="0.5"/></svg>
