  0
SECTION
  2
BLOCKS
  0
ENDSEC
  0
SECTION
  2
ENTITIES
  0
LINE
  8
0
 10
135.777
 20
-49.3884
 11
136.35
 21
-47.625
  0
LINE
  8
0
 10
136.35
 20
-47.625
 11
136.35
 21
47.625
  0
LINE
  8
0
 10
136.35
 20
47.625
 11
135.777
 21
49.3884
  0
LINE
  8
0
 10
135.777
 20
49.3884
 11
134.277
 21
50.4782
  0
LINE
  8
0
 10
134.277
 20
50.4782
 11
-134.277
 21
50.4782
  0
LINE
  8
0
 10
-134.277
 20
50.4782
 11
-135.777
 21
49.3884
  0
LINE
  8
0
 10
-135.777
 20
49.3884
 11
-136.35
 21
47.625
  0
LINE
  8
0
 10
-136.35
 20
47.625
 11
-136.35
 21
-47.625
  0
LINE
  8
0
 10
-136.35
 20
-47.625
 11
-135.777
 21
-49.3884
  0
LINE
  8
0
 10
-135.777
 20
-49.3884
 11
-134.277
 21
-50.4782
  0
LINE
  8
0
 10
-134.277
 20
-50.4782
 11
134.277
 21
-50.4782
  0
LINE
  8
0
 10
134.277
 20
-50.4782
 11
135.777
 21
-49.3884
  0
LINE
  8
0
 10
-111.868
 20
30.8147
 11
-112.018
 21
30.9237
  0
LINE
  8
0
 10
-112.018
 20
30.9237
 11
-112.075
 21
31.1
  0
LINE
  8
0
 10
-112.075
 20
31.1
 11
-112.075
 21
45.1
  0
LINE
  8
0
 10
-112.075
 20
45.1
 11
-112.018
 21
45.2763
  0
LINE
  8
0
 10
-112.018
 20
45.2763
 11
-111.868
 21
45.3853
  0
LINE
  8
0
 10
-111.868
 20
45.3853
 11
-97.6823
 21
45.3853
  0
LINE
  8
0
 10
-97.6823
 20
45.3853
 11
-97.5323
 21
45.2763
  0
LINE
  8
0
 10
-97.5323
 20
45.2763
 11
-97.475
 21
45.1
  0
LINE
  8
0
 10
-97.475
 20
45.1
 11
-97.475
 21
31.1
  0
LINE
  8
0
 10
-97.475
 20
31.1
 11
-97.5323
 21
30.9237
  0
LINE
  8
0
 10
-97.5323
 20
30.9237
 11
-97.6823
 21
30.8147
  0
LINE
  8
0
 10
-97.6823
 20
30.8147
 11
-111.868
 21
30.8147
  0
LINE
  8
0
 10
-92.8177
 20
30.8147
 11
-92.9677
 21
30.9237
  0
LINE
  8
0
 10
-92.9677
 20
30.9237
 11
-93.025
 21
31.1
  0
LINE
  8
0
 10
-93.025
 20
31.1
 11
-93.025
 21
45.1
  0
LINE
  8
0
 10
-93.025
 20
45.1
 11
-92.9677
 21
45.2763
  0
LINE
  8
0
 10
-92.9677
 20
45.2763
 11
-92.8177
 21
45.3853
  0
LINE
  8
0
 10
-92.8177
 20
45.3853
 11
-78.6323
 21
45.3853
  0
LINE
  8
0
 10
-78.6323
 20
45.3853
 11
-78.4823
 21
45.2763
  0
LINE
  8
0
 10
-78.4823
 20
45.2763
 11
-78.425
 21
45.1
  0
LINE
  8
0
 10
-78.425
 20
45.1
 11
-78.425
 21
31.1
  0
LINE
  8
0
 10
-78.425
 20
31.1
 11
-78.4823
 21
30.9237
  0
LINE
  8
0
 10
-78.4823
 20
30.9237
 11
-78.6323
 21
30.8147
  0
LINE
  8
0
 10
-78.6323
 20
30.8147
 11
-92.8177
 21
30.8147
  0
LINE
  8
0
 10
-73.7677
 20
30.8147
 11
-73.9177
 21
30.9237
  0
LINE
  8
0
 10
-73.9177
 20
30.9237
 11
-73.975
 21
31.1
  0
LINE
  8
0
 10
-73.975
 20
31.1
 11
-73.975
 21
45.1
  0
LINE
  8
0
 10
-73.975
 20
45.1
 11
-73.9177
 21
45.2763
  0
LINE
  8
0
 10
-73.9177
 20
45.2763
 11
-73.7677
 21
45.3853
  0
LINE
  8
0
 10
-73.7677
 20
45.3853
 11
-59.5823
 21
45.3853
  0
LINE
  8
0
 10
-59.5823
 20
45.3853
 11
-59.4323
 21
45.2763
  0
LINE
  8
0
 10
-59.4323
 20
45.2763
 11
-59.375
 21
45.1
  0
LINE
  8
0
 10
-59.375
 20
45.1
 11
-59.375
 21
31.1
  0
LINE
  8
0
 10
-59.375
 20
31.1
 11
-59.4323
 21
30.9237
  0
LINE
  8
0
 10
-59.4323
 20
30.9237
 11
-59.5823
 21
30.8147
  0
LINE
  8
0
 10
-59.5823
 20
30.8147
 11
-73.7677
 21
30.8147
  0
LINE
  8
0
 10
-54.7177
 20
30.8147
 11
-54.8677
 21
30.9237
  0
LINE
  8
0
 10
-54.8677
 20
30.9237
 11
-54.925
 21
31.1
  0
LINE
  8
0
 10
-54.925
 20
31.1
 11
-54.925
 21
45.1
  0
LINE
  8
0
 10
-54.925
 20
45.1
 11
-54.8677
 21
45.2763
  0
LINE
  8
0
 10
-54.8677
 20
45.2763
 11
-54.7177
 21
45.3853
  0
LINE
  8
0
 10
-54.7177
 20
45.3853
 11
-40.5323
 21
45.3853
  0
LINE
  8
0
 10
-40.5323
 20
45.3853
 11
-40.3823
 21
45.2763
  0
LINE
  8
0
 10
-40.3823
 20
45.2763
 11
-40.325
 21
45.1
  0
LINE
  8
0
 10
-40.325
 20
45.1
 11
-40.325
 21
31.1
  0
LINE
  8
0
 10
-40.325
 20
31.1
 11
-40.3823
 21
30.9237
  0
LINE
  8
0
 10
-40.3823
 20
30.9237
 11
-40.5323
 21
30.8147
  0
LINE
  8
0
 10
-40.5323
 20
30.8147
 11
-54.7177
 21
30.8147
  0
LINE
  8
0
 10
-35.6677
 20
30.8147
 11
-35.8177
 21
30.9237
  0
LINE
  8
0
 10
-35.8177
 20
30.9237
 11
-35.875
 21
31.1
  0
LINE
  8
0
 10
-35.875
 20
31.1
 11
-35.875
 21
45.1
  0
LINE
  8
0
 10
-35.875
 20
45.1
 11
-35.8177
 21
45.2763
  0
LINE
  8
0
 10
-35.8177
 20
45.2763
 11
-35.6677
 21
45.3853
  0
LINE
  8
0
 10
-35.6677
 20
45.3853
 11
-21.4823
 21
45.3853
  0
LINE
  8
0
 10
-21.4823
 20
45.3853
 11
-21.3323
 21
45.2763
  0
LINE
  8
0
 10
-21.3323
 20
45.2763
 11
-21.275
 21
45.1
  0
LINE
  8
0
 10
-21.275
 20
45.1
 11
-21.275
 21
31.1
  0
LINE
  8
0
 10
-21.275
 20
31.1
 11
-21.3323
 21
30.9237
  0
LINE
  8
0
 10
-21.3323
 20
30.9237
 11
-21.4823
 21
30.8147
  0
LINE
  8
0
 10
-21.4823
 20
30.8147
 11
-35.6677
 21
30.8147
  0
LINE
  8
0
 10
-16.6177
 20
30.8147
 11
-16.7677
 21
30.9237
  0
LINE
  8
0
 10
-16.7677
 20
30.9237
 11
-16.825
 21
31.1
  0
LINE
  8
0
 10
-16.825
 20
31.1
 11
-16.825
 21
45.1
  0
LINE
  8
0
 10
-16.825
 20
45.1
 11
-16.7677
 21
45.2763
  0
LINE
  8
0
 10
-16.7677
 20
45.2763
 11
-16.6177
 21
45.3853
  0
LINE
  8
0
 10
-16.6177
 20
45.3853
 11
-2.43228
 21
45.3853
  0
LINE
  8
0
 10
-2.43228
 20
45.3853
 11
-2.28229
 21
45.2763
  0
LINE
  8
0
 10
-2.28229
 20
45.2763
 11
-2.22499
 21
45.1
  0
LINE
  8
0
 10
-2.22499
 20
45.1
 11
-2.22499
 21
31.1
  0
LINE
  8
0
 10
-2.22499
 20
31.1
 11
-2.28229
 21
30.9237
  0
LINE
  8
0
 10
-2.28229
 20
30.9237
 11
-2.43228
 21
30.8147
  0
LINE
  8
0
 10
-2.43228
 20
30.8147
 11
-16.6177
 21
30.8147
  0
LINE
  8
0
 10
2.43228
 20
30.8147
 11
2.28229
 21
30.9237
  0
LINE
  8
0
 10
2.28229
 20
30.9237
 11
2.22499
 21
31.1
  0
LINE
  8
0
 10
2.22499
 20
31.1
 11
2.22499
 21
45.1
  0
LINE
  8
0
 10
2.22499
 20
45.1
 11
2.28229
 21
45.2763
  0
LINE
  8
0
 10
2.28229
 20
45.2763
 11
2.43228
 21
45.3853
  0
LINE
  8
0
 10
2.43228
 20
45.3853
 11
16.6177
 21
45.3853
  0
LINE
  8
0
 10
16.6177
 20
45.3853
 11
16.7677
 21
45.2763
  0
LINE
  8
0
 10
16.7677
 20
45.2763
 11
16.825
 21
45.1
  0
LINE
  8
0
 10
16.825
 20
45.1
 11
16.825
 21
31.1
  0
LINE
  8
0
 10
16.825
 20
31.1
 11
16.7677
 21
30.9237
  0
LINE
  8
0
 10
16.7677
 20
30.9237
 11
16.6177
 21
30.8147
  0
LINE
  8
0
 10
16.6177
 20
30.8147
 11
2.43228
 21
30.8147
  0
LINE
  8
0
 10
40.5323
 20
30.8147
 11
40.3823
 21
30.9237
  0
LINE
  8
0
 10
40.3823
 20
30.9237
 11
40.325
 21
31.1
  0
LINE
  8
0
 10
40.325
 20
31.1
 11
40.325
 21
45.1
  0
LINE
  8
0
 10
40.325
 20
45.1
 11
40.3823
 21
45.2763
  0
LINE
  8
0
 10
40.3823
 20
45.2763
 11
40.5323
 21
45.3853
  0
LINE
  8
0
 10
40.5323
 20
45.3853
 11
54.7177
 21
45.3853
  0
LINE
  8
0
 10
54.7177
 20
45.3853
 11
54.8677
 21
45.2763
  0
LINE
  8
0
 10
54.8677
 20
45.2763
 11
54.925
 21
45.1
  0
LINE
  8
0
 10
54.925
 20
45.1
 11
54.925
 21
31.1
  0
LINE
  8
0
 10
54.925
 20
31.1
 11
54.8677
 21
30.9237
  0
LINE
  8
0
 10
54.8677
 20
30.9237
 11
54.7177
 21
30.8147
  0
LINE
  8
0
 10
54.7177
 20
30.8147
 11
40.5323
 21
30.8147
  0
LINE
  8
0
 10
59.5823
 20
30.8147
 11
59.4323
 21
30.9237
  0
LINE
  8
0
 10
59.4323
 20
30.9237
 11
59.375
 21
31.1
  0
LINE
  8
0
 10
59.375
 20
31.1
 11
59.375
 21
45.1
  0
LINE
  8
0
 10
59.375
 20
45.1
 11
59.4323
 21
45.2763
  0
LINE
  8
0
 10
59.4323
 20
45.2763
 11
59.5823
 21
45.3853
  0
LINE
  8
0
 10
59.5823
 20
45.3853
 11
73.7677
 21
45.3853
  0
LINE
  8
0
 10
73.7677
 20
45.3853
 11
73.9177
 21
45.2763
  0
LINE
  8
0
 10
73.9177
 20
45.2763
 11
73.975
 21
45.1
  0
LINE
  8
0
 10
73.975
 20
45.1
 11
73.975
 21
31.1
  0
LINE
  8
0
 10
73.975
 20
31.1
 11
73.9177
 21
30.9237
  0
LINE
  8
0
 10
73.9177
 20
30.9237
 11
73.7677
 21
30.8147
  0
LINE
  8
0
 10
73.7677
 20
30.8147
 11
59.5823
 21
30.8147
  0
LINE
  8
0
 10
78.6323
 20
30.8147
 11
78.4823
 21
30.9237
  0
LINE
  8
0
 10
78.4823
 20
30.9237
 11
78.425
 21
31.1
  0
LINE
  8
0
 10
78.425
 20
31.1
 11
78.425
 21
45.1
  0
LINE
  8
0
 10
78.425
 20
45.1
 11
78.4823
 21
45.2763
  0
LINE
  8
0
 10
78.4823
 20
45.2763
 11
78.6323
 21
45.3853
  0
LINE
  8
0
 10
78.6323
 20
45.3853
 11
92.8177
 21
45.3853
  0
LINE
  8
0
 10
92.8177
 20
45.3853
 11
92.9677
 21
45.2763
  0
LINE
  8
0
 10
92.9677
 20
45.2763
 11
93.025
 21
45.1
  0
LINE
  8
0
 10
93.025
 20
45.1
 11
93.025
 21
31.1
  0
LINE
  8
0
 10
93.025
 20
31.1
 11
92.9677
 21
30.9237
  0
LINE
  8
0
 10
92.9677
 20
30.9237
 11
92.8177
 21
30.8147
  0
LINE
  8
0
 10
92.8177
 20
30.8147
 11
78.6323
 21
30.8147
  0
LINE
  8
0
 10
97.6823
 20
30.8147
 11
97.5323
 21
30.9237
  0
LINE
  8
0
 10
97.5323
 20
30.9237
 11
97.475
 21
31.1
  0
LINE
  8
0
 10
97.475
 20
31.1
 11
97.475
 21
45.1
  0
LINE
  8
0
 10
97.475
 20
45.1
 11
97.5323
 21
45.2763
  0
LINE
  8
0
 10
97.5323
 20
45.2763
 11
97.6823
 21
45.3853
  0
LINE
  8
0
 10
97.6823
 20
45.3853
 11
111.868
 21
45.3853
  0
LINE
  8
0
 10
111.868
 20
45.3853
 11
112.018
 21
45.2763
  0
LINE
  8
0
 10
112.018
 20
45.2763
 11
112.075
 21
45.1
  0
LINE
  8
0
 10
112.075
 20
45.1
 11
112.075
 21
31.1
  0
LINE
  8
0
 10
112.075
 20
31.1
 11
112.018
 21
30.9237
  0
LINE
  8
0
 10
112.018
 20
30.9237
 11
111.868
 21
30.8147
  0
LINE
  8
0
 10
111.868
 20
30.8147
 11
97.6823
 21
30.8147
  0
LINE
  8
0
 10
116.732
 20
30.8147
 11
116.582
 21
30.9237
  0
LINE
  8
0
 10
116.582
 20
30.9237
 11
116.525
 21
31.1
  0
LINE
  8
0
 10
116.525
 20
31.1
 11
116.525
 21
45.1
  0
LINE
  8
0
 10
116.525
 20
45.1
 11
116.582
 21
45.2763
  0
LINE
  8
0
 10
116.582
 20
45.2763
 11
116.732
 21
45.3853
  0
LINE
  8
0
 10
116.732
 20
45.3853
 11
130.918
 21
45.3853
  0
LINE
  8
0
 10
130.918
 20
45.3853
 11
131.068
 21
45.2763
  0
LINE
  8
0
 10
131.068
 20
45.2763
 11
131.125
 21
45.1
  0
LINE
  8
0
 10
131.125
 20
45.1
 11
131.125
 21
31.1
  0
LINE
  8
0
 10
131.125
 20
31.1
 11
131.068
 21
30.9237
  0
LINE
  8
0
 10
131.068
 20
30.9237
 11
130.918
 21
30.8147
  0
LINE
  8
0
 10
130.918
 20
30.8147
 11
116.732
 21
30.8147
  0
LINE
  8
0
 10
-130.918
 20
30.8147
 11
-131.068
 21
30.9237
  0
LINE
  8
0
 10
-131.068
 20
30.9237
 11
-131.125
 21
31.1
  0
LINE
  8
0
 10
-131.125
 20
31.1
 11
-131.125
 21
45.1
  0
LINE
  8
0
 10
-131.125
 20
45.1
 11
-131.068
 21
45.2763
  0
LINE
  8
0
 10
-131.068
 20
45.2763
 11
-130.918
 21
45.3853
  0
LINE
  8
0
 10
-130.918
 20
45.3853
 11
-116.732
 21
45.3853
  0
LINE
  8
0
 10
-116.732
 20
45.3853
 11
-116.582
 21
45.2763
  0
LINE
  8
0
 10
-116.582
 20
45.2763
 11
-116.525
 21
45.1
  0
LINE
  8
0
 10
-116.525
 20
45.1
 11
-116.525
 21
31.1
  0
LINE
  8
0
 10
-116.525
 20
31.1
 11
-116.582
 21
30.9237
  0
LINE
  8
0
 10
-116.582
 20
30.9237
 11
-116.732
 21
30.8147
  0
LINE
  8
0
 10
-116.732
 20
30.8147
 11
-130.918
 21
30.8147
  0
LINE
  8
0
 10
21.4823
 20
30.8147
 11
21.3323
 21
30.9237
  0
LINE
  8
0
 10
21.3323
 20
30.9237
 11
21.275
 21
31.1
  0
LINE
  8
0
 10
21.275
 20
31.1
 11
21.275
 21
45.1
  0
LINE
  8
0
 10
21.275
 20
45.1
 11
21.3323
 21
45.2763
  0
LINE
  8
0
 10
21.3323
 20
45.2763
 11
21.4823
 21
45.3853
  0
LINE
  8
0
 10
21.4823
 20
45.3853
 11
35.6677
 21
45.3853
  0
LINE
  8
0
 10
35.6677
 20
45.3853
 11
35.8177
 21
45.2763
  0
LINE
  8
0
 10
35.8177
 20
45.2763
 11
35.875
 21
45.1
  0
LINE
  8
0
 10
35.875
 20
45.1
 11
35.875
 21
31.1
  0
LINE
  8
0
 10
35.875
 20
31.1
 11
35.8177
 21
30.9237
  0
LINE
  8
0
 10
35.8177
 20
30.9237
 11
35.6677
 21
30.8147
  0
LINE
  8
0
 10
35.6677
 20
30.8147
 11
21.4823
 21
30.8147
  0
LINE
  8
0
 10
-114.624
 20
37.1014
 11
-115.149
 21
37.4828
  0
LINE
  8
0
 10
-115.149
 20
37.4828
 11
-115.35
 21
38.1
  0
LINE
  8
0
 10
-115.35
 20
38.1
 11
-115.149
 21
38.7172
  0
LINE
  8
0
 10
-115.149
 20
38.7172
 11
-114.624
 21
39.0986
  0
LINE
  8
0
 10
-114.624
 20
39.0986
 11
-113.976
 21
39.0986
  0
LINE
  8
0
 10
-113.976
 20
39.0986
 11
-113.451
 21
38.7172
  0
LINE
  8
0
 10
-113.451
 20
38.7172
 11
-113.25
 21
38.1
  0
LINE
  8
0
 10
-113.25
 20
38.1
 11
-113.451
 21
37.4828
  0
LINE
  8
0
 10
-113.451
 20
37.4828
 11
-113.976
 21
37.1014
  0
LINE
  8
0
 10
-113.976
 20
37.1014
 11
-114.624
 21
37.1014
  0
LINE
  8
0
 10
113.976
 20
37.1014
 11
113.451
 21
37.4828
  0
LINE
  8
0
 10
113.451
 20
37.4828
 11
113.25
 21
38.1
  0
LINE
  8
0
 10
113.25
 20
38.1
 11
113.451
 21
38.7172
  0
LINE
  8
0
 10
113.451
 20
38.7172
 11
113.976
 21
39.0986
  0
LINE
  8
0
 10
113.976
 20
39.0986
 11
114.624
 21
39.0986
  0
LINE
  8
0
 10
114.624
 20
39.0986
 11
115.149
 21
38.7172
  0
LINE
  8
0
 10
115.149
 20
38.7172
 11
115.35
 21
38.1
  0
LINE
  8
0
 10
115.35
 20
38.1
 11
115.149
 21
37.4828
  0
LINE
  8
0
 10
115.149
 20
37.4828
 11
114.624
 21
37.1014
  0
LINE
  8
0
 10
114.624
 20
37.1014
 11
113.976
 21
37.1014
  0
LINE
  8
0
 10
-0.324463
 20
37.1014
 11
-0.849457
 21
37.4828
  0
LINE
  8
0
 10
-0.849457
 20
37.4828
 11
-1.04999
 21
38.1
  0
LINE
  8
0
 10
-1.04999
 20
38.1
 11
-0.849457
 21
38.7172
  0
LINE
  8
0
 10
-0.849457
 20
38.7172
 11
-0.324463
 21
39.0986
  0
LINE
  8
0
 10
-0.324463
 20
39.0986
 11
0.324463
 21
39.0986
  0
LINE
  8
0
 10
0.324463
 20
39.0986
 11
0.849457
 21
38.7172
  0
LINE
  8
0
 10
0.849457
 20
38.7172
 11
1.04999
 21
38.1
  0
LINE
  8
0
 10
1.04999
 20
38.1
 11
0.849457
 21
37.4828
  0
LINE
  8
0
 10
0.849457
 20
37.4828
 11
0.324463
 21
37.1014
  0
LINE
  8
0
 10
0.324463
 20
37.1014
 11
-0.324463
 21
37.1014
  0
LINE
  8
0
 10
116.732
 20
11.7647
 11
116.582
 21
11.8737
  0
LINE
  8
0
 10
116.582
 20
11.8737
 11
116.525
 21
12.05
  0
LINE
  8
0
 10
116.525
 20
12.05
 11
116.525
 21
26.05
  0
LINE
  8
0
 10
116.525
 20
26.05
 11
116.582
 21
26.2263
  0
LINE
  8
0
 10
116.582
 20
26.2263
 11
116.732
 21
26.3353
  0
LINE
  8
0
 10
116.732
 20
26.3353
 11
130.918
 21
26.3353
  0
LINE
  8
0
 10
130.918
 20
26.3353
 11
131.068
 21
26.2263
  0
LINE
  8
0
 10
131.068
 20
26.2263
 11
131.125
 21
26.05
  0
LINE
  8
0
 10
131.125
 20
26.05
 11
131.125
 21
12.05
  0
LINE
  8
0
 10
131.125
 20
12.05
 11
131.068
 21
11.8737
  0
LINE
  8
0
 10
131.068
 20
11.8737
 11
130.918
 21
11.7647
  0
LINE
  8
0
 10
130.918
 20
11.7647
 11
116.732
 21
11.7647
  0
LINE
  8
0
 10
-130.918
 20
11.7647
 11
-131.068
 21
11.8737
  0
LINE
  8
0
 10
-131.068
 20
11.8737
 11
-131.125
 21
12.05
  0
LINE
  8
0
 10
-131.125
 20
12.05
 11
-131.125
 21
26.05
  0
LINE
  8
0
 10
-131.125
 20
26.05
 11
-131.068
 21
26.2263
  0
LINE
  8
0
 10
-131.068
 20
26.2263
 11
-130.918
 21
26.3353
  0
LINE
  8
0
 10
-130.918
 20
26.3353
 11
-116.732
 21
26.3353
  0
LINE
  8
0
 10
-116.732
 20
26.3353
 11
-116.582
 21
26.2263
  0
LINE
  8
0
 10
-116.582
 20
26.2263
 11
-116.525
 21
26.05
  0
LINE
  8
0
 10
-116.525
 20
26.05
 11
-116.525
 21
12.05
  0
LINE
  8
0
 10
-116.525
 20
12.05
 11
-116.582
 21
11.8737
  0
LINE
  8
0
 10
-116.582
 20
11.8737
 11
-116.732
 21
11.7647
  0
LINE
  8
0
 10
-116.732
 20
11.7647
 11
-130.918
 21
11.7647
  0
LINE
  8
0
 10
-111.868
 20
11.7647
 11
-112.018
 21
11.8737
  0
LINE
  8
0
 10
-112.018
 20
11.8737
 11
-112.075
 21
12.05
  0
LINE
  8
0
 10
-112.075
 20
12.05
 11
-112.075
 21
26.05
  0
LINE
  8
0
 10
-112.075
 20
26.05
 11
-112.018
 21
26.2263
  0
LINE
  8
0
 10
-112.018
 20
26.2263
 11
-111.868
 21
26.3353
  0
LINE
  8
0
 10
-111.868
 20
26.3353
 11
-97.6823
 21
26.3353
  0
LINE
  8
0
 10
-97.6823
 20
26.3353
 11
-97.5323
 21
26.2263
  0
LINE
  8
0
 10
-97.5323
 20
26.2263
 11
-97.475
 21
26.05
  0
LINE
  8
0
 10
-97.475
 20
26.05
 11
-97.475
 21
12.05
  0
LINE
  8
0
 10
-97.475
 20
12.05
 11
-97.5323
 21
11.8737
  0
LINE
  8
0
 10
-97.5323
 20
11.8737
 11
-97.6823
 21
11.7647
  0
LINE
  8
0
 10
-97.6823
 20
11.7647
 11
-111.868
 21
11.7647
  0
LINE
  8
0
 10
-92.8177
 20
11.7647
 11
-92.9677
 21
11.8737
  0
LINE
  8
0
 10
-92.9677
 20
11.8737
 11
-93.025
 21
12.05
  0
LINE
  8
0
 10
-93.025
 20
12.05
 11
-93.025
 21
26.05
  0
LINE
  8
0
 10
-93.025
 20
26.05
 11
-92.9677
 21
26.2263
  0
LINE
  8
0
 10
-92.9677
 20
26.2263
 11
-92.8177
 21
26.3353
  0
LINE
  8
0
 10
-92.8177
 20
26.3353
 11
-78.6323
 21
26.3353
  0
LINE
  8
0
 10
-78.6323
 20
26.3353
 11
-78.4823
 21
26.2263
  0
LINE
  8
0
 10
-78.4823
 20
26.2263
 11
-78.425
 21
26.05
  0
LINE
  8
0
 10
-78.425
 20
26.05
 11
-78.425
 21
12.05
  0
LINE
  8
0
 10
-78.425
 20
12.05
 11
-78.4823
 21
11.8737
  0
LINE
  8
0
 10
-78.4823
 20
11.8737
 11
-78.6323
 21
11.7647
  0
LINE
  8
0
 10
-78.6323
 20
11.7647
 11
-92.8177
 21
11.7647
  0
LINE
  8
0
 10
-73.7677
 20
11.7647
 11
-73.9177
 21
11.8737
  0
LINE
  8
0
 10
-73.9177
 20
11.8737
 11
-73.975
 21
12.05
  0
LINE
  8
0
 10
-73.975
 20
12.05
 11
-73.975
 21
26.05
  0
LINE
  8
0
 10
-73.975
 20
26.05
 11
-73.9177
 21
26.2263
  0
LINE
  8
0
 10
-73.9177
 20
26.2263
 11
-73.7677
 21
26.3353
  0
LINE
  8
0
 10
-73.7677
 20
26.3353
 11
-59.5823
 21
26.3353
  0
LINE
  8
0
 10
-59.5823
 20
26.3353
 11
-59.4323
 21
26.2263
  0
LINE
  8
0
 10
-59.4323
 20
26.2263
 11
-59.375
 21
26.05
  0
LINE
  8
0
 10
-59.375
 20
26.05
 11
-59.375
 21
12.05
  0
LINE
  8
0
 10
-59.375
 20
12.05
 11
-59.4323
 21
11.8737
  0
LINE
  8
0
 10
-59.4323
 20
11.8737
 11
-59.5823
 21
11.7647
  0
LINE
  8
0
 10
-59.5823
 20
11.7647
 11
-73.7677
 21
11.7647
  0
LINE
  8
0
 10
-35.6677
 20
11.7647
 11
-35.8177
 21
11.8737
  0
LINE
  8
0
 10
-35.8177
 20
11.8737
 11
-35.875
 21
12.05
  0
LINE
  8
0
 10
-35.875
 20
12.05
 11
-35.875
 21
26.05
  0
LINE
  8
0
 10
-35.875
 20
26.05
 11
-35.8177
 21
26.2263
  0
LINE
  8
0
 10
-35.8177
 20
26.2263
 11
-35.6677
 21
26.3353
  0
LINE
  8
0
 10
-35.6677
 20
26.3353
 11
-21.4823
 21
26.3353
  0
LINE
  8
0
 10
-21.4823
 20
26.3353
 11
-21.3323
 21
26.2263
  0
LINE
  8
0
 10
-21.3323
 20
26.2263
 11
-21.275
 21
26.05
  0
LINE
  8
0
 10
-21.275
 20
26.05
 11
-21.275
 21
12.05
  0
LINE
  8
0
 10
-21.275
 20
12.05
 11
-21.3323
 21
11.8737
  0
LINE
  8
0
 10
-21.3323
 20
11.8737
 11
-21.4823
 21
11.7647
  0
LINE
  8
0
 10
-21.4823
 20
11.7647
 11
-35.6677
 21
11.7647
  0
LINE
  8
0
 10
-16.6177
 20
11.7647
 11
-16.7677
 21
11.8737
  0
LINE
  8
0
 10
-16.7677
 20
11.8737
 11
-16.825
 21
12.05
  0
LINE
  8
0
 10
-16.825
 20
12.05
 11
-16.825
 21
26.05
  0
LINE
  8
0
 10
-16.825
 20
26.05
 11
-16.7677
 21
26.2263
  0
LINE
  8
0
 10
-16.7677
 20
26.2263
 11
-16.6177
 21
26.3353
  0
LINE
  8
0
 10
-16.6177
 20
26.3353
 11
-2.43228
 21
26.3353
  0
LINE
  8
0
 10
-2.43228
 20
26.3353
 11
-2.28229
 21
26.2263
  0
LINE
  8
0
 10
-2.28229
 20
26.2263
 11
-2.22499
 21
26.05
  0
LINE
  8
0
 10
-2.22499
 20
26.05
 11
-2.22499
 21
12.05
  0
LINE
  8
0
 10
-2.22499
 20
12.05
 11
-2.28229
 21
11.8737
  0
LINE
  8
0
 10
-2.28229
 20
11.8737
 11
-2.43228
 21
11.7647
  0
LINE
  8
0
 10
-2.43228
 20
11.7647
 11
-16.6177
 21
11.7647
  0
LINE
  8
0
 10
2.43228
 20
11.7647
 11
2.28229
 21
11.8737
  0
LINE
  8
0
 10
2.28229
 20
11.8737
 11
2.22499
 21
12.05
  0
LINE
  8
0
 10
2.22499
 20
12.05
 11
2.22499
 21
26.05
  0
LINE
  8
0
 10
2.22499
 20
26.05
 11
2.28229
 21
26.2263
  0
LINE
  8
0
 10
2.28229
 20
26.2263
 11
2.43228
 21
26.3353
  0
LINE
  8
0
 10
2.43228
 20
26.3353
 11
16.6177
 21
26.3353
  0
LINE
  8
0
 10
16.6177
 20
26.3353
 11
16.7677
 21
26.2263
  0
LINE
  8
0
 10
16.7677
 20
26.2263
 11
16.825
 21
26.05
  0
LINE
  8
0
 10
16.825
 20
26.05
 11
16.825
 21
12.05
  0
LINE
  8
0
 10
16.825
 20
12.05
 11
16.7677
 21
11.8737
  0
LINE
  8
0
 10
16.7677
 20
11.8737
 11
16.6177
 21
11.7647
  0
LINE
  8
0
 10
16.6177
 20
11.7647
 11
2.43228
 21
11.7647
  0
LINE
  8
0
 10
21.4823
 20
11.7647
 11
21.3323
 21
11.8737
  0
LINE
  8
0
 10
21.3323
 20
11.8737
 11
21.275
 21
12.05
  0
LINE
  8
0
 10
21.275
 20
12.05
 11
21.275
 21
26.05
  0
LINE
  8
0
 10
21.275
 20
26.05
 11
21.3323
 21
26.2263
  0
LINE
  8
0
 10
21.3323
 20
26.2263
 11
21.4823
 21
26.3353
  0
LINE
  8
0
 10
21.4823
 20
26.3353
 11
35.6677
 21
26.3353
  0
LINE
  8
0
 10
35.6677
 20
26.3353
 11
35.8177
 21
26.2263
  0
LINE
  8
0
 10
35.8177
 20
26.2263
 11
35.875
 21
26.05
  0
LINE
  8
0
 10
35.875
 20
26.05
 11
35.875
 21
12.05
  0
LINE
  8
0
 10
35.875
 20
12.05
 11
35.8177
 21
11.8737
  0
LINE
  8
0
 10
35.8177
 20
11.8737
 11
35.6677
 21
11.7647
  0
LINE
  8
0
 10
35.6677
 20
11.7647
 11
21.4823
 21
11.7647
  0
LINE
  8
0
 10
40.5323
 20
11.7647
 11
40.3823
 21
11.8737
  0
LINE
  8
0
 10
40.3823
 20
11.8737
 11
40.325
 21
12.05
  0
LINE
  8
0
 10
40.325
 20
12.05
 11
40.325
 21
26.05
  0
LINE
  8
0
 10
40.325
 20
26.05
 11
40.3823
 21
26.2263
  0
LINE
  8
0
 10
40.3823
 20
26.2263
 11
40.5323
 21
26.3353
  0
LINE
  8
0
 10
40.5323
 20
26.3353
 11
54.7177
 21
26.3353
  0
LINE
  8
0
 10
54.7177
 20
26.3353
 11
54.8677
 21
26.2263
  0
LINE
  8
0
 10
54.8677
 20
26.2263
 11
54.925
 21
26.05
  0
LINE
  8
0
 10
54.925
 20
26.05
 11
54.925
 21
12.05
  0
LINE
  8
0
 10
54.925
 20
12.05
 11
54.8677
 21
11.8737
  0
LINE
  8
0
 10
54.8677
 20
11.8737
 11
54.7177
 21
11.7647
  0
LINE
  8
0
 10
54.7177
 20
11.7647
 11
40.5323
 21
11.7647
  0
LINE
  8
0
 10
59.5823
 20
11.7647
 11
59.4323
 21
11.8737
  0
LINE
  8
0
 10
59.4323
 20
11.8737
 11
59.375
 21
12.05
  0
LINE
  8
0
 10
59.375
 20
12.05
 11
59.375
 21
26.05
  0
LINE
  8
0
 10
59.375
 20
26.05
 11
59.4323
 21
26.2263
  0
LINE
  8
0
 10
59.4323
 20
26.2263
 11
59.5823
 21
26.3353
  0
LINE
  8
0
 10
59.5823
 20
26.3353
 11
73.7677
 21
26.3353
  0
LINE
  8
0
 10
73.7677
 20
26.3353
 11
73.9177
 21
26.2263
  0
LINE
  8
0
 10
73.9177
 20
26.2263
 11
73.975
 21
26.05
  0
LINE
  8
0
 10
73.975
 20
26.05
 11
73.975
 21
12.05
  0
LINE
  8
0
 10
73.975
 20
12.05
 11
73.9177
 21
11.8737
  0
LINE
  8
0
 10
73.9177
 20
11.8737
 11
73.7677
 21
11.7647
  0
LINE
  8
0
 10
73.7677
 20
11.7647
 11
59.5823
 21
11.7647
  0
LINE
  8
0
 10
78.6323
 20
11.7647
 11
78.4823
 21
11.8737
  0
LINE
  8
0
 10
78.4823
 20
11.8737
 11
78.425
 21
12.05
  0
LINE
  8
0
 10
78.425
 20
12.05
 11
78.425
 21
26.05
  0
LINE
  8
0
 10
78.425
 20
26.05
 11
78.4823
 21
26.2263
  0
LINE
  8
0
 10
78.4823
 20
26.2263
 11
78.6323
 21
26.3353
  0
LINE
  8
0
 10
78.6323
 20
26.3353
 11
92.8177
 21
26.3353
  0
LINE
  8
0
 10
92.8177
 20
26.3353
 11
92.9677
 21
26.2263
  0
LINE
  8
0
 10
92.9677
 20
26.2263
 11
93.025
 21
26.05
  0
LINE
  8
0
 10
93.025
 20
26.05
 11
93.025
 21
12.05
  0
LINE
  8
0
 10
93.025
 20
12.05
 11
92.9677
 21
11.8737
  0
LINE
  8
0
 10
92.9677
 20
11.8737
 11
92.8177
 21
11.7647
  0
LINE
  8
0
 10
92.8177
 20
11.7647
 11
78.6323
 21
11.7647
  0
LINE
  8
0
 10
97.6823
 20
11.7647
 11
97.5323
 21
11.8737
  0
LINE
  8
0
 10
97.5323
 20
11.8737
 11
97.475
 21
12.05
  0
LINE
  8
0
 10
97.475
 20
12.05
 11
97.475
 21
26.05
  0
LINE
  8
0
 10
97.475
 20
26.05
 11
97.5323
 21
26.2263
  0
LINE
  8
0
 10
97.5323
 20
26.2263
 11
97.6823
 21
26.3353
  0
LINE
  8
0
 10
97.6823
 20
26.3353
 11
111.868
 21
26.3353
  0
LINE
  8
0
 10
111.868
 20
26.3353
 11
112.018
 21
26.2263
  0
LINE
  8
0
 10
112.018
 20
26.2263
 11
112.075
 21
26.05
  0
LINE
  8
0
 10
112.075
 20
26.05
 11
112.075
 21
12.05
  0
LINE
  8
0
 10
112.075
 20
12.05
 11
112.018
 21
11.8737
  0
LINE
  8
0
 10
112.018
 20
11.8737
 11
111.868
 21
11.7647
  0
LINE
  8
0
 10
111.868
 20
11.7647
 11
97.6823
 21
11.7647
  0
LINE
  8
0
 10
-54.7177
 20
11.7647
 11
-54.8677
 21
11.8737
  0
LINE
  8
0
 10
-54.8677
 20
11.8737
 11
-54.925
 21
12.05
  0
LINE
  8
0
 10
-54.925
 20
12.05
 11
-54.925
 21
26.05
  0
LINE
  8
0
 10
-54.925
 20
26.05
 11
-54.8677
 21
26.2263
  0
LINE
  8
0
 10
-54.8677
 20
26.2263
 11
-54.7177
 21
26.3353
  0
LINE
  8
0
 10
-54.7177
 20
26.3353
 11
-40.5323
 21
26.3353
  0
LINE
  8
0
 10
-40.5323
 20
26.3353
 11
-40.3823
 21
26.2263
  0
LINE
  8
0
 10
-40.3823
 20
26.2263
 11
-40.325
 21
26.05
  0
LINE
  8
0
 10
-40.325
 20
26.05
 11
-40.325
 21
12.05
  0
LINE
  8
0
 10
-40.325
 20
12.05
 11
-40.3823
 21
11.8737
  0
LINE
  8
0
 10
-40.3823
 20
11.8737
 11
-40.5323
 21
11.7647
  0
LINE
  8
0
 10
-40.5323
 20
11.7647
 11
-54.7177
 21
11.7647
  0
LINE
  8
0
 10
-54.7177
 20
-7.28531
 11
-54.8677
 21
-7.17633
  0
LINE
  8
0
 10
-54.8677
 20
-7.17633
 11
-54.925
 21
-7
  0
LINE
  8
0
 10
-54.925
 20
-7
 11
-54.925
 21
6.99998
  0
LINE
  8
0
 10
-54.925
 20
6.99998
 11
-54.8677
 21
7.17633
  0
LINE
  8
0
 10
-54.8677
 20
7.17633
 11
-54.7177
 21
7.28531
  0
LINE
  8
0
 10
-54.7177
 20
7.28531
 11
-40.5323
 21
7.28531
  0
LINE
  8
0
 10
-40.5323
 20
7.28531
 11
-40.3823
 21
7.17633
  0
LINE
  8
0
 10
-40.3823
 20
7.17633
 11
-40.325
 21
6.99998
  0
LINE
  8
0
 10
-40.325
 20
6.99998
 11
-40.325
 21
-7
  0
LINE
  8
0
 10
-40.325
 20
-7
 11
-40.3823
 21
-7.17633
  0
LINE
  8
0
 10
-40.3823
 20
-7.17633
 11
-40.5323
 21
-7.28531
  0
LINE
  8
0
 10
-40.5323
 20
-7.28531
 11
-54.7177
 21
-7.28531
  0
LINE
  8
0
 10
21.4823
 20
-7.28531
 11
21.3323
 21
-7.17633
  0
LINE
  8
0
 10
21.3323
 20
-7.17633
 11
21.275
 21
-7
  0
LINE
  8
0
 10
21.275
 20
-7
 11
21.275
 21
6.99998
  0
LINE
  8
0
 10
21.275
 20
6.99998
 11
21.3323
 21
7.17633
  0
LINE
  8
0
 10
21.3323
 20
7.17633
 11
21.4823
 21
7.28531
  0
LINE
  8
0
 10
21.4823
 20
7.28531
 11
35.6677
 21
7.28531
  0
LINE
  8
0
 10
35.6677
 20
7.28531
 11
35.8177
 21
7.17633
  0
LINE
  8
0
 10
35.8177
 20
7.17633
 11
35.875
 21
6.99998
  0
LINE
  8
0
 10
35.875
 20
6.99998
 11
35.875
 21
-7
  0
LINE
  8
0
 10
35.875
 20
-7
 11
35.8177
 21
-7.17633
  0
LINE
  8
0
 10
35.8177
 20
-7.17633
 11
35.6677
 21
-7.28531
  0
LINE
  8
0
 10
35.6677
 20
-7.28531
 11
21.4823
 21
-7.28531
  0
LINE
  8
0
 10
-130.918
 20
-7.28531
 11
-131.068
 21
-7.17633
  0
LINE
  8
0
 10
-131.068
 20
-7.17633
 11
-131.125
 21
-7
  0
LINE
  8
0
 10
-131.125
 20
-7
 11
-131.125
 21
6.99998
  0
LINE
  8
0
 10
-131.125
 20
6.99998
 11
-131.068
 21
7.17633
  0
LINE
  8
0
 10
-131.068
 20
7.17633
 11
-130.918
 21
7.28531
  0
LINE
  8
0
 10
-130.918
 20
7.28531
 11
-116.732
 21
7.28531
  0
LINE
  8
0
 10
-116.732
 20
7.28531
 11
-116.582
 21
7.17633
  0
LINE
  8
0
 10
-116.582
 20
7.17633
 11
-116.525
 21
6.99998
  0
LINE
  8
0
 10
-116.525
 20
6.99998
 11
-116.525
 21
-7
  0
LINE
  8
0
 10
-116.525
 20
-7
 11
-116.582
 21
-7.17633
  0
LINE
  8
0
 10
-116.582
 20
-7.17633
 11
-116.732
 21
-7.28531
  0
LINE
  8
0
 10
-116.732
 20
-7.28531
 11
-130.918
 21
-7.28531
  0
LINE
  8
0
 10
-111.868
 20
-7.28531
 11
-112.018
 21
-7.17633
  0
LINE
  8
0
 10
-112.018
 20
-7.17633
 11
-112.075
 21
-7
  0
LINE
  8
0
 10
-112.075
 20
-7
 11
-112.075
 21
6.99998
  0
LINE
  8
0
 10
-112.075
 20
6.99998
 11
-112.018
 21
7.17633
  0
LINE
  8
0
 10
-112.018
 20
7.17633
 11
-111.868
 21
7.28531
  0
LINE
  8
0
 10
-111.868
 20
7.28531
 11
-97.6823
 21
7.28531
  0
LINE
  8
0
 10
-97.6823
 20
7.28531
 11
-97.5323
 21
7.17633
  0
LINE
  8
0
 10
-97.5323
 20
7.17633
 11
-97.475
 21
6.99998
  0
LINE
  8
0
 10
-97.475
 20
6.99998
 11
-97.475
 21
-7
  0
LINE
  8
0
 10
-97.475
 20
-7
 11
-97.5323
 21
-7.17633
  0
LINE
  8
0
 10
-97.5323
 20
-7.17633
 11
-97.6823
 21
-7.28531
  0
LINE
  8
0
 10
-97.6823
 20
-7.28531
 11
-111.868
 21
-7.28531
  0
LINE
  8
0
 10
-92.8177
 20
-7.28531
 11
-92.9677
 21
-7.17633
  0
LINE
  8
0
 10
-92.9677
 20
-7.17633
 11
-93.025
 21
-7
  0
LINE
  8
0
 10
-93.025
 20
-7
 11
-93.025
 21
6.99998
  0
LINE
  8
0
 10
-93.025
 20
6.99998
 11
-92.9677
 21
7.17633
  0
LINE
  8
0
 10
-92.9677
 20
7.17633
 11
-92.8177
 21
7.28531
  0
LINE
  8
0
 10
-92.8177
 20
7.28531
 11
-78.6323
 21
7.28531
  0
LINE
  8
0
 10
-78.6323
 20
7.28531
 11
-78.4823
 21
7.17633
  0
LINE
  8
0
 10
-78.4823
 20
7.17633
 11
-78.425
 21
6.99998
  0
LINE
  8
0
 10
-78.425
 20
6.99998
 11
-78.425
 21
-7
  0
LINE
  8
0
 10
-78.425
 20
-7
 11
-78.4823
 21
-7.17633
  0
LINE
  8
0
 10
-78.4823
 20
-7.17633
 11
-78.6323
 21
-7.28531
  0
LINE
  8
0
 10
-78.6323
 20
-7.28531
 11
-92.8177
 21
-7.28531
  0
LINE
  8
0
 10
-73.7677
 20
-7.28531
 11
-73.9177
 21
-7.17633
  0
LINE
  8
0
 10
-73.9177
 20
-7.17633
 11
-73.975
 21
-7
  0
LINE
  8
0
 10
-73.975
 20
-7
 11
-73.975
 21
6.99998
  0
LINE
  8
0
 10
-73.975
 20
6.99998
 11
-73.9177
 21
7.17633
  0
LINE
  8
0
 10
-73.9177
 20
7.17633
 11
-73.7677
 21
7.28531
  0
LINE
  8
0
 10
-73.7677
 20
7.28531
 11
-59.5823
 21
7.28531
  0
LINE
  8
0
 10
-59.5823
 20
7.28531
 11
-59.4323
 21
7.17633
  0
LINE
  8
0
 10
-59.4323
 20
7.17633
 11
-59.375
 21
6.99998
  0
LINE
  8
0
 10
-59.375
 20
6.99998
 11
-59.375
 21
-7
  0
LINE
  8
0
 10
-59.375
 20
-7
 11
-59.4323
 21
-7.17633
  0
LINE
  8
0
 10
-59.4323
 20
-7.17633
 11
-59.5823
 21
-7.28531
  0
LINE
  8
0
 10
-59.5823
 20
-7.28531
 11
-73.7677
 21
-7.28531
  0
LINE
  8
0
 10
-35.6677
 20
-7.28531
 11
-35.8177
 21
-7.17633
  0
LINE
  8
0
 10
-35.8177
 20
-7.17633
 11
-35.875
 21
-7
  0
LINE
  8
0
 10
-35.875
 20
-7
 11
-35.875
 21
6.99998
  0
LINE
  8
0
 10
-35.875
 20
6.99998
 11
-35.8177
 21
7.17633
  0
LINE
  8
0
 10
-35.8177
 20
7.17633
 11
-35.6677
 21
7.28531
  0
LINE
  8
0
 10
-35.6677
 20
7.28531
 11
-21.4823
 21
7.28531
  0
LINE
  8
0
 10
-21.4823
 20
7.28531
 11
-21.3323
 21
7.17633
  0
LINE
  8
0
 10
-21.3323
 20
7.17633
 11
-21.275
 21
6.99998
  0
LINE
  8
0
 10
-21.275
 20
6.99998
 11
-21.275
 21
-7
  0
LINE
  8
0
 10
-21.275
 20
-7
 11
-21.3323
 21
-7.17633
  0
LINE
  8
0
 10
-21.3323
 20
-7.17633
 11
-21.4823
 21
-7.28531
  0
LINE
  8
0
 10
-21.4823
 20
-7.28531
 11
-35.6677
 21
-7.28531
  0
LINE
  8
0
 10
2.43228
 20
-7.28531
 11
2.28229
 21
-7.17633
  0
LINE
  8
0
 10
2.28229
 20
-7.17633
 11
2.22499
 21
-7
  0
LINE
  8
0
 10
2.22499
 20
-7
 11
2.22499
 21
6.99998
  0
LINE
  8
0
 10
2.22499
 20
6.99998
 11
2.28229
 21
7.17633
  0
LINE
  8
0
 10
2.28229
 20
7.17633
 11
2.43228
 21
7.28531
  0
LINE
  8
0
 10
2.43228
 20
7.28531
 11
16.6177
 21
7.28531
  0
LINE
  8
0
 10
16.6177
 20
7.28531
 11
16.7677
 21
7.17633
  0
LINE
  8
0
 10
16.7677
 20
7.17633
 11
16.825
 21
6.99998
  0
LINE
  8
0
 10
16.825
 20
6.99998
 11
16.825
 21
-7
  0
LINE
  8
0
 10
16.825
 20
-7
 11
16.7677
 21
-7.17633
  0
LINE
  8
0
 10
16.7677
 20
-7.17633
 11
16.6177
 21
-7.28531
  0
LINE
  8
0
 10
16.6177
 20
-7.28531
 11
2.43228
 21
-7.28531
  0
LINE
  8
0
 10
40.5323
 20
-7.28531
 11
40.3823
 21
-7.17633
  0
LINE
  8
0
 10
40.3823
 20
-7.17633
 11
40.325
 21
-7
  0
LINE
  8
0
 10
40.325
 20
-7
 11
40.325
 21
6.99998
  0
LINE
  8
0
 10
40.325
 20
6.99998
 11
40.3823
 21
7.17633
  0
LINE
  8
0
 10
40.3823
 20
7.17633
 11
40.5323
 21
7.28531
  0
LINE
  8
0
 10
40.5323
 20
7.28531
 11
54.7177
 21
7.28531
  0
LINE
  8
0
 10
54.7177
 20
7.28531
 11
54.8677
 21
7.17633
  0
LINE
  8
0
 10
54.8677
 20
7.17633
 11
54.925
 21
6.99998
  0
LINE
  8
0
 10
54.925
 20
6.99998
 11
54.925
 21
-7
  0
LINE
  8
0
 10
54.925
 20
-7
 11
54.8677
 21
-7.17633
  0
LINE
  8
0
 10
54.8677
 20
-7.17633
 11
54.7177
 21
-7.28531
  0
LINE
  8
0
 10
54.7177
 20
-7.28531
 11
40.5323
 21
-7.28531
  0
LINE
  8
0
 10
59.5823
 20
-7.28531
 11
59.4323
 21
-7.17633
  0
LINE
  8
0
 10
59.4323
 20
-7.17633
 11
59.375
 21
-7
  0
LINE
  8
0
 10
59.375
 20
-7
 11
59.375
 21
6.99998
  0
LINE
  8
0
 10
59.375
 20
6.99998
 11
59.4323
 21
7.17633
  0
LINE
  8
0
 10
59.4323
 20
7.17633
 11
59.5823
 21
7.28531
  0
LINE
  8
0
 10
59.5823
 20
7.28531
 11
73.7677
 21
7.28531
  0
LINE
  8
0
 10
73.7677
 20
7.28531
 11
73.9177
 21
7.17633
  0
LINE
  8
0
 10
73.9177
 20
7.17633
 11
73.975
 21
6.99998
  0
LINE
  8
0
 10
73.975
 20
6.99998
 11
73.975
 21
-7
  0
LINE
  8
0
 10
73.975
 20
-7
 11
73.9177
 21
-7.17633
  0
LINE
  8
0
 10
73.9177
 20
-7.17633
 11
73.7677
 21
-7.28531
  0
LINE
  8
0
 10
73.7677
 20
-7.28531
 11
59.5823
 21
-7.28531
  0
LINE
  8
0
 10
97.6823
 20
-7.28531
 11
97.5323
 21
-7.17633
  0
LINE
  8
0
 10
97.5323
 20
-7.17633
 11
97.475
 21
-7
  0
LINE
  8
0
 10
97.475
 20
-7
 11
97.475
 21
6.99998
  0
LINE
  8
0
 10
97.475
 20
6.99998
 11
97.5323
 21
7.17633
  0
LINE
  8
0
 10
97.5323
 20
7.17633
 11
97.6823
 21
7.28531
  0
LINE
  8
0
 10
97.6823
 20
7.28531
 11
111.868
 21
7.28531
  0
LINE
  8
0
 10
111.868
 20
7.28531
 11
112.018
 21
7.17633
  0
LINE
  8
0
 10
112.018
 20
7.17633
 11
112.075
 21
6.99998
  0
LINE
  8
0
 10
112.075
 20
6.99998
 11
112.075
 21
-7
  0
LINE
  8
0
 10
112.075
 20
-7
 11
112.018
 21
-7.17633
  0
LINE
  8
0
 10
112.018
 20
-7.17633
 11
111.868
 21
-7.28531
  0
LINE
  8
0
 10
111.868
 20
-7.28531
 11
97.6823
 21
-7.28531
  0
LINE
  8
0
 10
116.732
 20
-7.28531
 11
116.582
 21
-7.17633
  0
LINE
  8
0
 10
116.582
 20
-7.17633
 11
116.525
 21
-7
  0
LINE
  8
0
 10
116.525
 20
-7
 11
116.525
 21
6.99998
  0
LINE
  8
0
 10
116.525
 20
6.99998
 11
116.582
 21
7.17633
  0
LINE
  8
0
 10
116.582
 20
7.17633
 11
116.732
 21
7.28531
  0
LINE
  8
0
 10
116.732
 20
7.28531
 11
130.918
 21
7.28531
  0
LINE
  8
0
 10
130.918
 20
7.28531
 11
131.068
 21
7.17633
  0
LINE
  8
0
 10
131.068
 20
7.17633
 11
131.125
 21
6.99998
  0
LINE
  8
0
 10
131.125
 20
6.99998
 11
131.125
 21
-7
  0
LINE
  8
0
 10
131.125
 20
-7
 11
131.068
 21
-7.17633
  0
LINE
  8
0
 10
131.068
 20
-7.17633
 11
130.918
 21
-7.28531
  0
LINE
  8
0
 10
130.918
 20
-7.28531
 11
116.732
 21
-7.28531
  0
LINE
  8
0
 10
78.6323
 20
-7.28531
 11
78.4823
 21
-7.17633
  0
LINE
  8
0
 10
78.4823
 20
-7.17633
 11
78.425
 21
-7
  0
LINE
  8
0
 10
78.425
 20
-7
 11
78.425
 21
6.99998
  0
LINE
  8
0
 10
78.425
 20
6.99998
 11
78.4823
 21
7.17633
  0
LINE
  8
0
 10
78.4823
 20
7.17633
 11
78.6323
 21
7.28531
  0
LINE
  8
0
 10
78.6323
 20
7.28531
 11
92.8177
 21
7.28531
  0
LINE
  8
0
 10
92.8177
 20
7.28531
 11
92.9677
 21
7.17633
  0
LINE
  8
0
 10
92.9677
 20
7.17633
 11
93.025
 21
6.99998
  0
LINE
  8
0
 10
93.025
 20
6.99998
 11
93.025
 21
-7
  0
LINE
  8
0
 10
93.025
 20
-7
 11
92.9677
 21
-7.17633
  0
LINE
  8
0
 10
92.9677
 20
-7.17633
 11
92.8177
 21
-7.28531
  0
LINE
  8
0
 10
92.8177
 20
-7.28531
 11
78.6323
 21
-7.28531
  0
LINE
  8
0
 10
-16.6177
 20
-7.28531
 11
-16.7677
 21
-7.17633
  0
LINE
  8
0
 10
-16.7677
 20
-7.17633
 11
-16.825
 21
-7
  0
LINE
  8
0
 10
-16.825
 20
-7
 11
-16.825
 21
6.99998
  0
LINE
  8
0
 10
-16.825
 20
6.99998
 11
-16.7677
 21
7.17633
  0
LINE
  8
0
 10
-16.7677
 20
7.17633
 11
-16.6177
 21
7.28531
  0
LINE
  8
0
 10
-16.6177
 20
7.28531
 11
-2.43228
 21
7.28531
  0
LINE
  8
0
 10
-2.43228
 20
7.28531
 11
-2.28229
 21
7.17633
  0
LINE
  8
0
 10
-2.28229
 20
7.17633
 11
-2.22499
 21
6.99998
  0
LINE
  8
0
 10
-2.22499
 20
6.99998
 11
-2.22499
 21
-7
  0
LINE
  8
0
 10
-2.22499
 20
-7
 11
-2.28229
 21
-7.17633
  0
LINE
  8
0
 10
-2.28229
 20
-7.17633
 11
-2.43228
 21
-7.28531
  0
LINE
  8
0
 10
-2.43228
 20
-7.28531
 11
-16.6177
 21
-7.28531
  0
LINE
  8
0
 10
-130.918
 20
-26.3353
 11
-131.068
 21
-26.2263
  0
LINE
  8
0
 10
-131.068
 20
-26.2263
 11
-131.125
 21
-26.05
  0
LINE
  8
0
 10
-131.125
 20
-26.05
 11
-131.125
 21
-12.05
  0
LINE
  8
0
 10
-131.125
 20
-12.05
 11
-131.068
 21
-11.8737
  0
LINE
  8
0
 10
-131.068
 20
-11.8737
 11
-130.918
 21
-11.7647
  0
LINE
  8
0
 10
-130.918
 20
-11.7647
 11
-116.732
 21
-11.7647
  0
LINE
  8
0
 10
-116.732
 20
-11.7647
 11
-116.582
 21
-11.8737
  0
LINE
  8
0
 10
-116.582
 20
-11.8737
 11
-116.525
 21
-12.05
  0
LINE
  8
0
 10
-116.525
 20
-12.05
 11
-116.525
 21
-26.05
  0
LINE
  8
0
 10
-116.525
 20
-26.05
 11
-116.582
 21
-26.2263
  0
LINE
  8
0
 10
-116.582
 20
-26.2263
 11
-116.732
 21
-26.3353
  0
LINE
  8
0
 10
-116.732
 20
-26.3353
 11
-130.918
 21
-26.3353
  0
LINE
  8
0
 10
-111.868
 20
-26.3353
 11
-112.018
 21
-26.2263
  0
LINE
  8
0
 10
-112.018
 20
-26.2263
 11
-112.075
 21
-26.05
  0
LINE
  8
0
 10
-112.075
 20
-26.05
 11
-112.075
 21
-12.05
  0
LINE
  8
0
 10
-112.075
 20
-12.05
 11
-112.018
 21
-11.8737
  0
LINE
  8
0
 10
-112.018
 20
-11.8737
 11
-111.868
 21
-11.7647
  0
LINE
  8
0
 10
-111.868
 20
-11.7647
 11
-97.6823
 21
-11.7647
  0
LINE
  8
0
 10
-97.6823
 20
-11.7647
 11
-97.5323
 21
-11.8737
  0
LINE
  8
0
 10
-97.5323
 20
-11.8737
 11
-97.475
 21
-12.05
  0
LINE
  8
0
 10
-97.475
 20
-12.05
 11
-97.475
 21
-26.05
  0
LINE
  8
0
 10
-97.475
 20
-26.05
 11
-97.5323
 21
-26.2263
  0
LINE
  8
0
 10
-97.5323
 20
-26.2263
 11
-97.6823
 21
-26.3353
  0
LINE
  8
0
 10
-97.6823
 20
-26.3353
 11
-111.868
 21
-26.3353
  0
LINE
  8
0
 10
-92.8177
 20
-26.3353
 11
-92.9677
 21
-26.2263
  0
LINE
  8
0
 10
-92.9677
 20
-26.2263
 11
-93.025
 21
-26.05
  0
LINE
  8
0
 10
-93.025
 20
-26.05
 11
-93.025
 21
-12.05
  0
LINE
  8
0
 10
-93.025
 20
-12.05
 11
-92.9677
 21
-11.8737
  0
LINE
  8
0
 10
-92.9677
 20
-11.8737
 11
-92.8177
 21
-11.7647
  0
LINE
  8
0
 10
-92.8177
 20
-11.7647
 11
-78.6323
 21
-11.7647
  0
LINE
  8
0
 10
-78.6323
 20
-11.7647
 11
-78.4823
 21
-11.8737
  0
LINE
  8
0
 10
-78.4823
 20
-11.8737
 11
-78.425
 21
-12.05
  0
LINE
  8
0
 10
-78.425
 20
-12.05
 11
-78.425
 21
-26.05
  0
LINE
  8
0
 10
-78.425
 20
-26.05
 11
-78.4823
 21
-26.2263
  0
LINE
  8
0
 10
-78.4823
 20
-26.2263
 11
-78.6323
 21
-26.3353
  0
LINE
  8
0
 10
-78.6323
 20
-26.3353
 11
-92.8177
 21
-26.3353
  0
LINE
  8
0
 10
-73.7677
 20
-26.3353
 11
-73.9177
 21
-26.2263
  0
LINE
  8
0
 10
-73.9177
 20
-26.2263
 11
-73.975
 21
-26.05
  0
LINE
  8
0
 10
-73.975
 20
-26.05
 11
-73.975
 21
-12.05
  0
LINE
  8
0
 10
-73.975
 20
-12.05
 11
-73.9177
 21
-11.8737
  0
LINE
  8
0
 10
-73.9177
 20
-11.8737
 11
-73.7677
 21
-11.7647
  0
LINE
  8
0
 10
-73.7677
 20
-11.7647
 11
-59.5823
 21
-11.7647
  0
LINE
  8
0
 10
-59.5823
 20
-11.7647
 11
-59.4323
 21
-11.8737
  0
LINE
  8
0
 10
-59.4323
 20
-11.8737
 11
-59.375
 21
-12.05
  0
LINE
  8
0
 10
-59.375
 20
-12.05
 11
-59.375
 21
-26.05
  0
LINE
  8
0
 10
-59.375
 20
-26.05
 11
-59.4323
 21
-26.2263
  0
LINE
  8
0
 10
-59.4323
 20
-26.2263
 11
-59.5823
 21
-26.3353
  0
LINE
  8
0
 10
-59.5823
 20
-26.3353
 11
-73.7677
 21
-26.3353
  0
LINE
  8
0
 10
-54.7177
 20
-26.3353
 11
-54.8677
 21
-26.2263
  0
LINE
  8
0
 10
-54.8677
 20
-26.2263
 11
-54.925
 21
-26.05
  0
LINE
  8
0
 10
-54.925
 20
-26.05
 11
-54.925
 21
-12.05
  0
LINE
  8
0
 10
-54.925
 20
-12.05
 11
-54.8677
 21
-11.8737
  0
LINE
  8
0
 10
-54.8677
 20
-11.8737
 11
-54.7177
 21
-11.7647
  0
LINE
  8
0
 10
-54.7177
 20
-11.7647
 11
-40.5323
 21
-11.7647
  0
LINE
  8
0
 10
-40.5323
 20
-11.7647
 11
-40.3823
 21
-11.8737
  0
LINE
  8
0
 10
-40.3823
 20
-11.8737
 11
-40.325
 21
-12.05
  0
LINE
  8
0
 10
-40.325
 20
-12.05
 11
-40.325
 21
-26.05
  0
LINE
  8
0
 10
-40.325
 20
-26.05
 11
-40.3823
 21
-26.2263
  0
LINE
  8
0
 10
-40.3823
 20
-26.2263
 11
-40.5323
 21
-26.3353
  0
LINE
  8
0
 10
-40.5323
 20
-26.3353
 11
-54.7177
 21
-26.3353
  0
LINE
  8
0
 10
-35.6677
 20
-26.3353
 11
-35.8177
 21
-26.2263
  0
LINE
  8
0
 10
-35.8177
 20
-26.2263
 11
-35.875
 21
-26.05
  0
LINE
  8
0
 10
-35.875
 20
-26.05
 11
-35.875
 21
-12.05
  0
LINE
  8
0
 10
-35.875
 20
-12.05
 11
-35.8177
 21
-11.8737
  0
LINE
  8
0
 10
-35.8177
 20
-11.8737
 11
-35.6677
 21
-11.7647
  0
LINE
  8
0
 10
-35.6677
 20
-11.7647
 11
-21.4823
 21
-11.7647
  0
LINE
  8
0
 10
-21.4823
 20
-11.7647
 11
-21.3323
 21
-11.8737
  0
LINE
  8
0
 10
-21.3323
 20
-11.8737
 11
-21.275
 21
-12.05
  0
LINE
  8
0
 10
-21.275
 20
-12.05
 11
-21.275
 21
-26.05
  0
LINE
  8
0
 10
-21.275
 20
-26.05
 11
-21.3323
 21
-26.2263
  0
LINE
  8
0
 10
-21.3323
 20
-26.2263
 11
-21.4823
 21
-26.3353
  0
LINE
  8
0
 10
-21.4823
 20
-26.3353
 11
-35.6677
 21
-26.3353
  0
LINE
  8
0
 10
-16.6177
 20
-26.3353
 11
-16.7677
 21
-26.2263
  0
LINE
  8
0
 10
-16.7677
 20
-26.2263
 11
-16.825
 21
-26.05
  0
LINE
  8
0
 10
-16.825
 20
-26.05
 11
-16.825
 21
-12.05
  0
LINE
  8
0
 10
-16.825
 20
-12.05
 11
-16.7677
 21
-11.8737
  0
LINE
  8
0
 10
-16.7677
 20
-11.8737
 11
-16.6177
 21
-11.7647
  0
LINE
  8
0
 10
-16.6177
 20
-11.7647
 11
-2.43228
 21
-11.7647
  0
LINE
  8
0
 10
-2.43228
 20
-11.7647
 11
-2.28229
 21
-11.8737
  0
LINE
  8
0
 10
-2.28229
 20
-11.8737
 11
-2.22499
 21
-12.05
  0
LINE
  8
0
 10
-2.22499
 20
-12.05
 11
-2.22499
 21
-26.05
  0
LINE
  8
0
 10
-2.22499
 20
-26.05
 11
-2.28229
 21
-26.2263
  0
LINE
  8
0
 10
-2.28229
 20
-26.2263
 11
-2.43228
 21
-26.3353
  0
LINE
  8
0
 10
-2.43228
 20
-26.3353
 11
-16.6177
 21
-26.3353
  0
LINE
  8
0
 10
21.4823
 20
-26.3353
 11
21.3323
 21
-26.2263
  0
LINE
  8
0
 10
21.3323
 20
-26.2263
 11
21.275
 21
-26.05
  0
LINE
  8
0
 10
21.275
 20
-26.05
 11
21.275
 21
-12.05
  0
LINE
  8
0
 10
21.275
 20
-12.05
 11
21.3323
 21
-11.8737
  0
LINE
  8
0
 10
21.3323
 20
-11.8737
 11
21.4823
 21
-11.7647
  0
LINE
  8
0
 10
21.4823
 20
-11.7647
 11
35.6677
 21
-11.7647
  0
LINE
  8
0
 10
35.6677
 20
-11.7647
 11
35.8177
 21
-11.8737
  0
LINE
  8
0
 10
35.8177
 20
-11.8737
 11
35.875
 21
-12.05
  0
LINE
  8
0
 10
35.875
 20
-12.05
 11
35.875
 21
-26.05
  0
LINE
  8
0
 10
35.875
 20
-26.05
 11
35.8177
 21
-26.2263
  0
LINE
  8
0
 10
35.8177
 20
-26.2263
 11
35.6677
 21
-26.3353
  0
LINE
  8
0
 10
35.6677
 20
-26.3353
 11
21.4823
 21
-26.3353
  0
LINE
  8
0
 10
59.5823
 20
-26.3353
 11
59.4323
 21
-26.2263
  0
LINE
  8
0
 10
59.4323
 20
-26.2263
 11
59.375
 21
-26.05
  0
LINE
  8
0
 10
59.375
 20
-26.05
 11
59.375
 21
-12.05
  0
LINE
  8
0
 10
59.375
 20
-12.05
 11
59.4323
 21
-11.8737
  0
LINE
  8
0
 10
59.4323
 20
-11.8737
 11
59.5823
 21
-11.7647
  0
LINE
  8
0
 10
59.5823
 20
-11.7647
 11
73.7677
 21
-11.7647
  0
LINE
  8
0
 10
73.7677
 20
-11.7647
 11
73.9177
 21
-11.8737
  0
LINE
  8
0
 10
73.9177
 20
-11.8737
 11
73.975
 21
-12.05
  0
LINE
  8
0
 10
73.975
 20
-12.05
 11
73.975
 21
-26.05
  0
LINE
  8
0
 10
73.975
 20
-26.05
 11
73.9177
 21
-26.2263
  0
LINE
  8
0
 10
73.9177
 20
-26.2263
 11
73.7677
 21
-26.3353
  0
LINE
  8
0
 10
73.7677
 20
-26.3353
 11
59.5823
 21
-26.3353
  0
LINE
  8
0
 10
78.6323
 20
-26.3353
 11
78.4823
 21
-26.2263
  0
LINE
  8
0
 10
78.4823
 20
-26.2263
 11
78.425
 21
-26.05
  0
LINE
  8
0
 10
78.425
 20
-26.05
 11
78.425
 21
-12.05
  0
LINE
  8
0
 10
78.425
 20
-12.05
 11
78.4823
 21
-11.8737
  0
LINE
  8
0
 10
78.4823
 20
-11.8737
 11
78.6323
 21
-11.7647
  0
LINE
  8
0
 10
78.6323
 20
-11.7647
 11
92.8177
 21
-11.7647
  0
LINE
  8
0
 10
92.8177
 20
-11.7647
 11
92.9677
 21
-11.8737
  0
LINE
  8
0
 10
92.9677
 20
-11.8737
 11
93.025
 21
-12.05
  0
LINE
  8
0
 10
93.025
 20
-12.05
 11
93.025
 21
-26.05
  0
LINE
  8
0
 10
93.025
 20
-26.05
 11
92.9677
 21
-26.2263
  0
LINE
  8
0
 10
92.9677
 20
-26.2263
 11
92.8177
 21
-26.3353
  0
LINE
  8
0
 10
92.8177
 20
-26.3353
 11
78.6323
 21
-26.3353
  0
LINE
  8
0
 10
97.6823
 20
-26.3353
 11
97.5323
 21
-26.2263
  0
LINE
  8
0
 10
97.5323
 20
-26.2263
 11
97.475
 21
-26.05
  0
LINE
  8
0
 10
97.475
 20
-26.05
 11
97.475
 21
-12.05
  0
LINE
  8
0
 10
97.475
 20
-12.05
 11
97.5323
 21
-11.8737
  0
LINE
  8
0
 10
97.5323
 20
-11.8737
 11
97.6823
 21
-11.7647
  0
LINE
  8
0
 10
97.6823
 20
-11.7647
 11
111.868
 21
-11.7647
  0
LINE
  8
0
 10
111.868
 20
-11.7647
 11
112.018
 21
-11.8737
  0
LINE
  8
0
 10
112.018
 20
-11.8737
 11
112.075
 21
-12.05
  0
LINE
  8
0
 10
112.075
 20
-12.05
 11
112.075
 21
-26.05
  0
LINE
  8
0
 10
112.075
 20
-26.05
 11
112.018
 21
-26.2263
  0
LINE
  8
0
 10
112.018
 20
-26.2263
 11
111.868
 21
-26.3353
  0
LINE
  8
0
 10
111.868
 20
-26.3353
 11
97.6823
 21
-26.3353
  0
LINE
  8
0
 10
116.732
 20
-26.3353
 11
116.582
 21
-26.2263
  0
LINE
  8
0
 10
116.582
 20
-26.2263
 11
116.525
 21
-26.05
  0
LINE
  8
0
 10
116.525
 20
-26.05
 11
116.525
 21
-12.05
  0
LINE
  8
0
 10
116.525
 20
-12.05
 11
116.582
 21
-11.8737
  0
LINE
  8
0
 10
116.582
 20
-11.8737
 11
116.732
 21
-11.7647
  0
LINE
  8
0
 10
116.732
 20
-11.7647
 11
130.918
 21
-11.7647
  0
LINE
  8
0
 10
130.918
 20
-11.7647
 11
131.068
 21
-11.8737
  0
LINE
  8
0
 10
131.068
 20
-11.8737
 11
131.125
 21
-12.05
  0
LINE
  8
0
 10
131.125
 20
-12.05
 11
131.125
 21
-26.05
  0
LINE
  8
0
 10
131.125
 20
-26.05
 11
131.068
 21
-26.2263
  0
LINE
  8
0
 10
131.068
 20
-26.2263
 11
130.918
 21
-26.3353
  0
LINE
  8
0
 10
130.918
 20
-26.3353
 11
116.732
 21
-26.3353
  0
LINE
  8
0
 10
40.5323
 20
-26.3353
 11
40.3823
 21
-26.2263
  0
LINE
  8
0
 10
40.3823
 20
-26.2263
 11
40.325
 21
-26.05
  0
LINE
  8
0
 10
40.325
 20
-26.05
 11
40.325
 21
-12.05
  0
LINE
  8
0
 10
40.325
 20
-12.05
 11
40.3823
 21
-11.8737
  0
LINE
  8
0
 10
40.3823
 20
-11.8737
 11
40.5323
 21
-11.7647
  0
LINE
  8
0
 10
40.5323
 20
-11.7647
 11
54.7177
 21
-11.7647
  0
LINE
  8
0
 10
54.7177
 20
-11.7647
 11
54.8677
 21
-11.8737
  0
LINE
  8
0
 10
54.8677
 20
-11.8737
 11
54.925
 21
-12.05
  0
LINE
  8
0
 10
54.925
 20
-12.05
 11
54.925
 21
-26.05
  0
LINE
  8
0
 10
54.925
 20
-26.05
 11
54.8677
 21
-26.2263
  0
LINE
  8
0
 10
54.8677
 20
-26.2263
 11
54.7177
 21
-26.3353
  0
LINE
  8
0
 10
54.7177
 20
-26.3353
 11
40.5323
 21
-26.3353
  0
LINE
  8
0
 10
2.43228
 20
-26.3353
 11
2.28229
 21
-26.2263
  0
LINE
  8
0
 10
2.28229
 20
-26.2263
 11
2.22499
 21
-26.05
  0
LINE
  8
0
 10
2.22499
 20
-26.05
 11
2.22499
 21
-12.05
  0
LINE
  8
0
 10
2.22499
 20
-12.05
 11
2.28229
 21
-11.8737
  0
LINE
  8
0
 10
2.28229
 20
-11.8737
 11
2.43228
 21
-11.7647
  0
LINE
  8
0
 10
2.43228
 20
-11.7647
 11
16.6177
 21
-11.7647
  0
LINE
  8
0
 10
16.6177
 20
-11.7647
 11
16.7677
 21
-11.8737
  0
LINE
  8
0
 10
16.7677
 20
-11.8737
 11
16.825
 21
-12.05
  0
LINE
  8
0
 10
16.825
 20
-12.05
 11
16.825
 21
-26.05
  0
LINE
  8
0
 10
16.825
 20
-26.05
 11
16.7677
 21
-26.2263
  0
LINE
  8
0
 10
16.7677
 20
-26.2263
 11
16.6177
 21
-26.3353
  0
LINE
  8
0
 10
16.6177
 20
-26.3353
 11
2.43228
 21
-26.3353
  0
LINE
  8
0
 10
-0.324463
 20
-20.0486
 11
-0.849457
 21
-19.6672
  0
LINE
  8
0
 10
-0.849457
 20
-19.6672
 11
-1.04999
 21
-19.05
  0
LINE
  8
0
 10
-1.04999
 20
-19.05
 11
-0.849457
 21
-18.4328
  0
LINE
  8
0
 10
-0.849457
 20
-18.4328
 11
-0.324463
 21
-18.0514
  0
LINE
  8
0
 10
-0.324463
 20
-18.0514
 11
0.324463
 21
-18.0514
  0
LINE
  8
0
 10
0.324463
 20
-18.0514
 11
0.849457
 21
-18.4328
  0
LINE
  8
0
 10
0.849457
 20
-18.4328
 11
1.04999
 21
-19.05
  0
LINE
  8
0
 10
1.04999
 20
-19.05
 11
0.849457
 21
-19.6672
  0
LINE
  8
0
 10
0.849457
 20
-19.6672
 11
0.324463
 21
-20.0486
  0
LINE
  8
0
 10
0.324463
 20
-20.0486
 11
-0.324463
 21
-20.0486
  0
LINE
  8
0
 10
-35.6677
 20
-45.3853
 11
-35.8177
 21
-45.2763
  0
LINE
  8
0
 10
-35.8177
 20
-45.2763
 11
-35.875
 21
-45.1
  0
LINE
  8
0
 10
-35.875
 20
-45.1
 11
-35.875
 21
-31.1
  0
LINE
  8
0
 10
-35.875
 20
-31.1
 11
-35.8177
 21
-30.9237
  0
LINE
  8
0
 10
-35.8177
 20
-30.9237
 11
-35.6677
 21
-30.8147
  0
LINE
  8
0
 10
-35.6677
 20
-30.8147
 11
-21.4823
 21
-30.8147
  0
LINE
  8
0
 10
-21.4823
 20
-30.8147
 11
-21.3323
 21
-30.9237
  0
LINE
  8
0
 10
-21.3323
 20
-30.9237
 11
-21.275
 21
-31.1
  0
LINE
  8
0
 10
-21.275
 20
-31.1
 11
-21.275
 21
-45.1
  0
LINE
  8
0
 10
-21.275
 20
-45.1
 11
-21.3323
 21
-45.2763
  0
LINE
  8
0
 10
-21.3323
 20
-45.2763
 11
-21.4823
 21
-45.3853
  0
LINE
  8
0
 10
-21.4823
 20
-45.3853
 11
-35.6677
 21
-45.3853
  0
LINE
  8
0
 10
-111.868
 20
-45.3853
 11
-112.018
 21
-45.2763
  0
LINE
  8
0
 10
-112.018
 20
-45.2763
 11
-112.075
 21
-45.1
  0
LINE
  8
0
 10
-112.075
 20
-45.1
 11
-112.075
 21
-31.1
  0
LINE
  8
0
 10
-112.075
 20
-31.1
 11
-112.018
 21
-30.9237
  0
LINE
  8
0
 10
-112.018
 20
-30.9237
 11
-111.868
 21
-30.8147
  0
LINE
  8
0
 10
-111.868
 20
-30.8147
 11
-97.6823
 21
-30.8147
  0
LINE
  8
0
 10
-97.6823
 20
-30.8147
 11
-97.5323
 21
-30.9237
  0
LINE
  8
0
 10
-97.5323
 20
-30.9237
 11
-97.475
 21
-31.1
  0
LINE
  8
0
 10
-97.475
 20
-31.1
 11
-97.475
 21
-45.1
  0
LINE
  8
0
 10
-97.475
 20
-45.1
 11
-97.5323
 21
-45.2763
  0
LINE
  8
0
 10
-97.5323
 20
-45.2763
 11
-97.6823
 21
-45.3853
  0
LINE
  8
0
 10
-97.6823
 20
-45.3853
 11
-111.868
 21
-45.3853
  0
LINE
  8
0
 10
97.6823
 20
-45.3853
 11
97.5323
 21
-45.2763
  0
LINE
  8
0
 10
97.5323
 20
-45.2763
 11
97.475
 21
-45.1
  0
LINE
  8
0
 10
97.475
 20
-45.1
 11
97.475
 21
-31.1
  0
LINE
  8
0
 10
97.475
 20
-31.1
 11
97.5323
 21
-30.9237
  0
LINE
  8
0
 10
97.5323
 20
-30.9237
 11
97.6823
 21
-30.8147
  0
LINE
  8
0
 10
97.6823
 20
-30.8147
 11
111.868
 21
-30.8147
  0
LINE
  8
0
 10
111.868
 20
-30.8147
 11
112.018
 21
-30.9237
  0
LINE
  8
0
 10
112.018
 20
-30.9237
 11
112.075
 21
-31.1
  0
LINE
  8
0
 10
112.075
 20
-31.1
 11
112.075
 21
-45.1
  0
LINE
  8
0
 10
112.075
 20
-45.1
 11
112.018
 21
-45.2763
  0
LINE
  8
0
 10
112.018
 20
-45.2763
 11
111.868
 21
-45.3853
  0
LINE
  8
0
 10
111.868
 20
-45.3853
 11
97.6823
 21
-45.3853
  0
LINE
  8
0
 10
78.6323
 20
-45.3853
 11
78.4823
 21
-45.2763
  0
LINE
  8
0
 10
78.4823
 20
-45.2763
 11
78.425
 21
-45.1
  0
LINE
  8
0
 10
78.425
 20
-45.1
 11
78.425
 21
-31.1
  0
LINE
  8
0
 10
78.425
 20
-31.1
 11
78.4823
 21
-30.9237
  0
LINE
  8
0
 10
78.4823
 20
-30.9237
 11
78.6323
 21
-30.8147
  0
LINE
  8
0
 10
78.6323
 20
-30.8147
 11
92.8177
 21
-30.8147
  0
LINE
  8
0
 10
92.8177
 20
-30.8147
 11
92.9677
 21
-30.9237
  0
LINE
  8
0
 10
92.9677
 20
-30.9237
 11
93.025
 21
-31.1
  0
LINE
  8
0
 10
93.025
 20
-31.1
 11
93.025
 21
-45.1
  0
LINE
  8
0
 10
93.025
 20
-45.1
 11
92.9677
 21
-45.2763
  0
LINE
  8
0
 10
92.9677
 20
-45.2763
 11
92.8177
 21
-45.3853
  0
LINE
  8
0
 10
92.8177
 20
-45.3853
 11
78.6323
 21
-45.3853
  0
LINE
  8
0
 10
59.5823
 20
-45.3853
 11
59.4323
 21
-45.2763
  0
LINE
  8
0
 10
59.4323
 20
-45.2763
 11
59.375
 21
-45.1
  0
LINE
  8
0
 10
59.375
 20
-45.1
 11
59.375
 21
-31.1
  0
LINE
  8
0
 10
59.375
 20
-31.1
 11
59.4323
 21
-30.9237
  0
LINE
  8
0
 10
59.4323
 20
-30.9237
 11
59.5823
 21
-30.8147
  0
LINE
  8
0
 10
59.5823
 20
-30.8147
 11
73.7677
 21
-30.8147
  0
LINE
  8
0
 10
73.7677
 20
-30.8147
 11
73.9177
 21
-30.9237
  0
LINE
  8
0
 10
73.9177
 20
-30.9237
 11
73.975
 21
-31.1
  0
LINE
  8
0
 10
73.975
 20
-31.1
 11
73.975
 21
-45.1
  0
LINE
  8
0
 10
73.975
 20
-45.1
 11
73.9177
 21
-45.2763
  0
LINE
  8
0
 10
73.9177
 20
-45.2763
 11
73.7677
 21
-45.3853
  0
LINE
  8
0
 10
73.7677
 20
-45.3853
 11
59.5823
 21
-45.3853
  0
LINE
  8
0
 10
40.5323
 20
-45.3853
 11
40.3823
 21
-45.2763
  0
LINE
  8
0
 10
40.3823
 20
-45.2763
 11
40.325
 21
-45.1
  0
LINE
  8
0
 10
40.325
 20
-45.1
 11
40.325
 21
-31.1
  0
LINE
  8
0
 10
40.325
 20
-31.1
 11
40.3823
 21
-30.9237
  0
LINE
  8
0
 10
40.3823
 20
-30.9237
 11
40.5323
 21
-30.8147
  0
LINE
  8
0
 10
40.5323
 20
-30.8147
 11
54.7177
 21
-30.8147
  0
LINE
  8
0
 10
54.7177
 20
-30.8147
 11
54.8677
 21
-30.9237
  0
LINE
  8
0
 10
54.8677
 20
-30.9237
 11
54.925
 21
-31.1
  0
LINE
  8
0
 10
54.925
 20
-31.1
 11
54.925
 21
-45.1
  0
LINE
  8
0
 10
54.925
 20
-45.1
 11
54.8677
 21
-45.2763
  0
LINE
  8
0
 10
54.8677
 20
-45.2763
 11
54.7177
 21
-45.3853
  0
LINE
  8
0
 10
54.7177
 20
-45.3853
 11
40.5323
 21
-45.3853
  0
LINE
  8
0
 10
21.4823
 20
-45.3853
 11
21.3323
 21
-45.2763
  0
LINE
  8
0
 10
21.3323
 20
-45.2763
 11
21.275
 21
-45.1
  0
LINE
  8
0
 10
21.275
 20
-45.1
 11
21.275
 21
-31.1
  0
LINE
  8
0
 10
21.275
 20
-31.1
 11
21.3323
 21
-30.9237
  0
LINE
  8
0
 10
21.3323
 20
-30.9237
 11
21.4823
 21
-30.8147
  0
LINE
  8
0
 10
21.4823
 20
-30.8147
 11
35.6677
 21
-30.8147
  0
LINE
  8
0
 10
35.6677
 20
-30.8147
 11
35.8177
 21
-30.9237
  0
LINE
  8
0
 10
35.8177
 20
-30.9237
 11
35.875
 21
-31.1
  0
LINE
  8
0
 10
35.875
 20
-31.1
 11
35.875
 21
-45.1
  0
LINE
  8
0
 10
35.875
 20
-45.1
 11
35.8177
 21
-45.2763
  0
LINE
  8
0
 10
35.8177
 20
-45.2763
 11
35.6677
 21
-45.3853
  0
LINE
  8
0
 10
35.6677
 20
-45.3853
 11
21.4823
 21
-45.3853
  0
LINE
  8
0
 10
-15.57
 20
-46.309
 11
-15.57
 21
-44.905
  0
LINE
  8
0
 10
-15.57
 20
-44.905
 11
-17.375
 21
-44.905
  0
LINE
  8
0
 10
-17.375
 20
-44.905
 11
-17.375
 21
-38.6
  0
LINE
  8
0
 10
-17.375
 20
-38.6
 11
-18.127
 21
-38.6
  0
LINE
  8
0
 10
-18.127
 20
-38.6
 11
-18.127
 21
-35.61
  0
LINE
  8
0
 10
-18.127
 20
-35.61
 11
-17.375
 21
-35.61
  0
LINE
  8
0
 10
-17.375
 20
-35.61
 11
-17.375
 21
-31.295
  0
LINE
  8
0
 10
-17.375
 20
-31.295
 11
-10.625
 21
-31.295
  0
LINE
  8
0
 10
-10.625
 20
-31.295
 11
-10.625
 21
-32.205
  0
LINE
  8
0
 10
-10.625
 20
-32.205
 11
-7.29999
 21
-32.205
  0
LINE
  8
0
 10
-7.29999
 20
-32.205
 11
-7.29999
 21
-31.1
  0
LINE
  8
0
 10
-7.29999
 20
-31.1
 11
-7.24269
 21
-30.9237
  0
LINE
  8
0
 10
-7.24269
 20
-30.9237
 11
-7.0927
 21
-30.8147
  0
LINE
  8
0
 10
-7.0927
 20
-30.8147
 11
7.0927
 21
-30.8147
  0
LINE
  8
0
 10
7.0927
 20
-30.8147
 11
7.24269
 21
-30.9237
  0
LINE
  8
0
 10
7.24269
 20
-30.9237
 11
7.29999
 21
-31.1
  0
LINE
  8
0
 10
7.29999
 20
-31.1
 11
7.29999
 21
-32.205
  0
LINE
  8
0
 10
7.29999
 20
-32.205
 11
10.625
 21
-32.205
  0
LINE
  8
0
 10
10.625
 20
-32.205
 11
10.625
 21
-31.295
  0
LINE
  8
0
 10
10.625
 20
-31.295
 11
17.375
 21
-31.295
  0
LINE
  8
0
 10
17.375
 20
-31.295
 11
17.375
 21
-35.61
  0
LINE
  8
0
 10
17.375
 20
-35.61
 11
18.127
 21
-35.61
  0
LINE
  8
0
 10
18.127
 20
-35.61
 11
18.127
 21
-38.6
  0
LINE
  8
0
 10
18.127
 20
-38.6
 11
17.375
 21
-38.6
  0
LINE
  8
0
 10
17.375
 20
-38.6
 11
17.375
 21
-44.905
  0
LINE
  8
0
 10
17.375
 20
-44.905
 11
15.57
 21
-44.905
  0
LINE
  8
0
 10
15.57
 20
-44.905
 11
15.57
 21
-46.309
  0
LINE
  8
0
 10
15.57
 20
-46.309
 11
12.43
 21
-46.309
  0
LINE
  8
0
 10
12.43
 20
-46.309
 11
12.43
 21
-44.905
  0
LINE
  8
0
 10
12.43
 20
-44.905
 11
10.625
 21
-44.905
  0
LINE
  8
0
 10
10.625
 20
-44.905
 11
10.625
 21
-43.995
  0
LINE
  8
0
 10
10.625
 20
-43.995
 11
7.29999
 21
-43.995
  0
LINE
  8
0
 10
7.29999
 20
-43.995
 11
7.29999
 21
-45.1
  0
LINE
  8
0
 10
7.29999
 20
-45.1
 11
7.24269
 21
-45.2763
  0
LINE
  8
0
 10
7.24269
 20
-45.2763
 11
7.0927
 21
-45.3853
  0
LINE
  8
0
 10
7.0927
 20
-45.3853
 11
-7.0927
 21
-45.3853
  0
LINE
  8
0
 10
-7.0927
 20
-45.3853
 11
-7.24269
 21
-45.2763
  0
LINE
  8
0
 10
-7.24269
 20
-45.2763
 11
-7.29999
 21
-45.1
  0
LINE
  8
0
 10
-7.29999
 20
-45.1
 11
-7.29999
 21
-43.995
  0
LINE
  8
0
 10
-7.29999
 20
-43.995
 11
-10.625
 21
-43.995
  0
LINE
  8
0
 10
-10.625
 20
-43.995
 11
-10.625
 21
-44.905
  0
LINE
  8
0
 10
-10.625
 20
-44.905
 11
-12.43
 21
-44.905
  0
LINE
  8
0
 10
-12.43
 20
-44.905
 11
-12.43
 21
-46.309
  0
LINE
  8
0
 10
-12.43
 20
-46.309
 11
-15.57
 21
-46.309
  0
LINE
  8
0
 10
-54.7177
 20
-45.3853
 11
-54.8677
 21
-45.2763
  0
LINE
  8
0
 10
-54.8677
 20
-45.2763
 11
-54.925
 21
-45.1
  0
LINE
  8
0
 10
-54.925
 20
-45.1
 11
-54.925
 21
-31.1
  0
LINE
  8
0
 10
-54.925
 20
-31.1
 11
-54.8677
 21
-30.9237
  0
LINE
  8
0
 10
-54.8677
 20
-30.9237
 11
-54.7177
 21
-30.8147
  0
LINE
  8
0
 10
-54.7177
 20
-30.8147
 11
-40.5323
 21
-30.8147
  0
LINE
  8
0
 10
-40.5323
 20
-30.8147
 11
-40.3823
 21
-30.9237
  0
LINE
  8
0
 10
-40.3823
 20
-30.9237
 11
-40.325
 21
-31.1
  0
LINE
  8
0
 10
-40.325
 20
-31.1
 11
-40.325
 21
-45.1
  0
LINE
  8
0
 10
-40.325
 20
-45.1
 11
-40.3823
 21
-45.2763
  0
LINE
  8
0
 10
-40.3823
 20
-45.2763
 11
-40.5323
 21
-45.3853
  0
LINE
  8
0
 10
-40.5323
 20
-45.3853
 11
-54.7177
 21
-45.3853
  0
LINE
  8
0
 10
-73.7677
 20
-45.3853
 11
-73.9177
 21
-45.2763
  0
LINE
  8
0
 10
-73.9177
 20
-45.2763
 11
-73.975
 21
-45.1
  0
LINE
  8
0
 10
-73.975
 20
-45.1
 11
-73.975
 21
-31.1
  0
LINE
  8
0
 10
-73.975
 20
-31.1
 11
-73.9177
 21
-30.9237
  0
LINE
  8
0
 10
-73.9177
 20
-30.9237
 11
-73.7677
 21
-30.8147
  0
LINE
  8
0
 10
-73.7677
 20
-30.8147
 11
-59.5823
 21
-30.8147
  0
LINE
  8
0
 10
-59.5823
 20
-30.8147
 11
-59.4323
 21
-30.9237
  0
LINE
  8
0
 10
-59.4323
 20
-30.9237
 11
-59.375
 21
-31.1
  0
LINE
  8
0
 10
-59.375
 20
-31.1
 11
-59.375
 21
-45.1
  0
LINE
  8
0
 10
-59.375
 20
-45.1
 11
-59.4323
 21
-45.2763
  0
LINE
  8
0
 10
-59.4323
 20
-45.2763
 11
-59.5823
 21
-45.3853
  0
LINE
  8
0
 10
-59.5823
 20
-45.3853
 11
-73.7677
 21
-45.3853
  0
LINE
  8
0
 10
-92.8177
 20
-45.3853
 11
-92.9677
 21
-45.2763
  0
LINE
  8
0
 10
-92.9677
 20
-45.2763
 11
-93.025
 21
-45.1
  0
LINE
  8
0
 10
-93.025
 20
-45.1
 11
-93.025
 21
-31.1
  0
LINE
  8
0
 10
-93.025
 20
-31.1
 11
-92.9677
 21
-30.9237
  0
LINE
  8
0
 10
-92.9677
 20
-30.9237
 11
-92.8177
 21
-30.8147
  0
LINE
  8
0
 10
-92.8177
 20
-30.8147
 11
-78.6323
 21
-30.8147
  0
LINE
  8
0
 10
-78.6323
 20
-30.8147
 11
-78.4823
 21
-30.9237
  0
LINE
  8
0
 10
-78.4823
 20
-30.9237
 11
-78.425
 21
-31.1
  0
LINE
  8
0
 10
-78.425
 20
-31.1
 11
-78.425
 21
-45.1
  0
LINE
  8
0
 10
-78.425
 20
-45.1
 11
-78.4823
 21
-45.2763
  0
LINE
  8
0
 10
-78.4823
 20
-45.2763
 11
-78.6323
 21
-45.3853
  0
LINE
  8
0
 10
-78.6323
 20
-45.3853
 11
-92.8177
 21
-45.3853
  0
LINE
  8
0
 10
-130.918
 20
-45.3853
 11
-131.068
 21
-45.2763
  0
LINE
  8
0
 10
-131.068
 20
-45.2763
 11
-131.125
 21
-45.1
  0
LINE
  8
0
 10
-131.125
 20
-45.1
 11
-131.125
 21
-31.1
  0
LINE
  8
0
 10
-131.125
 20
-31.1
 11
-131.068
 21
-30.9237
  0
LINE
  8
0
 10
-131.068
 20
-30.9237
 11
-130.918
 21
-30.8147
  0
LINE
  8
0
 10
-130.918
 20
-30.8147
 11
-116.732
 21
-30.8147
  0
LINE
  8
0
 10
-116.732
 20
-30.8147
 11
-116.582
 21
-30.9237
  0
LINE
  8
0
 10
-116.582
 20
-30.9237
 11
-116.525
 21
-31.1
  0
LINE
  8
0
 10
-116.525
 20
-31.1
 11
-116.525
 21
-45.1
  0
LINE
  8
0
 10
-116.525
 20
-45.1
 11
-116.582
 21
-45.2763
  0
LINE
  8
0
 10
-116.582
 20
-45.2763
 11
-116.732
 21
-45.3853
  0
LINE
  8
0
 10
-116.732
 20
-45.3853
 11
-130.918
 21
-45.3853
  0
LINE
  8
0
 10
116.732
 20
-45.3853
 11
116.582
 21
-45.2763
  0
LINE
  8
0
 10
116.582
 20
-45.2763
 11
116.525
 21
-45.1
  0
LINE
  8
0
 10
116.525
 20
-45.1
 11
116.525
 21
-31.1
  0
LINE
  8
0
 10
116.525
 20
-31.1
 11
116.582
 21
-30.9237
  0
LINE
  8
0
 10
116.582
 20
-30.9237
 11
116.732
 21
-30.8147
  0
LINE
  8
0
 10
116.732
 20
-30.8147
 11
130.918
 21
-30.8147
  0
LINE
  8
0
 10
130.918
 20
-30.8147
 11
131.068
 21
-30.9237
  0
LINE
  8
0
 10
131.068
 20
-30.9237
 11
131.125
 21
-31.1
  0
LINE
  8
0
 10
131.125
 20
-31.1
 11
131.125
 21
-45.1
  0
LINE
  8
0
 10
131.125
 20
-45.1
 11
131.068
 21
-45.2763
  0
LINE
  8
0
 10
131.068
 20
-45.2763
 11
130.918
 21
-45.3853
  0
LINE
  8
0
 10
130.918
 20
-45.3853
 11
116.732
 21
-45.3853
  0
LINE
  8
0
 10
-114.624
 20
-39.0986
 11
-115.149
 21
-38.7172
  0
LINE
  8
0
 10
-115.149
 20
-38.7172
 11
-115.35
 21
-38.1
  0
LINE
  8
0
 10
-115.35
 20
-38.1
 11
-115.149
 21
-37.4828
  0
LINE
  8
0
 10
-115.149
 20
-37.4828
 11
-114.624
 21
-37.1014
  0
LINE
  8
0
 10
-114.624
 20
-37.1014
 11
-113.976
 21
-37.1014
  0
LINE
  8
0
 10
-113.976
 20
-37.1014
 11
-113.451
 21
-37.4828
  0
LINE
  8
0
 10
-113.451
 20
-37.4828
 11
-113.25
 21
-38.1
  0
LINE
  8
0
 10
-113.25
 20
-38.1
 11
-113.451
 21
-38.7172
  0
LINE
  8
0
 10
-113.451
 20
-38.7172
 11
-113.976
 21
-39.0986
  0
LINE
  8
0
 10
-113.976
 20
-39.0986
 11
-114.624
 21
-39.0986
  0
LINE
  8
0
 10
113.976
 20
-39.0986
 11
113.451
 21
-38.7172
  0
LINE
  8
0
 10
113.451
 20
-38.7172
 11
113.25
 21
-38.1
  0
LINE
  8
0
 10
113.25
 20
-38.1
 11
113.451
 21
-37.4828
  0
LINE
  8
0
 10
113.451
 20
-37.4828
 11
113.976
 21
-37.1014
  0
LINE
  8
0
 10
113.976
 20
-37.1014
 11
114.624
 21
-37.1014
  0
LINE
  8
0
 10
114.624
 20
-37.1014
 11
115.149
 21
-37.4828
  0
LINE
  8
0
 10
115.149
 20
-37.4828
 11
115.35
 21
-38.1
  0
LINE
  8
0
 10
115.35
 20
-38.1
 11
115.149
 21
-38.7172
  0
LINE
  8
0
 10
115.149
 20
-38.7172
 11
114.624
 21
-39.0986
  0
LINE
  8
0
 10
114.624
 20
-39.0986
 11
113.976
 21
-39.0986
  0
ENDSEC
  0
SECTION
  2
OBJECTS
  0
DICTIONARY
  0
ENDSEC
  0
EOF
