  0
SECTION
  2
BLOCKS
  0
ENDSEC
  0
SECTION
  2
ENTITIES
  0
LINE
  8
0
 10
135.427
 20
-49.2634
 11
136
 21
-47.5
  0
LINE
  8
0
 10
136
 20
-47.5
 11
136
 21
47.5
  0
LINE
  8
0
 10
136
 20
47.5
 11
135.427
 21
49.2634
  0
LINE
  8
0
 10
135.427
 20
49.2634
 11
133.927
 21
50.3532
  0
LINE
  8
0
 10
133.927
 20
50.3532
 11
-133.927
 21
50.3532
  0
LINE
  8
0
 10
-133.927
 20
50.3532
 11
-135.427
 21
49.2634
  0
LINE
  8
0
 10
-135.427
 20
49.2634
 11
-136
 21
47.5
  0
LINE
  8
0
 10
-136
 20
47.5
 11
-136
 21
-47.5
  0
LINE
  8
0
 10
-136
 20
-47.5
 11
-135.427
 21
-49.2634
  0
LINE
  8
0
 10
-135.427
 20
-49.2634
 11
-133.927
 21
-50.3532
  0
LINE
  8
0
 10
-133.927
 20
-50.3532
 11
133.927
 21
-50.3532
  0
LINE
  8
0
 10
133.927
 20
-50.3532
 11
135.427
 21
-49.2634
  0
LINE
  8
0
 10
-111.593
 20
30.7147
 11
-111.743
 21
30.8237
  0
LINE
  8
0
 10
-111.743
 20
30.8237
 11
-111.8
 21
31
  0
LINE
  8
0
 10
-111.8
 20
31
 11
-111.8
 21
45
  0
LINE
  8
0
 10
-111.8
 20
45
 11
-111.743
 21
45.1763
  0
LINE
  8
0
 10
-111.743
 20
45.1763
 11
-111.593
 21
45.2853
  0
LINE
  8
0
 10
-111.593
 20
45.2853
 11
-97.4073
 21
45.2853
  0
LINE
  8
0
 10
-97.4073
 20
45.2853
 11
-97.2573
 21
45.1763
  0
LINE
  8
0
 10
-97.2573
 20
45.1763
 11
-97.2
 21
45
  0
LINE
  8
0
 10
-97.2
 20
45
 11
-97.2
 21
31
  0
LINE
  8
0
 10
-97.2
 20
31
 11
-97.2573
 21
30.8237
  0
LINE
  8
0
 10
-97.2573
 20
30.8237
 11
-97.4073
 21
30.7147
  0
LINE
  8
0
 10
-97.4073
 20
30.7147
 11
-111.593
 21
30.7147
  0
LINE
  8
0
 10
-92.5927
 20
30.7147
 11
-92.7427
 21
30.8237
  0
LINE
  8
0
 10
-92.7427
 20
30.8237
 11
-92.8
 21
31
  0
LINE
  8
0
 10
-92.8
 20
31
 11
-92.8
 21
45
  0
LINE
  8
0
 10
-92.8
 20
45
 11
-92.7427
 21
45.1763
  0
LINE
  8
0
 10
-92.7427
 20
45.1763
 11
-92.5927
 21
45.2853
  0
LINE
  8
0
 10
-92.5927
 20
45.2853
 11
-78.4073
 21
45.2853
  0
LINE
  8
0
 10
-78.4073
 20
45.2853
 11
-78.2573
 21
45.1763
  0
LINE
  8
0
 10
-78.2573
 20
45.1763
 11
-78.2
 21
45
  0
LINE
  8
0
 10
-78.2
 20
45
 11
-78.2
 21
31
  0
LINE
  8
0
 10
-78.2
 20
31
 11
-78.2573
 21
30.8237
  0
LINE
  8
0
 10
-78.2573
 20
30.8237
 11
-78.4073
 21
30.7147
  0
LINE
  8
0
 10
-78.4073
 20
30.7147
 11
-92.5927
 21
30.7147
  0
LINE
  8
0
 10
-73.5927
 20
30.7147
 11
-73.7427
 21
30.8237
  0
LINE
  8
0
 10
-73.7427
 20
30.8237
 11
-73.8
 21
31
  0
LINE
  8
0
 10
-73.8
 20
31
 11
-73.8
 21
45
  0
LINE
  8
0
 10
-73.8
 20
45
 11
-73.7427
 21
45.1763
  0
LINE
  8
0
 10
-73.7427
 20
45.1763
 11
-73.5927
 21
45.2853
  0
LINE
  8
0
 10
-73.5927
 20
45.2853
 11
-59.4073
 21
45.2853
  0
LINE
  8
0
 10
-59.4073
 20
45.2853
 11
-59.2573
 21
45.1763
  0
LINE
  8
0
 10
-59.2573
 20
45.1763
 11
-59.2
 21
45
  0
LINE
  8
0
 10
-59.2
 20
45
 11
-59.2
 21
31
  0
LINE
  8
0
 10
-59.2
 20
31
 11
-59.2573
 21
30.8237
  0
LINE
  8
0
 10
-59.2573
 20
30.8237
 11
-59.4073
 21
30.7147
  0
LINE
  8
0
 10
-59.4073
 20
30.7147
 11
-73.5927
 21
30.7147
  0
LINE
  8
0
 10
-54.5927
 20
30.7147
 11
-54.7427
 21
30.8237
  0
LINE
  8
0
 10
-54.7427
 20
30.8237
 11
-54.8
 21
31
  0
LINE
  8
0
 10
-54.8
 20
31
 11
-54.8
 21
45
  0
LINE
  8
0
 10
-54.8
 20
45
 11
-54.7427
 21
45.1763
  0
LINE
  8
0
 10
-54.7427
 20
45.1763
 11
-54.5927
 21
45.2853
  0
LINE
  8
0
 10
-54.5927
 20
45.2853
 11
-40.4073
 21
45.2853
  0
LINE
  8
0
 10
-40.4073
 20
45.2853
 11
-40.2573
 21
45.1763
  0
LINE
  8
0
 10
-40.2573
 20
45.1763
 11
-40.2
 21
45
  0
LINE
  8
0
 10
-40.2
 20
45
 11
-40.2
 21
31
  0
LINE
  8
0
 10
-40.2
 20
31
 11
-40.2573
 21
30.8237
  0
LINE
  8
0
 10
-40.2573
 20
30.8237
 11
-40.4073
 21
30.7147
  0
LINE
  8
0
 10
-40.4073
 20
30.7147
 11
-54.5927
 21
30.7147
  0
LINE
  8
0
 10
-35.5927
 20
30.7147
 11
-35.7427
 21
30.8237
  0
LINE
  8
0
 10
-35.7427
 20
30.8237
 11
-35.8
 21
31
  0
LINE
  8
0
 10
-35.8
 20
31
 11
-35.8
 21
45
  0
LINE
  8
0
 10
-35.8
 20
45
 11
-35.7427
 21
45.1763
  0
LINE
  8
0
 10
-35.7427
 20
45.1763
 11
-35.5927
 21
45.2853
  0
LINE
  8
0
 10
-35.5927
 20
45.2853
 11
-21.4073
 21
45.2853
  0
LINE
  8
0
 10
-21.4073
 20
45.2853
 11
-21.2573
 21
45.1763
  0
LINE
  8
0
 10
-21.2573
 20
45.1763
 11
-21.2
 21
45
  0
LINE
  8
0
 10
-21.2
 20
45
 11
-21.2
 21
31
  0
LINE
  8
0
 10
-21.2
 20
31
 11
-21.2573
 21
30.8237
  0
LINE
  8
0
 10
-21.2573
 20
30.8237
 11
-21.4073
 21
30.7147
  0
LINE
  8
0
 10
-21.4073
 20
30.7147
 11
-35.5927
 21
30.7147
  0
LINE
  8
0
 10
-16.5927
 20
30.7147
 11
-16.7427
 21
30.8237
  0
LINE
  8
0
 10
-16.7427
 20
30.8237
 11
-16.8
 21
31
  0
LINE
  8
0
 10
-16.8
 20
31
 11
-16.8
 21
45
  0
LINE
  8
0
 10
-16.8
 20
45
 11
-16.7427
 21
45.1763
  0
LINE
  8
0
 10
-16.7427
 20
45.1763
 11
-16.5927
 21
45.2853
  0
LINE
  8
0
 10
-16.5927
 20
45.2853
 11
-2.40729
 21
45.2853
  0
LINE
  8
0
 10
-2.40729
 20
45.2853
 11
-2.25729
 21
45.1763
  0
LINE
  8
0
 10
-2.25729
 20
45.1763
 11
-2.2
 21
45
  0
LINE
  8
0
 10
-2.2
 20
45
 11
-2.2
 21
31
  0
LINE
  8
0
 10
-2.2
 20
31
 11
-2.25729
 21
30.8237
  0
LINE
  8
0
 10
-2.25729
 20
30.8237
 11
-2.40729
 21
30.7147
  0
LINE
  8
0
 10
-2.40729
 20
30.7147
 11
-16.5927
 21
30.7147
  0
LINE
  8
0
 10
2.40729
 20
30.7147
 11
2.25729
 21
30.8237
  0
LINE
  8
0
 10
2.25729
 20
30.8237
 11
2.2
 21
31
  0
LINE
  8
0
 10
2.2
 20
31
 11
2.2
 21
45
  0
LINE
  8
0
 10
2.2
 20
45
 11
2.25729
 21
45.1763
  0
LINE
  8
0
 10
2.25729
 20
45.1763
 11
2.40729
 21
45.2853
  0
LINE
  8
0
 10
2.40729
 20
45.2853
 11
16.5927
 21
45.2853
  0
LINE
  8
0
 10
16.5927
 20
45.2853
 11
16.7427
 21
45.1763
  0
LINE
  8
0
 10
16.7427
 20
45.1763
 11
16.8
 21
45
  0
LINE
  8
0
 10
16.8
 20
45
 11
16.8
 21
31
  0
LINE
  8
0
 10
16.8
 20
31
 11
16.7427
 21
30.8237
  0
LINE
  8
0
 10
16.7427
 20
30.8237
 11
16.5927
 21
30.7147
  0
LINE
  8
0
 10
16.5927
 20
30.7147
 11
2.40729
 21
30.7147
  0
LINE
  8
0
 10
40.4073
 20
30.7147
 11
40.2573
 21
30.8237
  0
LINE
  8
0
 10
40.2573
 20
30.8237
 11
40.2
 21
31
  0
LINE
  8
0
 10
40.2
 20
31
 11
40.2
 21
45
  0
LINE
  8
0
 10
40.2
 20
45
 11
40.2573
 21
45.1763
  0
LINE
  8
0
 10
40.2573
 20
45.1763
 11
40.4073
 21
45.2853
  0
LINE
  8
0
 10
40.4073
 20
45.2853
 11
54.5927
 21
45.2853
  0
LINE
  8
0
 10
54.5927
 20
45.2853
 11
54.7427
 21
45.1763
  0
LINE
  8
0
 10
54.7427
 20
45.1763
 11
54.8
 21
45
  0
LINE
  8
0
 10
54.8
 20
45
 11
54.8
 21
31
  0
LINE
  8
0
 10
54.8
 20
31
 11
54.7427
 21
30.8237
  0
LINE
  8
0
 10
54.7427
 20
30.8237
 11
54.5927
 21
30.7147
  0
LINE
  8
0
 10
54.5927
 20
30.7147
 11
40.4073
 21
30.7147
  0
LINE
  8
0
 10
59.4073
 20
30.7147
 11
59.2573
 21
30.8237
  0
LINE
  8
0
 10
59.2573
 20
30.8237
 11
59.2
 21
31
  0
LINE
  8
0
 10
59.2
 20
31
 11
59.2
 21
45
  0
LINE
  8
0
 10
59.2
 20
45
 11
59.2573
 21
45.1763
  0
LINE
  8
0
 10
59.2573
 20
45.1763
 11
59.4073
 21
45.2853
  0
LINE
  8
0
 10
59.4073
 20
45.2853
 11
73.5927
 21
45.2853
  0
LINE
  8
0
 10
73.5927
 20
45.2853
 11
73.7427
 21
45.1763
  0
LINE
  8
0
 10
73.7427
 20
45.1763
 11
73.8
 21
45
  0
LINE
  8
0
 10
73.8
 20
45
 11
73.8
 21
31
  0
LINE
  8
0
 10
73.8
 20
31
 11
73.7427
 21
30.8237
  0
LINE
  8
0
 10
73.7427
 20
30.8237
 11
73.5927
 21
30.7147
  0
LINE
  8
0
 10
73.5927
 20
30.7147
 11
59.4073
 21
30.7147
  0
LINE
  8
0
 10
78.4073
 20
30.7147
 11
78.2573
 21
30.8237
  0
LINE
  8
0
 10
78.2573
 20
30.8237
 11
78.2
 21
31
  0
LINE
  8
0
 10
78.2
 20
31
 11
78.2
 21
45
  0
LINE
  8
0
 10
78.2
 20
45
 11
78.2573
 21
45.1763
  0
LINE
  8
0
 10
78.2573
 20
45.1763
 11
78.4073
 21
45.2853
  0
LINE
  8
0
 10
78.4073
 20
45.2853
 11
92.5927
 21
45.2853
  0
LINE
  8
0
 10
92.5927
 20
45.2853
 11
92.7427
 21
45.1763
  0
LINE
  8
0
 10
92.7427
 20
45.1763
 11
92.8
 21
45
  0
LINE
  8
0
 10
92.8
 20
45
 11
92.8
 21
31
  0
LINE
  8
0
 10
92.8
 20
31
 11
92.7427
 21
30.8237
  0
LINE
  8
0
 10
92.7427
 20
30.8237
 11
92.5927
 21
30.7147
  0
LINE
  8
0
 10
92.5927
 20
30.7147
 11
78.4073
 21
30.7147
  0
LINE
  8
0
 10
97.4073
 20
30.7147
 11
97.2573
 21
30.8237
  0
LINE
  8
0
 10
97.2573
 20
30.8237
 11
97.2
 21
31
  0
LINE
  8
0
 10
97.2
 20
31
 11
97.2
 21
45
  0
LINE
  8
0
 10
97.2
 20
45
 11
97.2573
 21
45.1763
  0
LINE
  8
0
 10
97.2573
 20
45.1763
 11
97.4073
 21
45.2853
  0
LINE
  8
0
 10
97.4073
 20
45.2853
 11
111.593
 21
45.2853
  0
LINE
  8
0
 10
111.593
 20
45.2853
 11
111.743
 21
45.1763
  0
LINE
  8
0
 10
111.743
 20
45.1763
 11
111.8
 21
45
  0
LINE
  8
0
 10
111.8
 20
45
 11
111.8
 21
31
  0
LINE
  8
0
 10
111.8
 20
31
 11
111.743
 21
30.8237
  0
LINE
  8
0
 10
111.743
 20
30.8237
 11
111.593
 21
30.7147
  0
LINE
  8
0
 10
111.593
 20
30.7147
 11
97.4073
 21
30.7147
  0
LINE
  8
0
 10
116.407
 20
30.7147
 11
116.257
 21
30.8237
  0
LINE
  8
0
 10
116.257
 20
30.8237
 11
116.2
 21
31
  0
LINE
  8
0
 10
116.2
 20
31
 11
116.2
 21
45
  0
LINE
  8
0
 10
116.2
 20
45
 11
116.257
 21
45.1763
  0
LINE
  8
0
 10
116.257
 20
45.1763
 11
116.407
 21
45.2853
  0
LINE
  8
0
 10
116.407
 20
45.2853
 11
130.593
 21
45.2853
  0
LINE
  8
0
 10
130.593
 20
45.2853
 11
130.743
 21
45.1763
  0
LINE
  8
0
 10
130.743
 20
45.1763
 11
130.8
 21
45
  0
LINE
  8
0
 10
130.8
 20
45
 11
130.8
 21
31
  0
LINE
  8
0
 10
130.8
 20
31
 11
130.743
 21
30.8237
  0
LINE
  8
0
 10
130.743
 20
30.8237
 11
130.593
 21
30.7147
  0
LINE
  8
0
 10
130.593
 20
30.7147
 11
116.407
 21
30.7147
  0
LINE
  8
0
 10
-130.593
 20
30.7147
 11
-130.743
 21
30.8237
  0
LINE
  8
0
 10
-130.743
 20
30.8237
 11
-130.8
 21
31
  0
LINE
  8
0
 10
-130.8
 20
31
 11
-130.8
 21
45
  0
LINE
  8
0
 10
-130.8
 20
45
 11
-130.743
 21
45.1763
  0
LINE
  8
0
 10
-130.743
 20
45.1763
 11
-130.593
 21
45.2853
  0
LINE
  8
0
 10
-130.593
 20
45.2853
 11
-116.407
 21
45.2853
  0
LINE
  8
0
 10
-116.407
 20
45.2853
 11
-116.257
 21
45.1763
  0
LINE
  8
0
 10
-116.257
 20
45.1763
 11
-116.2
 21
45
  0
LINE
  8
0
 10
-116.2
 20
45
 11
-116.2
 21
31
  0
LINE
  8
0
 10
-116.2
 20
31
 11
-116.257
 21
30.8237
  0
LINE
  8
0
 10
-116.257
 20
30.8237
 11
-116.407
 21
30.7147
  0
LINE
  8
0
 10
-116.407
 20
30.7147
 11
-130.593
 21
30.7147
  0
LINE
  8
0
 10
21.4073
 20
30.7147
 11
21.2573
 21
30.8237
  0
LINE
  8
0
 10
21.2573
 20
30.8237
 11
21.2
 21
31
  0
LINE
  8
0
 10
21.2
 20
31
 11
21.2
 21
45
  0
LINE
  8
0
 10
21.2
 20
45
 11
21.2573
 21
45.1763
  0
LINE
  8
0
 10
21.2573
 20
45.1763
 11
21.4073
 21
45.2853
  0
LINE
  8
0
 10
21.4073
 20
45.2853
 11
35.5927
 21
45.2853
  0
LINE
  8
0
 10
35.5927
 20
45.2853
 11
35.7427
 21
45.1763
  0
LINE
  8
0
 10
35.7427
 20
45.1763
 11
35.8
 21
45
  0
LINE
  8
0
 10
35.8
 20
45
 11
35.8
 21
31
  0
LINE
  8
0
 10
35.8
 20
31
 11
35.7427
 21
30.8237
  0
LINE
  8
0
 10
35.7427
 20
30.8237
 11
35.5927
 21
30.7147
  0
LINE
  8
0
 10
35.5927
 20
30.7147
 11
21.4073
 21
30.7147
  0
LINE
  8
0
 10
-114.355
 20
36.9063
 11
-114.93
 21
37.324
  0
LINE
  8
0
 10
-114.93
 20
37.324
 11
-115.15
 21
38
  0
LINE
  8
0
 10
-115.15
 20
38
 11
-114.93
 21
38.6759
  0
LINE
  8
0
 10
-114.93
 20
38.6759
 11
-114.355
 21
39.0937
  0
LINE
  8
0
 10
-114.355
 20
39.0937
 11
-113.645
 21
39.0937
  0
LINE
  8
0
 10
-113.645
 20
39.0937
 11
-113.07
 21
38.6759
  0
LINE
  8
0
 10
-113.07
 20
38.6759
 11
-112.85
 21
38
  0
LINE
  8
0
 10
-112.85
 20
38
 11
-113.07
 21
37.324
  0
LINE
  8
0
 10
-113.07
 20
37.324
 11
-113.645
 21
36.9063
  0
LINE
  8
0
 10
-113.645
 20
36.9063
 11
-114.355
 21
36.9063
  0
LINE
  8
0
 10
113.645
 20
36.9063
 11
113.07
 21
37.324
  0
LINE
  8
0
 10
113.07
 20
37.324
 11
112.85
 21
38
  0
LINE
  8
0
 10
112.85
 20
38
 11
113.07
 21
38.6759
  0
LINE
  8
0
 10
113.07
 20
38.6759
 11
113.645
 21
39.0937
  0
LINE
  8
0
 10
113.645
 20
39.0937
 11
114.355
 21
39.0937
  0
LINE
  8
0
 10
114.355
 20
39.0937
 11
114.93
 21
38.6759
  0
LINE
  8
0
 10
114.93
 20
38.6759
 11
115.15
 21
38
  0
LINE
  8
0
 10
115.15
 20
38
 11
114.93
 21
37.324
  0
LINE
  8
0
 10
114.93
 20
37.324
 11
114.355
 21
36.9063
  0
LINE
  8
0
 10
114.355
 20
36.9063
 11
113.645
 21
36.9063
  0
LINE
  8
0
 10
-0.355362
 20
36.9063
 11
-0.930359
 21
37.324
  0
LINE
  8
0
 10
-0.930359
 20
37.324
 11
-1.14999
 21
38
  0
LINE
  8
0
 10
-1.14999
 20
38
 11
-0.930359
 21
38.6759
  0
LINE
  8
0
 10
-0.930359
 20
38.6759
 11
-0.355362
 21
39.0937
  0
LINE
  8
0
 10
-0.355362
 20
39.0937
 11
0.355362
 21
39.0937
  0
LINE
  8
0
 10
0.355362
 20
39.0937
 11
0.930359
 21
38.6759
  0
LINE
  8
0
 10
0.930359
 20
38.6759
 11
1.14999
 21
38
  0
LINE
  8
0
 10
1.14999
 20
38
 11
0.930359
 21
37.324
  0
LINE
  8
0
 10
0.930359
 20
37.324
 11
0.355362
 21
36.9063
  0
LINE
  8
0
 10
0.355362
 20
36.9063
 11
-0.355362
 21
36.9063
  0
LINE
  8
0
 10
116.407
 20
11.7147
 11
116.257
 21
11.8237
  0
LINE
  8
0
 10
116.257
 20
11.8237
 11
116.2
 21
12
  0
LINE
  8
0
 10
116.2
 20
12
 11
116.2
 21
26
  0
LINE
  8
0
 10
116.2
 20
26
 11
116.257
 21
26.1763
  0
LINE
  8
0
 10
116.257
 20
26.1763
 11
116.407
 21
26.2853
  0
LINE
  8
0
 10
116.407
 20
26.2853
 11
130.593
 21
26.2853
  0
LINE
  8
0
 10
130.593
 20
26.2853
 11
130.743
 21
26.1763
  0
LINE
  8
0
 10
130.743
 20
26.1763
 11
130.8
 21
26
  0
LINE
  8
0
 10
130.8
 20
26
 11
130.8
 21
12
  0
LINE
  8
0
 10
130.8
 20
12
 11
130.743
 21
11.8237
  0
LINE
  8
0
 10
130.743
 20
11.8237
 11
130.593
 21
11.7147
  0
LINE
  8
0
 10
130.593
 20
11.7147
 11
116.407
 21
11.7147
  0
LINE
  8
0
 10
-130.593
 20
11.7147
 11
-130.743
 21
11.8237
  0
LINE
  8
0
 10
-130.743
 20
11.8237
 11
-130.8
 21
12
  0
LINE
  8
0
 10
-130.8
 20
12
 11
-130.8
 21
26
  0
LINE
  8
0
 10
-130.8
 20
26
 11
-130.743
 21
26.1763
  0
LINE
  8
0
 10
-130.743
 20
26.1763
 11
-130.593
 21
26.2853
  0
LINE
  8
0
 10
-130.593
 20
26.2853
 11
-116.407
 21
26.2853
  0
LINE
  8
0
 10
-116.407
 20
26.2853
 11
-116.257
 21
26.1763
  0
LINE
  8
0
 10
-116.257
 20
26.1763
 11
-116.2
 21
26
  0
LINE
  8
0
 10
-116.2
 20
26
 11
-116.2
 21
12
  0
LINE
  8
0
 10
-116.2
 20
12
 11
-116.257
 21
11.8237
  0
LINE
  8
0
 10
-116.257
 20
11.8237
 11
-116.407
 21
11.7147
  0
LINE
  8
0
 10
-116.407
 20
11.7147
 11
-130.593
 21
11.7147
  0
LINE
  8
0
 10
-111.593
 20
11.7147
 11
-111.743
 21
11.8237
  0
LINE
  8
0
 10
-111.743
 20
11.8237
 11
-111.8
 21
12
  0
LINE
  8
0
 10
-111.8
 20
12
 11
-111.8
 21
26
  0
LINE
  8
0
 10
-111.8
 20
26
 11
-111.743
 21
26.1763
  0
LINE
  8
0
 10
-111.743
 20
26.1763
 11
-111.593
 21
26.2853
  0
LINE
  8
0
 10
-111.593
 20
26.2853
 11
-97.4073
 21
26.2853
  0
LINE
  8
0
 10
-97.4073
 20
26.2853
 11
-97.2573
 21
26.1763
  0
LINE
  8
0
 10
-97.2573
 20
26.1763
 11
-97.2
 21
26
  0
LINE
  8
0
 10
-97.2
 20
26
 11
-97.2
 21
12
  0
LINE
  8
0
 10
-97.2
 20
12
 11
-97.2573
 21
11.8237
  0
LINE
  8
0
 10
-97.2573
 20
11.8237
 11
-97.4073
 21
11.7147
  0
LINE
  8
0
 10
-97.4073
 20
11.7147
 11
-111.593
 21
11.7147
  0
LINE
  8
0
 10
-92.5927
 20
11.7147
 11
-92.7427
 21
11.8237
  0
LINE
  8
0
 10
-92.7427
 20
11.8237
 11
-92.8
 21
12
  0
LINE
  8
0
 10
-92.8
 20
12
 11
-92.8
 21
26
  0
LINE
  8
0
 10
-92.8
 20
26
 11
-92.7427
 21
26.1763
  0
LINE
  8
0
 10
-92.7427
 20
26.1763
 11
-92.5927
 21
26.2853
  0
LINE
  8
0
 10
-92.5927
 20
26.2853
 11
-78.4073
 21
26.2853
  0
LINE
  8
0
 10
-78.4073
 20
26.2853
 11
-78.2573
 21
26.1763
  0
LINE
  8
0
 10
-78.2573
 20
26.1763
 11
-78.2
 21
26
  0
LINE
  8
0
 10
-78.2
 20
26
 11
-78.2
 21
12
  0
LINE
  8
0
 10
-78.2
 20
12
 11
-78.2573
 21
11.8237
  0
LINE
  8
0
 10
-78.2573
 20
11.8237
 11
-78.4073
 21
11.7147
  0
LINE
  8
0
 10
-78.4073
 20
11.7147
 11
-92.5927
 21
11.7147
  0
LINE
  8
0
 10
-73.5927
 20
11.7147
 11
-73.7427
 21
11.8237
  0
LINE
  8
0
 10
-73.7427
 20
11.8237
 11
-73.8
 21
12
  0
LINE
  8
0
 10
-73.8
 20
12
 11
-73.8
 21
26
  0
LINE
  8
0
 10
-73.8
 20
26
 11
-73.7427
 21
26.1763
  0
LINE
  8
0
 10
-73.7427
 20
26.1763
 11
-73.5927
 21
26.2853
  0
LINE
  8
0
 10
-73.5927
 20
26.2853
 11
-59.4073
 21
26.2853
  0
LINE
  8
0
 10
-59.4073
 20
26.2853
 11
-59.2573
 21
26.1763
  0
LINE
  8
0
 10
-59.2573
 20
26.1763
 11
-59.2
 21
26
  0
LINE
  8
0
 10
-59.2
 20
26
 11
-59.2
 21
12
  0
LINE
  8
0
 10
-59.2
 20
12
 11
-59.2573
 21
11.8237
  0
LINE
  8
0
 10
-59.2573
 20
11.8237
 11
-59.4073
 21
11.7147
  0
LINE
  8
0
 10
-59.4073
 20
11.7147
 11
-73.5927
 21
11.7147
  0
LINE
  8
0
 10
-35.5927
 20
11.7147
 11
-35.7427
 21
11.8237
  0
LINE
  8
0
 10
-35.7427
 20
11.8237
 11
-35.8
 21
12
  0
LINE
  8
0
 10
-35.8
 20
12
 11
-35.8
 21
26
  0
LINE
  8
0
 10
-35.8
 20
26
 11
-35.7427
 21
26.1763
  0
LINE
  8
0
 10
-35.7427
 20
26.1763
 11
-35.5927
 21
26.2853
  0
LINE
  8
0
 10
-35.5927
 20
26.2853
 11
-21.4073
 21
26.2853
  0
LINE
  8
0
 10
-21.4073
 20
26.2853
 11
-21.2573
 21
26.1763
  0
LINE
  8
0
 10
-21.2573
 20
26.1763
 11
-21.2
 21
26
  0
LINE
  8
0
 10
-21.2
 20
26
 11
-21.2
 21
12
  0
LINE
  8
0
 10
-21.2
 20
12
 11
-21.2573
 21
11.8237
  0
LINE
  8
0
 10
-21.2573
 20
11.8237
 11
-21.4073
 21
11.7147
  0
LINE
  8
0
 10
-21.4073
 20
11.7147
 11
-35.5927
 21
11.7147
  0
LINE
  8
0
 10
-16.5927
 20
11.7147
 11
-16.7427
 21
11.8237
  0
LINE
  8
0
 10
-16.7427
 20
11.8237
 11
-16.8
 21
12
  0
LINE
  8
0
 10
-16.8
 20
12
 11
-16.8
 21
26
  0
LINE
  8
0
 10
-16.8
 20
26
 11
-16.7427
 21
26.1763
  0
LINE
  8
0
 10
-16.7427
 20
26.1763
 11
-16.5927
 21
26.2853
  0
LINE
  8
0
 10
-16.5927
 20
26.2853
 11
-2.40729
 21
26.2853
  0
LINE
  8
0
 10
-2.40729
 20
26.2853
 11
-2.25729
 21
26.1763
  0
LINE
  8
0
 10
-2.25729
 20
26.1763
 11
-2.2
 21
26
  0
LINE
  8
0
 10
-2.2
 20
26
 11
-2.2
 21
12
  0
LINE
  8
0
 10
-2.2
 20
12
 11
-2.25729
 21
11.8237
  0
LINE
  8
0
 10
-2.25729
 20
11.8237
 11
-2.40729
 21
11.7147
  0
LINE
  8
0
 10
-2.40729
 20
11.7147
 11
-16.5927
 21
11.7147
  0
LINE
  8
0
 10
2.40729
 20
11.7147
 11
2.25729
 21
11.8237
  0
LINE
  8
0
 10
2.25729
 20
11.8237
 11
2.2
 21
12
  0
LINE
  8
0
 10
2.2
 20
12
 11
2.2
 21
26
  0
LINE
  8
0
 10
2.2
 20
26
 11
2.25729
 21
26.1763
  0
LINE
  8
0
 10
2.25729
 20
26.1763
 11
2.40729
 21
26.2853
  0
LINE
  8
0
 10
2.40729
 20
26.2853
 11
16.5927
 21
26.2853
  0
LINE
  8
0
 10
16.5927
 20
26.2853
 11
16.7427
 21
26.1763
  0
LINE
  8
0
 10
16.7427
 20
26.1763
 11
16.8
 21
26
  0
LINE
  8
0
 10
16.8
 20
26
 11
16.8
 21
12
  0
LINE
  8
0
 10
16.8
 20
12
 11
16.7427
 21
11.8237
  0
LINE
  8
0
 10
16.7427
 20
11.8237
 11
16.5927
 21
11.7147
  0
LINE
  8
0
 10
16.5927
 20
11.7147
 11
2.40729
 21
11.7147
  0
LINE
  8
0
 10
21.4073
 20
11.7147
 11
21.2573
 21
11.8237
  0
LINE
  8
0
 10
21.2573
 20
11.8237
 11
21.2
 21
12
  0
LINE
  8
0
 10
21.2
 20
12
 11
21.2
 21
26
  0
LINE
  8
0
 10
21.2
 20
26
 11
21.2573
 21
26.1763
  0
LINE
  8
0
 10
21.2573
 20
26.1763
 11
21.4073
 21
26.2853
  0
LINE
  8
0
 10
21.4073
 20
26.2853
 11
35.5927
 21
26.2853
  0
LINE
  8
0
 10
35.5927
 20
26.2853
 11
35.7427
 21
26.1763
  0
LINE
  8
0
 10
35.7427
 20
26.1763
 11
35.8
 21
26
  0
LINE
  8
0
 10
35.8
 20
26
 11
35.8
 21
12
  0
LINE
  8
0
 10
35.8
 20
12
 11
35.7427
 21
11.8237
  0
LINE
  8
0
 10
35.7427
 20
11.8237
 11
35.5927
 21
11.7147
  0
LINE
  8
0
 10
35.5927
 20
11.7147
 11
21.4073
 21
11.7147
  0
LINE
  8
0
 10
40.4073
 20
11.7147
 11
40.2573
 21
11.8237
  0
LINE
  8
0
 10
40.2573
 20
11.8237
 11
40.2
 21
12
  0
LINE
  8
0
 10
40.2
 20
12
 11
40.2
 21
26
  0
LINE
  8
0
 10
40.2
 20
26
 11
40.2573
 21
26.1763
  0
LINE
  8
0
 10
40.2573
 20
26.1763
 11
40.4073
 21
26.2853
  0
LINE
  8
0
 10
40.4073
 20
26.2853
 11
54.5927
 21
26.2853
  0
LINE
  8
0
 10
54.5927
 20
26.2853
 11
54.7427
 21
26.1763
  0
LINE
  8
0
 10
54.7427
 20
26.1763
 11
54.8
 21
26
  0
LINE
  8
0
 10
54.8
 20
26
 11
54.8
 21
12
  0
LINE
  8
0
 10
54.8
 20
12
 11
54.7427
 21
11.8237
  0
LINE
  8
0
 10
54.7427
 20
11.8237
 11
54.5927
 21
11.7147
  0
LINE
  8
0
 10
54.5927
 20
11.7147
 11
40.4073
 21
11.7147
  0
LINE
  8
0
 10
59.4073
 20
11.7147
 11
59.2573
 21
11.8237
  0
LINE
  8
0
 10
59.2573
 20
11.8237
 11
59.2
 21
12
  0
LINE
  8
0
 10
59.2
 20
12
 11
59.2
 21
26
  0
LINE
  8
0
 10
59.2
 20
26
 11
59.2573
 21
26.1763
  0
LINE
  8
0
 10
59.2573
 20
26.1763
 11
59.4073
 21
26.2853
  0
LINE
  8
0
 10
59.4073
 20
26.2853
 11
73.5927
 21
26.2853
  0
LINE
  8
0
 10
73.5927
 20
26.2853
 11
73.7427
 21
26.1763
  0
LINE
  8
0
 10
73.7427
 20
26.1763
 11
73.8
 21
26
  0
LINE
  8
0
 10
73.8
 20
26
 11
73.8
 21
12
  0
LINE
  8
0
 10
73.8
 20
12
 11
73.7427
 21
11.8237
  0
LINE
  8
0
 10
73.7427
 20
11.8237
 11
73.5927
 21
11.7147
  0
LINE
  8
0
 10
73.5927
 20
11.7147
 11
59.4073
 21
11.7147
  0
LINE
  8
0
 10
78.4073
 20
11.7147
 11
78.2573
 21
11.8237
  0
LINE
  8
0
 10
78.2573
 20
11.8237
 11
78.2
 21
12
  0
LINE
  8
0
 10
78.2
 20
12
 11
78.2
 21
26
  0
LINE
  8
0
 10
78.2
 20
26
 11
78.2573
 21
26.1763
  0
LINE
  8
0
 10
78.2573
 20
26.1763
 11
78.4073
 21
26.2853
  0
LINE
  8
0
 10
78.4073
 20
26.2853
 11
92.5927
 21
26.2853
  0
LINE
  8
0
 10
92.5927
 20
26.2853
 11
92.7427
 21
26.1763
  0
LINE
  8
0
 10
92.7427
 20
26.1763
 11
92.8
 21
26
  0
LINE
  8
0
 10
92.8
 20
26
 11
92.8
 21
12
  0
LINE
  8
0
 10
92.8
 20
12
 11
92.7427
 21
11.8237
  0
LINE
  8
0
 10
92.7427
 20
11.8237
 11
92.5927
 21
11.7147
  0
LINE
  8
0
 10
92.5927
 20
11.7147
 11
78.4073
 21
11.7147
  0
LINE
  8
0
 10
97.4073
 20
11.7147
 11
97.2573
 21
11.8237
  0
LINE
  8
0
 10
97.2573
 20
11.8237
 11
97.2
 21
12
  0
LINE
  8
0
 10
97.2
 20
12
 11
97.2
 21
26
  0
LINE
  8
0
 10
97.2
 20
26
 11
97.2573
 21
26.1763
  0
LINE
  8
0
 10
97.2573
 20
26.1763
 11
97.4073
 21
26.2853
  0
LINE
  8
0
 10
97.4073
 20
26.2853
 11
111.593
 21
26.2853
  0
LINE
  8
0
 10
111.593
 20
26.2853
 11
111.743
 21
26.1763
  0
LINE
  8
0
 10
111.743
 20
26.1763
 11
111.8
 21
26
  0
LINE
  8
0
 10
111.8
 20
26
 11
111.8
 21
12
  0
LINE
  8
0
 10
111.8
 20
12
 11
111.743
 21
11.8237
  0
LINE
  8
0
 10
111.743
 20
11.8237
 11
111.593
 21
11.7147
  0
LINE
  8
0
 10
111.593
 20
11.7147
 11
97.4073
 21
11.7147
  0
LINE
  8
0
 10
-54.5927
 20
11.7147
 11
-54.7427
 21
11.8237
  0
LINE
  8
0
 10
-54.7427
 20
11.8237
 11
-54.8
 21
12
  0
LINE
  8
0
 10
-54.8
 20
12
 11
-54.8
 21
26
  0
LINE
  8
0
 10
-54.8
 20
26
 11
-54.7427
 21
26.1763
  0
LINE
  8
0
 10
-54.7427
 20
26.1763
 11
-54.5927
 21
26.2853
  0
LINE
  8
0
 10
-54.5927
 20
26.2853
 11
-40.4073
 21
26.2853
  0
LINE
  8
0
 10
-40.4073
 20
26.2853
 11
-40.2573
 21
26.1763
  0
LINE
  8
0
 10
-40.2573
 20
26.1763
 11
-40.2
 21
26
  0
LINE
  8
0
 10
-40.2
 20
26
 11
-40.2
 21
12
  0
LINE
  8
0
 10
-40.2
 20
12
 11
-40.2573
 21
11.8237
  0
LINE
  8
0
 10
-40.2573
 20
11.8237
 11
-40.4073
 21
11.7147
  0
LINE
  8
0
 10
-40.4073
 20
11.7147
 11
-54.5927
 21
11.7147
  0
LINE
  8
0
 10
-54.5927
 20
-7.28531
 11
-54.7427
 21
-7.17633
  0
LINE
  8
0
 10
-54.7427
 20
-7.17633
 11
-54.8
 21
-7
  0
LINE
  8
0
 10
-54.8
 20
-7
 11
-54.8
 21
7
  0
LINE
  8
0
 10
-54.8
 20
7
 11
-54.7427
 21
7.17633
  0
LINE
  8
0
 10
-54.7427
 20
7.17633
 11
-54.5927
 21
7.28531
  0
LINE
  8
0
 10
-54.5927
 20
7.28531
 11
-40.4073
 21
7.28531
  0
LINE
  8
0
 10
-40.4073
 20
7.28531
 11
-40.2573
 21
7.17633
  0
LINE
  8
0
 10
-40.2573
 20
7.17633
 11
-40.2
 21
7
  0
LINE
  8
0
 10
-40.2
 20
7
 11
-40.2
 21
-7
  0
LINE
  8
0
 10
-40.2
 20
-7
 11
-40.2573
 21
-7.17633
  0
LINE
  8
0
 10
-40.2573
 20
-7.17633
 11
-40.4073
 21
-7.28531
  0
LINE
  8
0
 10
-40.4073
 20
-7.28531
 11
-54.5927
 21
-7.28531
  0
LINE
  8
0
 10
21.4073
 20
-7.28531
 11
21.2573
 21
-7.17633
  0
LINE
  8
0
 10
21.2573
 20
-7.17633
 11
21.2
 21
-7
  0
LINE
  8
0
 10
21.2
 20
-7
 11
21.2
 21
7
  0
LINE
  8
0
 10
21.2
 20
7
 11
21.2573
 21
7.17633
  0
LINE
  8
0
 10
21.2573
 20
7.17633
 11
21.4073
 21
7.28531
  0
LINE
  8
0
 10
21.4073
 20
7.28531
 11
35.5927
 21
7.28531
  0
LINE
  8
0
 10
35.5927
 20
7.28531
 11
35.7427
 21
7.17633
  0
LINE
  8
0
 10
35.7427
 20
7.17633
 11
35.8
 21
7
  0
LINE
  8
0
 10
35.8
 20
7
 11
35.8
 21
-7
  0
LINE
  8
0
 10
35.8
 20
-7
 11
35.7427
 21
-7.17633
  0
LINE
  8
0
 10
35.7427
 20
-7.17633
 11
35.5927
 21
-7.28531
  0
LINE
  8
0
 10
35.5927
 20
-7.28531
 11
21.4073
 21
-7.28531
  0
LINE
  8
0
 10
-130.593
 20
-7.28531
 11
-130.743
 21
-7.17633
  0
LINE
  8
0
 10
-130.743
 20
-7.17633
 11
-130.8
 21
-7
  0
LINE
  8
0
 10
-130.8
 20
-7
 11
-130.8
 21
7
  0
LINE
  8
0
 10
-130.8
 20
7
 11
-130.743
 21
7.17633
  0
LINE
  8
0
 10
-130.743
 20
7.17633
 11
-130.593
 21
7.28531
  0
LINE
  8
0
 10
-130.593
 20
7.28531
 11
-116.407
 21
7.28531
  0
LINE
  8
0
 10
-116.407
 20
7.28531
 11
-116.257
 21
7.17633
  0
LINE
  8
0
 10
-116.257
 20
7.17633
 11
-116.2
 21
7
  0
LINE
  8
0
 10
-116.2
 20
7
 11
-116.2
 21
-7
  0
LINE
  8
0
 10
-116.2
 20
-7
 11
-116.257
 21
-7.17633
  0
LINE
  8
0
 10
-116.257
 20
-7.17633
 11
-116.407
 21
-7.28531
  0
LINE
  8
0
 10
-116.407
 20
-7.28531
 11
-130.593
 21
-7.28531
  0
LINE
  8
0
 10
-111.593
 20
-7.28531
 11
-111.743
 21
-7.17633
  0
LINE
  8
0
 10
-111.743
 20
-7.17633
 11
-111.8
 21
-7
  0
LINE
  8
0
 10
-111.8
 20
-7
 11
-111.8
 21
7
  0
LINE
  8
0
 10
-111.8
 20
7
 11
-111.743
 21
7.17633
  0
LINE
  8
0
 10
-111.743
 20
7.17633
 11
-111.593
 21
7.28531
  0
LINE
  8
0
 10
-111.593
 20
7.28531
 11
-97.4073
 21
7.28531
  0
LINE
  8
0
 10
-97.4073
 20
7.28531
 11
-97.2573
 21
7.17633
  0
LINE
  8
0
 10
-97.2573
 20
7.17633
 11
-97.2
 21
7
  0
LINE
  8
0
 10
-97.2
 20
7
 11
-97.2
 21
-7
  0
LINE
  8
0
 10
-97.2
 20
-7
 11
-97.2573
 21
-7.17633
  0
LINE
  8
0
 10
-97.2573
 20
-7.17633
 11
-97.4073
 21
-7.28531
  0
LINE
  8
0
 10
-97.4073
 20
-7.28531
 11
-111.593
 21
-7.28531
  0
LINE
  8
0
 10
-92.5927
 20
-7.28531
 11
-92.7427
 21
-7.17633
  0
LINE
  8
0
 10
-92.7427
 20
-7.17633
 11
-92.8
 21
-7
  0
LINE
  8
0
 10
-92.8
 20
-7
 11
-92.8
 21
7
  0
LINE
  8
0
 10
-92.8
 20
7
 11
-92.7427
 21
7.17633
  0
LINE
  8
0
 10
-92.7427
 20
7.17633
 11
-92.5927
 21
7.28531
  0
LINE
  8
0
 10
-92.5927
 20
7.28531
 11
-78.4073
 21
7.28531
  0
LINE
  8
0
 10
-78.4073
 20
7.28531
 11
-78.2573
 21
7.17633
  0
LINE
  8
0
 10
-78.2573
 20
7.17633
 11
-78.2
 21
7
  0
LINE
  8
0
 10
-78.2
 20
7
 11
-78.2
 21
-7
  0
LINE
  8
0
 10
-78.2
 20
-7
 11
-78.2573
 21
-7.17633
  0
LINE
  8
0
 10
-78.2573
 20
-7.17633
 11
-78.4073
 21
-7.28531
  0
LINE
  8
0
 10
-78.4073
 20
-7.28531
 11
-92.5927
 21
-7.28531
  0
LINE
  8
0
 10
-73.5927
 20
-7.28531
 11
-73.7427
 21
-7.17633
  0
LINE
  8
0
 10
-73.7427
 20
-7.17633
 11
-73.8
 21
-7
  0
LINE
  8
0
 10
-73.8
 20
-7
 11
-73.8
 21
7
  0
LINE
  8
0
 10
-73.8
 20
7
 11
-73.7427
 21
7.17633
  0
LINE
  8
0
 10
-73.7427
 20
7.17633
 11
-73.5927
 21
7.28531
  0
LINE
  8
0
 10
-73.5927
 20
7.28531
 11
-59.4073
 21
7.28531
  0
LINE
  8
0
 10
-59.4073
 20
7.28531
 11
-59.2573
 21
7.17633
  0
LINE
  8
0
 10
-59.2573
 20
7.17633
 11
-59.2
 21
7
  0
LINE
  8
0
 10
-59.2
 20
7
 11
-59.2
 21
-7
  0
LINE
  8
0
 10
-59.2
 20
-7
 11
-59.2573
 21
-7.17633
  0
LINE
  8
0
 10
-59.2573
 20
-7.17633
 11
-59.4073
 21
-7.28531
  0
LINE
  8
0
 10
-59.4073
 20
-7.28531
 11
-73.5927
 21
-7.28531
  0
LINE
  8
0
 10
-35.5927
 20
-7.28531
 11
-35.7427
 21
-7.17633
  0
LINE
  8
0
 10
-35.7427
 20
-7.17633
 11
-35.8
 21
-7
  0
LINE
  8
0
 10
-35.8
 20
-7
 11
-35.8
 21
7
  0
LINE
  8
0
 10
-35.8
 20
7
 11
-35.7427
 21
7.17633
  0
LINE
  8
0
 10
-35.7427
 20
7.17633
 11
-35.5927
 21
7.28531
  0
LINE
  8
0
 10
-35.5927
 20
7.28531
 11
-21.4073
 21
7.28531
  0
LINE
  8
0
 10
-21.4073
 20
7.28531
 11
-21.2573
 21
7.17633
  0
LINE
  8
0
 10
-21.2573
 20
7.17633
 11
-21.2
 21
7
  0
LINE
  8
0
 10
-21.2
 20
7
 11
-21.2
 21
-7
  0
LINE
  8
0
 10
-21.2
 20
-7
 11
-21.2573
 21
-7.17633
  0
LINE
  8
0
 10
-21.2573
 20
-7.17633
 11
-21.4073
 21
-7.28531
  0
LINE
  8
0
 10
-21.4073
 20
-7.28531
 11
-35.5927
 21
-7.28531
  0
LINE
  8
0
 10
2.40729
 20
-7.28531
 11
2.25729
 21
-7.17633
  0
LINE
  8
0
 10
2.25729
 20
-7.17633
 11
2.2
 21
-7
  0
LINE
  8
0
 10
2.2
 20
-7
 11
2.2
 21
7
  0
LINE
  8
0
 10
2.2
 20
7
 11
2.25729
 21
7.17633
  0
LINE
  8
0
 10
2.25729
 20
7.17633
 11
2.40729
 21
7.28531
  0
LINE
  8
0
 10
2.40729
 20
7.28531
 11
16.5927
 21
7.28531
  0
LINE
  8
0
 10
16.5927
 20
7.28531
 11
16.7427
 21
7.17633
  0
LINE
  8
0
 10
16.7427
 20
7.17633
 11
16.8
 21
7
  0
LINE
  8
0
 10
16.8
 20
7
 11
16.8
 21
-7
  0
LINE
  8
0
 10
16.8
 20
-7
 11
16.7427
 21
-7.17633
  0
LINE
  8
0
 10
16.7427
 20
-7.17633
 11
16.5927
 21
-7.28531
  0
LINE
  8
0
 10
16.5927
 20
-7.28531
 11
2.40729
 21
-7.28531
  0
LINE
  8
0
 10
40.4073
 20
-7.28531
 11
40.2573
 21
-7.17633
  0
LINE
  8
0
 10
40.2573
 20
-7.17633
 11
40.2
 21
-7
  0
LINE
  8
0
 10
40.2
 20
-7
 11
40.2
 21
7
  0
LINE
  8
0
 10
40.2
 20
7
 11
40.2573
 21
7.17633
  0
LINE
  8
0
 10
40.2573
 20
7.17633
 11
40.4073
 21
7.28531
  0
LINE
  8
0
 10
40.4073
 20
7.28531
 11
54.5927
 21
7.28531
  0
LINE
  8
0
 10
54.5927
 20
7.28531
 11
54.7427
 21
7.17633
  0
LINE
  8
0
 10
54.7427
 20
7.17633
 11
54.8
 21
7
  0
LINE
  8
0
 10
54.8
 20
7
 11
54.8
 21
-7
  0
LINE
  8
0
 10
54.8
 20
-7
 11
54.7427
 21
-7.17633
  0
LINE
  8
0
 10
54.7427
 20
-7.17633
 11
54.5927
 21
-7.28531
  0
LINE
  8
0
 10
54.5927
 20
-7.28531
 11
40.4073
 21
-7.28531
  0
LINE
  8
0
 10
59.4073
 20
-7.28531
 11
59.2573
 21
-7.17633
  0
LINE
  8
0
 10
59.2573
 20
-7.17633
 11
59.2
 21
-7
  0
LINE
  8
0
 10
59.2
 20
-7
 11
59.2
 21
7
  0
LINE
  8
0
 10
59.2
 20
7
 11
59.2573
 21
7.17633
  0
LINE
  8
0
 10
59.2573
 20
7.17633
 11
59.4073
 21
7.28531
  0
LINE
  8
0
 10
59.4073
 20
7.28531
 11
73.5927
 21
7.28531
  0
LINE
  8
0
 10
73.5927
 20
7.28531
 11
73.7427
 21
7.17633
  0
LINE
  8
0
 10
73.7427
 20
7.17633
 11
73.8
 21
7
  0
LINE
  8
0
 10
73.8
 20
7
 11
73.8
 21
-7
  0
LINE
  8
0
 10
73.8
 20
-7
 11
73.7427
 21
-7.17633
  0
LINE
  8
0
 10
73.7427
 20
-7.17633
 11
73.5927
 21
-7.28531
  0
LINE
  8
0
 10
73.5927
 20
-7.28531
 11
59.4073
 21
-7.28531
  0
LINE
  8
0
 10
97.4073
 20
-7.28531
 11
97.2573
 21
-7.17633
  0
LINE
  8
0
 10
97.2573
 20
-7.17633
 11
97.2
 21
-7
  0
LINE
  8
0
 10
97.2
 20
-7
 11
97.2
 21
7
  0
LINE
  8
0
 10
97.2
 20
7
 11
97.2573
 21
7.17633
  0
LINE
  8
0
 10
97.2573
 20
7.17633
 11
97.4073
 21
7.28531
  0
LINE
  8
0
 10
97.4073
 20
7.28531
 11
111.593
 21
7.28531
  0
LINE
  8
0
 10
111.593
 20
7.28531
 11
111.743
 21
7.17633
  0
LINE
  8
0
 10
111.743
 20
7.17633
 11
111.8
 21
7
  0
LINE
  8
0
 10
111.8
 20
7
 11
111.8
 21
-7
  0
LINE
  8
0
 10
111.8
 20
-7
 11
111.743
 21
-7.17633
  0
LINE
  8
0
 10
111.743
 20
-7.17633
 11
111.593
 21
-7.28531
  0
LINE
  8
0
 10
111.593
 20
-7.28531
 11
97.4073
 21
-7.28531
  0
LINE
  8
0
 10
116.407
 20
-7.28531
 11
116.257
 21
-7.17633
  0
LINE
  8
0
 10
116.257
 20
-7.17633
 11
116.2
 21
-7
  0
LINE
  8
0
 10
116.2
 20
-7
 11
116.2
 21
7
  0
LINE
  8
0
 10
116.2
 20
7
 11
116.257
 21
7.17633
  0
LINE
  8
0
 10
116.257
 20
7.17633
 11
116.407
 21
7.28531
  0
LINE
  8
0
 10
116.407
 20
7.28531
 11
130.593
 21
7.28531
  0
LINE
  8
0
 10
130.593
 20
7.28531
 11
130.743
 21
7.17633
  0
LINE
  8
0
 10
130.743
 20
7.17633
 11
130.8
 21
7
  0
LINE
  8
0
 10
130.8
 20
7
 11
130.8
 21
-7
  0
LINE
  8
0
 10
130.8
 20
-7
 11
130.743
 21
-7.17633
  0
LINE
  8
0
 10
130.743
 20
-7.17633
 11
130.593
 21
-7.28531
  0
LINE
  8
0
 10
130.593
 20
-7.28531
 11
116.407
 21
-7.28531
  0
LINE
  8
0
 10
78.4073
 20
-7.28531
 11
78.2573
 21
-7.17633
  0
LINE
  8
0
 10
78.2573
 20
-7.17633
 11
78.2
 21
-7
  0
LINE
  8
0
 10
78.2
 20
-7
 11
78.2
 21
7
  0
LINE
  8
0
 10
78.2
 20
7
 11
78.2573
 21
7.17633
  0
LINE
  8
0
 10
78.2573
 20
7.17633
 11
78.4073
 21
7.28531
  0
LINE
  8
0
 10
78.4073
 20
7.28531
 11
92.5927
 21
7.28531
  0
LINE
  8
0
 10
92.5927
 20
7.28531
 11
92.7427
 21
7.17633
  0
LINE
  8
0
 10
92.7427
 20
7.17633
 11
92.8
 21
7
  0
LINE
  8
0
 10
92.8
 20
7
 11
92.8
 21
-7
  0
LINE
  8
0
 10
92.8
 20
-7
 11
92.7427
 21
-7.17633
  0
LINE
  8
0
 10
92.7427
 20
-7.17633
 11
92.5927
 21
-7.28531
  0
LINE
  8
0
 10
92.5927
 20
-7.28531
 11
78.4073
 21
-7.28531
  0
LINE
  8
0
 10
-16.5927
 20
-7.28531
 11
-16.7427
 21
-7.17633
  0
LINE
  8
0
 10
-16.7427
 20
-7.17633
 11
-16.8
 21
-7
  0
LINE
  8
0
 10
-16.8
 20
-7
 11
-16.8
 21
7
  0
LINE
  8
0
 10
-16.8
 20
7
 11
-16.7427
 21
7.17633
  0
LINE
  8
0
 10
-16.7427
 20
7.17633
 11
-16.5927
 21
7.28531
  0
LINE
  8
0
 10
-16.5927
 20
7.28531
 11
-2.40729
 21
7.28531
  0
LINE
  8
0
 10
-2.40729
 20
7.28531
 11
-2.25729
 21
7.17633
  0
LINE
  8
0
 10
-2.25729
 20
7.17633
 11
-2.2
 21
7
  0
LINE
  8
0
 10
-2.2
 20
7
 11
-2.2
 21
-7
  0
LINE
  8
0
 10
-2.2
 20
-7
 11
-2.25729
 21
-7.17633
  0
LINE
  8
0
 10
-2.25729
 20
-7.17633
 11
-2.40729
 21
-7.28531
  0
LINE
  8
0
 10
-2.40729
 20
-7.28531
 11
-16.5927
 21
-7.28531
  0
LINE
  8
0
 10
-130.593
 20
-26.2853
 11
-130.743
 21
-26.1763
  0
LINE
  8
0
 10
-130.743
 20
-26.1763
 11
-130.8
 21
-26
  0
LINE
  8
0
 10
-130.8
 20
-26
 11
-130.8
 21
-12
  0
LINE
  8
0
 10
-130.8
 20
-12
 11
-130.743
 21
-11.8237
  0
LINE
  8
0
 10
-130.743
 20
-11.8237
 11
-130.593
 21
-11.7147
  0
LINE
  8
0
 10
-130.593
 20
-11.7147
 11
-116.407
 21
-11.7147
  0
LINE
  8
0
 10
-116.407
 20
-11.7147
 11
-116.257
 21
-11.8237
  0
LINE
  8
0
 10
-116.257
 20
-11.8237
 11
-116.2
 21
-12
  0
LINE
  8
0
 10
-116.2
 20
-12
 11
-116.2
 21
-26
  0
LINE
  8
0
 10
-116.2
 20
-26
 11
-116.257
 21
-26.1763
  0
LINE
  8
0
 10
-116.257
 20
-26.1763
 11
-116.407
 21
-26.2853
  0
LINE
  8
0
 10
-116.407
 20
-26.2853
 11
-130.593
 21
-26.2853
  0
LINE
  8
0
 10
-111.593
 20
-26.2853
 11
-111.743
 21
-26.1763
  0
LINE
  8
0
 10
-111.743
 20
-26.1763
 11
-111.8
 21
-26
  0
LINE
  8
0
 10
-111.8
 20
-26
 11
-111.8
 21
-12
  0
LINE
  8
0
 10
-111.8
 20
-12
 11
-111.743
 21
-11.8237
  0
LINE
  8
0
 10
-111.743
 20
-11.8237
 11
-111.593
 21
-11.7147
  0
LINE
  8
0
 10
-111.593
 20
-11.7147
 11
-97.4073
 21
-11.7147
  0
LINE
  8
0
 10
-97.4073
 20
-11.7147
 11
-97.2573
 21
-11.8237
  0
LINE
  8
0
 10
-97.2573
 20
-11.8237
 11
-97.2
 21
-12
  0
LINE
  8
0
 10
-97.2
 20
-12
 11
-97.2
 21
-26
  0
LINE
  8
0
 10
-97.2
 20
-26
 11
-97.2573
 21
-26.1763
  0
LINE
  8
0
 10
-97.2573
 20
-26.1763
 11
-97.4073
 21
-26.2853
  0
LINE
  8
0
 10
-97.4073
 20
-26.2853
 11
-111.593
 21
-26.2853
  0
LINE
  8
0
 10
-92.5927
 20
-26.2853
 11
-92.7427
 21
-26.1763
  0
LINE
  8
0
 10
-92.7427
 20
-26.1763
 11
-92.8
 21
-26
  0
LINE
  8
0
 10
-92.8
 20
-26
 11
-92.8
 21
-12
  0
LINE
  8
0
 10
-92.8
 20
-12
 11
-92.7427
 21
-11.8237
  0
LINE
  8
0
 10
-92.7427
 20
-11.8237
 11
-92.5927
 21
-11.7147
  0
LINE
  8
0
 10
-92.5927
 20
-11.7147
 11
-78.4073
 21
-11.7147
  0
LINE
  8
0
 10
-78.4073
 20
-11.7147
 11
-78.2573
 21
-11.8237
  0
LINE
  8
0
 10
-78.2573
 20
-11.8237
 11
-78.2
 21
-12
  0
LINE
  8
0
 10
-78.2
 20
-12
 11
-78.2
 21
-26
  0
LINE
  8
0
 10
-78.2
 20
-26
 11
-78.2573
 21
-26.1763
  0
LINE
  8
0
 10
-78.2573
 20
-26.1763
 11
-78.4073
 21
-26.2853
  0
LINE
  8
0
 10
-78.4073
 20
-26.2853
 11
-92.5927
 21
-26.2853
  0
LINE
  8
0
 10
-73.5927
 20
-26.2853
 11
-73.7427
 21
-26.1763
  0
LINE
  8
0
 10
-73.7427
 20
-26.1763
 11
-73.8
 21
-26
  0
LINE
  8
0
 10
-73.8
 20
-26
 11
-73.8
 21
-12
  0
LINE
  8
0
 10
-73.8
 20
-12
 11
-73.7427
 21
-11.8237
  0
LINE
  8
0
 10
-73.7427
 20
-11.8237
 11
-73.5927
 21
-11.7147
  0
LINE
  8
0
 10
-73.5927
 20
-11.7147
 11
-59.4073
 21
-11.7147
  0
LINE
  8
0
 10
-59.4073
 20
-11.7147
 11
-59.2573
 21
-11.8237
  0
LINE
  8
0
 10
-59.2573
 20
-11.8237
 11
-59.2
 21
-12
  0
LINE
  8
0
 10
-59.2
 20
-12
 11
-59.2
 21
-26
  0
LINE
  8
0
 10
-59.2
 20
-26
 11
-59.2573
 21
-26.1763
  0
LINE
  8
0
 10
-59.2573
 20
-26.1763
 11
-59.4073
 21
-26.2853
  0
LINE
  8
0
 10
-59.4073
 20
-26.2853
 11
-73.5927
 21
-26.2853
  0
LINE
  8
0
 10
-54.5927
 20
-26.2853
 11
-54.7427
 21
-26.1763
  0
LINE
  8
0
 10
-54.7427
 20
-26.1763
 11
-54.8
 21
-26
  0
LINE
  8
0
 10
-54.8
 20
-26
 11
-54.8
 21
-12
  0
LINE
  8
0
 10
-54.8
 20
-12
 11
-54.7427
 21
-11.8237
  0
LINE
  8
0
 10
-54.7427
 20
-11.8237
 11
-54.5927
 21
-11.7147
  0
LINE
  8
0
 10
-54.5927
 20
-11.7147
 11
-40.4073
 21
-11.7147
  0
LINE
  8
0
 10
-40.4073
 20
-11.7147
 11
-40.2573
 21
-11.8237
  0
LINE
  8
0
 10
-40.2573
 20
-11.8237
 11
-40.2
 21
-12
  0
LINE
  8
0
 10
-40.2
 20
-12
 11
-40.2
 21
-26
  0
LINE
  8
0
 10
-40.2
 20
-26
 11
-40.2573
 21
-26.1763
  0
LINE
  8
0
 10
-40.2573
 20
-26.1763
 11
-40.4073
 21
-26.2853
  0
LINE
  8
0
 10
-40.4073
 20
-26.2853
 11
-54.5927
 21
-26.2853
  0
LINE
  8
0
 10
-35.5927
 20
-26.2853
 11
-35.7427
 21
-26.1763
  0
LINE
  8
0
 10
-35.7427
 20
-26.1763
 11
-35.8
 21
-26
  0
LINE
  8
0
 10
-35.8
 20
-26
 11
-35.8
 21
-12
  0
LINE
  8
0
 10
-35.8
 20
-12
 11
-35.7427
 21
-11.8237
  0
LINE
  8
0
 10
-35.7427
 20
-11.8237
 11
-35.5927
 21
-11.7147
  0
LINE
  8
0
 10
-35.5927
 20
-11.7147
 11
-21.4073
 21
-11.7147
  0
LINE
  8
0
 10
-21.4073
 20
-11.7147
 11
-21.2573
 21
-11.8237
  0
LINE
  8
0
 10
-21.2573
 20
-11.8237
 11
-21.2
 21
-12
  0
LINE
  8
0
 10
-21.2
 20
-12
 11
-21.2
 21
-26
  0
LINE
  8
0
 10
-21.2
 20
-26
 11
-21.2573
 21
-26.1763
  0
LINE
  8
0
 10
-21.2573
 20
-26.1763
 11
-21.4073
 21
-26.2853
  0
LINE
  8
0
 10
-21.4073
 20
-26.2853
 11
-35.5927
 21
-26.2853
  0
LINE
  8
0
 10
-16.5927
 20
-26.2853
 11
-16.7427
 21
-26.1763
  0
LINE
  8
0
 10
-16.7427
 20
-26.1763
 11
-16.8
 21
-26
  0
LINE
  8
0
 10
-16.8
 20
-26
 11
-16.8
 21
-12
  0
LINE
  8
0
 10
-16.8
 20
-12
 11
-16.7427
 21
-11.8237
  0
LINE
  8
0
 10
-16.7427
 20
-11.8237
 11
-16.5927
 21
-11.7147
  0
LINE
  8
0
 10
-16.5927
 20
-11.7147
 11
-2.40729
 21
-11.7147
  0
LINE
  8
0
 10
-2.40729
 20
-11.7147
 11
-2.25729
 21
-11.8237
  0
LINE
  8
0
 10
-2.25729
 20
-11.8237
 11
-2.2
 21
-12
  0
LINE
  8
0
 10
-2.2
 20
-12
 11
-2.2
 21
-26
  0
LINE
  8
0
 10
-2.2
 20
-26
 11
-2.25729
 21
-26.1763
  0
LINE
  8
0
 10
-2.25729
 20
-26.1763
 11
-2.40729
 21
-26.2853
  0
LINE
  8
0
 10
-2.40729
 20
-26.2853
 11
-16.5927
 21
-26.2853
  0
LINE
  8
0
 10
21.4073
 20
-26.2853
 11
21.2573
 21
-26.1763
  0
LINE
  8
0
 10
21.2573
 20
-26.1763
 11
21.2
 21
-26
  0
LINE
  8
0
 10
21.2
 20
-26
 11
21.2
 21
-12
  0
LINE
  8
0
 10
21.2
 20
-12
 11
21.2573
 21
-11.8237
  0
LINE
  8
0
 10
21.2573
 20
-11.8237
 11
21.4073
 21
-11.7147
  0
LINE
  8
0
 10
21.4073
 20
-11.7147
 11
35.5927
 21
-11.7147
  0
LINE
  8
0
 10
35.5927
 20
-11.7147
 11
35.7427
 21
-11.8237
  0
LINE
  8
0
 10
35.7427
 20
-11.8237
 11
35.8
 21
-12
  0
LINE
  8
0
 10
35.8
 20
-12
 11
35.8
 21
-26
  0
LINE
  8
0
 10
35.8
 20
-26
 11
35.7427
 21
-26.1763
  0
LINE
  8
0
 10
35.7427
 20
-26.1763
 11
35.5927
 21
-26.2853
  0
LINE
  8
0
 10
35.5927
 20
-26.2853
 11
21.4073
 21
-26.2853
  0
LINE
  8
0
 10
59.4073
 20
-26.2853
 11
59.2573
 21
-26.1763
  0
LINE
  8
0
 10
59.2573
 20
-26.1763
 11
59.2
 21
-26
  0
LINE
  8
0
 10
59.2
 20
-26
 11
59.2
 21
-12
  0
LINE
  8
0
 10
59.2
 20
-12
 11
59.2573
 21
-11.8237
  0
LINE
  8
0
 10
59.2573
 20
-11.8237
 11
59.4073
 21
-11.7147
  0
LINE
  8
0
 10
59.4073
 20
-11.7147
 11
73.5927
 21
-11.7147
  0
LINE
  8
0
 10
73.5927
 20
-11.7147
 11
73.7427
 21
-11.8237
  0
LINE
  8
0
 10
73.7427
 20
-11.8237
 11
73.8
 21
-12
  0
LINE
  8
0
 10
73.8
 20
-12
 11
73.8
 21
-26
  0
LINE
  8
0
 10
73.8
 20
-26
 11
73.7427
 21
-26.1763
  0
LINE
  8
0
 10
73.7427
 20
-26.1763
 11
73.5927
 21
-26.2853
  0
LINE
  8
0
 10
73.5927
 20
-26.2853
 11
59.4073
 21
-26.2853
  0
LINE
  8
0
 10
78.4073
 20
-26.2853
 11
78.2573
 21
-26.1763
  0
LINE
  8
0
 10
78.2573
 20
-26.1763
 11
78.2
 21
-26
  0
LINE
  8
0
 10
78.2
 20
-26
 11
78.2
 21
-12
  0
LINE
  8
0
 10
78.2
 20
-12
 11
78.2573
 21
-11.8237
  0
LINE
  8
0
 10
78.2573
 20
-11.8237
 11
78.4073
 21
-11.7147
  0
LINE
  8
0
 10
78.4073
 20
-11.7147
 11
92.5927
 21
-11.7147
  0
LINE
  8
0
 10
92.5927
 20
-11.7147
 11
92.7427
 21
-11.8237
  0
LINE
  8
0
 10
92.7427
 20
-11.8237
 11
92.8
 21
-12
  0
LINE
  8
0
 10
92.8
 20
-12
 11
92.8
 21
-26
  0
LINE
  8
0
 10
92.8
 20
-26
 11
92.7427
 21
-26.1763
  0
LINE
  8
0
 10
92.7427
 20
-26.1763
 11
92.5927
 21
-26.2853
  0
LINE
  8
0
 10
92.5927
 20
-26.2853
 11
78.4073
 21
-26.2853
  0
LINE
  8
0
 10
97.4073
 20
-26.2853
 11
97.2573
 21
-26.1763
  0
LINE
  8
0
 10
97.2573
 20
-26.1763
 11
97.2
 21
-26
  0
LINE
  8
0
 10
97.2
 20
-26
 11
97.2
 21
-12
  0
LINE
  8
0
 10
97.2
 20
-12
 11
97.2573
 21
-11.8237
  0
LINE
  8
0
 10
97.2573
 20
-11.8237
 11
97.4073
 21
-11.7147
  0
LINE
  8
0
 10
97.4073
 20
-11.7147
 11
111.593
 21
-11.7147
  0
LINE
  8
0
 10
111.593
 20
-11.7147
 11
111.743
 21
-11.8237
  0
LINE
  8
0
 10
111.743
 20
-11.8237
 11
111.8
 21
-12
  0
LINE
  8
0
 10
111.8
 20
-12
 11
111.8
 21
-26
  0
LINE
  8
0
 10
111.8
 20
-26
 11
111.743
 21
-26.1763
  0
LINE
  8
0
 10
111.743
 20
-26.1763
 11
111.593
 21
-26.2853
  0
LINE
  8
0
 10
111.593
 20
-26.2853
 11
97.4073
 21
-26.2853
  0
LINE
  8
0
 10
116.407
 20
-26.2853
 11
116.257
 21
-26.1763
  0
LINE
  8
0
 10
116.257
 20
-26.1763
 11
116.2
 21
-26
  0
LINE
  8
0
 10
116.2
 20
-26
 11
116.2
 21
-12
  0
LINE
  8
0
 10
116.2
 20
-12
 11
116.257
 21
-11.8237
  0
LINE
  8
0
 10
116.257
 20
-11.8237
 11
116.407
 21
-11.7147
  0
LINE
  8
0
 10
116.407
 20
-11.7147
 11
130.593
 21
-11.7147
  0
LINE
  8
0
 10
130.593
 20
-11.7147
 11
130.743
 21
-11.8237
  0
LINE
  8
0
 10
130.743
 20
-11.8237
 11
130.8
 21
-12
  0
LINE
  8
0
 10
130.8
 20
-12
 11
130.8
 21
-26
  0
LINE
  8
0
 10
130.8
 20
-26
 11
130.743
 21
-26.1763
  0
LINE
  8
0
 10
130.743
 20
-26.1763
 11
130.593
 21
-26.2853
  0
LINE
  8
0
 10
130.593
 20
-26.2853
 11
116.407
 21
-26.2853
  0
LINE
  8
0
 10
40.4073
 20
-26.2853
 11
40.2573
 21
-26.1763
  0
LINE
  8
0
 10
40.2573
 20
-26.1763
 11
40.2
 21
-26
  0
LINE
  8
0
 10
40.2
 20
-26
 11
40.2
 21
-12
  0
LINE
  8
0
 10
40.2
 20
-12
 11
40.2573
 21
-11.8237
  0
LINE
  8
0
 10
40.2573
 20
-11.8237
 11
40.4073
 21
-11.7147
  0
LINE
  8
0
 10
40.4073
 20
-11.7147
 11
54.5927
 21
-11.7147
  0
LINE
  8
0
 10
54.5927
 20
-11.7147
 11
54.7427
 21
-11.8237
  0
LINE
  8
0
 10
54.7427
 20
-11.8237
 11
54.8
 21
-12
  0
LINE
  8
0
 10
54.8
 20
-12
 11
54.8
 21
-26
  0
LINE
  8
0
 10
54.8
 20
-26
 11
54.7427
 21
-26.1763
  0
LINE
  8
0
 10
54.7427
 20
-26.1763
 11
54.5927
 21
-26.2853
  0
LINE
  8
0
 10
54.5927
 20
-26.2853
 11
40.4073
 21
-26.2853
  0
LINE
  8
0
 10
2.40729
 20
-26.2853
 11
2.25729
 21
-26.1763
  0
LINE
  8
0
 10
2.25729
 20
-26.1763
 11
2.2
 21
-26
  0
LINE
  8
0
 10
2.2
 20
-26
 11
2.2
 21
-12
  0
LINE
  8
0
 10
2.2
 20
-12
 11
2.25729
 21
-11.8237
  0
LINE
  8
0
 10
2.25729
 20
-11.8237
 11
2.40729
 21
-11.7147
  0
LINE
  8
0
 10
2.40729
 20
-11.7147
 11
16.5927
 21
-11.7147
  0
LINE
  8
0
 10
16.5927
 20
-11.7147
 11
16.7427
 21
-11.8237
  0
LINE
  8
0
 10
16.7427
 20
-11.8237
 11
16.8
 21
-12
  0
LINE
  8
0
 10
16.8
 20
-12
 11
16.8
 21
-26
  0
LINE
  8
0
 10
16.8
 20
-26
 11
16.7427
 21
-26.1763
  0
LINE
  8
0
 10
16.7427
 20
-26.1763
 11
16.5927
 21
-26.2853
  0
LINE
  8
0
 10
16.5927
 20
-26.2853
 11
2.40729
 21
-26.2853
  0
LINE
  8
0
 10
-0.355362
 20
-20.0937
 11
-0.930359
 21
-19.6759
  0
LINE
  8
0
 10
-0.930359
 20
-19.6759
 11
-1.14999
 21
-19
  0
LINE
  8
0
 10
-1.14999
 20
-19
 11
-0.930359
 21
-18.324
  0
LINE
  8
0
 10
-0.930359
 20
-18.324
 11
-0.355362
 21
-17.9063
  0
LINE
  8
0
 10
-0.355362
 20
-17.9063
 11
0.355362
 21
-17.9063
  0
LINE
  8
0
 10
0.355362
 20
-17.9063
 11
0.930359
 21
-18.324
  0
LINE
  8
0
 10
0.930359
 20
-18.324
 11
1.14999
 21
-19
  0
LINE
  8
0
 10
1.14999
 20
-19
 11
0.930359
 21
-19.6759
  0
LINE
  8
0
 10
0.930359
 20
-19.6759
 11
0.355362
 21
-20.0937
  0
LINE
  8
0
 10
0.355362
 20
-20.0937
 11
-0.355362
 21
-20.0937
  0
LINE
  8
0
 10
-35.5927
 20
-45.2853
 11
-35.7427
 21
-45.1763
  0
LINE
  8
0
 10
-35.7427
 20
-45.1763
 11
-35.8
 21
-45
  0
LINE
  8
0
 10
-35.8
 20
-45
 11
-35.8
 21
-31
  0
LINE
  8
0
 10
-35.8
 20
-31
 11
-35.7427
 21
-30.8237
  0
LINE
  8
0
 10
-35.7427
 20
-30.8237
 11
-35.5927
 21
-30.7147
  0
LINE
  8
0
 10
-35.5927
 20
-30.7147
 11
-21.4073
 21
-30.7147
  0
LINE
  8
0
 10
-21.4073
 20
-30.7147
 11
-21.2573
 21
-30.8237
  0
LINE
  8
0
 10
-21.2573
 20
-30.8237
 11
-21.2
 21
-31
  0
LINE
  8
0
 10
-21.2
 20
-31
 11
-21.2
 21
-45
  0
LINE
  8
0
 10
-21.2
 20
-45
 11
-21.2573
 21
-45.1763
  0
LINE
  8
0
 10
-21.2573
 20
-45.1763
 11
-21.4073
 21
-45.2853
  0
LINE
  8
0
 10
-21.4073
 20
-45.2853
 11
-35.5927
 21
-45.2853
  0
LINE
  8
0
 10
-111.593
 20
-45.2853
 11
-111.743
 21
-45.1763
  0
LINE
  8
0
 10
-111.743
 20
-45.1763
 11
-111.8
 21
-45
  0
LINE
  8
0
 10
-111.8
 20
-45
 11
-111.8
 21
-31
  0
LINE
  8
0
 10
-111.8
 20
-31
 11
-111.743
 21
-30.8237
  0
LINE
  8
0
 10
-111.743
 20
-30.8237
 11
-111.593
 21
-30.7147
  0
LINE
  8
0
 10
-111.593
 20
-30.7147
 11
-97.4073
 21
-30.7147
  0
LINE
  8
0
 10
-97.4073
 20
-30.7147
 11
-97.2573
 21
-30.8237
  0
LINE
  8
0
 10
-97.2573
 20
-30.8237
 11
-97.2
 21
-31
  0
LINE
  8
0
 10
-97.2
 20
-31
 11
-97.2
 21
-45
  0
LINE
  8
0
 10
-97.2
 20
-45
 11
-97.2573
 21
-45.1763
  0
LINE
  8
0
 10
-97.2573
 20
-45.1763
 11
-97.4073
 21
-45.2853
  0
LINE
  8
0
 10
-97.4073
 20
-45.2853
 11
-111.593
 21
-45.2853
  0
LINE
  8
0
 10
97.4073
 20
-45.2853
 11
97.2573
 21
-45.1763
  0
LINE
  8
0
 10
97.2573
 20
-45.1763
 11
97.2
 21
-45
  0
LINE
  8
0
 10
97.2
 20
-45
 11
97.2
 21
-31
  0
LINE
  8
0
 10
97.2
 20
-31
 11
97.2573
 21
-30.8237
  0
LINE
  8
0
 10
97.2573
 20
-30.8237
 11
97.4073
 21
-30.7147
  0
LINE
  8
0
 10
97.4073
 20
-30.7147
 11
111.593
 21
-30.7147
  0
LINE
  8
0
 10
111.593
 20
-30.7147
 11
111.743
 21
-30.8237
  0
LINE
  8
0
 10
111.743
 20
-30.8237
 11
111.8
 21
-31
  0
LINE
  8
0
 10
111.8
 20
-31
 11
111.8
 21
-45
  0
LINE
  8
0
 10
111.8
 20
-45
 11
111.743
 21
-45.1763
  0
LINE
  8
0
 10
111.743
 20
-45.1763
 11
111.593
 21
-45.2853
  0
LINE
  8
0
 10
111.593
 20
-45.2853
 11
97.4073
 21
-45.2853
  0
LINE
  8
0
 10
78.4073
 20
-45.2853
 11
78.2573
 21
-45.1763
  0
LINE
  8
0
 10
78.2573
 20
-45.1763
 11
78.2
 21
-45
  0
LINE
  8
0
 10
78.2
 20
-45
 11
78.2
 21
-31
  0
LINE
  8
0
 10
78.2
 20
-31
 11
78.2573
 21
-30.8237
  0
LINE
  8
0
 10
78.2573
 20
-30.8237
 11
78.4073
 21
-30.7147
  0
LINE
  8
0
 10
78.4073
 20
-30.7147
 11
92.5927
 21
-30.7147
  0
LINE
  8
0
 10
92.5927
 20
-30.7147
 11
92.7427
 21
-30.8237
  0
LINE
  8
0
 10
92.7427
 20
-30.8237
 11
92.8
 21
-31
  0
LINE
  8
0
 10
92.8
 20
-31
 11
92.8
 21
-45
  0
LINE
  8
0
 10
92.8
 20
-45
 11
92.7427
 21
-45.1763
  0
LINE
  8
0
 10
92.7427
 20
-45.1763
 11
92.5927
 21
-45.2853
  0
LINE
  8
0
 10
92.5927
 20
-45.2853
 11
78.4073
 21
-45.2853
  0
LINE
  8
0
 10
59.4073
 20
-45.2853
 11
59.2573
 21
-45.1763
  0
LINE
  8
0
 10
59.2573
 20
-45.1763
 11
59.2
 21
-45
  0
LINE
  8
0
 10
59.2
 20
-45
 11
59.2
 21
-31
  0
LINE
  8
0
 10
59.2
 20
-31
 11
59.2573
 21
-30.8237
  0
LINE
  8
0
 10
59.2573
 20
-30.8237
 11
59.4073
 21
-30.7147
  0
LINE
  8
0
 10
59.4073
 20
-30.7147
 11
73.5927
 21
-30.7147
  0
LINE
  8
0
 10
73.5927
 20
-30.7147
 11
73.7427
 21
-30.8237
  0
LINE
  8
0
 10
73.7427
 20
-30.8237
 11
73.8
 21
-31
  0
LINE
  8
0
 10
73.8
 20
-31
 11
73.8
 21
-45
  0
LINE
  8
0
 10
73.8
 20
-45
 11
73.7427
 21
-45.1763
  0
LINE
  8
0
 10
73.7427
 20
-45.1763
 11
73.5927
 21
-45.2853
  0
LINE
  8
0
 10
73.5927
 20
-45.2853
 11
59.4073
 21
-45.2853
  0
LINE
  8
0
 10
40.4073
 20
-45.2853
 11
40.2573
 21
-45.1763
  0
LINE
  8
0
 10
40.2573
 20
-45.1763
 11
40.2
 21
-45
  0
LINE
  8
0
 10
40.2
 20
-45
 11
40.2
 21
-31
  0
LINE
  8
0
 10
40.2
 20
-31
 11
40.2573
 21
-30.8237
  0
LINE
  8
0
 10
40.2573
 20
-30.8237
 11
40.4073
 21
-30.7147
  0
LINE
  8
0
 10
40.4073
 20
-30.7147
 11
54.5927
 21
-30.7147
  0
LINE
  8
0
 10
54.5927
 20
-30.7147
 11
54.7427
 21
-30.8237
  0
LINE
  8
0
 10
54.7427
 20
-30.8237
 11
54.8
 21
-31
  0
LINE
  8
0
 10
54.8
 20
-31
 11
54.8
 21
-45
  0
LINE
  8
0
 10
54.8
 20
-45
 11
54.7427
 21
-45.1763
  0
LINE
  8
0
 10
54.7427
 20
-45.1763
 11
54.5927
 21
-45.2853
  0
LINE
  8
0
 10
54.5927
 20
-45.2853
 11
40.4073
 21
-45.2853
  0
LINE
  8
0
 10
21.4073
 20
-45.2853
 11
21.2573
 21
-45.1763
  0
LINE
  8
0
 10
21.2573
 20
-45.1763
 11
21.2
 21
-45
  0
LINE
  8
0
 10
21.2
 20
-45
 11
21.2
 21
-31
  0
LINE
  8
0
 10
21.2
 20
-31
 11
21.2573
 21
-30.8237
  0
LINE
  8
0
 10
21.2573
 20
-30.8237
 11
21.4073
 21
-30.7147
  0
LINE
  8
0
 10
21.4073
 20
-30.7147
 11
35.5927
 21
-30.7147
  0
LINE
  8
0
 10
35.5927
 20
-30.7147
 11
35.7427
 21
-30.8237
  0
LINE
  8
0
 10
35.7427
 20
-30.8237
 11
35.8
 21
-31
  0
LINE
  8
0
 10
35.8
 20
-31
 11
35.8
 21
-45
  0
LINE
  8
0
 10
35.8
 20
-45
 11
35.7427
 21
-45.1763
  0
LINE
  8
0
 10
35.7427
 20
-45.1763
 11
35.5927
 21
-45.2853
  0
LINE
  8
0
 10
35.5927
 20
-45.2853
 11
21.4073
 21
-45.2853
  0
LINE
  8
0
 10
-15.57
 20
-46.209
 11
-15.57
 21
-44.805
  0
LINE
  8
0
 10
-15.57
 20
-44.805
 11
-17.375
 21
-44.805
  0
LINE
  8
0
 10
-17.375
 20
-44.805
 11
-17.375
 21
-38.5
  0
LINE
  8
0
 10
-17.375
 20
-38.5
 11
-18.127
 21
-38.5
  0
LINE
  8
0
 10
-18.127
 20
-38.5
 11
-18.127
 21
-35.51
  0
LINE
  8
0
 10
-18.127
 20
-35.51
 11
-17.375
 21
-35.51
  0
LINE
  8
0
 10
-17.375
 20
-35.51
 11
-17.375
 21
-31.195
  0
LINE
  8
0
 10
-17.375
 20
-31.195
 11
-10.625
 21
-31.195
  0
LINE
  8
0
 10
-10.625
 20
-31.195
 11
-10.625
 21
-32.105
  0
LINE
  8
0
 10
-10.625
 20
-32.105
 11
-7.29999
 21
-32.105
  0
LINE
  8
0
 10
-7.29999
 20
-32.105
 11
-7.29999
 21
-31
  0
LINE
  8
0
 10
-7.29999
 20
-31
 11
-7.24269
 21
-30.8237
  0
LINE
  8
0
 10
-7.24269
 20
-30.8237
 11
-7.0927
 21
-30.7147
  0
LINE
  8
0
 10
-7.0927
 20
-30.7147
 11
7.0927
 21
-30.7147
  0
LINE
  8
0
 10
7.0927
 20
-30.7147
 11
7.24269
 21
-30.8237
  0
LINE
  8
0
 10
7.24269
 20
-30.8237
 11
7.29999
 21
-31
  0
LINE
  8
0
 10
7.29999
 20
-31
 11
7.29999
 21
-32.105
  0
LINE
  8
0
 10
7.29999
 20
-32.105
 11
10.625
 21
-32.105
  0
LINE
  8
0
 10
10.625
 20
-32.105
 11
10.625
 21
-31.195
  0
LINE
  8
0
 10
10.625
 20
-31.195
 11
17.375
 21
-31.195
  0
LINE
  8
0
 10
17.375
 20
-31.195
 11
17.375
 21
-35.51
  0
LINE
  8
0
 10
17.375
 20
-35.51
 11
18.127
 21
-35.51
  0
LINE
  8
0
 10
18.127
 20
-35.51
 11
18.127
 21
-38.5
  0
LINE
  8
0
 10
18.127
 20
-38.5
 11
17.375
 21
-38.5
  0
LINE
  8
0
 10
17.375
 20
-38.5
 11
17.375
 21
-44.805
  0
LINE
  8
0
 10
17.375
 20
-44.805
 11
15.57
 21
-44.805
  0
LINE
  8
0
 10
15.57
 20
-44.805
 11
15.57
 21
-46.209
  0
LINE
  8
0
 10
15.57
 20
-46.209
 11
12.43
 21
-46.209
  0
LINE
  8
0
 10
12.43
 20
-46.209
 11
12.43
 21
-44.805
  0
LINE
  8
0
 10
12.43
 20
-44.805
 11
10.625
 21
-44.805
  0
LINE
  8
0
 10
10.625
 20
-44.805
 11
10.625
 21
-43.895
  0
LINE
  8
0
 10
10.625
 20
-43.895
 11
7.29999
 21
-43.895
  0
LINE
  8
0
 10
7.29999
 20
-43.895
 11
7.29999
 21
-45
  0
LINE
  8
0
 10
7.29999
 20
-45
 11
7.24269
 21
-45.1763
  0
LINE
  8
0
 10
7.24269
 20
-45.1763
 11
7.0927
 21
-45.2853
  0
LINE
  8
0
 10
7.0927
 20
-45.2853
 11
-7.0927
 21
-45.2853
  0
LINE
  8
0
 10
-7.0927
 20
-45.2853
 11
-7.24269
 21
-45.1763
  0
LINE
  8
0
 10
-7.24269
 20
-45.1763
 11
-7.29999
 21
-45
  0
LINE
  8
0
 10
-7.29999
 20
-45
 11
-7.29999
 21
-43.895
  0
LINE
  8
0
 10
-7.29999
 20
-43.895
 11
-10.625
 21
-43.895
  0
LINE
  8
0
 10
-10.625
 20
-43.895
 11
-10.625
 21
-44.805
  0
LINE
  8
0
 10
-10.625
 20
-44.805
 11
-12.43
 21
-44.805
  0
LINE
  8
0
 10
-12.43
 20
-44.805
 11
-12.43
 21
-46.209
  0
LINE
  8
0
 10
-12.43
 20
-46.209
 11
-15.57
 21
-46.209
  0
LINE
  8
0
 10
-54.5927
 20
-45.2853
 11
-54.7427
 21
-45.1763
  0
LINE
  8
0
 10
-54.7427
 20
-45.1763
 11
-54.8
 21
-45
  0
LINE
  8
0
 10
-54.8
 20
-45
 11
-54.8
 21
-31
  0
LINE
  8
0
 10
-54.8
 20
-31
 11
-54.7427
 21
-30.8237
  0
LINE
  8
0
 10
-54.7427
 20
-30.8237
 11
-54.5927
 21
-30.7147
  0
LINE
  8
0
 10
-54.5927
 20
-30.7147
 11
-40.4073
 21
-30.7147
  0
LINE
  8
0
 10
-40.4073
 20
-30.7147
 11
-40.2573
 21
-30.8237
  0
LINE
  8
0
 10
-40.2573
 20
-30.8237
 11
-40.2
 21
-31
  0
LINE
  8
0
 10
-40.2
 20
-31
 11
-40.2
 21
-45
  0
LINE
  8
0
 10
-40.2
 20
-45
 11
-40.2573
 21
-45.1763
  0
LINE
  8
0
 10
-40.2573
 20
-45.1763
 11
-40.4073
 21
-45.2853
  0
LINE
  8
0
 10
-40.4073
 20
-45.2853
 11
-54.5927
 21
-45.2853
  0
LINE
  8
0
 10
-73.5927
 20
-45.2853
 11
-73.7427
 21
-45.1763
  0
LINE
  8
0
 10
-73.7427
 20
-45.1763
 11
-73.8
 21
-45
  0
LINE
  8
0
 10
-73.8
 20
-45
 11
-73.8
 21
-31
  0
LINE
  8
0
 10
-73.8
 20
-31
 11
-73.7427
 21
-30.8237
  0
LINE
  8
0
 10
-73.7427
 20
-30.8237
 11
-73.5927
 21
-30.7147
  0
LINE
  8
0
 10
-73.5927
 20
-30.7147
 11
-59.4073
 21
-30.7147
  0
LINE
  8
0
 10
-59.4073
 20
-30.7147
 11
-59.2573
 21
-30.8237
  0
LINE
  8
0
 10
-59.2573
 20
-30.8237
 11
-59.2
 21
-31
  0
LINE
  8
0
 10
-59.2
 20
-31
 11
-59.2
 21
-45
  0
LINE
  8
0
 10
-59.2
 20
-45
 11
-59.2573
 21
-45.1763
  0
LINE
  8
0
 10
-59.2573
 20
-45.1763
 11
-59.4073
 21
-45.2853
  0
LINE
  8
0
 10
-59.4073
 20
-45.2853
 11
-73.5927
 21
-45.2853
  0
LINE
  8
0
 10
-92.5927
 20
-45.2853
 11
-92.7427
 21
-45.1763
  0
LINE
  8
0
 10
-92.7427
 20
-45.1763
 11
-92.8
 21
-45
  0
LINE
  8
0
 10
-92.8
 20
-45
 11
-92.8
 21
-31
  0
LINE
  8
0
 10
-92.8
 20
-31
 11
-92.7427
 21
-30.8237
  0
LINE
  8
0
 10
-92.7427
 20
-30.8237
 11
-92.5927
 21
-30.7147
  0
LINE
  8
0
 10
-92.5927
 20
-30.7147
 11
-78.4073
 21
-30.7147
  0
LINE
  8
0
 10
-78.4073
 20
-30.7147
 11
-78.2573
 21
-30.8237
  0
LINE
  8
0
 10
-78.2573
 20
-30.8237
 11
-78.2
 21
-31
  0
LINE
  8
0
 10
-78.2
 20
-31
 11
-78.2
 21
-45
  0
LINE
  8
0
 10
-78.2
 20
-45
 11
-78.2573
 21
-45.1763
  0
LINE
  8
0
 10
-78.2573
 20
-45.1763
 11
-78.4073
 21
-45.2853
  0
LINE
  8
0
 10
-78.4073
 20
-45.2853
 11
-92.5927
 21
-45.2853
  0
LINE
  8
0
 10
-130.593
 20
-45.2853
 11
-130.743
 21
-45.1763
  0
LINE
  8
0
 10
-130.743
 20
-45.1763
 11
-130.8
 21
-45
  0
LINE
  8
0
 10
-130.8
 20
-45
 11
-130.8
 21
-31
  0
LINE
  8
0
 10
-130.8
 20
-31
 11
-130.743
 21
-30.8237
  0
LINE
  8
0
 10
-130.743
 20
-30.8237
 11
-130.593
 21
-30.7147
  0
LINE
  8
0
 10
-130.593
 20
-30.7147
 11
-116.407
 21
-30.7147
  0
LINE
  8
0
 10
-116.407
 20
-30.7147
 11
-116.257
 21
-30.8237
  0
LINE
  8
0
 10
-116.257
 20
-30.8237
 11
-116.2
 21
-31
  0
LINE
  8
0
 10
-116.2
 20
-31
 11
-116.2
 21
-45
  0
LINE
  8
0
 10
-116.2
 20
-45
 11
-116.257
 21
-45.1763
  0
LINE
  8
0
 10
-116.257
 20
-45.1763
 11
-116.407
 21
-45.2853
  0
LINE
  8
0
 10
-116.407
 20
-45.2853
 11
-130.593
 21
-45.2853
  0
LINE
  8
0
 10
116.407
 20
-45.2853
 11
116.257
 21
-45.1763
  0
LINE
  8
0
 10
116.257
 20
-45.1763
 11
116.2
 21
-45
  0
LINE
  8
0
 10
116.2
 20
-45
 11
116.2
 21
-31
  0
LINE
  8
0
 10
116.2
 20
-31
 11
116.257
 21
-30.8237
  0
LINE
  8
0
 10
116.257
 20
-30.8237
 11
116.407
 21
-30.7147
  0
LINE
  8
0
 10
116.407
 20
-30.7147
 11
130.593
 21
-30.7147
  0
LINE
  8
0
 10
130.593
 20
-30.7147
 11
130.743
 21
-30.8237
  0
LINE
  8
0
 10
130.743
 20
-30.8237
 11
130.8
 21
-31
  0
LINE
  8
0
 10
130.8
 20
-31
 11
130.8
 21
-45
  0
LINE
  8
0
 10
130.8
 20
-45
 11
130.743
 21
-45.1763
  0
LINE
  8
0
 10
130.743
 20
-45.1763
 11
130.593
 21
-45.2853
  0
LINE
  8
0
 10
130.593
 20
-45.2853
 11
116.407
 21
-45.2853
  0
LINE
  8
0
 10
-114.355
 20
-39.0937
 11
-114.93
 21
-38.6759
  0
LINE
  8
0
 10
-114.93
 20
-38.6759
 11
-115.15
 21
-38
  0
LINE
  8
0
 10
-115.15
 20
-38
 11
-114.93
 21
-37.324
  0
LINE
  8
0
 10
-114.93
 20
-37.324
 11
-114.355
 21
-36.9063
  0
LINE
  8
0
 10
-114.355
 20
-36.9063
 11
-113.645
 21
-36.9063
  0
LINE
  8
0
 10
-113.645
 20
-36.9063
 11
-113.07
 21
-37.324
  0
LINE
  8
0
 10
-113.07
 20
-37.324
 11
-112.85
 21
-38
  0
LINE
  8
0
 10
-112.85
 20
-38
 11
-113.07
 21
-38.6759
  0
LINE
  8
0
 10
-113.07
 20
-38.6759
 11
-113.645
 21
-39.0937
  0
LINE
  8
0
 10
-113.645
 20
-39.0937
 11
-114.355
 21
-39.0937
  0
LINE
  8
0
 10
113.645
 20
-39.0937
 11
113.07
 21
-38.6759
  0
LINE
  8
0
 10
113.07
 20
-38.6759
 11
112.85
 21
-38
  0
LINE
  8
0
 10
112.85
 20
-38
 11
113.07
 21
-37.324
  0
LINE
  8
0
 10
113.07
 20
-37.324
 11
113.645
 21
-36.9063
  0
LINE
  8
0
 10
113.645
 20
-36.9063
 11
114.355
 21
-36.9063
  0
LINE
  8
0
 10
114.355
 20
-36.9063
 11
114.93
 21
-37.324
  0
LINE
  8
0
 10
114.93
 20
-37.324
 11
115.15
 21
-38
  0
LINE
  8
0
 10
115.15
 20
-38
 11
114.93
 21
-38.6759
  0
LINE
  8
0
 10
114.93
 20
-38.6759
 11
114.355
 21
-39.0937
  0
LINE
  8
0
 10
114.355
 20
-39.0937
 11
113.645
 21
-39.0937
  0
ENDSEC
  0
SECTION
  2
OBJECTS
  0
DICTIONARY
  0
ENDSEC
  0
EOF
