  0
SECTION
  2
BLOCKS
  0
ENDSEC
  0
SECTION
  2
ENTITIES
  0
LINE
  8
0
 10
5.33177
 20
-1.9395
 11
5.35433
 21
-1.87008
  0
LINE
  8
0
 10
5.35433
 20
-1.87008
 11
5.35433
 21
1.87008
  0
LINE
  8
0
 10
5.35433
 20
1.87008
 11
5.33177
 21
1.9395
  0
LINE
  8
0
 10
5.33177
 20
1.9395
 11
5.27272
 21
1.98241
  0
LINE
  8
0
 10
5.27272
 20
1.98241
 11
-5.27272
 21
1.98241
  0
LINE
  8
0
 10
-5.27272
 20
1.98241
 11
-5.33177
 21
1.9395
  0
LINE
  8
0
 10
-5.33177
 20
1.9395
 11
-5.35433
 21
1.87008
  0
LINE
  8
0
 10
-5.35433
 20
1.87008
 11
-5.35433
 21
-1.87008
  0
LINE
  8
0
 10
-5.35433
 20
-1.87008
 11
-5.33177
 21
-1.9395
  0
LINE
  8
0
 10
-5.33177
 20
-1.9395
 11
-5.27272
 21
-1.98241
  0
LINE
  8
0
 10
-5.27272
 20
-1.98241
 11
5.27272
 21
-1.98241
  0
LINE
  8
0
 10
5.27272
 20
-1.98241
 11
5.33177
 21
-1.9395
  0
LINE
  8
0
 10
-4.39341
 20
1.20924
 11
-4.39932
 21
1.21353
  0
LINE
  8
0
 10
-4.39932
 20
1.21353
 11
-4.40157
 21
1.22047
  0
LINE
  8
0
 10
-4.40157
 20
1.22047
 11
-4.40157
 21
1.77165
  0
LINE
  8
0
 10
-4.40157
 20
1.77165
 11
-4.39932
 21
1.7786
  0
LINE
  8
0
 10
-4.39932
 20
1.7786
 11
-4.39341
 21
1.78289
  0
LINE
  8
0
 10
-4.39341
 20
1.78289
 11
-3.83493
 21
1.78289
  0
LINE
  8
0
 10
-3.83493
 20
1.78289
 11
-3.82903
 21
1.7786
  0
LINE
  8
0
 10
-3.82903
 20
1.7786
 11
-3.82677
 21
1.77165
  0
LINE
  8
0
 10
-3.82677
 20
1.77165
 11
-3.82677
 21
1.22047
  0
LINE
  8
0
 10
-3.82677
 20
1.22047
 11
-3.82903
 21
1.21353
  0
LINE
  8
0
 10
-3.82903
 20
1.21353
 11
-3.83493
 21
1.20924
  0
LINE
  8
0
 10
-3.83493
 20
1.20924
 11
-4.39341
 21
1.20924
  0
LINE
  8
0
 10
-3.64538
 20
1.20924
 11
-3.65129
 21
1.21353
  0
LINE
  8
0
 10
-3.65129
 20
1.21353
 11
-3.65354
 21
1.22047
  0
LINE
  8
0
 10
-3.65354
 20
1.22047
 11
-3.65354
 21
1.77165
  0
LINE
  8
0
 10
-3.65354
 20
1.77165
 11
-3.65129
 21
1.7786
  0
LINE
  8
0
 10
-3.65129
 20
1.7786
 11
-3.64538
 21
1.78289
  0
LINE
  8
0
 10
-3.64538
 20
1.78289
 11
-3.0869
 21
1.78289
  0
LINE
  8
0
 10
-3.0869
 20
1.78289
 11
-3.081
 21
1.7786
  0
LINE
  8
0
 10
-3.081
 20
1.7786
 11
-3.07874
 21
1.77165
  0
LINE
  8
0
 10
-3.07874
 20
1.77165
 11
-3.07874
 21
1.22047
  0
LINE
  8
0
 10
-3.07874
 20
1.22047
 11
-3.081
 21
1.21353
  0
LINE
  8
0
 10
-3.081
 20
1.21353
 11
-3.0869
 21
1.20924
  0
LINE
  8
0
 10
-3.0869
 20
1.20924
 11
-3.64538
 21
1.20924
  0
LINE
  8
0
 10
-2.89735
 20
1.20924
 11
-2.90326
 21
1.21353
  0
LINE
  8
0
 10
-2.90326
 20
1.21353
 11
-2.90551
 21
1.22047
  0
LINE
  8
0
 10
-2.90551
 20
1.22047
 11
-2.90551
 21
1.77165
  0
LINE
  8
0
 10
-2.90551
 20
1.77165
 11
-2.90326
 21
1.7786
  0
LINE
  8
0
 10
-2.90326
 20
1.7786
 11
-2.89735
 21
1.78289
  0
LINE
  8
0
 10
-2.89735
 20
1.78289
 11
-2.33887
 21
1.78289
  0
LINE
  8
0
 10
-2.33887
 20
1.78289
 11
-2.33296
 21
1.7786
  0
LINE
  8
0
 10
-2.33296
 20
1.7786
 11
-2.33071
 21
1.77165
  0
LINE
  8
0
 10
-2.33071
 20
1.77165
 11
-2.33071
 21
1.22047
  0
LINE
  8
0
 10
-2.33071
 20
1.22047
 11
-2.33296
 21
1.21353
  0
LINE
  8
0
 10
-2.33296
 20
1.21353
 11
-2.33887
 21
1.20924
  0
LINE
  8
0
 10
-2.33887
 20
1.20924
 11
-2.89735
 21
1.20924
  0
LINE
  8
0
 10
-2.14932
 20
1.20924
 11
-2.15522
 21
1.21353
  0
LINE
  8
0
 10
-2.15522
 20
1.21353
 11
-2.15748
 21
1.22047
  0
LINE
  8
0
 10
-2.15748
 20
1.22047
 11
-2.15748
 21
1.77165
  0
LINE
  8
0
 10
-2.15748
 20
1.77165
 11
-2.15522
 21
1.7786
  0
LINE
  8
0
 10
-2.15522
 20
1.7786
 11
-2.14932
 21
1.78289
  0
LINE
  8
0
 10
-2.14932
 20
1.78289
 11
-1.59084
 21
1.78289
  0
LINE
  8
0
 10
-1.59084
 20
1.78289
 11
-1.58493
 21
1.7786
  0
LINE
  8
0
 10
-1.58493
 20
1.7786
 11
-1.58268
 21
1.77165
  0
LINE
  8
0
 10
-1.58268
 20
1.77165
 11
-1.58268
 21
1.22047
  0
LINE
  8
0
 10
-1.58268
 20
1.22047
 11
-1.58493
 21
1.21353
  0
LINE
  8
0
 10
-1.58493
 20
1.21353
 11
-1.59084
 21
1.20924
  0
LINE
  8
0
 10
-1.59084
 20
1.20924
 11
-2.14932
 21
1.20924
  0
LINE
  8
0
 10
-1.40129
 20
1.20924
 11
-1.40719
 21
1.21353
  0
LINE
  8
0
 10
-1.40719
 20
1.21353
 11
-1.40945
 21
1.22047
  0
LINE
  8
0
 10
-1.40945
 20
1.22047
 11
-1.40945
 21
1.77165
  0
LINE
  8
0
 10
-1.40945
 20
1.77165
 11
-1.40719
 21
1.7786
  0
LINE
  8
0
 10
-1.40719
 20
1.7786
 11
-1.40129
 21
1.78289
  0
LINE
  8
0
 10
-1.40129
 20
1.78289
 11
-0.842807
 21
1.78289
  0
LINE
  8
0
 10
-0.842807
 20
1.78289
 11
-0.836901
 21
1.7786
  0
LINE
  8
0
 10
-0.836901
 20
1.7786
 11
-0.834646
 21
1.77165
  0
LINE
  8
0
 10
-0.834646
 20
1.77165
 11
-0.834646
 21
1.22047
  0
LINE
  8
0
 10
-0.834646
 20
1.22047
 11
-0.836901
 21
1.21353
  0
LINE
  8
0
 10
-0.836901
 20
1.21353
 11
-0.842807
 21
1.20924
  0
LINE
  8
0
 10
-0.842807
 20
1.20924
 11
-1.40129
 21
1.20924
  0
LINE
  8
0
 10
-0.653256
 20
1.20924
 11
-0.659161
 21
1.21353
  0
LINE
  8
0
 10
-0.659161
 20
1.21353
 11
-0.661417
 21
1.22047
  0
LINE
  8
0
 10
-0.661417
 20
1.22047
 11
-0.661417
 21
1.77165
  0
LINE
  8
0
 10
-0.661417
 20
1.77165
 11
-0.659161
 21
1.7786
  0
LINE
  8
0
 10
-0.659161
 20
1.7786
 11
-0.653256
 21
1.78289
  0
LINE
  8
0
 10
-0.653256
 20
1.78289
 11
-0.0947751
 21
1.78289
  0
LINE
  8
0
 10
-0.0947751
 20
1.78289
 11
-0.0888698
 21
1.7786
  0
LINE
  8
0
 10
-0.0888698
 20
1.7786
 11
-0.0866141
 21
1.77165
  0
LINE
  8
0
 10
-0.0866141
 20
1.77165
 11
-0.0866141
 21
1.22047
  0
LINE
  8
0
 10
-0.0866141
 20
1.22047
 11
-0.0888698
 21
1.21353
  0
LINE
  8
0
 10
-0.0888698
 20
1.21353
 11
-0.0947751
 21
1.20924
  0
LINE
  8
0
 10
-0.0947751
 20
1.20924
 11
-0.653256
 21
1.20924
  0
LINE
  8
0
 10
0.0947751
 20
1.20924
 11
0.0888698
 21
1.21353
  0
LINE
  8
0
 10
0.0888698
 20
1.21353
 11
0.0866141
 21
1.22047
  0
LINE
  8
0
 10
0.0866141
 20
1.22047
 11
0.0866141
 21
1.77165
  0
LINE
  8
0
 10
0.0866141
 20
1.77165
 11
0.0888698
 21
1.7786
  0
LINE
  8
0
 10
0.0888698
 20
1.7786
 11
0.0947751
 21
1.78289
  0
LINE
  8
0
 10
0.0947751
 20
1.78289
 11
0.653256
 21
1.78289
  0
LINE
  8
0
 10
0.653256
 20
1.78289
 11
0.659161
 21
1.7786
  0
LINE
  8
0
 10
0.659161
 20
1.7786
 11
0.661417
 21
1.77165
  0
LINE
  8
0
 10
0.661417
 20
1.77165
 11
0.661417
 21
1.22047
  0
LINE
  8
0
 10
0.661417
 20
1.22047
 11
0.659161
 21
1.21353
  0
LINE
  8
0
 10
0.659161
 20
1.21353
 11
0.653256
 21
1.20924
  0
LINE
  8
0
 10
0.653256
 20
1.20924
 11
0.0947751
 21
1.20924
  0
LINE
  8
0
 10
1.59084
 20
1.20924
 11
1.58493
 21
1.21353
  0
LINE
  8
0
 10
1.58493
 20
1.21353
 11
1.58268
 21
1.22047
  0
LINE
  8
0
 10
1.58268
 20
1.22047
 11
1.58268
 21
1.77165
  0
LINE
  8
0
 10
1.58268
 20
1.77165
 11
1.58493
 21
1.7786
  0
LINE
  8
0
 10
1.58493
 20
1.7786
 11
1.59084
 21
1.78289
  0
LINE
  8
0
 10
1.59084
 20
1.78289
 11
2.14932
 21
1.78289
  0
LINE
  8
0
 10
2.14932
 20
1.78289
 11
2.15522
 21
1.7786
  0
LINE
  8
0
 10
2.15522
 20
1.7786
 11
2.15748
 21
1.77165
  0
LINE
  8
0
 10
2.15748
 20
1.77165
 11
2.15748
 21
1.22047
  0
LINE
  8
0
 10
2.15748
 20
1.22047
 11
2.15522
 21
1.21353
  0
LINE
  8
0
 10
2.15522
 20
1.21353
 11
2.14932
 21
1.20924
  0
LINE
  8
0
 10
2.14932
 20
1.20924
 11
1.59084
 21
1.20924
  0
LINE
  8
0
 10
2.33887
 20
1.20924
 11
2.33296
 21
1.21353
  0
LINE
  8
0
 10
2.33296
 20
1.21353
 11
2.33071
 21
1.22047
  0
LINE
  8
0
 10
2.33071
 20
1.22047
 11
2.33071
 21
1.77165
  0
LINE
  8
0
 10
2.33071
 20
1.77165
 11
2.33296
 21
1.7786
  0
LINE
  8
0
 10
2.33296
 20
1.7786
 11
2.33887
 21
1.78289
  0
LINE
  8
0
 10
2.33887
 20
1.78289
 11
2.89735
 21
1.78289
  0
LINE
  8
0
 10
2.89735
 20
1.78289
 11
2.90326
 21
1.7786
  0
LINE
  8
0
 10
2.90326
 20
1.7786
 11
2.90551
 21
1.77165
  0
LINE
  8
0
 10
2.90551
 20
1.77165
 11
2.90551
 21
1.22047
  0
LINE
  8
0
 10
2.90551
 20
1.22047
 11
2.90326
 21
1.21353
  0
LINE
  8
0
 10
2.90326
 20
1.21353
 11
2.89735
 21
1.20924
  0
LINE
  8
0
 10
2.89735
 20
1.20924
 11
2.33887
 21
1.20924
  0
LINE
  8
0
 10
3.0869
 20
1.20924
 11
3.081
 21
1.21353
  0
LINE
  8
0
 10
3.081
 20
1.21353
 11
3.07874
 21
1.22047
  0
LINE
  8
0
 10
3.07874
 20
1.22047
 11
3.07874
 21
1.77165
  0
LINE
  8
0
 10
3.07874
 20
1.77165
 11
3.081
 21
1.7786
  0
LINE
  8
0
 10
3.081
 20
1.7786
 11
3.0869
 21
1.78289
  0
LINE
  8
0
 10
3.0869
 20
1.78289
 11
3.64538
 21
1.78289
  0
LINE
  8
0
 10
3.64538
 20
1.78289
 11
3.65129
 21
1.7786
  0
LINE
  8
0
 10
3.65129
 20
1.7786
 11
3.65354
 21
1.77165
  0
LINE
  8
0
 10
3.65354
 20
1.77165
 11
3.65354
 21
1.22047
  0
LINE
  8
0
 10
3.65354
 20
1.22047
 11
3.65129
 21
1.21353
  0
LINE
  8
0
 10
3.65129
 20
1.21353
 11
3.64538
 21
1.20924
  0
LINE
  8
0
 10
3.64538
 20
1.20924
 11
3.0869
 21
1.20924
  0
LINE
  8
0
 10
3.83493
 20
1.20924
 11
3.82903
 21
1.21353
  0
LINE
  8
0
 10
3.82903
 20
1.21353
 11
3.82677
 21
1.22047
  0
LINE
  8
0
 10
3.82677
 20
1.22047
 11
3.82677
 21
1.77165
  0
LINE
  8
0
 10
3.82677
 20
1.77165
 11
3.82903
 21
1.7786
  0
LINE
  8
0
 10
3.82903
 20
1.7786
 11
3.83493
 21
1.78289
  0
LINE
  8
0
 10
3.83493
 20
1.78289
 11
4.39341
 21
1.78289
  0
LINE
  8
0
 10
4.39341
 20
1.78289
 11
4.39932
 21
1.7786
  0
LINE
  8
0
 10
4.39932
 20
1.7786
 11
4.40157
 21
1.77165
  0
LINE
  8
0
 10
4.40157
 20
1.77165
 11
4.40157
 21
1.22047
  0
LINE
  8
0
 10
4.40157
 20
1.22047
 11
4.39932
 21
1.21353
  0
LINE
  8
0
 10
4.39932
 20
1.21353
 11
4.39341
 21
1.20924
  0
LINE
  8
0
 10
4.39341
 20
1.20924
 11
3.83493
 21
1.20924
  0
LINE
  8
0
 10
4.58296
 20
1.20924
 11
4.57706
 21
1.21353
  0
LINE
  8
0
 10
4.57706
 20
1.21353
 11
4.5748
 21
1.22047
  0
LINE
  8
0
 10
4.5748
 20
1.22047
 11
4.5748
 21
1.77165
  0
LINE
  8
0
 10
4.5748
 20
1.77165
 11
4.57706
 21
1.7786
  0
LINE
  8
0
 10
4.57706
 20
1.7786
 11
4.58296
 21
1.78289
  0
LINE
  8
0
 10
4.58296
 20
1.78289
 11
5.14144
 21
1.78289
  0
LINE
  8
0
 10
5.14144
 20
1.78289
 11
5.14735
 21
1.7786
  0
LINE
  8
0
 10
5.14735
 20
1.7786
 11
5.14961
 21
1.77165
  0
LINE
  8
0
 10
5.14961
 20
1.77165
 11
5.14961
 21
1.22047
  0
LINE
  8
0
 10
5.14961
 20
1.22047
 11
5.14735
 21
1.21353
  0
LINE
  8
0
 10
5.14735
 20
1.21353
 11
5.14144
 21
1.20924
  0
LINE
  8
0
 10
5.14144
 20
1.20924
 11
4.58296
 21
1.20924
  0
LINE
  8
0
 10
-5.14144
 20
1.20924
 11
-5.14735
 21
1.21353
  0
LINE
  8
0
 10
-5.14735
 20
1.21353
 11
-5.14961
 21
1.22047
  0
LINE
  8
0
 10
-5.14961
 20
1.22047
 11
-5.14961
 21
1.77165
  0
LINE
  8
0
 10
-5.14961
 20
1.77165
 11
-5.14735
 21
1.7786
  0
LINE
  8
0
 10
-5.14735
 20
1.7786
 11
-5.14144
 21
1.78289
  0
LINE
  8
0
 10
-5.14144
 20
1.78289
 11
-4.58296
 21
1.78289
  0
LINE
  8
0
 10
-4.58296
 20
1.78289
 11
-4.57706
 21
1.7786
  0
LINE
  8
0
 10
-4.57706
 20
1.7786
 11
-4.5748
 21
1.77165
  0
LINE
  8
0
 10
-4.5748
 20
1.77165
 11
-4.5748
 21
1.22047
  0
LINE
  8
0
 10
-4.5748
 20
1.22047
 11
-4.57706
 21
1.21353
  0
LINE
  8
0
 10
-4.57706
 20
1.21353
 11
-4.58296
 21
1.20924
  0
LINE
  8
0
 10
-4.58296
 20
1.20924
 11
-5.14144
 21
1.20924
  0
LINE
  8
0
 10
0.842807
 20
1.20924
 11
0.836901
 21
1.21353
  0
LINE
  8
0
 10
0.836901
 20
1.21353
 11
0.834646
 21
1.22047
  0
LINE
  8
0
 10
0.834646
 20
1.22047
 11
0.834646
 21
1.77165
  0
LINE
  8
0
 10
0.834646
 20
1.77165
 11
0.836901
 21
1.7786
  0
LINE
  8
0
 10
0.836901
 20
1.7786
 11
0.842807
 21
1.78289
  0
LINE
  8
0
 10
0.842807
 20
1.78289
 11
1.40129
 21
1.78289
  0
LINE
  8
0
 10
1.40129
 20
1.78289
 11
1.40719
 21
1.7786
  0
LINE
  8
0
 10
1.40719
 20
1.7786
 11
1.40945
 21
1.77165
  0
LINE
  8
0
 10
1.40945
 20
1.77165
 11
1.40945
 21
1.22047
  0
LINE
  8
0
 10
1.40945
 20
1.22047
 11
1.40719
 21
1.21353
  0
LINE
  8
0
 10
1.40719
 20
1.21353
 11
1.40129
 21
1.20924
  0
LINE
  8
0
 10
1.40129
 20
1.20924
 11
0.842807
 21
1.20924
  0
LINE
  8
0
 10
-4.50218
 20
1.453
 11
-4.52482
 21
1.46945
  0
LINE
  8
0
 10
-4.52482
 20
1.46945
 11
-4.53346
 21
1.49606
  0
LINE
  8
0
 10
-4.53346
 20
1.49606
 11
-4.52482
 21
1.52268
  0
LINE
  8
0
 10
-4.52482
 20
1.52268
 11
-4.50218
 21
1.53912
  0
LINE
  8
0
 10
-4.50218
 20
1.53912
 11
-4.4742
 21
1.53912
  0
LINE
  8
0
 10
-4.4742
 20
1.53912
 11
-4.45156
 21
1.52268
  0
LINE
  8
0
 10
-4.45156
 20
1.52268
 11
-4.44291
 21
1.49606
  0
LINE
  8
0
 10
-4.44291
 20
1.49606
 11
-4.45156
 21
1.46945
  0
LINE
  8
0
 10
-4.45156
 20
1.46945
 11
-4.4742
 21
1.453
  0
LINE
  8
0
 10
-4.4742
 20
1.453
 11
-4.50218
 21
1.453
  0
LINE
  8
0
 10
4.4742
 20
1.453
 11
4.45156
 21
1.46945
  0
LINE
  8
0
 10
4.45156
 20
1.46945
 11
4.44291
 21
1.49606
  0
LINE
  8
0
 10
4.44291
 20
1.49606
 11
4.45156
 21
1.52268
  0
LINE
  8
0
 10
4.45156
 20
1.52268
 11
4.4742
 21
1.53912
  0
LINE
  8
0
 10
4.4742
 20
1.53912
 11
4.50218
 21
1.53912
  0
LINE
  8
0
 10
4.50218
 20
1.53912
 11
4.52482
 21
1.52268
  0
LINE
  8
0
 10
4.52482
 20
1.52268
 11
4.53346
 21
1.49606
  0
LINE
  8
0
 10
4.53346
 20
1.49606
 11
4.52482
 21
1.46945
  0
LINE
  8
0
 10
4.52482
 20
1.46945
 11
4.50218
 21
1.453
  0
LINE
  8
0
 10
4.50218
 20
1.453
 11
4.4742
 21
1.453
  0
LINE
  8
0
 10
-0.0139906
 20
1.453
 11
-0.0366283
 21
1.46945
  0
LINE
  8
0
 10
-0.0366283
 20
1.46945
 11
-0.0452754
 21
1.49606
  0
LINE
  8
0
 10
-0.0452754
 20
1.49606
 11
-0.0366283
 21
1.52268
  0
LINE
  8
0
 10
-0.0366283
 20
1.52268
 11
-0.0139906
 21
1.53912
  0
LINE
  8
0
 10
-0.0139906
 20
1.53912
 11
0.0139906
 21
1.53912
  0
LINE
  8
0
 10
0.0139906
 20
1.53912
 11
0.0366283
 21
1.52268
  0
LINE
  8
0
 10
0.0366283
 20
1.52268
 11
0.0452754
 21
1.49606
  0
LINE
  8
0
 10
0.0452754
 20
1.49606
 11
0.0366283
 21
1.46945
  0
LINE
  8
0
 10
0.0366283
 20
1.46945
 11
0.0139906
 21
1.453
  0
LINE
  8
0
 10
0.0139906
 20
1.453
 11
-0.0139906
 21
1.453
  0
LINE
  8
0
 10
4.58296
 20
0.461208
 11
4.57706
 21
0.465498
  0
LINE
  8
0
 10
4.57706
 20
0.465498
 11
4.5748
 21
0.472441
  0
LINE
  8
0
 10
4.5748
 20
0.472441
 11
4.5748
 21
1.02362
  0
LINE
  8
0
 10
4.5748
 20
1.02362
 11
4.57706
 21
1.03056
  0
LINE
  8
0
 10
4.57706
 20
1.03056
 11
4.58296
 21
1.03485
  0
LINE
  8
0
 10
4.58296
 20
1.03485
 11
5.14144
 21
1.03485
  0
LINE
  8
0
 10
5.14144
 20
1.03485
 11
5.14735
 21
1.03056
  0
LINE
  8
0
 10
5.14735
 20
1.03056
 11
5.14961
 21
1.02362
  0
LINE
  8
0
 10
5.14961
 20
1.02362
 11
5.14961
 21
0.472441
  0
LINE
  8
0
 10
5.14961
 20
0.472441
 11
5.14735
 21
0.465498
  0
LINE
  8
0
 10
5.14735
 20
0.465498
 11
5.14144
 21
0.461208
  0
LINE
  8
0
 10
5.14144
 20
0.461208
 11
4.58296
 21
0.461208
  0
LINE
  8
0
 10
-5.14144
 20
0.461208
 11
-5.14735
 21
0.465498
  0
LINE
  8
0
 10
-5.14735
 20
0.465498
 11
-5.14961
 21
0.472441
  0
LINE
  8
0
 10
-5.14961
 20
0.472441
 11
-5.14961
 21
1.02362
  0
LINE
  8
0
 10
-5.14961
 20
1.02362
 11
-5.14735
 21
1.03056
  0
LINE
  8
0
 10
-5.14735
 20
1.03056
 11
-5.14144
 21
1.03485
  0
LINE
  8
0
 10
-5.14144
 20
1.03485
 11
-4.58296
 21
1.03485
  0
LINE
  8
0
 10
-4.58296
 20
1.03485
 11
-4.57706
 21
1.03056
  0
LINE
  8
0
 10
-4.57706
 20
1.03056
 11
-4.5748
 21
1.02362
  0
LINE
  8
0
 10
-4.5748
 20
1.02362
 11
-4.5748
 21
0.472441
  0
LINE
  8
0
 10
-4.5748
 20
0.472441
 11
-4.57706
 21
0.465498
  0
LINE
  8
0
 10
-4.57706
 20
0.465498
 11
-4.58296
 21
0.461208
  0
LINE
  8
0
 10
-4.58296
 20
0.461208
 11
-5.14144
 21
0.461208
  0
LINE
  8
0
 10
-4.39341
 20
0.461208
 11
-4.39932
 21
0.465498
  0
LINE
  8
0
 10
-4.39932
 20
0.465498
 11
-4.40157
 21
0.472441
  0
LINE
  8
0
 10
-4.40157
 20
0.472441
 11
-4.40157
 21
1.02362
  0
LINE
  8
0
 10
-4.40157
 20
1.02362
 11
-4.39932
 21
1.03056
  0
LINE
  8
0
 10
-4.39932
 20
1.03056
 11
-4.39341
 21
1.03485
  0
LINE
  8
0
 10
-4.39341
 20
1.03485
 11
-3.83493
 21
1.03485
  0
LINE
  8
0
 10
-3.83493
 20
1.03485
 11
-3.82903
 21
1.03056
  0
LINE
  8
0
 10
-3.82903
 20
1.03056
 11
-3.82677
 21
1.02362
  0
LINE
  8
0
 10
-3.82677
 20
1.02362
 11
-3.82677
 21
0.472441
  0
LINE
  8
0
 10
-3.82677
 20
0.472441
 11
-3.82903
 21
0.465498
  0
LINE
  8
0
 10
-3.82903
 20
0.465498
 11
-3.83493
 21
0.461208
  0
LINE
  8
0
 10
-3.83493
 20
0.461208
 11
-4.39341
 21
0.461208
  0
LINE
  8
0
 10
-3.64538
 20
0.461208
 11
-3.65129
 21
0.465498
  0
LINE
  8
0
 10
-3.65129
 20
0.465498
 11
-3.65354
 21
0.472441
  0
LINE
  8
0
 10
-3.65354
 20
0.472441
 11
-3.65354
 21
1.02362
  0
LINE
  8
0
 10
-3.65354
 20
1.02362
 11
-3.65129
 21
1.03056
  0
LINE
  8
0
 10
-3.65129
 20
1.03056
 11
-3.64538
 21
1.03485
  0
LINE
  8
0
 10
-3.64538
 20
1.03485
 11
-3.0869
 21
1.03485
  0
LINE
  8
0
 10
-3.0869
 20
1.03485
 11
-3.081
 21
1.03056
  0
LINE
  8
0
 10
-3.081
 20
1.03056
 11
-3.07874
 21
1.02362
  0
LINE
  8
0
 10
-3.07874
 20
1.02362
 11
-3.07874
 21
0.472441
  0
LINE
  8
0
 10
-3.07874
 20
0.472441
 11
-3.081
 21
0.465498
  0
LINE
  8
0
 10
-3.081
 20
0.465498
 11
-3.0869
 21
0.461208
  0
LINE
  8
0
 10
-3.0869
 20
0.461208
 11
-3.64538
 21
0.461208
  0
LINE
  8
0
 10
-2.89735
 20
0.461208
 11
-2.90326
 21
0.465498
  0
LINE
  8
0
 10
-2.90326
 20
0.465498
 11
-2.90551
 21
0.472441
  0
LINE
  8
0
 10
-2.90551
 20
0.472441
 11
-2.90551
 21
1.02362
  0
LINE
  8
0
 10
-2.90551
 20
1.02362
 11
-2.90326
 21
1.03056
  0
LINE
  8
0
 10
-2.90326
 20
1.03056
 11
-2.89735
 21
1.03485
  0
LINE
  8
0
 10
-2.89735
 20
1.03485
 11
-2.33887
 21
1.03485
  0
LINE
  8
0
 10
-2.33887
 20
1.03485
 11
-2.33296
 21
1.03056
  0
LINE
  8
0
 10
-2.33296
 20
1.03056
 11
-2.33071
 21
1.02362
  0
LINE
  8
0
 10
-2.33071
 20
1.02362
 11
-2.33071
 21
0.472441
  0
LINE
  8
0
 10
-2.33071
 20
0.472441
 11
-2.33296
 21
0.465498
  0
LINE
  8
0
 10
-2.33296
 20
0.465498
 11
-2.33887
 21
0.461208
  0
LINE
  8
0
 10
-2.33887
 20
0.461208
 11
-2.89735
 21
0.461208
  0
LINE
  8
0
 10
-1.40129
 20
0.461208
 11
-1.40719
 21
0.465498
  0
LINE
  8
0
 10
-1.40719
 20
0.465498
 11
-1.40945
 21
0.472441
  0
LINE
  8
0
 10
-1.40945
 20
0.472441
 11
-1.40945
 21
1.02362
  0
LINE
  8
0
 10
-1.40945
 20
1.02362
 11
-1.40719
 21
1.03056
  0
LINE
  8
0
 10
-1.40719
 20
1.03056
 11
-1.40129
 21
1.03485
  0
LINE
  8
0
 10
-1.40129
 20
1.03485
 11
-0.842807
 21
1.03485
  0
LINE
  8
0
 10
-0.842807
 20
1.03485
 11
-0.836901
 21
1.03056
  0
LINE
  8
0
 10
-0.836901
 20
1.03056
 11
-0.834646
 21
1.02362
  0
LINE
  8
0
 10
-0.834646
 20
1.02362
 11
-0.834646
 21
0.472441
  0
LINE
  8
0
 10
-0.834646
 20
0.472441
 11
-0.836901
 21
0.465498
  0
LINE
  8
0
 10
-0.836901
 20
0.465498
 11
-0.842807
 21
0.461208
  0
LINE
  8
0
 10
-0.842807
 20
0.461208
 11
-1.40129
 21
0.461208
  0
LINE
  8
0
 10
-0.653256
 20
0.461208
 11
-0.659161
 21
0.465498
  0
LINE
  8
0
 10
-0.659161
 20
0.465498
 11
-0.661417
 21
0.472441
  0
LINE
  8
0
 10
-0.661417
 20
0.472441
 11
-0.661417
 21
1.02362
  0
LINE
  8
0
 10
-0.661417
 20
1.02362
 11
-0.659161
 21
1.03056
  0
LINE
  8
0
 10
-0.659161
 20
1.03056
 11
-0.653256
 21
1.03485
  0
LINE
  8
0
 10
-0.653256
 20
1.03485
 11
-0.0947751
 21
1.03485
  0
LINE
  8
0
 10
-0.0947751
 20
1.03485
 11
-0.0888698
 21
1.03056
  0
LINE
  8
0
 10
-0.0888698
 20
1.03056
 11
-0.0866141
 21
1.02362
  0
LINE
  8
0
 10
-0.0866141
 20
1.02362
 11
-0.0866141
 21
0.472441
  0
LINE
  8
0
 10
-0.0866141
 20
0.472441
 11
-0.0888698
 21
0.465498
  0
LINE
  8
0
 10
-0.0888698
 20
0.465498
 11
-0.0947751
 21
0.461208
  0
LINE
  8
0
 10
-0.0947751
 20
0.461208
 11
-0.653256
 21
0.461208
  0
LINE
  8
0
 10
0.0947751
 20
0.461208
 11
0.0888698
 21
0.465498
  0
LINE
  8
0
 10
0.0888698
 20
0.465498
 11
0.0866141
 21
0.472441
  0
LINE
  8
0
 10
0.0866141
 20
0.472441
 11
0.0866141
 21
1.02362
  0
LINE
  8
0
 10
0.0866141
 20
1.02362
 11
0.0888698
 21
1.03056
  0
LINE
  8
0
 10
0.0888698
 20
1.03056
 11
0.0947751
 21
1.03485
  0
LINE
  8
0
 10
0.0947751
 20
1.03485
 11
0.653256
 21
1.03485
  0
LINE
  8
0
 10
0.653256
 20
1.03485
 11
0.659161
 21
1.03056
  0
LINE
  8
0
 10
0.659161
 20
1.03056
 11
0.661417
 21
1.02362
  0
LINE
  8
0
 10
0.661417
 20
1.02362
 11
0.661417
 21
0.472441
  0
LINE
  8
0
 10
0.661417
 20
0.472441
 11
0.659161
 21
0.465498
  0
LINE
  8
0
 10
0.659161
 20
0.465498
 11
0.653256
 21
0.461208
  0
LINE
  8
0
 10
0.653256
 20
0.461208
 11
0.0947751
 21
0.461208
  0
LINE
  8
0
 10
0.842807
 20
0.461208
 11
0.836901
 21
0.465498
  0
LINE
  8
0
 10
0.836901
 20
0.465498
 11
0.834646
 21
0.472441
  0
LINE
  8
0
 10
0.834646
 20
0.472441
 11
0.834646
 21
1.02362
  0
LINE
  8
0
 10
0.834646
 20
1.02362
 11
0.836901
 21
1.03056
  0
LINE
  8
0
 10
0.836901
 20
1.03056
 11
0.842807
 21
1.03485
  0
LINE
  8
0
 10
0.842807
 20
1.03485
 11
1.40129
 21
1.03485
  0
LINE
  8
0
 10
1.40129
 20
1.03485
 11
1.40719
 21
1.03056
  0
LINE
  8
0
 10
1.40719
 20
1.03056
 11
1.40945
 21
1.02362
  0
LINE
  8
0
 10
1.40945
 20
1.02362
 11
1.40945
 21
0.472441
  0
LINE
  8
0
 10
1.40945
 20
0.472441
 11
1.40719
 21
0.465498
  0
LINE
  8
0
 10
1.40719
 20
0.465498
 11
1.40129
 21
0.461208
  0
LINE
  8
0
 10
1.40129
 20
0.461208
 11
0.842807
 21
0.461208
  0
LINE
  8
0
 10
1.59084
 20
0.461208
 11
1.58493
 21
0.465498
  0
LINE
  8
0
 10
1.58493
 20
0.465498
 11
1.58268
 21
0.472441
  0
LINE
  8
0
 10
1.58268
 20
0.472441
 11
1.58268
 21
1.02362
  0
LINE
  8
0
 10
1.58268
 20
1.02362
 11
1.58493
 21
1.03056
  0
LINE
  8
0
 10
1.58493
 20
1.03056
 11
1.59084
 21
1.03485
  0
LINE
  8
0
 10
1.59084
 20
1.03485
 11
2.14932
 21
1.03485
  0
LINE
  8
0
 10
2.14932
 20
1.03485
 11
2.15522
 21
1.03056
  0
LINE
  8
0
 10
2.15522
 20
1.03056
 11
2.15748
 21
1.02362
  0
LINE
  8
0
 10
2.15748
 20
1.02362
 11
2.15748
 21
0.472441
  0
LINE
  8
0
 10
2.15748
 20
0.472441
 11
2.15522
 21
0.465498
  0
LINE
  8
0
 10
2.15522
 20
0.465498
 11
2.14932
 21
0.461208
  0
LINE
  8
0
 10
2.14932
 20
0.461208
 11
1.59084
 21
0.461208
  0
LINE
  8
0
 10
2.33887
 20
0.461208
 11
2.33296
 21
0.465498
  0
LINE
  8
0
 10
2.33296
 20
0.465498
 11
2.33071
 21
0.472441
  0
LINE
  8
0
 10
2.33071
 20
0.472441
 11
2.33071
 21
1.02362
  0
LINE
  8
0
 10
2.33071
 20
1.02362
 11
2.33296
 21
1.03056
  0
LINE
  8
0
 10
2.33296
 20
1.03056
 11
2.33887
 21
1.03485
  0
LINE
  8
0
 10
2.33887
 20
1.03485
 11
2.89735
 21
1.03485
  0
LINE
  8
0
 10
2.89735
 20
1.03485
 11
2.90326
 21
1.03056
  0
LINE
  8
0
 10
2.90326
 20
1.03056
 11
2.90551
 21
1.02362
  0
LINE
  8
0
 10
2.90551
 20
1.02362
 11
2.90551
 21
0.472441
  0
LINE
  8
0
 10
2.90551
 20
0.472441
 11
2.90326
 21
0.465498
  0
LINE
  8
0
 10
2.90326
 20
0.465498
 11
2.89735
 21
0.461208
  0
LINE
  8
0
 10
2.89735
 20
0.461208
 11
2.33887
 21
0.461208
  0
LINE
  8
0
 10
3.0869
 20
0.461208
 11
3.081
 21
0.465498
  0
LINE
  8
0
 10
3.081
 20
0.465498
 11
3.07874
 21
0.472441
  0
LINE
  8
0
 10
3.07874
 20
0.472441
 11
3.07874
 21
1.02362
  0
LINE
  8
0
 10
3.07874
 20
1.02362
 11
3.081
 21
1.03056
  0
LINE
  8
0
 10
3.081
 20
1.03056
 11
3.0869
 21
1.03485
  0
LINE
  8
0
 10
3.0869
 20
1.03485
 11
3.64538
 21
1.03485
  0
LINE
  8
0
 10
3.64538
 20
1.03485
 11
3.65129
 21
1.03056
  0
LINE
  8
0
 10
3.65129
 20
1.03056
 11
3.65354
 21
1.02362
  0
LINE
  8
0
 10
3.65354
 20
1.02362
 11
3.65354
 21
0.472441
  0
LINE
  8
0
 10
3.65354
 20
0.472441
 11
3.65129
 21
0.465498
  0
LINE
  8
0
 10
3.65129
 20
0.465498
 11
3.64538
 21
0.461208
  0
LINE
  8
0
 10
3.64538
 20
0.461208
 11
3.0869
 21
0.461208
  0
LINE
  8
0
 10
3.83493
 20
0.461208
 11
3.82903
 21
0.465498
  0
LINE
  8
0
 10
3.82903
 20
0.465498
 11
3.82677
 21
0.472441
  0
LINE
  8
0
 10
3.82677
 20
0.472441
 11
3.82677
 21
1.02362
  0
LINE
  8
0
 10
3.82677
 20
1.02362
 11
3.82903
 21
1.03056
  0
LINE
  8
0
 10
3.82903
 20
1.03056
 11
3.83493
 21
1.03485
  0
LINE
  8
0
 10
3.83493
 20
1.03485
 11
4.39341
 21
1.03485
  0
LINE
  8
0
 10
4.39341
 20
1.03485
 11
4.39932
 21
1.03056
  0
LINE
  8
0
 10
4.39932
 20
1.03056
 11
4.40157
 21
1.02362
  0
LINE
  8
0
 10
4.40157
 20
1.02362
 11
4.40157
 21
0.472441
  0
LINE
  8
0
 10
4.40157
 20
0.472441
 11
4.39932
 21
0.465498
  0
LINE
  8
0
 10
4.39932
 20
0.465498
 11
4.39341
 21
0.461208
  0
LINE
  8
0
 10
4.39341
 20
0.461208
 11
3.83493
 21
0.461208
  0
LINE
  8
0
 10
-2.14932
 20
0.461208
 11
-2.15522
 21
0.465498
  0
LINE
  8
0
 10
-2.15522
 20
0.465498
 11
-2.15748
 21
0.472441
  0
LINE
  8
0
 10
-2.15748
 20
0.472441
 11
-2.15748
 21
1.02362
  0
LINE
  8
0
 10
-2.15748
 20
1.02362
 11
-2.15522
 21
1.03056
  0
LINE
  8
0
 10
-2.15522
 20
1.03056
 11
-2.14932
 21
1.03485
  0
LINE
  8
0
 10
-2.14932
 20
1.03485
 11
-1.59084
 21
1.03485
  0
LINE
  8
0
 10
-1.59084
 20
1.03485
 11
-1.58493
 21
1.03056
  0
LINE
  8
0
 10
-1.58493
 20
1.03056
 11
-1.58268
 21
1.02362
  0
LINE
  8
0
 10
-1.58268
 20
1.02362
 11
-1.58268
 21
0.472441
  0
LINE
  8
0
 10
-1.58268
 20
0.472441
 11
-1.58493
 21
0.465498
  0
LINE
  8
0
 10
-1.58493
 20
0.465498
 11
-1.59084
 21
0.461208
  0
LINE
  8
0
 10
-1.59084
 20
0.461208
 11
-2.14932
 21
0.461208
  0
LINE
  8
0
 10
-2.14932
 20
-0.286823
 11
-2.15522
 21
-0.282533
  0
LINE
  8
0
 10
-2.15522
 20
-0.282533
 11
-2.15748
 21
-0.275591
  0
LINE
  8
0
 10
-2.15748
 20
-0.275591
 11
-2.15748
 21
0.275591
  0
LINE
  8
0
 10
-2.15748
 20
0.275591
 11
-2.15522
 21
0.282533
  0
LINE
  8
0
 10
-2.15522
 20
0.282533
 11
-2.14932
 21
0.286823
  0
LINE
  8
0
 10
-2.14932
 20
0.286823
 11
-1.59084
 21
0.286823
  0
LINE
  8
0
 10
-1.59084
 20
0.286823
 11
-1.58493
 21
0.282533
  0
LINE
  8
0
 10
-1.58493
 20
0.282533
 11
-1.58268
 21
0.275591
  0
LINE
  8
0
 10
-1.58268
 20
0.275591
 11
-1.58268
 21
-0.275591
  0
LINE
  8
0
 10
-1.58268
 20
-0.275591
 11
-1.58493
 21
-0.282533
  0
LINE
  8
0
 10
-1.58493
 20
-0.282533
 11
-1.59084
 21
-0.286823
  0
LINE
  8
0
 10
-1.59084
 20
-0.286823
 11
-2.14932
 21
-0.286823
  0
LINE
  8
0
 10
0.842807
 20
-0.286823
 11
0.836901
 21
-0.282533
  0
LINE
  8
0
 10
0.836901
 20
-0.282533
 11
0.834646
 21
-0.275591
  0
LINE
  8
0
 10
0.834646
 20
-0.275591
 11
0.834646
 21
0.275591
  0
LINE
  8
0
 10
0.834646
 20
0.275591
 11
0.836901
 21
0.282533
  0
LINE
  8
0
 10
0.836901
 20
0.282533
 11
0.842807
 21
0.286823
  0
LINE
  8
0
 10
0.842807
 20
0.286823
 11
1.40129
 21
0.286823
  0
LINE
  8
0
 10
1.40129
 20
0.286823
 11
1.40719
 21
0.282533
  0
LINE
  8
0
 10
1.40719
 20
0.282533
 11
1.40945
 21
0.275591
  0
LINE
  8
0
 10
1.40945
 20
0.275591
 11
1.40945
 21
-0.275591
  0
LINE
  8
0
 10
1.40945
 20
-0.275591
 11
1.40719
 21
-0.282533
  0
LINE
  8
0
 10
1.40719
 20
-0.282533
 11
1.40129
 21
-0.286823
  0
LINE
  8
0
 10
1.40129
 20
-0.286823
 11
0.842807
 21
-0.286823
  0
LINE
  8
0
 10
-5.14144
 20
-0.286823
 11
-5.14735
 21
-0.282533
  0
LINE
  8
0
 10
-5.14735
 20
-0.282533
 11
-5.14961
 21
-0.275591
  0
LINE
  8
0
 10
-5.14961
 20
-0.275591
 11
-5.14961
 21
0.275591
  0
LINE
  8
0
 10
-5.14961
 20
0.275591
 11
-5.14735
 21
0.282533
  0
LINE
  8
0
 10
-5.14735
 20
0.282533
 11
-5.14144
 21
0.286823
  0
LINE
  8
0
 10
-5.14144
 20
0.286823
 11
-4.58296
 21
0.286823
  0
LINE
  8
0
 10
-4.58296
 20
0.286823
 11
-4.57706
 21
0.282533
  0
LINE
  8
0
 10
-4.57706
 20
0.282533
 11
-4.5748
 21
0.275591
  0
LINE
  8
0
 10
-4.5748
 20
0.275591
 11
-4.5748
 21
-0.275591
  0
LINE
  8
0
 10
-4.5748
 20
-0.275591
 11
-4.57706
 21
-0.282533
  0
LINE
  8
0
 10
-4.57706
 20
-0.282533
 11
-4.58296
 21
-0.286823
  0
LINE
  8
0
 10
-4.58296
 20
-0.286823
 11
-5.14144
 21
-0.286823
  0
LINE
  8
0
 10
-4.39341
 20
-0.286823
 11
-4.39932
 21
-0.282533
  0
LINE
  8
0
 10
-4.39932
 20
-0.282533
 11
-4.40157
 21
-0.275591
  0
LINE
  8
0
 10
-4.40157
 20
-0.275591
 11
-4.40157
 21
0.275591
  0
LINE
  8
0
 10
-4.40157
 20
0.275591
 11
-4.39932
 21
0.282533
  0
LINE
  8
0
 10
-4.39932
 20
0.282533
 11
-4.39341
 21
0.286823
  0
LINE
  8
0
 10
-4.39341
 20
0.286823
 11
-3.83493
 21
0.286823
  0
LINE
  8
0
 10
-3.83493
 20
0.286823
 11
-3.82903
 21
0.282533
  0
LINE
  8
0
 10
-3.82903
 20
0.282533
 11
-3.82677
 21
0.275591
  0
LINE
  8
0
 10
-3.82677
 20
0.275591
 11
-3.82677
 21
-0.275591
  0
LINE
  8
0
 10
-3.82677
 20
-0.275591
 11
-3.82903
 21
-0.282533
  0
LINE
  8
0
 10
-3.82903
 20
-0.282533
 11
-3.83493
 21
-0.286823
  0
LINE
  8
0
 10
-3.83493
 20
-0.286823
 11
-4.39341
 21
-0.286823
  0
LINE
  8
0
 10
-3.64538
 20
-0.286823
 11
-3.65129
 21
-0.282533
  0
LINE
  8
0
 10
-3.65129
 20
-0.282533
 11
-3.65354
 21
-0.275591
  0
LINE
  8
0
 10
-3.65354
 20
-0.275591
 11
-3.65354
 21
0.275591
  0
LINE
  8
0
 10
-3.65354
 20
0.275591
 11
-3.65129
 21
0.282533
  0
LINE
  8
0
 10
-3.65129
 20
0.282533
 11
-3.64538
 21
0.286823
  0
LINE
  8
0
 10
-3.64538
 20
0.286823
 11
-3.0869
 21
0.286823
  0
LINE
  8
0
 10
-3.0869
 20
0.286823
 11
-3.081
 21
0.282533
  0
LINE
  8
0
 10
-3.081
 20
0.282533
 11
-3.07874
 21
0.275591
  0
LINE
  8
0
 10
-3.07874
 20
0.275591
 11
-3.07874
 21
-0.275591
  0
LINE
  8
0
 10
-3.07874
 20
-0.275591
 11
-3.081
 21
-0.282533
  0
LINE
  8
0
 10
-3.081
 20
-0.282533
 11
-3.0869
 21
-0.286823
  0
LINE
  8
0
 10
-3.0869
 20
-0.286823
 11
-3.64538
 21
-0.286823
  0
LINE
  8
0
 10
-2.89735
 20
-0.286823
 11
-2.90326
 21
-0.282533
  0
LINE
  8
0
 10
-2.90326
 20
-0.282533
 11
-2.90551
 21
-0.275591
  0
LINE
  8
0
 10
-2.90551
 20
-0.275591
 11
-2.90551
 21
0.275591
  0
LINE
  8
0
 10
-2.90551
 20
0.275591
 11
-2.90326
 21
0.282533
  0
LINE
  8
0
 10
-2.90326
 20
0.282533
 11
-2.89735
 21
0.286823
  0
LINE
  8
0
 10
-2.89735
 20
0.286823
 11
-2.33887
 21
0.286823
  0
LINE
  8
0
 10
-2.33887
 20
0.286823
 11
-2.33296
 21
0.282533
  0
LINE
  8
0
 10
-2.33296
 20
0.282533
 11
-2.33071
 21
0.275591
  0
LINE
  8
0
 10
-2.33071
 20
0.275591
 11
-2.33071
 21
-0.275591
  0
LINE
  8
0
 10
-2.33071
 20
-0.275591
 11
-2.33296
 21
-0.282533
  0
LINE
  8
0
 10
-2.33296
 20
-0.282533
 11
-2.33887
 21
-0.286823
  0
LINE
  8
0
 10
-2.33887
 20
-0.286823
 11
-2.89735
 21
-0.286823
  0
LINE
  8
0
 10
-1.40129
 20
-0.286823
 11
-1.40719
 21
-0.282533
  0
LINE
  8
0
 10
-1.40719
 20
-0.282533
 11
-1.40945
 21
-0.275591
  0
LINE
  8
0
 10
-1.40945
 20
-0.275591
 11
-1.40945
 21
0.275591
  0
LINE
  8
0
 10
-1.40945
 20
0.275591
 11
-1.40719
 21
0.282533
  0
LINE
  8
0
 10
-1.40719
 20
0.282533
 11
-1.40129
 21
0.286823
  0
LINE
  8
0
 10
-1.40129
 20
0.286823
 11
-0.842807
 21
0.286823
  0
LINE
  8
0
 10
-0.842807
 20
0.286823
 11
-0.836901
 21
0.282533
  0
LINE
  8
0
 10
-0.836901
 20
0.282533
 11
-0.834646
 21
0.275591
  0
LINE
  8
0
 10
-0.834646
 20
0.275591
 11
-0.834646
 21
-0.275591
  0
LINE
  8
0
 10
-0.834646
 20
-0.275591
 11
-0.836901
 21
-0.282533
  0
LINE
  8
0
 10
-0.836901
 20
-0.282533
 11
-0.842807
 21
-0.286823
  0
LINE
  8
0
 10
-0.842807
 20
-0.286823
 11
-1.40129
 21
-0.286823
  0
LINE
  8
0
 10
0.0947751
 20
-0.286823
 11
0.0888698
 21
-0.282533
  0
LINE
  8
0
 10
0.0888698
 20
-0.282533
 11
0.0866141
 21
-0.275591
  0
LINE
  8
0
 10
0.0866141
 20
-0.275591
 11
0.0866141
 21
0.275591
  0
LINE
  8
0
 10
0.0866141
 20
0.275591
 11
0.0888698
 21
0.282533
  0
LINE
  8
0
 10
0.0888698
 20
0.282533
 11
0.0947751
 21
0.286823
  0
LINE
  8
0
 10
0.0947751
 20
0.286823
 11
0.653256
 21
0.286823
  0
LINE
  8
0
 10
0.653256
 20
0.286823
 11
0.659161
 21
0.282533
  0
LINE
  8
0
 10
0.659161
 20
0.282533
 11
0.661417
 21
0.275591
  0
LINE
  8
0
 10
0.661417
 20
0.275591
 11
0.661417
 21
-0.275591
  0
LINE
  8
0
 10
0.661417
 20
-0.275591
 11
0.659161
 21
-0.282533
  0
LINE
  8
0
 10
0.659161
 20
-0.282533
 11
0.653256
 21
-0.286823
  0
LINE
  8
0
 10
0.653256
 20
-0.286823
 11
0.0947751
 21
-0.286823
  0
LINE
  8
0
 10
1.59084
 20
-0.286823
 11
1.58493
 21
-0.282533
  0
LINE
  8
0
 10
1.58493
 20
-0.282533
 11
1.58268
 21
-0.275591
  0
LINE
  8
0
 10
1.58268
 20
-0.275591
 11
1.58268
 21
0.275591
  0
LINE
  8
0
 10
1.58268
 20
0.275591
 11
1.58493
 21
0.282533
  0
LINE
  8
0
 10
1.58493
 20
0.282533
 11
1.59084
 21
0.286823
  0
LINE
  8
0
 10
1.59084
 20
0.286823
 11
2.14932
 21
0.286823
  0
LINE
  8
0
 10
2.14932
 20
0.286823
 11
2.15522
 21
0.282533
  0
LINE
  8
0
 10
2.15522
 20
0.282533
 11
2.15748
 21
0.275591
  0
LINE
  8
0
 10
2.15748
 20
0.275591
 11
2.15748
 21
-0.275591
  0
LINE
  8
0
 10
2.15748
 20
-0.275591
 11
2.15522
 21
-0.282533
  0
LINE
  8
0
 10
2.15522
 20
-0.282533
 11
2.14932
 21
-0.286823
  0
LINE
  8
0
 10
2.14932
 20
-0.286823
 11
1.59084
 21
-0.286823
  0
LINE
  8
0
 10
2.33887
 20
-0.286823
 11
2.33296
 21
-0.282533
  0
LINE
  8
0
 10
2.33296
 20
-0.282533
 11
2.33071
 21
-0.275591
  0
LINE
  8
0
 10
2.33071
 20
-0.275591
 11
2.33071
 21
0.275591
  0
LINE
  8
0
 10
2.33071
 20
0.275591
 11
2.33296
 21
0.282533
  0
LINE
  8
0
 10
2.33296
 20
0.282533
 11
2.33887
 21
0.286823
  0
LINE
  8
0
 10
2.33887
 20
0.286823
 11
2.89735
 21
0.286823
  0
LINE
  8
0
 10
2.89735
 20
0.286823
 11
2.90326
 21
0.282533
  0
LINE
  8
0
 10
2.90326
 20
0.282533
 11
2.90551
 21
0.275591
  0
LINE
  8
0
 10
2.90551
 20
0.275591
 11
2.90551
 21
-0.275591
  0
LINE
  8
0
 10
2.90551
 20
-0.275591
 11
2.90326
 21
-0.282533
  0
LINE
  8
0
 10
2.90326
 20
-0.282533
 11
2.89735
 21
-0.286823
  0
LINE
  8
0
 10
2.89735
 20
-0.286823
 11
2.33887
 21
-0.286823
  0
LINE
  8
0
 10
3.83493
 20
-0.286823
 11
3.82903
 21
-0.282533
  0
LINE
  8
0
 10
3.82903
 20
-0.282533
 11
3.82677
 21
-0.275591
  0
LINE
  8
0
 10
3.82677
 20
-0.275591
 11
3.82677
 21
0.275591
  0
LINE
  8
0
 10
3.82677
 20
0.275591
 11
3.82903
 21
0.282533
  0
LINE
  8
0
 10
3.82903
 20
0.282533
 11
3.83493
 21
0.286823
  0
LINE
  8
0
 10
3.83493
 20
0.286823
 11
4.39341
 21
0.286823
  0
LINE
  8
0
 10
4.39341
 20
0.286823
 11
4.39932
 21
0.282533
  0
LINE
  8
0
 10
4.39932
 20
0.282533
 11
4.40157
 21
0.275591
  0
LINE
  8
0
 10
4.40157
 20
0.275591
 11
4.40157
 21
-0.275591
  0
LINE
  8
0
 10
4.40157
 20
-0.275591
 11
4.39932
 21
-0.282533
  0
LINE
  8
0
 10
4.39932
 20
-0.282533
 11
4.39341
 21
-0.286823
  0
LINE
  8
0
 10
4.39341
 20
-0.286823
 11
3.83493
 21
-0.286823
  0
LINE
  8
0
 10
4.58296
 20
-0.286823
 11
4.57706
 21
-0.282533
  0
LINE
  8
0
 10
4.57706
 20
-0.282533
 11
4.5748
 21
-0.275591
  0
LINE
  8
0
 10
4.5748
 20
-0.275591
 11
4.5748
 21
0.275591
  0
LINE
  8
0
 10
4.5748
 20
0.275591
 11
4.57706
 21
0.282533
  0
LINE
  8
0
 10
4.57706
 20
0.282533
 11
4.58296
 21
0.286823
  0
LINE
  8
0
 10
4.58296
 20
0.286823
 11
5.14144
 21
0.286823
  0
LINE
  8
0
 10
5.14144
 20
0.286823
 11
5.14735
 21
0.282533
  0
LINE
  8
0
 10
5.14735
 20
0.282533
 11
5.14961
 21
0.275591
  0
LINE
  8
0
 10
5.14961
 20
0.275591
 11
5.14961
 21
-0.275591
  0
LINE
  8
0
 10
5.14961
 20
-0.275591
 11
5.14735
 21
-0.282533
  0
LINE
  8
0
 10
5.14735
 20
-0.282533
 11
5.14144
 21
-0.286823
  0
LINE
  8
0
 10
5.14144
 20
-0.286823
 11
4.58296
 21
-0.286823
  0
LINE
  8
0
 10
3.0869
 20
-0.286823
 11
3.081
 21
-0.282533
  0
LINE
  8
0
 10
3.081
 20
-0.282533
 11
3.07874
 21
-0.275591
  0
LINE
  8
0
 10
3.07874
 20
-0.275591
 11
3.07874
 21
0.275591
  0
LINE
  8
0
 10
3.07874
 20
0.275591
 11
3.081
 21
0.282533
  0
LINE
  8
0
 10
3.081
 20
0.282533
 11
3.0869
 21
0.286823
  0
LINE
  8
0
 10
3.0869
 20
0.286823
 11
3.64538
 21
0.286823
  0
LINE
  8
0
 10
3.64538
 20
0.286823
 11
3.65129
 21
0.282533
  0
LINE
  8
0
 10
3.65129
 20
0.282533
 11
3.65354
 21
0.275591
  0
LINE
  8
0
 10
3.65354
 20
0.275591
 11
3.65354
 21
-0.275591
  0
LINE
  8
0
 10
3.65354
 20
-0.275591
 11
3.65129
 21
-0.282533
  0
LINE
  8
0
 10
3.65129
 20
-0.282533
 11
3.64538
 21
-0.286823
  0
LINE
  8
0
 10
3.64538
 20
-0.286823
 11
3.0869
 21
-0.286823
  0
LINE
  8
0
 10
-0.653256
 20
-0.286823
 11
-0.659161
 21
-0.282533
  0
LINE
  8
0
 10
-0.659161
 20
-0.282533
 11
-0.661417
 21
-0.275591
  0
LINE
  8
0
 10
-0.661417
 20
-0.275591
 11
-0.661417
 21
0.275591
  0
LINE
  8
0
 10
-0.661417
 20
0.275591
 11
-0.659161
 21
0.282533
  0
LINE
  8
0
 10
-0.659161
 20
0.282533
 11
-0.653256
 21
0.286823
  0
LINE
  8
0
 10
-0.653256
 20
0.286823
 11
-0.0947751
 21
0.286823
  0
LINE
  8
0
 10
-0.0947751
 20
0.286823
 11
-0.0888698
 21
0.282533
  0
LINE
  8
0
 10
-0.0888698
 20
0.282533
 11
-0.0866141
 21
0.275591
  0
LINE
  8
0
 10
-0.0866141
 20
0.275591
 11
-0.0866141
 21
-0.275591
  0
LINE
  8
0
 10
-0.0866141
 20
-0.275591
 11
-0.0888698
 21
-0.282533
  0
LINE
  8
0
 10
-0.0888698
 20
-0.282533
 11
-0.0947751
 21
-0.286823
  0
LINE
  8
0
 10
-0.0947751
 20
-0.286823
 11
-0.653256
 21
-0.286823
  0
LINE
  8
0
 10
-5.14144
 20
-1.03485
 11
-5.14735
 21
-1.03056
  0
LINE
  8
0
 10
-5.14735
 20
-1.03056
 11
-5.14961
 21
-1.02362
  0
LINE
  8
0
 10
-5.14961
 20
-1.02362
 11
-5.14961
 21
-0.472441
  0
LINE
  8
0
 10
-5.14961
 20
-0.472441
 11
-5.14735
 21
-0.465498
  0
LINE
  8
0
 10
-5.14735
 20
-0.465498
 11
-5.14144
 21
-0.461208
  0
LINE
  8
0
 10
-5.14144
 20
-0.461208
 11
-4.58296
 21
-0.461208
  0
LINE
  8
0
 10
-4.58296
 20
-0.461208
 11
-4.57706
 21
-0.465498
  0
LINE
  8
0
 10
-4.57706
 20
-0.465498
 11
-4.5748
 21
-0.472441
  0
LINE
  8
0
 10
-4.5748
 20
-0.472441
 11
-4.5748
 21
-1.02362
  0
LINE
  8
0
 10
-4.5748
 20
-1.02362
 11
-4.57706
 21
-1.03056
  0
LINE
  8
0
 10
-4.57706
 20
-1.03056
 11
-4.58296
 21
-1.03485
  0
LINE
  8
0
 10
-4.58296
 20
-1.03485
 11
-5.14144
 21
-1.03485
  0
LINE
  8
0
 10
-4.39341
 20
-1.03485
 11
-4.39932
 21
-1.03056
  0
LINE
  8
0
 10
-4.39932
 20
-1.03056
 11
-4.40157
 21
-1.02362
  0
LINE
  8
0
 10
-4.40157
 20
-1.02362
 11
-4.40157
 21
-0.472441
  0
LINE
  8
0
 10
-4.40157
 20
-0.472441
 11
-4.39932
 21
-0.465498
  0
LINE
  8
0
 10
-4.39932
 20
-0.465498
 11
-4.39341
 21
-0.461208
  0
LINE
  8
0
 10
-4.39341
 20
-0.461208
 11
-3.83493
 21
-0.461208
  0
LINE
  8
0
 10
-3.83493
 20
-0.461208
 11
-3.82903
 21
-0.465498
  0
LINE
  8
0
 10
-3.82903
 20
-0.465498
 11
-3.82677
 21
-0.472441
  0
LINE
  8
0
 10
-3.82677
 20
-0.472441
 11
-3.82677
 21
-1.02362
  0
LINE
  8
0
 10
-3.82677
 20
-1.02362
 11
-3.82903
 21
-1.03056
  0
LINE
  8
0
 10
-3.82903
 20
-1.03056
 11
-3.83493
 21
-1.03485
  0
LINE
  8
0
 10
-3.83493
 20
-1.03485
 11
-4.39341
 21
-1.03485
  0
LINE
  8
0
 10
-3.64538
 20
-1.03485
 11
-3.65129
 21
-1.03056
  0
LINE
  8
0
 10
-3.65129
 20
-1.03056
 11
-3.65354
 21
-1.02362
  0
LINE
  8
0
 10
-3.65354
 20
-1.02362
 11
-3.65354
 21
-0.472441
  0
LINE
  8
0
 10
-3.65354
 20
-0.472441
 11
-3.65129
 21
-0.465498
  0
LINE
  8
0
 10
-3.65129
 20
-0.465498
 11
-3.64538
 21
-0.461208
  0
LINE
  8
0
 10
-3.64538
 20
-0.461208
 11
-3.0869
 21
-0.461208
  0
LINE
  8
0
 10
-3.0869
 20
-0.461208
 11
-3.081
 21
-0.465498
  0
LINE
  8
0
 10
-3.081
 20
-0.465498
 11
-3.07874
 21
-0.472441
  0
LINE
  8
0
 10
-3.07874
 20
-0.472441
 11
-3.07874
 21
-1.02362
  0
LINE
  8
0
 10
-3.07874
 20
-1.02362
 11
-3.081
 21
-1.03056
  0
LINE
  8
0
 10
-3.081
 20
-1.03056
 11
-3.0869
 21
-1.03485
  0
LINE
  8
0
 10
-3.0869
 20
-1.03485
 11
-3.64538
 21
-1.03485
  0
LINE
  8
0
 10
-2.89735
 20
-1.03485
 11
-2.90326
 21
-1.03056
  0
LINE
  8
0
 10
-2.90326
 20
-1.03056
 11
-2.90551
 21
-1.02362
  0
LINE
  8
0
 10
-2.90551
 20
-1.02362
 11
-2.90551
 21
-0.472441
  0
LINE
  8
0
 10
-2.90551
 20
-0.472441
 11
-2.90326
 21
-0.465498
  0
LINE
  8
0
 10
-2.90326
 20
-0.465498
 11
-2.89735
 21
-0.461208
  0
LINE
  8
0
 10
-2.89735
 20
-0.461208
 11
-2.33887
 21
-0.461208
  0
LINE
  8
0
 10
-2.33887
 20
-0.461208
 11
-2.33296
 21
-0.465498
  0
LINE
  8
0
 10
-2.33296
 20
-0.465498
 11
-2.33071
 21
-0.472441
  0
LINE
  8
0
 10
-2.33071
 20
-0.472441
 11
-2.33071
 21
-1.02362
  0
LINE
  8
0
 10
-2.33071
 20
-1.02362
 11
-2.33296
 21
-1.03056
  0
LINE
  8
0
 10
-2.33296
 20
-1.03056
 11
-2.33887
 21
-1.03485
  0
LINE
  8
0
 10
-2.33887
 20
-1.03485
 11
-2.89735
 21
-1.03485
  0
LINE
  8
0
 10
-2.14932
 20
-1.03485
 11
-2.15522
 21
-1.03056
  0
LINE
  8
0
 10
-2.15522
 20
-1.03056
 11
-2.15748
 21
-1.02362
  0
LINE
  8
0
 10
-2.15748
 20
-1.02362
 11
-2.15748
 21
-0.472441
  0
LINE
  8
0
 10
-2.15748
 20
-0.472441
 11
-2.15522
 21
-0.465498
  0
LINE
  8
0
 10
-2.15522
 20
-0.465498
 11
-2.14932
 21
-0.461208
  0
LINE
  8
0
 10
-2.14932
 20
-0.461208
 11
-1.59084
 21
-0.461208
  0
LINE
  8
0
 10
-1.59084
 20
-0.461208
 11
-1.58493
 21
-0.465498
  0
LINE
  8
0
 10
-1.58493
 20
-0.465498
 11
-1.58268
 21
-0.472441
  0
LINE
  8
0
 10
-1.58268
 20
-0.472441
 11
-1.58268
 21
-1.02362
  0
LINE
  8
0
 10
-1.58268
 20
-1.02362
 11
-1.58493
 21
-1.03056
  0
LINE
  8
0
 10
-1.58493
 20
-1.03056
 11
-1.59084
 21
-1.03485
  0
LINE
  8
0
 10
-1.59084
 20
-1.03485
 11
-2.14932
 21
-1.03485
  0
LINE
  8
0
 10
-1.40129
 20
-1.03485
 11
-1.40719
 21
-1.03056
  0
LINE
  8
0
 10
-1.40719
 20
-1.03056
 11
-1.40945
 21
-1.02362
  0
LINE
  8
0
 10
-1.40945
 20
-1.02362
 11
-1.40945
 21
-0.472441
  0
LINE
  8
0
 10
-1.40945
 20
-0.472441
 11
-1.40719
 21
-0.465498
  0
LINE
  8
0
 10
-1.40719
 20
-0.465498
 11
-1.40129
 21
-0.461208
  0
LINE
  8
0
 10
-1.40129
 20
-0.461208
 11
-0.842807
 21
-0.461208
  0
LINE
  8
0
 10
-0.842807
 20
-0.461208
 11
-0.836901
 21
-0.465498
  0
LINE
  8
0
 10
-0.836901
 20
-0.465498
 11
-0.834646
 21
-0.472441
  0
LINE
  8
0
 10
-0.834646
 20
-0.472441
 11
-0.834646
 21
-1.02362
  0
LINE
  8
0
 10
-0.834646
 20
-1.02362
 11
-0.836901
 21
-1.03056
  0
LINE
  8
0
 10
-0.836901
 20
-1.03056
 11
-0.842807
 21
-1.03485
  0
LINE
  8
0
 10
-0.842807
 20
-1.03485
 11
-1.40129
 21
-1.03485
  0
LINE
  8
0
 10
-0.653256
 20
-1.03485
 11
-0.659161
 21
-1.03056
  0
LINE
  8
0
 10
-0.659161
 20
-1.03056
 11
-0.661417
 21
-1.02362
  0
LINE
  8
0
 10
-0.661417
 20
-1.02362
 11
-0.661417
 21
-0.472441
  0
LINE
  8
0
 10
-0.661417
 20
-0.472441
 11
-0.659161
 21
-0.465498
  0
LINE
  8
0
 10
-0.659161
 20
-0.465498
 11
-0.653256
 21
-0.461208
  0
LINE
  8
0
 10
-0.653256
 20
-0.461208
 11
-0.0947751
 21
-0.461208
  0
LINE
  8
0
 10
-0.0947751
 20
-0.461208
 11
-0.0888698
 21
-0.465498
  0
LINE
  8
0
 10
-0.0888698
 20
-0.465498
 11
-0.0866141
 21
-0.472441
  0
LINE
  8
0
 10
-0.0866141
 20
-0.472441
 11
-0.0866141
 21
-1.02362
  0
LINE
  8
0
 10
-0.0866141
 20
-1.02362
 11
-0.0888698
 21
-1.03056
  0
LINE
  8
0
 10
-0.0888698
 20
-1.03056
 11
-0.0947751
 21
-1.03485
  0
LINE
  8
0
 10
-0.0947751
 20
-1.03485
 11
-0.653256
 21
-1.03485
  0
LINE
  8
0
 10
0.842807
 20
-1.03485
 11
0.836901
 21
-1.03056
  0
LINE
  8
0
 10
0.836901
 20
-1.03056
 11
0.834646
 21
-1.02362
  0
LINE
  8
0
 10
0.834646
 20
-1.02362
 11
0.834646
 21
-0.472441
  0
LINE
  8
0
 10
0.834646
 20
-0.472441
 11
0.836901
 21
-0.465498
  0
LINE
  8
0
 10
0.836901
 20
-0.465498
 11
0.842807
 21
-0.461208
  0
LINE
  8
0
 10
0.842807
 20
-0.461208
 11
1.40129
 21
-0.461208
  0
LINE
  8
0
 10
1.40129
 20
-0.461208
 11
1.40719
 21
-0.465498
  0
LINE
  8
0
 10
1.40719
 20
-0.465498
 11
1.40945
 21
-0.472441
  0
LINE
  8
0
 10
1.40945
 20
-0.472441
 11
1.40945
 21
-1.02362
  0
LINE
  8
0
 10
1.40945
 20
-1.02362
 11
1.40719
 21
-1.03056
  0
LINE
  8
0
 10
1.40719
 20
-1.03056
 11
1.40129
 21
-1.03485
  0
LINE
  8
0
 10
1.40129
 20
-1.03485
 11
0.842807
 21
-1.03485
  0
LINE
  8
0
 10
2.33887
 20
-1.03485
 11
2.33296
 21
-1.03056
  0
LINE
  8
0
 10
2.33296
 20
-1.03056
 11
2.33071
 21
-1.02362
  0
LINE
  8
0
 10
2.33071
 20
-1.02362
 11
2.33071
 21
-0.472441
  0
LINE
  8
0
 10
2.33071
 20
-0.472441
 11
2.33296
 21
-0.465498
  0
LINE
  8
0
 10
2.33296
 20
-0.465498
 11
2.33887
 21
-0.461208
  0
LINE
  8
0
 10
2.33887
 20
-0.461208
 11
2.89735
 21
-0.461208
  0
LINE
  8
0
 10
2.89735
 20
-0.461208
 11
2.90326
 21
-0.465498
  0
LINE
  8
0
 10
2.90326
 20
-0.465498
 11
2.90551
 21
-0.472441
  0
LINE
  8
0
 10
2.90551
 20
-0.472441
 11
2.90551
 21
-1.02362
  0
LINE
  8
0
 10
2.90551
 20
-1.02362
 11
2.90326
 21
-1.03056
  0
LINE
  8
0
 10
2.90326
 20
-1.03056
 11
2.89735
 21
-1.03485
  0
LINE
  8
0
 10
2.89735
 20
-1.03485
 11
2.33887
 21
-1.03485
  0
LINE
  8
0
 10
3.0869
 20
-1.03485
 11
3.081
 21
-1.03056
  0
LINE
  8
0
 10
3.081
 20
-1.03056
 11
3.07874
 21
-1.02362
  0
LINE
  8
0
 10
3.07874
 20
-1.02362
 11
3.07874
 21
-0.472441
  0
LINE
  8
0
 10
3.07874
 20
-0.472441
 11
3.081
 21
-0.465498
  0
LINE
  8
0
 10
3.081
 20
-0.465498
 11
3.0869
 21
-0.461208
  0
LINE
  8
0
 10
3.0869
 20
-0.461208
 11
3.64538
 21
-0.461208
  0
LINE
  8
0
 10
3.64538
 20
-0.461208
 11
3.65129
 21
-0.465498
  0
LINE
  8
0
 10
3.65129
 20
-0.465498
 11
3.65354
 21
-0.472441
  0
LINE
  8
0
 10
3.65354
 20
-0.472441
 11
3.65354
 21
-1.02362
  0
LINE
  8
0
 10
3.65354
 20
-1.02362
 11
3.65129
 21
-1.03056
  0
LINE
  8
0
 10
3.65129
 20
-1.03056
 11
3.64538
 21
-1.03485
  0
LINE
  8
0
 10
3.64538
 20
-1.03485
 11
3.0869
 21
-1.03485
  0
LINE
  8
0
 10
3.83493
 20
-1.03485
 11
3.82903
 21
-1.03056
  0
LINE
  8
0
 10
3.82903
 20
-1.03056
 11
3.82677
 21
-1.02362
  0
LINE
  8
0
 10
3.82677
 20
-1.02362
 11
3.82677
 21
-0.472441
  0
LINE
  8
0
 10
3.82677
 20
-0.472441
 11
3.82903
 21
-0.465498
  0
LINE
  8
0
 10
3.82903
 20
-0.465498
 11
3.83493
 21
-0.461208
  0
LINE
  8
0
 10
3.83493
 20
-0.461208
 11
4.39341
 21
-0.461208
  0
LINE
  8
0
 10
4.39341
 20
-0.461208
 11
4.39932
 21
-0.465498
  0
LINE
  8
0
 10
4.39932
 20
-0.465498
 11
4.40157
 21
-0.472441
  0
LINE
  8
0
 10
4.40157
 20
-0.472441
 11
4.40157
 21
-1.02362
  0
LINE
  8
0
 10
4.40157
 20
-1.02362
 11
4.39932
 21
-1.03056
  0
LINE
  8
0
 10
4.39932
 20
-1.03056
 11
4.39341
 21
-1.03485
  0
LINE
  8
0
 10
4.39341
 20
-1.03485
 11
3.83493
 21
-1.03485
  0
LINE
  8
0
 10
4.58296
 20
-1.03485
 11
4.57706
 21
-1.03056
  0
LINE
  8
0
 10
4.57706
 20
-1.03056
 11
4.5748
 21
-1.02362
  0
LINE
  8
0
 10
4.5748
 20
-1.02362
 11
4.5748
 21
-0.472441
  0
LINE
  8
0
 10
4.5748
 20
-0.472441
 11
4.57706
 21
-0.465498
  0
LINE
  8
0
 10
4.57706
 20
-0.465498
 11
4.58296
 21
-0.461208
  0
LINE
  8
0
 10
4.58296
 20
-0.461208
 11
5.14144
 21
-0.461208
  0
LINE
  8
0
 10
5.14144
 20
-0.461208
 11
5.14735
 21
-0.465498
  0
LINE
  8
0
 10
5.14735
 20
-0.465498
 11
5.14961
 21
-0.472441
  0
LINE
  8
0
 10
5.14961
 20
-0.472441
 11
5.14961
 21
-1.02362
  0
LINE
  8
0
 10
5.14961
 20
-1.02362
 11
5.14735
 21
-1.03056
  0
LINE
  8
0
 10
5.14735
 20
-1.03056
 11
5.14144
 21
-1.03485
  0
LINE
  8
0
 10
5.14144
 20
-1.03485
 11
4.58296
 21
-1.03485
  0
LINE
  8
0
 10
1.59084
 20
-1.03485
 11
1.58493
 21
-1.03056
  0
LINE
  8
0
 10
1.58493
 20
-1.03056
 11
1.58268
 21
-1.02362
  0
LINE
  8
0
 10
1.58268
 20
-1.02362
 11
1.58268
 21
-0.472441
  0
LINE
  8
0
 10
1.58268
 20
-0.472441
 11
1.58493
 21
-0.465498
  0
LINE
  8
0
 10
1.58493
 20
-0.465498
 11
1.59084
 21
-0.461208
  0
LINE
  8
0
 10
1.59084
 20
-0.461208
 11
2.14932
 21
-0.461208
  0
LINE
  8
0
 10
2.14932
 20
-0.461208
 11
2.15522
 21
-0.465498
  0
LINE
  8
0
 10
2.15522
 20
-0.465498
 11
2.15748
 21
-0.472441
  0
LINE
  8
0
 10
2.15748
 20
-0.472441
 11
2.15748
 21
-1.02362
  0
LINE
  8
0
 10
2.15748
 20
-1.02362
 11
2.15522
 21
-1.03056
  0
LINE
  8
0
 10
2.15522
 20
-1.03056
 11
2.14932
 21
-1.03485
  0
LINE
  8
0
 10
2.14932
 20
-1.03485
 11
1.59084
 21
-1.03485
  0
LINE
  8
0
 10
0.0947751
 20
-1.03485
 11
0.0888698
 21
-1.03056
  0
LINE
  8
0
 10
0.0888698
 20
-1.03056
 11
0.0866141
 21
-1.02362
  0
LINE
  8
0
 10
0.0866141
 20
-1.02362
 11
0.0866141
 21
-0.472441
  0
LINE
  8
0
 10
0.0866141
 20
-0.472441
 11
0.0888698
 21
-0.465498
  0
LINE
  8
0
 10
0.0888698
 20
-0.465498
 11
0.0947751
 21
-0.461208
  0
LINE
  8
0
 10
0.0947751
 20
-0.461208
 11
0.653256
 21
-0.461208
  0
LINE
  8
0
 10
0.653256
 20
-0.461208
 11
0.659161
 21
-0.465498
  0
LINE
  8
0
 10
0.659161
 20
-0.465498
 11
0.661417
 21
-0.472441
  0
LINE
  8
0
 10
0.661417
 20
-0.472441
 11
0.661417
 21
-1.02362
  0
LINE
  8
0
 10
0.661417
 20
-1.02362
 11
0.659161
 21
-1.03056
  0
LINE
  8
0
 10
0.659161
 20
-1.03056
 11
0.653256
 21
-1.03485
  0
LINE
  8
0
 10
0.653256
 20
-1.03485
 11
0.0947751
 21
-1.03485
  0
LINE
  8
0
 10
-0.0139906
 20
-0.791091
 11
-0.0366283
 21
-0.774644
  0
LINE
  8
0
 10
-0.0366283
 20
-0.774644
 11
-0.0452754
 21
-0.748031
  0
LINE
  8
0
 10
-0.0452754
 20
-0.748031
 11
-0.0366283
 21
-0.721419
  0
LINE
  8
0
 10
-0.0366283
 20
-0.721419
 11
-0.0139906
 21
-0.704972
  0
LINE
  8
0
 10
-0.0139906
 20
-0.704972
 11
0.0139906
 21
-0.704972
  0
LINE
  8
0
 10
0.0139906
 20
-0.704972
 11
0.0366283
 21
-0.721419
  0
LINE
  8
0
 10
0.0366283
 20
-0.721419
 11
0.0452754
 21
-0.748031
  0
LINE
  8
0
 10
0.0452754
 20
-0.748031
 11
0.0366283
 21
-0.774644
  0
LINE
  8
0
 10
0.0366283
 20
-0.774644
 11
0.0139906
 21
-0.791091
  0
LINE
  8
0
 10
0.0139906
 20
-0.791091
 11
-0.0139906
 21
-0.791091
  0
LINE
  8
0
 10
-1.40129
 20
-1.78289
 11
-1.40719
 21
-1.7786
  0
LINE
  8
0
 10
-1.40719
 20
-1.7786
 11
-1.40945
 21
-1.77165
  0
LINE
  8
0
 10
-1.40945
 20
-1.77165
 11
-1.40945
 21
-1.22047
  0
LINE
  8
0
 10
-1.40945
 20
-1.22047
 11
-1.40719
 21
-1.21353
  0
LINE
  8
0
 10
-1.40719
 20
-1.21353
 11
-1.40129
 21
-1.20924
  0
LINE
  8
0
 10
-1.40129
 20
-1.20924
 11
-0.842807
 21
-1.20924
  0
LINE
  8
0
 10
-0.842807
 20
-1.20924
 11
-0.836901
 21
-1.21353
  0
LINE
  8
0
 10
-0.836901
 20
-1.21353
 11
-0.834646
 21
-1.22047
  0
LINE
  8
0
 10
-0.834646
 20
-1.22047
 11
-0.834646
 21
-1.77165
  0
LINE
  8
0
 10
-0.834646
 20
-1.77165
 11
-0.836901
 21
-1.7786
  0
LINE
  8
0
 10
-0.836901
 20
-1.7786
 11
-0.842807
 21
-1.78289
  0
LINE
  8
0
 10
-0.842807
 20
-1.78289
 11
-1.40129
 21
-1.78289
  0
LINE
  8
0
 10
-4.39341
 20
-1.78289
 11
-4.39932
 21
-1.7786
  0
LINE
  8
0
 10
-4.39932
 20
-1.7786
 11
-4.40157
 21
-1.77165
  0
LINE
  8
0
 10
-4.40157
 20
-1.77165
 11
-4.40157
 21
-1.22047
  0
LINE
  8
0
 10
-4.40157
 20
-1.22047
 11
-4.39932
 21
-1.21353
  0
LINE
  8
0
 10
-4.39932
 20
-1.21353
 11
-4.39341
 21
-1.20924
  0
LINE
  8
0
 10
-4.39341
 20
-1.20924
 11
-3.83493
 21
-1.20924
  0
LINE
  8
0
 10
-3.83493
 20
-1.20924
 11
-3.82903
 21
-1.21353
  0
LINE
  8
0
 10
-3.82903
 20
-1.21353
 11
-3.82677
 21
-1.22047
  0
LINE
  8
0
 10
-3.82677
 20
-1.22047
 11
-3.82677
 21
-1.77165
  0
LINE
  8
0
 10
-3.82677
 20
-1.77165
 11
-3.82903
 21
-1.7786
  0
LINE
  8
0
 10
-3.82903
 20
-1.7786
 11
-3.83493
 21
-1.78289
  0
LINE
  8
0
 10
-3.83493
 20
-1.78289
 11
-4.39341
 21
-1.78289
  0
LINE
  8
0
 10
3.83493
 20
-1.78289
 11
3.82903
 21
-1.7786
  0
LINE
  8
0
 10
3.82903
 20
-1.7786
 11
3.82677
 21
-1.77165
  0
LINE
  8
0
 10
3.82677
 20
-1.77165
 11
3.82677
 21
-1.22047
  0
LINE
  8
0
 10
3.82677
 20
-1.22047
 11
3.82903
 21
-1.21353
  0
LINE
  8
0
 10
3.82903
 20
-1.21353
 11
3.83493
 21
-1.20924
  0
LINE
  8
0
 10
3.83493
 20
-1.20924
 11
4.39341
 21
-1.20924
  0
LINE
  8
0
 10
4.39341
 20
-1.20924
 11
4.39932
 21
-1.21353
  0
LINE
  8
0
 10
4.39932
 20
-1.21353
 11
4.40157
 21
-1.22047
  0
LINE
  8
0
 10
4.40157
 20
-1.22047
 11
4.40157
 21
-1.77165
  0
LINE
  8
0
 10
4.40157
 20
-1.77165
 11
4.39932
 21
-1.7786
  0
LINE
  8
0
 10
4.39932
 20
-1.7786
 11
4.39341
 21
-1.78289
  0
LINE
  8
0
 10
4.39341
 20
-1.78289
 11
3.83493
 21
-1.78289
  0
LINE
  8
0
 10
3.0869
 20
-1.78289
 11
3.081
 21
-1.7786
  0
LINE
  8
0
 10
3.081
 20
-1.7786
 11
3.07874
 21
-1.77165
  0
LINE
  8
0
 10
3.07874
 20
-1.77165
 11
3.07874
 21
-1.22047
  0
LINE
  8
0
 10
3.07874
 20
-1.22047
 11
3.081
 21
-1.21353
  0
LINE
  8
0
 10
3.081
 20
-1.21353
 11
3.0869
 21
-1.20924
  0
LINE
  8
0
 10
3.0869
 20
-1.20924
 11
3.64538
 21
-1.20924
  0
LINE
  8
0
 10
3.64538
 20
-1.20924
 11
3.65129
 21
-1.21353
  0
LINE
  8
0
 10
3.65129
 20
-1.21353
 11
3.65354
 21
-1.22047
  0
LINE
  8
0
 10
3.65354
 20
-1.22047
 11
3.65354
 21
-1.77165
  0
LINE
  8
0
 10
3.65354
 20
-1.77165
 11
3.65129
 21
-1.7786
  0
LINE
  8
0
 10
3.65129
 20
-1.7786
 11
3.64538
 21
-1.78289
  0
LINE
  8
0
 10
3.64538
 20
-1.78289
 11
3.0869
 21
-1.78289
  0
LINE
  8
0
 10
2.33887
 20
-1.78289
 11
2.33296
 21
-1.7786
  0
LINE
  8
0
 10
2.33296
 20
-1.7786
 11
2.33071
 21
-1.77165
  0
LINE
  8
0
 10
2.33071
 20
-1.77165
 11
2.33071
 21
-1.22047
  0
LINE
  8
0
 10
2.33071
 20
-1.22047
 11
2.33296
 21
-1.21353
  0
LINE
  8
0
 10
2.33296
 20
-1.21353
 11
2.33887
 21
-1.20924
  0
LINE
  8
0
 10
2.33887
 20
-1.20924
 11
2.89735
 21
-1.20924
  0
LINE
  8
0
 10
2.89735
 20
-1.20924
 11
2.90326
 21
-1.21353
  0
LINE
  8
0
 10
2.90326
 20
-1.21353
 11
2.90551
 21
-1.22047
  0
LINE
  8
0
 10
2.90551
 20
-1.22047
 11
2.90551
 21
-1.77165
  0
LINE
  8
0
 10
2.90551
 20
-1.77165
 11
2.90326
 21
-1.7786
  0
LINE
  8
0
 10
2.90326
 20
-1.7786
 11
2.89735
 21
-1.78289
  0
LINE
  8
0
 10
2.89735
 20
-1.78289
 11
2.33887
 21
-1.78289
  0
LINE
  8
0
 10
1.59084
 20
-1.78289
 11
1.58493
 21
-1.7786
  0
LINE
  8
0
 10
1.58493
 20
-1.7786
 11
1.58268
 21
-1.77165
  0
LINE
  8
0
 10
1.58268
 20
-1.77165
 11
1.58268
 21
-1.22047
  0
LINE
  8
0
 10
1.58268
 20
-1.22047
 11
1.58493
 21
-1.21353
  0
LINE
  8
0
 10
1.58493
 20
-1.21353
 11
1.59084
 21
-1.20924
  0
LINE
  8
0
 10
1.59084
 20
-1.20924
 11
2.14932
 21
-1.20924
  0
LINE
  8
0
 10
2.14932
 20
-1.20924
 11
2.15522
 21
-1.21353
  0
LINE
  8
0
 10
2.15522
 20
-1.21353
 11
2.15748
 21
-1.22047
  0
LINE
  8
0
 10
2.15748
 20
-1.22047
 11
2.15748
 21
-1.77165
  0
LINE
  8
0
 10
2.15748
 20
-1.77165
 11
2.15522
 21
-1.7786
  0
LINE
  8
0
 10
2.15522
 20
-1.7786
 11
2.14932
 21
-1.78289
  0
LINE
  8
0
 10
2.14932
 20
-1.78289
 11
1.59084
 21
-1.78289
  0
LINE
  8
0
 10
0.842807
 20
-1.78289
 11
0.836901
 21
-1.7786
  0
LINE
  8
0
 10
0.836901
 20
-1.7786
 11
0.834646
 21
-1.77165
  0
LINE
  8
0
 10
0.834646
 20
-1.77165
 11
0.834646
 21
-1.22047
  0
LINE
  8
0
 10
0.834646
 20
-1.22047
 11
0.836901
 21
-1.21353
  0
LINE
  8
0
 10
0.836901
 20
-1.21353
 11
0.842807
 21
-1.20924
  0
LINE
  8
0
 10
0.842807
 20
-1.20924
 11
1.40129
 21
-1.20924
  0
LINE
  8
0
 10
1.40129
 20
-1.20924
 11
1.40719
 21
-1.21353
  0
LINE
  8
0
 10
1.40719
 20
-1.21353
 11
1.40945
 21
-1.22047
  0
LINE
  8
0
 10
1.40945
 20
-1.22047
 11
1.40945
 21
-1.77165
  0
LINE
  8
0
 10
1.40945
 20
-1.77165
 11
1.40719
 21
-1.7786
  0
LINE
  8
0
 10
1.40719
 20
-1.7786
 11
1.40129
 21
-1.78289
  0
LINE
  8
0
 10
1.40129
 20
-1.78289
 11
0.842807
 21
-1.78289
  0
LINE
  8
0
 10
-0.612992
 20
-1.81925
 11
-0.612992
 21
-1.76398
  0
LINE
  8
0
 10
-0.612992
 20
-1.76398
 11
-0.684055
 21
-1.76398
  0
LINE
  8
0
 10
-0.684055
 20
-1.76398
 11
-0.684055
 21
-1.51575
  0
LINE
  8
0
 10
-0.684055
 20
-1.51575
 11
-0.713661
 21
-1.51575
  0
LINE
  8
0
 10
-0.713661
 20
-1.51575
 11
-0.713661
 21
-1.39803
  0
LINE
  8
0
 10
-0.713661
 20
-1.39803
 11
-0.684055
 21
-1.39803
  0
LINE
  8
0
 10
-0.684055
 20
-1.39803
 11
-0.684055
 21
-1.22815
  0
LINE
  8
0
 10
-0.684055
 20
-1.22815
 11
-0.418307
 21
-1.22815
  0
LINE
  8
0
 10
-0.418307
 20
-1.22815
 11
-0.418307
 21
-1.26398
  0
LINE
  8
0
 10
-0.418307
 20
-1.26398
 11
-0.287401
 21
-1.26398
  0
LINE
  8
0
 10
-0.287401
 20
-1.26398
 11
-0.287401
 21
-1.22047
  0
LINE
  8
0
 10
-0.287401
 20
-1.22047
 11
-0.285145
 21
-1.21353
  0
LINE
  8
0
 10
-0.285145
 20
-1.21353
 11
-0.27924
 21
-1.20924
  0
LINE
  8
0
 10
-0.27924
 20
-1.20924
 11
0.27924
 21
-1.20924
  0
LINE
  8
0
 10
0.27924
 20
-1.20924
 11
0.285145
 21
-1.21353
  0
LINE
  8
0
 10
0.285145
 20
-1.21353
 11
0.287401
 21
-1.22047
  0
LINE
  8
0
 10
0.287401
 20
-1.22047
 11
0.287401
 21
-1.26398
  0
LINE
  8
0
 10
0.287401
 20
-1.26398
 11
0.418307
 21
-1.26398
  0
LINE
  8
0
 10
0.418307
 20
-1.26398
 11
0.418307
 21
-1.22815
  0
LINE
  8
0
 10
0.418307
 20
-1.22815
 11
0.684055
 21
-1.22815
  0
LINE
  8
0
 10
0.684055
 20
-1.22815
 11
0.684055
 21
-1.39803
  0
LINE
  8
0
 10
0.684055
 20
-1.39803
 11
0.713661
 21
-1.39803
  0
LINE
  8
0
 10
0.713661
 20
-1.39803
 11
0.713661
 21
-1.51575
  0
LINE
  8
0
 10
0.713661
 20
-1.51575
 11
0.684055
 21
-1.51575
  0
LINE
  8
0
 10
0.684055
 20
-1.51575
 11
0.684055
 21
-1.76398
  0
LINE
  8
0
 10
0.684055
 20
-1.76398
 11
0.612992
 21
-1.76398
  0
LINE
  8
0
 10
0.612992
 20
-1.76398
 11
0.612992
 21
-1.81925
  0
LINE
  8
0
 10
0.612992
 20
-1.81925
 11
0.48937
 21
-1.81925
  0
LINE
  8
0
 10
0.48937
 20
-1.81925
 11
0.48937
 21
-1.76398
  0
LINE
  8
0
 10
0.48937
 20
-1.76398
 11
0.418307
 21
-1.76398
  0
LINE
  8
0
 10
0.418307
 20
-1.76398
 11
0.418307
 21
-1.72815
  0
LINE
  8
0
 10
0.418307
 20
-1.72815
 11
0.287401
 21
-1.72815
  0
LINE
  8
0
 10
0.287401
 20
-1.72815
 11
0.287401
 21
-1.77165
  0
LINE
  8
0
 10
0.287401
 20
-1.77165
 11
0.285145
 21
-1.7786
  0
LINE
  8
0
 10
0.285145
 20
-1.7786
 11
0.27924
 21
-1.78289
  0
LINE
  8
0
 10
0.27924
 20
-1.78289
 11
-0.27924
 21
-1.78289
  0
LINE
  8
0
 10
-0.27924
 20
-1.78289
 11
-0.285145
 21
-1.7786
  0
LINE
  8
0
 10
-0.285145
 20
-1.7786
 11
-0.287401
 21
-1.77165
  0
LINE
  8
0
 10
-0.287401
 20
-1.77165
 11
-0.287401
 21
-1.72815
  0
LINE
  8
0
 10
-0.287401
 20
-1.72815
 11
-0.418307
 21
-1.72815
  0
LINE
  8
0
 10
-0.418307
 20
-1.72815
 11
-0.418307
 21
-1.76398
  0
LINE
  8
0
 10
-0.418307
 20
-1.76398
 11
-0.48937
 21
-1.76398
  0
LINE
  8
0
 10
-0.48937
 20
-1.76398
 11
-0.48937
 21
-1.81925
  0
LINE
  8
0
 10
-0.48937
 20
-1.81925
 11
-0.612992
 21
-1.81925
  0
LINE
  8
0
 10
-2.14932
 20
-1.78289
 11
-2.15522
 21
-1.7786
  0
LINE
  8
0
 10
-2.15522
 20
-1.7786
 11
-2.15748
 21
-1.77165
  0
LINE
  8
0
 10
-2.15748
 20
-1.77165
 11
-2.15748
 21
-1.22047
  0
LINE
  8
0
 10
-2.15748
 20
-1.22047
 11
-2.15522
 21
-1.21353
  0
LINE
  8
0
 10
-2.15522
 20
-1.21353
 11
-2.14932
 21
-1.20924
  0
LINE
  8
0
 10
-2.14932
 20
-1.20924
 11
-1.59084
 21
-1.20924
  0
LINE
  8
0
 10
-1.59084
 20
-1.20924
 11
-1.58493
 21
-1.21353
  0
LINE
  8
0
 10
-1.58493
 20
-1.21353
 11
-1.58268
 21
-1.22047
  0
LINE
  8
0
 10
-1.58268
 20
-1.22047
 11
-1.58268
 21
-1.77165
  0
LINE
  8
0
 10
-1.58268
 20
-1.77165
 11
-1.58493
 21
-1.7786
  0
LINE
  8
0
 10
-1.58493
 20
-1.7786
 11
-1.59084
 21
-1.78289
  0
LINE
  8
0
 10
-1.59084
 20
-1.78289
 11
-2.14932
 21
-1.78289
  0
LINE
  8
0
 10
-2.89735
 20
-1.78289
 11
-2.90326
 21
-1.7786
  0
LINE
  8
0
 10
-2.90326
 20
-1.7786
 11
-2.90551
 21
-1.77165
  0
LINE
  8
0
 10
-2.90551
 20
-1.77165
 11
-2.90551
 21
-1.22047
  0
LINE
  8
0
 10
-2.90551
 20
-1.22047
 11
-2.90326
 21
-1.21353
  0
LINE
  8
0
 10
-2.90326
 20
-1.21353
 11
-2.89735
 21
-1.20924
  0
LINE
  8
0
 10
-2.89735
 20
-1.20924
 11
-2.33887
 21
-1.20924
  0
LINE
  8
0
 10
-2.33887
 20
-1.20924
 11
-2.33296
 21
-1.21353
  0
LINE
  8
0
 10
-2.33296
 20
-1.21353
 11
-2.33071
 21
-1.22047
  0
LINE
  8
0
 10
-2.33071
 20
-1.22047
 11
-2.33071
 21
-1.77165
  0
LINE
  8
0
 10
-2.33071
 20
-1.77165
 11
-2.33296
 21
-1.7786
  0
LINE
  8
0
 10
-2.33296
 20
-1.7786
 11
-2.33887
 21
-1.78289
  0
LINE
  8
0
 10
-2.33887
 20
-1.78289
 11
-2.89735
 21
-1.78289
  0
LINE
  8
0
 10
-3.64538
 20
-1.78289
 11
-3.65129
 21
-1.7786
  0
LINE
  8
0
 10
-3.65129
 20
-1.7786
 11
-3.65354
 21
-1.77165
  0
LINE
  8
0
 10
-3.65354
 20
-1.77165
 11
-3.65354
 21
-1.22047
  0
LINE
  8
0
 10
-3.65354
 20
-1.22047
 11
-3.65129
 21
-1.21353
  0
LINE
  8
0
 10
-3.65129
 20
-1.21353
 11
-3.64538
 21
-1.20924
  0
LINE
  8
0
 10
-3.64538
 20
-1.20924
 11
-3.0869
 21
-1.20924
  0
LINE
  8
0
 10
-3.0869
 20
-1.20924
 11
-3.081
 21
-1.21353
  0
LINE
  8
0
 10
-3.081
 20
-1.21353
 11
-3.07874
 21
-1.22047
  0
LINE
  8
0
 10
-3.07874
 20
-1.22047
 11
-3.07874
 21
-1.77165
  0
LINE
  8
0
 10
-3.07874
 20
-1.77165
 11
-3.081
 21
-1.7786
  0
LINE
  8
0
 10
-3.081
 20
-1.7786
 11
-3.0869
 21
-1.78289
  0
LINE
  8
0
 10
-3.0869
 20
-1.78289
 11
-3.64538
 21
-1.78289
  0
LINE
  8
0
 10
-5.14144
 20
-1.78289
 11
-5.14735
 21
-1.7786
  0
LINE
  8
0
 10
-5.14735
 20
-1.7786
 11
-5.14961
 21
-1.77165
  0
LINE
  8
0
 10
-5.14961
 20
-1.77165
 11
-5.14961
 21
-1.22047
  0
LINE
  8
0
 10
-5.14961
 20
-1.22047
 11
-5.14735
 21
-1.21353
  0
LINE
  8
0
 10
-5.14735
 20
-1.21353
 11
-5.14144
 21
-1.20924
  0
LINE
  8
0
 10
-5.14144
 20
-1.20924
 11
-4.58296
 21
-1.20924
  0
LINE
  8
0
 10
-4.58296
 20
-1.20924
 11
-4.57706
 21
-1.21353
  0
LINE
  8
0
 10
-4.57706
 20
-1.21353
 11
-4.5748
 21
-1.22047
  0
LINE
  8
0
 10
-4.5748
 20
-1.22047
 11
-4.5748
 21
-1.77165
  0
LINE
  8
0
 10
-4.5748
 20
-1.77165
 11
-4.57706
 21
-1.7786
  0
LINE
  8
0
 10
-4.57706
 20
-1.7786
 11
-4.58296
 21
-1.78289
  0
LINE
  8
0
 10
-4.58296
 20
-1.78289
 11
-5.14144
 21
-1.78289
  0
LINE
  8
0
 10
4.58296
 20
-1.78289
 11
4.57706
 21
-1.7786
  0
LINE
  8
0
 10
4.57706
 20
-1.7786
 11
4.5748
 21
-1.77165
  0
LINE
  8
0
 10
4.5748
 20
-1.77165
 11
4.5748
 21
-1.22047
  0
LINE
  8
0
 10
4.5748
 20
-1.22047
 11
4.57706
 21
-1.21353
  0
LINE
  8
0
 10
4.57706
 20
-1.21353
 11
4.58296
 21
-1.20924
  0
LINE
  8
0
 10
4.58296
 20
-1.20924
 11
5.14144
 21
-1.20924
  0
LINE
  8
0
 10
5.14144
 20
-1.20924
 11
5.14735
 21
-1.21353
  0
LINE
  8
0
 10
5.14735
 20
-1.21353
 11
5.14961
 21
-1.22047
  0
LINE
  8
0
 10
5.14961
 20
-1.22047
 11
5.14961
 21
-1.77165
  0
LINE
  8
0
 10
5.14961
 20
-1.77165
 11
5.14735
 21
-1.7786
  0
LINE
  8
0
 10
5.14735
 20
-1.7786
 11
5.14144
 21
-1.78289
  0
LINE
  8
0
 10
5.14144
 20
-1.78289
 11
4.58296
 21
-1.78289
  0
LINE
  8
0
 10
-4.50218
 20
-1.53912
 11
-4.52482
 21
-1.52268
  0
LINE
  8
0
 10
-4.52482
 20
-1.52268
 11
-4.53346
 21
-1.49606
  0
LINE
  8
0
 10
-4.53346
 20
-1.49606
 11
-4.52482
 21
-1.46945
  0
LINE
  8
0
 10
-4.52482
 20
-1.46945
 11
-4.50218
 21
-1.453
  0
LINE
  8
0
 10
-4.50218
 20
-1.453
 11
-4.4742
 21
-1.453
  0
LINE
  8
0
 10
-4.4742
 20
-1.453
 11
-4.45156
 21
-1.46945
  0
LINE
  8
0
 10
-4.45156
 20
-1.46945
 11
-4.44291
 21
-1.49606
  0
LINE
  8
0
 10
-4.44291
 20
-1.49606
 11
-4.45156
 21
-1.52268
  0
LINE
  8
0
 10
-4.45156
 20
-1.52268
 11
-4.4742
 21
-1.53912
  0
LINE
  8
0
 10
-4.4742
 20
-1.53912
 11
-4.50218
 21
-1.53912
  0
LINE
  8
0
 10
4.4742
 20
-1.53912
 11
4.45156
 21
-1.52268
  0
LINE
  8
0
 10
4.45156
 20
-1.52268
 11
4.44291
 21
-1.49606
  0
LINE
  8
0
 10
4.44291
 20
-1.49606
 11
4.45156
 21
-1.46945
  0
LINE
  8
0
 10
4.45156
 20
-1.46945
 11
4.4742
 21
-1.453
  0
LINE
  8
0
 10
4.4742
 20
-1.453
 11
4.50218
 21
-1.453
  0
LINE
  8
0
 10
4.50218
 20
-1.453
 11
4.52482
 21
-1.46945
  0
LINE
  8
0
 10
4.52482
 20
-1.46945
 11
4.53346
 21
-1.49606
  0
LINE
  8
0
 10
4.53346
 20
-1.49606
 11
4.52482
 21
-1.52268
  0
LINE
  8
0
 10
4.52482
 20
-1.52268
 11
4.50218
 21
-1.53912
  0
LINE
  8
0
 10
4.50218
 20
-1.53912
 11
4.4742
 21
-1.53912
  0
ENDSEC
  0
SECTION
  2
OBJECTS
  0
DICTIONARY
  0
ENDSEC
  0
EOF
