M48
;DRILL file {KiCad 5.0.0-rc2-unknown-f785d27~65~ubuntu16.04.1} date Thu Aug  2 21:08:04 2018
;FORMAT={-:-/ absolute / inch / decimal}
FMAT,2
INCH,TZ
T1C0.0866
T2C0.1575
%
G90
G05
M72
T1
X6.4555Y-3.588
X10.944Y-1.3435
X1.9675Y-4.3355
X1.9675Y-1.3435
X10.9435Y-4.3355
X6.456Y-1.344
T2
X3.837Y-4.3339
X2.3409Y-3.5858
X3.0929Y-2.0882
X9.8213Y-4.3339
X2.3409Y-2.0898
X9.8213Y-2.0898
X11.3189Y-3.5827
X3.089Y-3.5858
X4.585Y-2.0898
X10.5709Y-3.5858
X5.337Y-1.3417
X8.3252Y-2.0898
X1.5929Y-3.5858
X7.5772Y-2.0898
X10.5693Y-1.3417
X5.3331Y-3.5858
X6.0811Y-1.3417
X4.585Y-1.3417
X4.589Y-2.8362
X9.8213Y-1.3417
X8.3252Y-3.5858
X9.0732Y-2.8378
X11.3173Y-4.3339
X8.3252Y-2.8378
X6.8291Y-2.8378
X6.8291Y-1.3417
X1.5929Y-2.0898
X3.837Y-2.8378
X5.3331Y-4.3339
X7.5772Y-4.3339
X6.8291Y-3.5858
X10.5693Y-2.0898
X1.5929Y-4.3339
X10.5693Y-4.3339
X6.8291Y-2.0898
X1.5929Y-2.8378
X11.3173Y-2.0898
X4.585Y-3.5858
X9.8213Y-2.8378
X8.3252Y-1.3417
X5.3331Y-2.8378
X3.089Y-1.3417
X6.0811Y-2.0898
X2.3409Y-1.3417
X3.837Y-1.3417
X9.0732Y-1.3417
X3.0906Y-2.8378
X10.5693Y-2.8378
X6.0811Y-2.8378
X2.3409Y-4.3339
X9.8213Y-3.5858
X11.3173Y-2.8378
X2.3425Y-2.8378
X4.585Y-4.3339
X3.837Y-2.0898
X5.3331Y-2.0898
X6.0811Y-3.5858
X9.0732Y-3.5858
X3.837Y-3.5858
X1.5929Y-1.3417
X8.3252Y-4.3339
X3.089Y-4.3339
X11.3173Y-1.3417
X7.5772Y-1.3417
X7.5772Y-3.5858
X9.0732Y-4.3339
X7.5772Y-2.8378
X9.0732Y-2.0898
X6.4551Y-4.3339
T0
M30
