M48
;DRILL file {KiCad 5.0.0-rc2-unknown-f785d27~65~ubuntu16.04.1} date Thu Aug  2 21:25:39 2018
;FORMAT={-:-/ absolute / inch / decimal}
FMAT,2
INCH,TZ
T1C0.0157
T2C0.0394
T3C0.0591
%
G90
G05
M72
T1
X1.75Y-0.95
X1.8Y-1.05
X1.9Y-1.1
X1.9Y-1.85
X1.9Y-1.9183
X1.9Y-2.6
X1.9Y-2.6663
X1.9Y-3.35
X1.9Y-3.4144
X1.9Y-4.1
X1.9Y-4.1624
X2.05Y-1.85
X2.05Y-2.6
X2.05Y-3.35
X2.05Y-4.1
X2.0724Y-1.05
X2.15Y-1.05
X2.2Y-0.95
X2.2Y-1.1
X2.3Y-1.0785
X2.65Y-1.85
X2.65Y-1.9183
X2.65Y-2.6
X2.65Y-2.6663
X2.65Y-3.35
X2.65Y-3.4144
X2.65Y-4.1
X2.65Y-4.1624
X2.8Y-1.1
X2.8Y-1.85
X2.8Y-2.6
X2.8Y-3.35
X2.8Y-4.1
X3.4Y-1.85
X3.4Y-1.9167
X3.4Y-2.6
X3.4Y-2.6663
X3.4Y-3.35
X3.4Y-3.4144
X3.4Y-4.1
X3.4Y-4.1624
X3.55Y-1.1
X3.55Y-1.85
X3.55Y-2.6
X3.55Y-3.35
X3.55Y-4.1
X4.15Y-1.85
X4.15Y-1.9183
X4.15Y-2.6
X4.15Y-2.6663
X4.15Y-3.35
X4.15Y-3.4144
X4.15Y-4.1
X4.15Y-4.1624
X4.3Y-1.1
X4.3Y-1.85
X4.3Y-2.6
X4.3Y-3.35
X4.3Y-4.1
X4.9Y-1.85
X4.9Y-1.9183
X4.9Y-2.6
X4.9Y-2.6648
X4.9Y-3.35
X4.9Y-3.4144
X4.9Y-4.1
X4.9Y-4.1624
X5.05Y-1.1
X5.05Y-1.85
X5.05Y-2.6
X5.05Y-3.35
X5.05Y-4.1
X5.4Y-2.4
X5.5Y-4.05
X5.5Y-4.25
X5.5064Y-2.4
X5.55Y-4.
X5.6Y-4.05
X5.6Y-4.1
X5.6Y-4.25
X5.6Y-4.8
X5.65Y-1.85
X5.65Y-1.9183
X5.65Y-2.6
X5.65Y-2.6663
X5.65Y-3.35
X5.65Y-3.4144
X5.65Y-4.1
X5.65Y-4.1624
X5.7Y-4.
X5.7025Y-4.4108
X5.7412Y-4.418
X5.7471Y-4.0529
X5.75Y-4.35
X5.75Y-4.65
X5.7574Y-3.95
X5.8Y-1.1
X5.8Y-1.85
X5.8Y-2.6
X5.8Y-2.6663
X5.8Y-3.35
X5.9Y-4.3
X5.9Y-4.578
X5.9242Y-4.3444
X5.95Y-3.
X5.95Y-3.8
X5.95Y-4.2
X5.95Y-4.3
X6.0486Y-4.1012
X6.05Y-3.35
X6.05Y-3.85
X6.05Y-4.45
X6.1Y-3.4144
X6.1Y-4.45
X6.1Y-4.65
X6.15Y-4.45
X6.15Y-4.6
X6.2Y-3.6
X6.2Y-4.4
X6.206Y-4.3073
X6.2077Y-4.5077
X6.25Y-2.05
X6.25Y-2.2
X6.25Y-4.1
X6.25Y-4.6
X6.255Y-4.3
X6.2657Y-2.9
X6.3Y-4.65
X6.3069Y-4.4113
X6.35Y-4.3
X6.35Y-4.65
X6.4Y-1.85
X6.4Y-1.9183
X6.4Y-2.6
X6.4Y-2.6663
X6.4Y-3.35
X6.4Y-3.4144
X6.4Y-3.5
X6.4Y-3.9
X6.4Y-3.95
X6.4Y-4.
X6.45Y-3.8
X6.5Y-3.4144
X6.5Y-3.8
X6.5Y-3.9
X6.5Y-4.
X6.5085Y-3.3215
X6.55Y-1.1
X6.55Y-1.85
X6.55Y-2.6
X6.55Y-3.35
X6.6Y-4.45
X6.65Y-2.6663
X6.9Y-4.65
X6.95Y-4.7
X7.15Y-1.85
X7.15Y-1.9183
X7.15Y-2.6
X7.15Y-2.6663
X7.15Y-3.35
X7.15Y-3.4144
X7.15Y-4.1
X7.15Y-4.1624
X7.2Y-3.8
X7.2Y-3.9
X7.3Y-1.1
X7.3Y-1.85
X7.3Y-2.6
X7.3Y-3.35
X7.3Y-4.1
X7.85Y-4.
X7.9Y-1.85
X7.9Y-1.9183
X7.9Y-2.6
X7.9Y-2.6663
X7.9Y-3.35
X7.9Y-3.4144
X7.9Y-4.1
X7.9Y-4.1624
X7.95Y-4.
X8.05Y-1.1
X8.05Y-1.85
X8.05Y-2.6
X8.05Y-3.35
X8.05Y-4.1
X8.6Y-4.
X8.65Y-1.85
X8.65Y-1.9183
X8.65Y-2.6
X8.65Y-2.6663
X8.65Y-3.35
X8.65Y-3.4144
X8.65Y-4.1
X8.65Y-4.1624
X8.7Y-4.
X8.8Y-1.1
X8.8Y-1.85
X8.8Y-2.6
X8.8Y-3.35
X8.8Y-4.1
X9.35Y-4.
X9.4Y-1.85
X9.4Y-1.9183
X9.4Y-2.6
X9.4Y-2.6663
X9.4Y-3.35
X9.4Y-3.4144
X9.4Y-4.1
X9.4Y-4.1624
X9.45Y-4.
X9.55Y-1.1
X9.55Y-1.85
X9.55Y-2.6
X9.55Y-3.35
X9.55Y-4.1
X10.1Y-4.
X10.15Y-1.85
X10.15Y-1.9183
X10.15Y-2.6
X10.15Y-2.6663
X10.15Y-3.35
X10.15Y-3.4144
X10.15Y-4.1
X10.15Y-4.1624
X10.2Y-4.
X10.3Y-1.1
X10.3Y-1.85
X10.3Y-2.6
X10.3Y-3.35
X10.3Y-4.1
X10.85Y-4.1
X10.85Y-4.2
X10.9Y-1.85
X10.9Y-1.9183
X10.9Y-2.6
X10.9Y-2.6663
X10.9Y-3.35
X10.9Y-3.4144
X10.9Y-4.1
X10.9Y-4.1624
X11.05Y-1.1
X11.05Y-1.85
X11.05Y-2.6
X11.05Y-3.35
X11.05Y-4.1
T2
X6.46Y-2.3028
X6.46Y-2.48
X6.7159Y-2.3028
X6.7159Y-2.48
X5.5241Y-2.3128
X5.5241Y-2.49
X5.78Y-2.3128
X5.78Y-2.49
T3
X7.4272Y-1.9898
X7.6772Y-1.8898
X10.4193Y-1.2417
X10.6693Y-1.1417
X4.435Y-1.2417
X4.685Y-1.1417
X6.6791Y-1.2417
X6.9291Y-1.1417
X1.4429Y-3.4858
X1.6929Y-3.3858
X2.939Y-1.2417
X3.189Y-1.1417
X7.4272Y-3.4858
X7.6772Y-3.3858
X10.4193Y-2.7378
X10.6693Y-2.6378
X4.439Y-2.7362
X4.689Y-2.6362
X6.6791Y-2.7378
X6.9291Y-2.6378
X5.187Y-1.2417
X5.437Y-1.1417
X8.1752Y-1.2417
X8.4252Y-1.1417
X11.1673Y-1.2417
X11.4173Y-1.1417
X1.4429Y-1.2417
X1.6929Y-1.1417
X2.939Y-4.2339
X3.189Y-4.1339
X4.435Y-4.2339
X4.685Y-4.1339
X8.1752Y-2.7378
X8.4252Y-2.6378
X11.1673Y-2.7378
X11.4173Y-2.6378
X8.1752Y-4.2339
X8.4252Y-4.1339
X11.1673Y-4.2339
X11.4173Y-4.1339
X1.4429Y-2.7378
X1.6929Y-2.6378
X2.1909Y-4.2339
X2.4409Y-4.1339
X8.9232Y-1.9898
X9.1732Y-1.8898
X5.1831Y-1.9898
X5.4331Y-1.8898
X8.9232Y-3.4858
X9.1732Y-3.3858
X5.1831Y-3.4858
X5.4331Y-3.3858
X2.939Y-3.4858
X3.189Y-3.3858
X2.1909Y-1.9898
X2.4409Y-1.8898
X9.6713Y-1.2417
X9.9213Y-1.1417
X5.9311Y-1.2417
X6.1811Y-1.1417
X6.6791Y-3.4858
X6.9291Y-3.3858
X9.6713Y-2.7378
X9.9213Y-2.6378
X3.687Y-2.7378
X3.937Y-2.6378
X5.9311Y-2.7378
X6.1811Y-2.6378
X10.4209Y-3.4858
X10.6709Y-3.3858
X7.4272Y-1.2417
X7.6772Y-1.1417
X9.6713Y-4.2339
X9.9213Y-4.1339
X1.4429Y-1.9898
X1.6929Y-1.8898
X2.1909Y-3.4858
X2.4409Y-3.3858
X3.687Y-4.2339
X3.937Y-4.1339
X6.3051Y-4.2339
X6.5551Y-4.1339
X7.4272Y-2.7378
X7.6772Y-2.6378
X10.4193Y-1.9898
X10.6693Y-1.8898
X4.435Y-1.9898
X4.685Y-1.8898
X6.6791Y-1.9898
X6.9291Y-1.8898
X2.1909Y-1.2417
X2.4409Y-1.1417
X2.9406Y-2.7378
X3.1906Y-2.6378
X7.4272Y-4.2339
X7.6772Y-4.1339
X10.4193Y-4.2339
X10.6693Y-4.1339
X4.435Y-3.4858
X4.685Y-3.3858
X8.1752Y-1.9898
X8.4252Y-1.8898
X11.1673Y-1.9898
X11.4173Y-1.8898
X3.687Y-1.9898
X3.937Y-1.8898
X8.1752Y-3.4858
X8.4252Y-3.3858
X11.1689Y-3.4827
X11.4189Y-3.3827
X2.1925Y-2.7378
X2.4425Y-2.6378
X8.9232Y-1.2417
X9.1732Y-1.1417
X8.9232Y-2.7378
X9.1732Y-2.6378
X1.4429Y-4.2339
X1.6929Y-4.1339
X2.9429Y-1.9882
X3.1929Y-1.8882
X5.1831Y-2.7378
X5.4331Y-2.6378
X8.9232Y-4.2339
X9.1732Y-4.1339
X5.1831Y-4.2339
X5.4331Y-4.1339
X3.687Y-1.2417
X3.937Y-1.1417
X9.6713Y-1.9898
X9.9213Y-1.8898
X5.9311Y-1.9898
X6.1811Y-1.8898
X9.6713Y-3.4858
X9.9213Y-3.3858
X3.687Y-3.4858
X3.937Y-3.3858
X5.9311Y-3.4858
X6.1811Y-3.3858
T0
M30
