G04 #@! TF.GenerationSoftware,KiCad,Pcbnew,5.0.0-rc2-unknown-f785d27~65~ubuntu16.04.1*
G04 #@! TF.CreationDate,2018-08-02T21:07:42-05:00*
G04 #@! TF.ProjectId,keebee,6B65656265652E6B696361645F706362,rev?*
G04 #@! TF.SameCoordinates,Original*
G04 #@! TF.FileFunction,Copper,L1,Top,Signal*
G04 #@! TF.FilePolarity,Positive*
%FSLAX46Y46*%
G04 Gerber Fmt 4.6, Leading zero omitted, Abs format (unit mm)*
G04 Created by KiCad (PCBNEW 5.0.0-rc2-unknown-f785d27~65~ubuntu16.04.1) date Thu Aug  2 21:07:42 2018*
%MOMM*%
%LPD*%
G01*
G04 APERTURE LIST*
G04 #@! TA.AperFunction,NonConductor*
%ADD10C,0.150000*%
G04 #@! TD*
G04 #@! TA.AperFunction,ComponentPad*
%ADD11C,2.200000*%
G04 #@! TD*
G04 #@! TA.AperFunction,SMDPad,CuDef*
%ADD12R,0.400000X1.350000*%
G04 #@! TD*
G04 #@! TA.AperFunction,SMDPad,CuDef*
%ADD13R,1.900000X1.900000*%
G04 #@! TD*
G04 #@! TA.AperFunction,SMDPad,CuDef*
%ADD14R,2.100000X1.600000*%
G04 #@! TD*
G04 #@! TA.AperFunction,SMDPad,CuDef*
%ADD15R,1.500000X1.300000*%
G04 #@! TD*
G04 #@! TA.AperFunction,SMDPad,CuDef*
%ADD16R,1.200000X0.900000*%
G04 #@! TD*
G04 #@! TA.AperFunction,ComponentPad*
%ADD17C,1.700000*%
G04 #@! TD*
G04 #@! TA.AperFunction,ViaPad*
%ADD18C,0.800000*%
G04 #@! TD*
G04 #@! TA.AperFunction,Conductor*
%ADD19C,0.250000*%
G04 #@! TD*
G04 #@! TA.AperFunction,Conductor*
%ADD20C,0.500000*%
G04 #@! TD*
G04 APERTURE END LIST*
D10*
X301500000Y-20500000D02*
X301500000Y-123500000D01*
X26500000Y-123500000D02*
X301500000Y-123500000D01*
X26500000Y-20500000D02*
X301500000Y-20500000D01*
X26500000Y-20500000D02*
X26500000Y-123500000D01*
D11*
G04 #@! TO.P,SW64,1*
G04 #@! TO.N,/ROW3*
X271040000Y-86000000D03*
G04 #@! TO.P,SW64,2*
G04 #@! TO.N,Net-(D65-Pad2)*
X264690000Y-88540000D03*
G04 #@! TD*
D12*
G04 #@! TO.P,J1,1*
G04 #@! TO.N,/VBUS*
X51338000Y-25182000D03*
G04 #@! TO.P,J1,2*
G04 #@! TO.N,Net-(J1-Pad2)*
X50688000Y-25182000D03*
G04 #@! TO.P,J1,3*
G04 #@! TO.N,Net-(J1-Pad3)*
X50038000Y-25182000D03*
G04 #@! TO.P,J1,4*
G04 #@! TO.N,Net-(J1-Pad4)*
X49388000Y-25182000D03*
G04 #@! TO.P,J1,5*
G04 #@! TO.N,GND*
X48738000Y-25182000D03*
D13*
G04 #@! TO.P,J1,M1*
G04 #@! TO.N,N/C*
X51238000Y-22532000D03*
G04 #@! TO.P,J1,M2*
X48838000Y-22532000D03*
G04 #@! TO.P,J1,6*
G04 #@! TO.N,Net-(J1-Pad6)*
X53888000Y-22532000D03*
D14*
X53138000Y-25082000D03*
X46938000Y-25082000D03*
D13*
X46188000Y-22532000D03*
G04 #@! TD*
D11*
G04 #@! TO.P,SW1,1*
G04 #@! TO.N,/ROW0*
X43000000Y-29000000D03*
G04 #@! TO.P,SW1,2*
G04 #@! TO.N,Net-(D2-Pad2)*
X36650000Y-31540000D03*
G04 #@! TD*
D15*
G04 #@! TO.P,D1,2*
G04 #@! TO.N,Net-(D1-Pad2)*
X147668000Y-118110000D03*
G04 #@! TO.P,D1,1*
G04 #@! TO.N,GND*
X150368000Y-118110000D03*
G04 #@! TD*
D16*
G04 #@! TO.P,D2,2*
G04 #@! TO.N,Net-(D2-Pad2)*
X29210000Y-27180000D03*
G04 #@! TO.P,D2,1*
G04 #@! TO.N,/COL0*
X29210000Y-30480000D03*
G04 #@! TD*
G04 #@! TO.P,D3,1*
G04 #@! TO.N,/COL0*
X29210000Y-49650000D03*
G04 #@! TO.P,D3,2*
G04 #@! TO.N,Net-(D3-Pad2)*
X29210000Y-46350000D03*
G04 #@! TD*
G04 #@! TO.P,D4,1*
G04 #@! TO.N,/COL0*
X29210000Y-68960000D03*
G04 #@! TO.P,D4,2*
G04 #@! TO.N,Net-(D4-Pad2)*
X29210000Y-65660000D03*
G04 #@! TD*
G04 #@! TO.P,D5,2*
G04 #@! TO.N,Net-(D5-Pad2)*
X29210000Y-84710000D03*
G04 #@! TO.P,D5,1*
G04 #@! TO.N,/COL0*
X29210000Y-88010000D03*
G04 #@! TD*
G04 #@! TO.P,D6,2*
G04 #@! TO.N,Net-(D6-Pad2)*
X29210000Y-104140000D03*
G04 #@! TO.P,D6,1*
G04 #@! TO.N,/COL0*
X29210000Y-107440000D03*
G04 #@! TD*
G04 #@! TO.P,D7,2*
G04 #@! TO.N,Net-(D7-Pad2)*
X49784000Y-27560000D03*
G04 #@! TO.P,D7,1*
G04 #@! TO.N,/COL1*
X49784000Y-30860000D03*
G04 #@! TD*
G04 #@! TO.P,D8,2*
G04 #@! TO.N,Net-(D8-Pad2)*
X49784000Y-46610000D03*
G04 #@! TO.P,D8,1*
G04 #@! TO.N,/COL1*
X49784000Y-49910000D03*
G04 #@! TD*
G04 #@! TO.P,D9,2*
G04 #@! TO.N,Net-(D9-Pad2)*
X49784000Y-65660000D03*
G04 #@! TO.P,D9,1*
G04 #@! TO.N,/COL1*
X49784000Y-68960000D03*
G04 #@! TD*
G04 #@! TO.P,D10,2*
G04 #@! TO.N,Net-(D10-Pad2)*
X49784000Y-84584000D03*
G04 #@! TO.P,D10,1*
G04 #@! TO.N,/COL1*
X49784000Y-87884000D03*
G04 #@! TD*
G04 #@! TO.P,D11,1*
G04 #@! TO.N,/COL1*
X49784000Y-107060000D03*
G04 #@! TO.P,D11,2*
G04 #@! TO.N,Net-(D11-Pad2)*
X49784000Y-103760000D03*
G04 #@! TD*
G04 #@! TO.P,D12,1*
G04 #@! TO.N,/COL2*
X68834000Y-30860000D03*
G04 #@! TO.P,D12,2*
G04 #@! TO.N,Net-(D12-Pad2)*
X68834000Y-27560000D03*
G04 #@! TD*
G04 #@! TO.P,D13,1*
G04 #@! TO.N,/COL2*
X68834000Y-49910000D03*
G04 #@! TO.P,D13,2*
G04 #@! TO.N,Net-(D13-Pad2)*
X68834000Y-46610000D03*
G04 #@! TD*
G04 #@! TO.P,D14,2*
G04 #@! TO.N,Net-(D14-Pad2)*
X68834000Y-65660000D03*
G04 #@! TO.P,D14,1*
G04 #@! TO.N,/COL2*
X68834000Y-68960000D03*
G04 #@! TD*
G04 #@! TO.P,D15,1*
G04 #@! TO.N,/COL2*
X68834000Y-88010000D03*
G04 #@! TO.P,D15,2*
G04 #@! TO.N,Net-(D15-Pad2)*
X68834000Y-84710000D03*
G04 #@! TD*
G04 #@! TO.P,D16,1*
G04 #@! TO.N,/COL2*
X68834000Y-107060000D03*
G04 #@! TO.P,D16,2*
G04 #@! TO.N,Net-(D16-Pad2)*
X68834000Y-103760000D03*
G04 #@! TD*
G04 #@! TO.P,D17,2*
G04 #@! TO.N,Net-(D17-Pad2)*
X87884000Y-27560000D03*
G04 #@! TO.P,D17,1*
G04 #@! TO.N,/COL3*
X87884000Y-30860000D03*
G04 #@! TD*
G04 #@! TO.P,D18,2*
G04 #@! TO.N,Net-(D18-Pad2)*
X87884000Y-46482000D03*
G04 #@! TO.P,D18,1*
G04 #@! TO.N,/COL3*
X87884000Y-49782000D03*
G04 #@! TD*
G04 #@! TO.P,D19,1*
G04 #@! TO.N,/COL3*
X87884000Y-68960000D03*
G04 #@! TO.P,D19,2*
G04 #@! TO.N,Net-(D19-Pad2)*
X87884000Y-65660000D03*
G04 #@! TD*
G04 #@! TO.P,D20,2*
G04 #@! TO.N,Net-(D20-Pad2)*
X87884000Y-84710000D03*
G04 #@! TO.P,D20,1*
G04 #@! TO.N,/COL3*
X87884000Y-88010000D03*
G04 #@! TD*
G04 #@! TO.P,D21,1*
G04 #@! TO.N,/COL3*
X87884000Y-106934000D03*
G04 #@! TO.P,D21,2*
G04 #@! TO.N,Net-(D21-Pad2)*
X87884000Y-103634000D03*
G04 #@! TD*
G04 #@! TO.P,D22,2*
G04 #@! TO.N,Net-(D22-Pad2)*
X106934000Y-27560000D03*
G04 #@! TO.P,D22,1*
G04 #@! TO.N,/COL4*
X106934000Y-30860000D03*
G04 #@! TD*
G04 #@! TO.P,D23,1*
G04 #@! TO.N,/COL4*
X106934000Y-49910000D03*
G04 #@! TO.P,D23,2*
G04 #@! TO.N,Net-(D23-Pad2)*
X106934000Y-46610000D03*
G04 #@! TD*
G04 #@! TO.P,D24,2*
G04 #@! TO.N,Net-(D24-Pad2)*
X106934000Y-65660000D03*
G04 #@! TO.P,D24,1*
G04 #@! TO.N,/COL4*
X106934000Y-68960000D03*
G04 #@! TD*
G04 #@! TO.P,D25,2*
G04 #@! TO.N,Net-(D25-Pad2)*
X106934000Y-84582000D03*
G04 #@! TO.P,D25,1*
G04 #@! TO.N,/COL4*
X106934000Y-87882000D03*
G04 #@! TD*
G04 #@! TO.P,D26,1*
G04 #@! TO.N,/COL4*
X106934000Y-106932000D03*
G04 #@! TO.P,D26,2*
G04 #@! TO.N,Net-(D26-Pad2)*
X106934000Y-103632000D03*
G04 #@! TD*
G04 #@! TO.P,D27,1*
G04 #@! TO.N,/COL5*
X125984000Y-30860000D03*
G04 #@! TO.P,D27,2*
G04 #@! TO.N,Net-(D27-Pad2)*
X125984000Y-27560000D03*
G04 #@! TD*
G04 #@! TO.P,D28,2*
G04 #@! TO.N,Net-(D28-Pad2)*
X125984000Y-46610000D03*
G04 #@! TO.P,D28,1*
G04 #@! TO.N,/COL5*
X125984000Y-49910000D03*
G04 #@! TD*
G04 #@! TO.P,D29,2*
G04 #@! TO.N,Net-(D29-Pad2)*
X125984000Y-65660000D03*
G04 #@! TO.P,D29,1*
G04 #@! TO.N,/COL5*
X125984000Y-68960000D03*
G04 #@! TD*
G04 #@! TO.P,D30,1*
G04 #@! TO.N,/COL5*
X125984000Y-88010000D03*
G04 #@! TO.P,D30,2*
G04 #@! TO.N,Net-(D30-Pad2)*
X125984000Y-84710000D03*
G04 #@! TD*
G04 #@! TO.P,D31,1*
G04 #@! TO.N,/COL5*
X125984000Y-106806000D03*
G04 #@! TO.P,D31,2*
G04 #@! TO.N,Net-(D31-Pad2)*
X125984000Y-103506000D03*
G04 #@! TD*
G04 #@! TO.P,D32,1*
G04 #@! TO.N,/COL6*
X145034000Y-30860000D03*
G04 #@! TO.P,D32,2*
G04 #@! TO.N,Net-(D32-Pad2)*
X145034000Y-27560000D03*
G04 #@! TD*
G04 #@! TO.P,D33,1*
G04 #@! TO.N,/COL6*
X145034000Y-49910000D03*
G04 #@! TO.P,D33,2*
G04 #@! TO.N,Net-(D33-Pad2)*
X145034000Y-46610000D03*
G04 #@! TD*
G04 #@! TO.P,D34,1*
G04 #@! TO.N,/COL6*
X145034000Y-68960000D03*
G04 #@! TO.P,D34,2*
G04 #@! TO.N,Net-(D34-Pad2)*
X145034000Y-65660000D03*
G04 #@! TD*
G04 #@! TO.P,D35,2*
G04 #@! TO.N,Net-(D35-Pad2)*
X145034000Y-84710000D03*
G04 #@! TO.P,D35,1*
G04 #@! TO.N,/COL6*
X145034000Y-88010000D03*
G04 #@! TD*
G04 #@! TO.P,D36,2*
G04 #@! TO.N,Net-(D36-Pad2)*
X144780000Y-103760000D03*
G04 #@! TO.P,D36,1*
G04 #@! TO.N,/COL6*
X144780000Y-107060000D03*
G04 #@! TD*
G04 #@! TO.P,D37,1*
G04 #@! TO.N,/COL7*
X164084000Y-30860000D03*
G04 #@! TO.P,D37,2*
G04 #@! TO.N,Net-(D37-Pad2)*
X164084000Y-27560000D03*
G04 #@! TD*
G04 #@! TO.P,D38,2*
G04 #@! TO.N,Net-(D38-Pad2)*
X164084000Y-46610000D03*
G04 #@! TO.P,D38,1*
G04 #@! TO.N,/COL7*
X164084000Y-49910000D03*
G04 #@! TD*
G04 #@! TO.P,D39,2*
G04 #@! TO.N,Net-(D39-Pad2)*
X164084000Y-65532000D03*
G04 #@! TO.P,D39,1*
G04 #@! TO.N,/COL7*
X164084000Y-68832000D03*
G04 #@! TD*
G04 #@! TO.P,D40,1*
G04 #@! TO.N,/COL7*
X164084000Y-87882000D03*
G04 #@! TO.P,D40,2*
G04 #@! TO.N,Net-(D40-Pad2)*
X164084000Y-84582000D03*
G04 #@! TD*
D15*
G04 #@! TO.P,D41,1*
G04 #@! TO.N,GND*
X177894000Y-118110000D03*
G04 #@! TO.P,D41,2*
G04 #@! TO.N,Net-(D41-Pad2)*
X180594000Y-118110000D03*
G04 #@! TD*
D16*
G04 #@! TO.P,D42,1*
G04 #@! TO.N,/COL8*
X183134000Y-30986000D03*
G04 #@! TO.P,D42,2*
G04 #@! TO.N,Net-(D42-Pad2)*
X183134000Y-27686000D03*
G04 #@! TD*
G04 #@! TO.P,D43,2*
G04 #@! TO.N,Net-(D43-Pad2)*
X183134000Y-46610000D03*
G04 #@! TO.P,D43,1*
G04 #@! TO.N,/COL8*
X183134000Y-49910000D03*
G04 #@! TD*
G04 #@! TO.P,D44,2*
G04 #@! TO.N,Net-(D44-Pad2)*
X183134000Y-65660000D03*
G04 #@! TO.P,D44,1*
G04 #@! TO.N,/COL8*
X183134000Y-68960000D03*
G04 #@! TD*
G04 #@! TO.P,D45,1*
G04 #@! TO.N,/COL8*
X183134000Y-88010000D03*
G04 #@! TO.P,D45,2*
G04 #@! TO.N,Net-(D45-Pad2)*
X183134000Y-84710000D03*
G04 #@! TD*
G04 #@! TO.P,D46,1*
G04 #@! TO.N,/COL8*
X183388000Y-107060000D03*
G04 #@! TO.P,D46,2*
G04 #@! TO.N,Net-(D46-Pad2)*
X183388000Y-103760000D03*
G04 #@! TD*
G04 #@! TO.P,D47,2*
G04 #@! TO.N,Net-(D47-Pad2)*
X202184000Y-27560000D03*
G04 #@! TO.P,D47,1*
G04 #@! TO.N,/COL9*
X202184000Y-30860000D03*
G04 #@! TD*
G04 #@! TO.P,D48,2*
G04 #@! TO.N,Net-(D48-Pad2)*
X202184000Y-46610000D03*
G04 #@! TO.P,D48,1*
G04 #@! TO.N,/COL9*
X202184000Y-49910000D03*
G04 #@! TD*
G04 #@! TO.P,D49,2*
G04 #@! TO.N,Net-(D49-Pad2)*
X202184000Y-65660000D03*
G04 #@! TO.P,D49,1*
G04 #@! TO.N,/COL9*
X202184000Y-68960000D03*
G04 #@! TD*
G04 #@! TO.P,D50,1*
G04 #@! TO.N,/COL9*
X202184000Y-87882000D03*
G04 #@! TO.P,D50,2*
G04 #@! TO.N,Net-(D50-Pad2)*
X202184000Y-84582000D03*
G04 #@! TD*
G04 #@! TO.P,D51,2*
G04 #@! TO.N,Net-(D51-Pad2)*
X202184000Y-103632000D03*
G04 #@! TO.P,D51,1*
G04 #@! TO.N,/COL9*
X202184000Y-106932000D03*
G04 #@! TD*
G04 #@! TO.P,D52,2*
G04 #@! TO.N,Net-(D52-Pad2)*
X221234000Y-27560000D03*
G04 #@! TO.P,D52,1*
G04 #@! TO.N,/COL10*
X221234000Y-30860000D03*
G04 #@! TD*
G04 #@! TO.P,D53,1*
G04 #@! TO.N,/COL10*
X221234000Y-49910000D03*
G04 #@! TO.P,D53,2*
G04 #@! TO.N,Net-(D53-Pad2)*
X221234000Y-46610000D03*
G04 #@! TD*
G04 #@! TO.P,D54,1*
G04 #@! TO.N,/COL10*
X221234000Y-68960000D03*
G04 #@! TO.P,D54,2*
G04 #@! TO.N,Net-(D54-Pad2)*
X221234000Y-65660000D03*
G04 #@! TD*
G04 #@! TO.P,D55,1*
G04 #@! TO.N,/COL10*
X221234000Y-87882000D03*
G04 #@! TO.P,D55,2*
G04 #@! TO.N,Net-(D55-Pad2)*
X221234000Y-84582000D03*
G04 #@! TD*
G04 #@! TO.P,D56,1*
G04 #@! TO.N,/COL10*
X221234000Y-106806000D03*
G04 #@! TO.P,D56,2*
G04 #@! TO.N,Net-(D56-Pad2)*
X221234000Y-103506000D03*
G04 #@! TD*
G04 #@! TO.P,D57,1*
G04 #@! TO.N,/COL11*
X240284000Y-30860000D03*
G04 #@! TO.P,D57,2*
G04 #@! TO.N,Net-(D57-Pad2)*
X240284000Y-27560000D03*
G04 #@! TD*
G04 #@! TO.P,D58,2*
G04 #@! TO.N,Net-(D58-Pad2)*
X240284000Y-46610000D03*
G04 #@! TO.P,D58,1*
G04 #@! TO.N,/COL11*
X240284000Y-49910000D03*
G04 #@! TD*
G04 #@! TO.P,D59,2*
G04 #@! TO.N,Net-(D59-Pad2)*
X240284000Y-65660000D03*
G04 #@! TO.P,D59,1*
G04 #@! TO.N,/COL11*
X240284000Y-68960000D03*
G04 #@! TD*
G04 #@! TO.P,D60,1*
G04 #@! TO.N,/COL11*
X240284000Y-88010000D03*
G04 #@! TO.P,D60,2*
G04 #@! TO.N,Net-(D60-Pad2)*
X240284000Y-84710000D03*
G04 #@! TD*
G04 #@! TO.P,D61,2*
G04 #@! TO.N,Net-(D61-Pad2)*
X240284000Y-103506000D03*
G04 #@! TO.P,D61,1*
G04 #@! TO.N,/COL11*
X240284000Y-106806000D03*
G04 #@! TD*
G04 #@! TO.P,D62,2*
G04 #@! TO.N,Net-(D62-Pad2)*
X259334000Y-27560000D03*
G04 #@! TO.P,D62,1*
G04 #@! TO.N,/COL12*
X259334000Y-30860000D03*
G04 #@! TD*
G04 #@! TO.P,D63,2*
G04 #@! TO.N,Net-(D63-Pad2)*
X259334000Y-46482000D03*
G04 #@! TO.P,D63,1*
G04 #@! TO.N,/COL12*
X259334000Y-49782000D03*
G04 #@! TD*
G04 #@! TO.P,D64,1*
G04 #@! TO.N,/COL12*
X259334000Y-69086000D03*
G04 #@! TO.P,D64,2*
G04 #@! TO.N,Net-(D64-Pad2)*
X259334000Y-65786000D03*
G04 #@! TD*
G04 #@! TO.P,D65,2*
G04 #@! TO.N,Net-(D65-Pad2)*
X259334000Y-84710000D03*
G04 #@! TO.P,D65,1*
G04 #@! TO.N,/COL12*
X259334000Y-88010000D03*
G04 #@! TD*
G04 #@! TO.P,D66,1*
G04 #@! TO.N,/COL12*
X259334000Y-106806000D03*
G04 #@! TO.P,D66,2*
G04 #@! TO.N,Net-(D66-Pad2)*
X259334000Y-103506000D03*
G04 #@! TD*
G04 #@! TO.P,D67,2*
G04 #@! TO.N,Net-(D67-Pad2)*
X278384000Y-27560000D03*
G04 #@! TO.P,D67,1*
G04 #@! TO.N,/COL13*
X278384000Y-30860000D03*
G04 #@! TD*
G04 #@! TO.P,D68,1*
G04 #@! TO.N,/COL13*
X278384000Y-49910000D03*
G04 #@! TO.P,D68,2*
G04 #@! TO.N,Net-(D68-Pad2)*
X278384000Y-46610000D03*
G04 #@! TD*
G04 #@! TO.P,D69,1*
G04 #@! TO.N,/COL13*
X278384000Y-68960000D03*
G04 #@! TO.P,D69,2*
G04 #@! TO.N,Net-(D69-Pad2)*
X278384000Y-65660000D03*
G04 #@! TD*
G04 #@! TO.P,D70,1*
G04 #@! TO.N,/COL13*
X278384000Y-87756000D03*
G04 #@! TO.P,D70,2*
G04 #@! TO.N,Net-(D70-Pad2)*
X278384000Y-84456000D03*
G04 #@! TD*
G04 #@! TO.P,D71,2*
G04 #@! TO.N,Net-(D71-Pad2)*
X278384000Y-103506000D03*
G04 #@! TO.P,D71,1*
G04 #@! TO.N,/COL13*
X278384000Y-106806000D03*
G04 #@! TD*
D15*
G04 #@! TO.P,R1,1*
G04 #@! TO.N,Net-(R1-Pad1)*
X177894000Y-121158000D03*
G04 #@! TO.P,R1,2*
G04 #@! TO.N,Net-(D41-Pad2)*
X180594000Y-121158000D03*
G04 #@! TD*
G04 #@! TO.P,R2,2*
G04 #@! TO.N,Net-(D1-Pad2)*
X147668000Y-121158000D03*
G04 #@! TO.P,R2,1*
G04 #@! TO.N,+3V3*
X150368000Y-121158000D03*
G04 #@! TD*
D11*
G04 #@! TO.P,SW2,2*
G04 #@! TO.N,Net-(D3-Pad2)*
X36650000Y-50540000D03*
G04 #@! TO.P,SW2,1*
G04 #@! TO.N,/ROW1*
X43000000Y-48000000D03*
G04 #@! TD*
G04 #@! TO.P,SW3,1*
G04 #@! TO.N,/ROW2*
X43000000Y-67000000D03*
G04 #@! TO.P,SW3,2*
G04 #@! TO.N,Net-(D4-Pad2)*
X36650000Y-69540000D03*
G04 #@! TD*
G04 #@! TO.P,SW4,2*
G04 #@! TO.N,Net-(D5-Pad2)*
X36650000Y-88540000D03*
G04 #@! TO.P,SW4,1*
G04 #@! TO.N,/ROW3*
X43000000Y-86000000D03*
G04 #@! TD*
G04 #@! TO.P,SW5,1*
G04 #@! TO.N,/ROW4*
X43000000Y-105000000D03*
G04 #@! TO.P,SW5,2*
G04 #@! TO.N,Net-(D6-Pad2)*
X36650000Y-107540000D03*
G04 #@! TD*
G04 #@! TO.P,SW6,2*
G04 #@! TO.N,Net-(D7-Pad2)*
X55650000Y-31540000D03*
G04 #@! TO.P,SW6,1*
G04 #@! TO.N,/ROW0*
X62000000Y-29000000D03*
G04 #@! TD*
G04 #@! TO.P,SW7,1*
G04 #@! TO.N,/ROW1*
X62000000Y-48000000D03*
G04 #@! TO.P,SW7,2*
G04 #@! TO.N,Net-(D8-Pad2)*
X55650000Y-50540000D03*
G04 #@! TD*
G04 #@! TO.P,SW8,2*
G04 #@! TO.N,Net-(D9-Pad2)*
X55690000Y-69540000D03*
G04 #@! TO.P,SW8,1*
G04 #@! TO.N,/ROW2*
X62040000Y-67000000D03*
G04 #@! TD*
G04 #@! TO.P,SW9,1*
G04 #@! TO.N,/ROW3*
X62000000Y-86000000D03*
G04 #@! TO.P,SW9,2*
G04 #@! TO.N,Net-(D10-Pad2)*
X55650000Y-88540000D03*
G04 #@! TD*
G04 #@! TO.P,SW10,2*
G04 #@! TO.N,Net-(D11-Pad2)*
X55650000Y-107540000D03*
G04 #@! TO.P,SW10,1*
G04 #@! TO.N,/ROW4*
X62000000Y-105000000D03*
G04 #@! TD*
G04 #@! TO.P,SW11,1*
G04 #@! TO.N,/ROW0*
X81000000Y-29000000D03*
G04 #@! TO.P,SW11,2*
G04 #@! TO.N,Net-(D12-Pad2)*
X74650000Y-31540000D03*
G04 #@! TD*
G04 #@! TO.P,SW12,2*
G04 #@! TO.N,Net-(D13-Pad2)*
X74750000Y-50500000D03*
G04 #@! TO.P,SW12,1*
G04 #@! TO.N,/ROW1*
X81100000Y-47960000D03*
G04 #@! TD*
G04 #@! TO.P,SW13,1*
G04 #@! TO.N,/ROW2*
X81040000Y-67000000D03*
G04 #@! TO.P,SW13,2*
G04 #@! TO.N,Net-(D14-Pad2)*
X74690000Y-69540000D03*
G04 #@! TD*
G04 #@! TO.P,SW14,2*
G04 #@! TO.N,Net-(D15-Pad2)*
X74650000Y-88540000D03*
G04 #@! TO.P,SW14,1*
G04 #@! TO.N,/ROW3*
X81000000Y-86000000D03*
G04 #@! TD*
G04 #@! TO.P,SW15,1*
G04 #@! TO.N,/ROW4*
X81000000Y-105000000D03*
G04 #@! TO.P,SW15,2*
G04 #@! TO.N,Net-(D16-Pad2)*
X74650000Y-107540000D03*
G04 #@! TD*
G04 #@! TO.P,SW16,2*
G04 #@! TO.N,Net-(D17-Pad2)*
X93650000Y-31540000D03*
G04 #@! TO.P,SW16,1*
G04 #@! TO.N,/ROW0*
X100000000Y-29000000D03*
G04 #@! TD*
G04 #@! TO.P,SW17,1*
G04 #@! TO.N,/ROW1*
X100000000Y-48000000D03*
G04 #@! TO.P,SW17,2*
G04 #@! TO.N,Net-(D18-Pad2)*
X93650000Y-50540000D03*
G04 #@! TD*
G04 #@! TO.P,SW18,2*
G04 #@! TO.N,Net-(D19-Pad2)*
X93650000Y-69540000D03*
G04 #@! TO.P,SW18,1*
G04 #@! TO.N,/ROW2*
X100000000Y-67000000D03*
G04 #@! TD*
G04 #@! TO.P,SW19,1*
G04 #@! TO.N,/ROW3*
X100000000Y-86000000D03*
G04 #@! TO.P,SW19,2*
G04 #@! TO.N,Net-(D20-Pad2)*
X93650000Y-88540000D03*
G04 #@! TD*
G04 #@! TO.P,SW20,2*
G04 #@! TO.N,Net-(D21-Pad2)*
X93650000Y-107540000D03*
G04 #@! TO.P,SW20,1*
G04 #@! TO.N,/ROW4*
X100000000Y-105000000D03*
G04 #@! TD*
G04 #@! TO.P,SW21,1*
G04 #@! TO.N,/ROW0*
X119000000Y-29000000D03*
G04 #@! TO.P,SW21,2*
G04 #@! TO.N,Net-(D22-Pad2)*
X112650000Y-31540000D03*
G04 #@! TD*
G04 #@! TO.P,SW22,2*
G04 #@! TO.N,Net-(D23-Pad2)*
X112650000Y-50540000D03*
G04 #@! TO.P,SW22,1*
G04 #@! TO.N,/ROW1*
X119000000Y-48000000D03*
G04 #@! TD*
G04 #@! TO.P,SW23,1*
G04 #@! TO.N,/ROW2*
X119100000Y-66960000D03*
G04 #@! TO.P,SW23,2*
G04 #@! TO.N,Net-(D24-Pad2)*
X112750000Y-69500000D03*
G04 #@! TD*
G04 #@! TO.P,SW24,2*
G04 #@! TO.N,Net-(D25-Pad2)*
X112650000Y-88540000D03*
G04 #@! TO.P,SW24,1*
G04 #@! TO.N,/ROW3*
X119000000Y-86000000D03*
G04 #@! TD*
G04 #@! TO.P,SW25,1*
G04 #@! TO.N,/ROW4*
X119000000Y-105000000D03*
G04 #@! TO.P,SW25,2*
G04 #@! TO.N,Net-(D26-Pad2)*
X112650000Y-107540000D03*
G04 #@! TD*
G04 #@! TO.P,SW26,1*
G04 #@! TO.N,/ROW0*
X138100000Y-29000000D03*
G04 #@! TO.P,SW26,2*
G04 #@! TO.N,Net-(D27-Pad2)*
X131750000Y-31540000D03*
G04 #@! TD*
G04 #@! TO.P,SW27,2*
G04 #@! TO.N,Net-(D28-Pad2)*
X131650000Y-50540000D03*
G04 #@! TO.P,SW27,1*
G04 #@! TO.N,/ROW1*
X138000000Y-48000000D03*
G04 #@! TD*
G04 #@! TO.P,SW28,1*
G04 #@! TO.N,/ROW2*
X138000000Y-67000000D03*
G04 #@! TO.P,SW28,2*
G04 #@! TO.N,Net-(D29-Pad2)*
X131650000Y-69540000D03*
G04 #@! TD*
G04 #@! TO.P,SW29,1*
G04 #@! TO.N,/ROW3*
X138000000Y-86000000D03*
G04 #@! TO.P,SW29,2*
G04 #@! TO.N,Net-(D30-Pad2)*
X131650000Y-88540000D03*
G04 #@! TD*
G04 #@! TO.P,SW30,2*
G04 #@! TO.N,Net-(D31-Pad2)*
X131650000Y-107540000D03*
G04 #@! TO.P,SW30,1*
G04 #@! TO.N,/ROW4*
X138000000Y-105000000D03*
G04 #@! TD*
G04 #@! TO.P,SW31,2*
G04 #@! TO.N,Net-(D32-Pad2)*
X150650000Y-31540000D03*
G04 #@! TO.P,SW31,1*
G04 #@! TO.N,/ROW0*
X157000000Y-29000000D03*
G04 #@! TD*
G04 #@! TO.P,SW32,1*
G04 #@! TO.N,/ROW1*
X157000000Y-48000000D03*
G04 #@! TO.P,SW32,2*
G04 #@! TO.N,Net-(D33-Pad2)*
X150650000Y-50540000D03*
G04 #@! TD*
G04 #@! TO.P,SW33,2*
G04 #@! TO.N,Net-(D34-Pad2)*
X150650000Y-69540000D03*
G04 #@! TO.P,SW33,1*
G04 #@! TO.N,/ROW2*
X157000000Y-67000000D03*
G04 #@! TD*
G04 #@! TO.P,SW34,2*
G04 #@! TO.N,Net-(D35-Pad2)*
X150650000Y-88540000D03*
G04 #@! TO.P,SW34,1*
G04 #@! TO.N,/ROW3*
X157000000Y-86000000D03*
G04 #@! TD*
G04 #@! TO.P,SW35,2*
G04 #@! TO.N,Net-(D36-Pad2)*
X160150000Y-107540000D03*
G04 #@! TO.P,SW35,1*
G04 #@! TO.N,/ROW4*
X166500000Y-105000000D03*
G04 #@! TD*
G04 #@! TO.P,SW36,2*
G04 #@! TO.N,Net-(D37-Pad2)*
X169650000Y-31540000D03*
G04 #@! TO.P,SW36,1*
G04 #@! TO.N,/ROW0*
X176000000Y-29000000D03*
G04 #@! TD*
G04 #@! TO.P,SW37,1*
G04 #@! TO.N,/ROW1*
X176000000Y-48000000D03*
G04 #@! TO.P,SW37,2*
G04 #@! TO.N,Net-(D38-Pad2)*
X169650000Y-50540000D03*
G04 #@! TD*
G04 #@! TO.P,SW38,2*
G04 #@! TO.N,Net-(D39-Pad2)*
X169650000Y-69540000D03*
G04 #@! TO.P,SW38,1*
G04 #@! TO.N,/ROW2*
X176000000Y-67000000D03*
G04 #@! TD*
G04 #@! TO.P,SW39,1*
G04 #@! TO.N,/ROW3*
X176000000Y-86000000D03*
G04 #@! TO.P,SW39,2*
G04 #@! TO.N,Net-(D40-Pad2)*
X169650000Y-88540000D03*
G04 #@! TD*
D17*
G04 #@! TO.P,SW_RST,4*
G04 #@! TO.N,N/C*
X146812000Y-58746000D03*
G04 #@! TO.P,SW_RST,3*
X140312000Y-58746000D03*
G04 #@! TO.P,SW_RST,2*
G04 #@! TO.N,Net-(SW40-Pad2)*
X146812000Y-63246000D03*
G04 #@! TO.P,SW_RST,1*
G04 #@! TO.N,GND*
X140312000Y-63246000D03*
G04 #@! TD*
D11*
G04 #@! TO.P,SW41,2*
G04 #@! TO.N,Net-(D42-Pad2)*
X188650000Y-31540000D03*
G04 #@! TO.P,SW41,1*
G04 #@! TO.N,/ROW0*
X195000000Y-29000000D03*
G04 #@! TD*
G04 #@! TO.P,SW42,1*
G04 #@! TO.N,/ROW1*
X195000000Y-48000000D03*
G04 #@! TO.P,SW42,2*
G04 #@! TO.N,Net-(D43-Pad2)*
X188650000Y-50540000D03*
G04 #@! TD*
G04 #@! TO.P,SW43,2*
G04 #@! TO.N,Net-(D44-Pad2)*
X188650000Y-69540000D03*
G04 #@! TO.P,SW43,1*
G04 #@! TO.N,/ROW2*
X195000000Y-67000000D03*
G04 #@! TD*
G04 #@! TO.P,SW44,1*
G04 #@! TO.N,/ROW3*
X195000000Y-86000000D03*
G04 #@! TO.P,SW44,2*
G04 #@! TO.N,Net-(D45-Pad2)*
X188650000Y-88540000D03*
G04 #@! TD*
G04 #@! TO.P,SW45,2*
G04 #@! TO.N,Net-(D46-Pad2)*
X188650000Y-107540000D03*
G04 #@! TO.P,SW45,1*
G04 #@! TO.N,/ROW4*
X195000000Y-105000000D03*
G04 #@! TD*
G04 #@! TO.P,SW46,1*
G04 #@! TO.N,/ROW0*
X214000000Y-29000000D03*
G04 #@! TO.P,SW46,2*
G04 #@! TO.N,Net-(D47-Pad2)*
X207650000Y-31540000D03*
G04 #@! TD*
G04 #@! TO.P,SW47,1*
G04 #@! TO.N,/ROW1*
X214000000Y-48000000D03*
G04 #@! TO.P,SW47,2*
G04 #@! TO.N,Net-(D48-Pad2)*
X207650000Y-50540000D03*
G04 #@! TD*
G04 #@! TO.P,SW48,1*
G04 #@! TO.N,/ROW2*
X214000000Y-67000000D03*
G04 #@! TO.P,SW48,2*
G04 #@! TO.N,Net-(D49-Pad2)*
X207650000Y-69540000D03*
G04 #@! TD*
G04 #@! TO.P,SW49,2*
G04 #@! TO.N,Net-(D50-Pad2)*
X207650000Y-88540000D03*
G04 #@! TO.P,SW49,1*
G04 #@! TO.N,/ROW3*
X214000000Y-86000000D03*
G04 #@! TD*
G04 #@! TO.P,SW50,2*
G04 #@! TO.N,Net-(D51-Pad2)*
X207650000Y-107540000D03*
G04 #@! TO.P,SW50,1*
G04 #@! TO.N,/ROW4*
X214000000Y-105000000D03*
G04 #@! TD*
G04 #@! TO.P,SW51,2*
G04 #@! TO.N,Net-(D52-Pad2)*
X226650000Y-31540000D03*
G04 #@! TO.P,SW51,1*
G04 #@! TO.N,/ROW0*
X233000000Y-29000000D03*
G04 #@! TD*
G04 #@! TO.P,SW52,1*
G04 #@! TO.N,/ROW1*
X233000000Y-48000000D03*
G04 #@! TO.P,SW52,2*
G04 #@! TO.N,Net-(D53-Pad2)*
X226650000Y-50540000D03*
G04 #@! TD*
G04 #@! TO.P,SW53,1*
G04 #@! TO.N,/ROW2*
X233000000Y-67000000D03*
G04 #@! TO.P,SW53,2*
G04 #@! TO.N,Net-(D54-Pad2)*
X226650000Y-69540000D03*
G04 #@! TD*
G04 #@! TO.P,SW54,1*
G04 #@! TO.N,/ROW3*
X233000000Y-86000000D03*
G04 #@! TO.P,SW54,2*
G04 #@! TO.N,Net-(D55-Pad2)*
X226650000Y-88540000D03*
G04 #@! TD*
G04 #@! TO.P,SW55,1*
G04 #@! TO.N,/ROW4*
X233000000Y-105000000D03*
G04 #@! TO.P,SW55,2*
G04 #@! TO.N,Net-(D56-Pad2)*
X226650000Y-107540000D03*
G04 #@! TD*
G04 #@! TO.P,SW56,1*
G04 #@! TO.N,/ROW0*
X252000000Y-29000000D03*
G04 #@! TO.P,SW56,2*
G04 #@! TO.N,Net-(D57-Pad2)*
X245650000Y-31540000D03*
G04 #@! TD*
G04 #@! TO.P,SW57,1*
G04 #@! TO.N,/ROW1*
X252000000Y-48000000D03*
G04 #@! TO.P,SW57,2*
G04 #@! TO.N,Net-(D58-Pad2)*
X245650000Y-50540000D03*
G04 #@! TD*
G04 #@! TO.P,SW58,2*
G04 #@! TO.N,Net-(D59-Pad2)*
X245650000Y-69540000D03*
G04 #@! TO.P,SW58,1*
G04 #@! TO.N,/ROW2*
X252000000Y-67000000D03*
G04 #@! TD*
G04 #@! TO.P,SW59,2*
G04 #@! TO.N,Net-(D60-Pad2)*
X245650000Y-88540000D03*
G04 #@! TO.P,SW59,1*
G04 #@! TO.N,/ROW3*
X252000000Y-86000000D03*
G04 #@! TD*
G04 #@! TO.P,SW60,2*
G04 #@! TO.N,Net-(D61-Pad2)*
X245650000Y-107540000D03*
G04 #@! TO.P,SW60,1*
G04 #@! TO.N,/ROW4*
X252000000Y-105000000D03*
G04 #@! TD*
G04 #@! TO.P,SW61,1*
G04 #@! TO.N,/ROW0*
X271000000Y-29000000D03*
G04 #@! TO.P,SW61,2*
G04 #@! TO.N,Net-(D62-Pad2)*
X264650000Y-31540000D03*
G04 #@! TD*
G04 #@! TO.P,SW62,2*
G04 #@! TO.N,Net-(D63-Pad2)*
X264650000Y-50540000D03*
G04 #@! TO.P,SW62,1*
G04 #@! TO.N,/ROW1*
X271000000Y-48000000D03*
G04 #@! TD*
G04 #@! TO.P,SW63,2*
G04 #@! TO.N,Net-(D64-Pad2)*
X264650000Y-69540000D03*
G04 #@! TO.P,SW63,1*
G04 #@! TO.N,/ROW2*
X271000000Y-67000000D03*
G04 #@! TD*
G04 #@! TO.P,SW65,2*
G04 #@! TO.N,Net-(D66-Pad2)*
X264650000Y-107540000D03*
G04 #@! TO.P,SW65,1*
G04 #@! TO.N,/ROW4*
X271000000Y-105000000D03*
G04 #@! TD*
G04 #@! TO.P,SW66,1*
G04 #@! TO.N,/ROW0*
X290000000Y-29000000D03*
G04 #@! TO.P,SW66,2*
G04 #@! TO.N,Net-(D67-Pad2)*
X283650000Y-31540000D03*
G04 #@! TD*
G04 #@! TO.P,SW67,2*
G04 #@! TO.N,Net-(D68-Pad2)*
X283650000Y-50540000D03*
G04 #@! TO.P,SW67,1*
G04 #@! TO.N,/ROW1*
X290000000Y-48000000D03*
G04 #@! TD*
G04 #@! TO.P,SW68,2*
G04 #@! TO.N,Net-(D69-Pad2)*
X283650000Y-69540000D03*
G04 #@! TO.P,SW68,1*
G04 #@! TO.N,/ROW2*
X290000000Y-67000000D03*
G04 #@! TD*
G04 #@! TO.P,SW69,2*
G04 #@! TO.N,Net-(D70-Pad2)*
X283690000Y-88460000D03*
G04 #@! TO.P,SW69,1*
G04 #@! TO.N,/ROW3*
X290040000Y-85920000D03*
G04 #@! TD*
G04 #@! TO.P,SW70,1*
G04 #@! TO.N,/ROW4*
X290000000Y-105000000D03*
G04 #@! TO.P,SW70,2*
G04 #@! TO.N,Net-(D71-Pad2)*
X283650000Y-107540000D03*
G04 #@! TD*
D17*
G04 #@! TO.P,SW_BOOT0,1*
G04 #@! TO.N,+3V3*
X164084000Y-62992000D03*
G04 #@! TO.P,SW_BOOT0,2*
G04 #@! TO.N,Net-(R1-Pad1)*
X170584000Y-62992000D03*
G04 #@! TO.P,SW_BOOT0,3*
G04 #@! TO.N,N/C*
X164084000Y-58492000D03*
G04 #@! TO.P,SW_BOOT0,4*
X170584000Y-58492000D03*
G04 #@! TD*
D18*
G04 #@! TO.N,GND*
X160194032Y-112047089D03*
X175260000Y-118110000D03*
X162560000Y-100330000D03*
X165100000Y-101600000D03*
X48260000Y-27940000D03*
X149860000Y-109220000D03*
X145825910Y-112217172D03*
X167640000Y-113030000D03*
X139861999Y-60960000D03*
X137160000Y-60960000D03*
X161290000Y-118110000D03*
X149860000Y-116280040D03*
X45720000Y-26670000D03*
X158750000Y-55880000D03*
X158750000Y-52070000D03*
G04 #@! TO.N,+3V3*
X146050000Y-110490000D03*
X144842643Y-112034990D03*
X146050000Y-118110000D03*
X142240000Y-121920000D03*
X160020000Y-118110000D03*
X161290000Y-109220000D03*
X158878000Y-109220000D03*
G04 #@! TO.N,/COL0*
X157675858Y-114495858D03*
G04 #@! TO.N,/COL1*
X48260000Y-46990000D03*
X48260000Y-48725000D03*
X48260000Y-66040000D03*
X48260000Y-67725000D03*
X48260000Y-85090000D03*
X48260000Y-86725000D03*
X157632473Y-109404294D03*
X48260000Y-104140000D03*
X48260000Y-105725000D03*
G04 #@! TO.N,Net-(D7-Pad2)*
X55880000Y-27940000D03*
G04 #@! TO.N,Net-(D8-Pad2)*
X52070000Y-46990000D03*
G04 #@! TO.N,Net-(D9-Pad2)*
X52070000Y-66040000D03*
G04 #@! TO.N,Net-(D10-Pad2)*
X52070000Y-85090000D03*
G04 #@! TO.N,Net-(D11-Pad2)*
X52070000Y-104140000D03*
G04 #@! TO.N,/COL2*
X67310000Y-46990000D03*
X67310000Y-48725000D03*
X67310000Y-66040000D03*
X67310000Y-67725000D03*
X67310000Y-85090000D03*
X67310000Y-86725000D03*
X67310000Y-104140000D03*
X67310000Y-105725000D03*
X157480000Y-111760000D03*
G04 #@! TO.N,Net-(D12-Pad2)*
X71120000Y-27940000D03*
G04 #@! TO.N,Net-(D13-Pad2)*
X71120000Y-46990000D03*
G04 #@! TO.N,Net-(D14-Pad2)*
X71120000Y-66040000D03*
G04 #@! TO.N,Net-(D15-Pad2)*
X71120000Y-85090000D03*
G04 #@! TO.N,Net-(D16-Pad2)*
X71120000Y-104140000D03*
G04 #@! TO.N,/COL3*
X86360000Y-46990000D03*
X86360000Y-48685000D03*
X86360000Y-66040000D03*
X86360000Y-67725000D03*
X86360000Y-85090000D03*
X86360000Y-86725000D03*
X86360000Y-104140000D03*
X86360000Y-105725000D03*
X156210000Y-113030000D03*
G04 #@! TO.N,Net-(D17-Pad2)*
X90170000Y-27940000D03*
G04 #@! TO.N,Net-(D18-Pad2)*
X90170000Y-46990000D03*
G04 #@! TO.N,Net-(D19-Pad2)*
X90170000Y-66040000D03*
G04 #@! TO.N,Net-(D20-Pad2)*
X90170000Y-85090000D03*
G04 #@! TO.N,Net-(D21-Pad2)*
X90170000Y-104140000D03*
G04 #@! TO.N,Net-(D22-Pad2)*
X109220000Y-27940000D03*
G04 #@! TO.N,/COL4*
X105410000Y-46990000D03*
X105410000Y-48725000D03*
X105410000Y-66040000D03*
X105410000Y-67725000D03*
X105410000Y-85090000D03*
X105410000Y-86725000D03*
X154940000Y-113030000D03*
X105410000Y-104140000D03*
X105410000Y-105725000D03*
G04 #@! TO.N,Net-(D23-Pad2)*
X109220000Y-46990000D03*
G04 #@! TO.N,Net-(D24-Pad2)*
X109220000Y-66040000D03*
G04 #@! TO.N,Net-(D25-Pad2)*
X109220000Y-85090000D03*
G04 #@! TO.N,Net-(D26-Pad2)*
X109220000Y-104140000D03*
G04 #@! TO.N,/COL5*
X124460000Y-46990000D03*
X124460000Y-48725000D03*
X124460000Y-66040000D03*
X124460000Y-67685000D03*
X124460000Y-85090000D03*
X124460000Y-86725000D03*
X124460000Y-104140000D03*
X124460000Y-105725000D03*
X153670000Y-113030000D03*
G04 #@! TO.N,Net-(D27-Pad2)*
X128270000Y-27940000D03*
G04 #@! TO.N,Net-(D28-Pad2)*
X128270000Y-46990000D03*
G04 #@! TO.N,Net-(D29-Pad2)*
X128270000Y-66040000D03*
G04 #@! TO.N,Net-(D30-Pad2)*
X128270000Y-85090000D03*
G04 #@! TO.N,Net-(D31-Pad2)*
X128270000Y-104140000D03*
G04 #@! TO.N,/COL6*
X143510000Y-46990000D03*
X143510000Y-48725000D03*
X143510000Y-66040000D03*
X143510000Y-67725000D03*
X143510000Y-85090000D03*
X143510000Y-86725000D03*
X143510000Y-104140000D03*
X143510000Y-105725000D03*
X151130000Y-106680000D03*
G04 #@! TO.N,Net-(D32-Pad2)*
X147320000Y-27940000D03*
G04 #@! TO.N,Net-(D33-Pad2)*
X147320000Y-46990000D03*
G04 #@! TO.N,Net-(D34-Pad2)*
X147320000Y-66040000D03*
G04 #@! TO.N,Net-(D35-Pad2)*
X147320000Y-85090000D03*
G04 #@! TO.N,Net-(D36-Pad2)*
X144780000Y-101600000D03*
G04 #@! TO.N,/COL7*
X162560000Y-46990000D03*
X162560000Y-48725000D03*
X162560000Y-66040000D03*
X162560000Y-67725000D03*
X162560000Y-85090000D03*
X162560000Y-86725000D03*
X162560000Y-88900000D03*
G04 #@! TO.N,Net-(D37-Pad2)*
X166370000Y-27940000D03*
G04 #@! TO.N,Net-(D38-Pad2)*
X166370000Y-46990000D03*
G04 #@! TO.N,Net-(D39-Pad2)*
X166370000Y-66040000D03*
G04 #@! TO.N,Net-(D40-Pad2)*
X166370000Y-85090000D03*
G04 #@! TO.N,Net-(D42-Pad2)*
X185420000Y-27940000D03*
G04 #@! TO.N,Net-(D43-Pad2)*
X185420000Y-46990000D03*
G04 #@! TO.N,Net-(D44-Pad2)*
X185420000Y-66040000D03*
G04 #@! TO.N,Net-(D45-Pad2)*
X185420000Y-85090000D03*
G04 #@! TO.N,Net-(D46-Pad2)*
X185420000Y-104140000D03*
G04 #@! TO.N,Net-(D47-Pad2)*
X204470000Y-27940000D03*
G04 #@! TO.N,/COL9*
X200660000Y-46990000D03*
X200660000Y-48725000D03*
X200660000Y-66040000D03*
X200660000Y-67725000D03*
X200660000Y-85090000D03*
X200660000Y-86725000D03*
X200660000Y-104140000D03*
X200660000Y-105725000D03*
X150475000Y-110347576D03*
G04 #@! TO.N,Net-(D48-Pad2)*
X204470000Y-46990000D03*
G04 #@! TO.N,Net-(D49-Pad2)*
X204470000Y-66040000D03*
G04 #@! TO.N,Net-(D50-Pad2)*
X204470000Y-85090000D03*
G04 #@! TO.N,Net-(D51-Pad2)*
X204470000Y-104140000D03*
G04 #@! TO.N,Net-(D52-Pad2)*
X223520000Y-27940000D03*
G04 #@! TO.N,/COL10*
X219710000Y-46990000D03*
X219710000Y-48725000D03*
X219710000Y-66040000D03*
X219710000Y-67725000D03*
X219710000Y-85090000D03*
X219710000Y-86725000D03*
X219710000Y-104140000D03*
X219710000Y-105725000D03*
X156210000Y-116840000D03*
G04 #@! TO.N,Net-(D53-Pad2)*
X223520000Y-46990000D03*
G04 #@! TO.N,Net-(D54-Pad2)*
X223520000Y-66040000D03*
G04 #@! TO.N,Net-(D55-Pad2)*
X223520000Y-85090000D03*
G04 #@! TO.N,Net-(D56-Pad2)*
X223520000Y-104140000D03*
G04 #@! TO.N,/COL11*
X238760000Y-46990000D03*
X238760000Y-48725000D03*
X238760000Y-66040000D03*
X238760000Y-67725000D03*
X238760000Y-85090000D03*
X238760000Y-86725000D03*
X238760000Y-104140000D03*
X238760000Y-105725000D03*
X154940000Y-118110000D03*
G04 #@! TO.N,Net-(D57-Pad2)*
X242570000Y-27940000D03*
G04 #@! TO.N,Net-(D58-Pad2)*
X242570000Y-46990000D03*
G04 #@! TO.N,Net-(D59-Pad2)*
X242570000Y-66040000D03*
G04 #@! TO.N,Net-(D60-Pad2)*
X242570000Y-85090000D03*
G04 #@! TO.N,Net-(D61-Pad2)*
X242570000Y-104140000D03*
G04 #@! TO.N,Net-(D62-Pad2)*
X261620000Y-27940000D03*
G04 #@! TO.N,/COL12*
X257810000Y-46990000D03*
X257810000Y-48725000D03*
X257810000Y-66040000D03*
X257810000Y-67725000D03*
X257810000Y-85090000D03*
X257810000Y-86725000D03*
X257810000Y-104140000D03*
X257810000Y-105725000D03*
X142240000Y-107950000D03*
X139700000Y-107950000D03*
X158750000Y-116840000D03*
G04 #@! TO.N,Net-(D63-Pad2)*
X261620000Y-46990000D03*
G04 #@! TO.N,Net-(D64-Pad2)*
X261620000Y-66040000D03*
G04 #@! TO.N,Net-(D65-Pad2)*
X261620000Y-85090000D03*
G04 #@! TO.N,Net-(D66-Pad2)*
X261620000Y-104140000D03*
G04 #@! TO.N,Net-(D67-Pad2)*
X280670000Y-27940000D03*
G04 #@! TO.N,/COL13*
X276860000Y-46990000D03*
X276860000Y-48725000D03*
X276860000Y-66040000D03*
X276860000Y-67725000D03*
X276860000Y-85090000D03*
X276860000Y-86725000D03*
X276860000Y-104140000D03*
X276860000Y-105725000D03*
X199390000Y-101600000D03*
X201930000Y-101600000D03*
X218440000Y-101600000D03*
X220980000Y-101600000D03*
X237490000Y-101600000D03*
X240030000Y-101600000D03*
X256540000Y-101600000D03*
X259080000Y-101600000D03*
X275590000Y-104140000D03*
X275590000Y-106680000D03*
X153670000Y-97790000D03*
G04 #@! TO.N,Net-(D68-Pad2)*
X280670000Y-46990000D03*
G04 #@! TO.N,Net-(D69-Pad2)*
X280670000Y-66040000D03*
G04 #@! TO.N,Net-(D70-Pad2)*
X280670000Y-85090000D03*
G04 #@! TO.N,Net-(D71-Pad2)*
X280670000Y-104140000D03*
G04 #@! TO.N,/VBUS*
X52638078Y-26669999D03*
G04 #@! TO.N,Net-(J1-Pad2)*
X142240000Y-104140000D03*
X139700000Y-102870000D03*
X58420000Y-27395000D03*
G04 #@! TO.N,Net-(J1-Pad3)*
X142240000Y-102870000D03*
X140970000Y-101600000D03*
X54610000Y-26670000D03*
G04 #@! TO.N,Net-(R1-Pad1)*
X162560000Y-99060000D03*
X165100000Y-99060000D03*
X176530000Y-119380000D03*
X165100000Y-96520000D03*
X165100000Y-86725000D03*
X165316526Y-84365000D03*
X168910000Y-67725000D03*
G04 #@! TO.N,/ROW4*
X153633601Y-104169457D03*
G04 #@! TO.N,Net-(SW40-Pad2)*
X163830000Y-96520000D03*
X154940000Y-86725000D03*
X153670000Y-85090000D03*
X147320000Y-67725000D03*
G04 #@! TO.N,Net-(SW_LAYOUT1-Pad3)*
X157480000Y-91440000D03*
X162560000Y-101600000D03*
G04 #@! TO.N,Net-(SW_LAYOUT1-Pad4)*
X158750000Y-104140000D03*
X151130000Y-96520000D03*
G04 #@! TO.N,/SWDIO*
X145976347Y-102943653D03*
X146236992Y-100330000D03*
X151130000Y-76200000D03*
X159150001Y-73660000D03*
G04 #@! TO.N,/COL8*
X181610000Y-46990000D03*
X181610000Y-48725000D03*
X181610000Y-66040000D03*
X181610000Y-67725000D03*
X181610000Y-85090000D03*
X181610000Y-86725000D03*
X151130000Y-109220000D03*
X182880000Y-96520000D03*
X182880000Y-99060000D03*
X181610000Y-104140000D03*
X181610000Y-105725000D03*
G04 #@! TO.N,Net-(J1-Pad6)*
X55880000Y-24130000D03*
X44450000Y-24130000D03*
G04 #@! TD*
D19*
G04 #@! TO.N,GND*
X151936286Y-118110000D02*
X152168143Y-118341857D01*
X150368000Y-118110000D02*
X151936286Y-118110000D01*
X161577089Y-112047089D02*
X162560000Y-113030000D01*
X160194032Y-112047089D02*
X161577089Y-112047089D01*
X177894000Y-118110000D02*
X175260000Y-118110000D01*
X163830000Y-101600000D02*
X165100000Y-101600000D01*
X162560000Y-100330000D02*
X163830000Y-101600000D01*
X48738000Y-27462000D02*
X48260000Y-27940000D01*
X48738000Y-25182000D02*
X48738000Y-27462000D01*
X148823082Y-109220000D02*
X149860000Y-109220000D01*
X145825910Y-112217172D02*
X148823082Y-109220000D01*
X162560000Y-113030000D02*
X167640000Y-113030000D01*
X139861999Y-60960000D02*
X137160000Y-60960000D01*
X160564999Y-117384999D02*
X161290000Y-118110000D01*
X152168143Y-118341857D02*
X152661287Y-118835001D01*
X152661287Y-118835001D02*
X158221997Y-118835001D01*
X158221997Y-118835001D02*
X159671999Y-117384999D01*
X159671999Y-117384999D02*
X160564999Y-117384999D01*
X149860000Y-117602000D02*
X150368000Y-118110000D01*
X149860000Y-116280040D02*
X149860000Y-117602000D01*
X48738000Y-25657000D02*
X47725000Y-26670000D01*
X47725000Y-26670000D02*
X45720000Y-26670000D01*
X48738000Y-25182000D02*
X48738000Y-25657000D01*
X158750000Y-55880000D02*
X158750000Y-52070000D01*
G04 #@! TO.N,+3V3*
X146050000Y-110827633D02*
X144842643Y-112034990D01*
X146050000Y-110490000D02*
X146050000Y-110827633D01*
D20*
X150268000Y-121158000D02*
X150368000Y-121158000D01*
X146607998Y-122308000D02*
X149118000Y-122308000D01*
X149118000Y-122308000D02*
X150268000Y-121158000D01*
X146050000Y-121750002D02*
X146607998Y-122308000D01*
X146050000Y-118110000D02*
X146050000Y-121750002D01*
X142409998Y-121750002D02*
X142240000Y-121920000D01*
X146050000Y-121750002D02*
X142409998Y-121750002D01*
X156972000Y-121158000D02*
X160020000Y-118110000D01*
X150368000Y-121158000D02*
X156972000Y-121158000D01*
X161290000Y-109220000D02*
X158878000Y-109220000D01*
D19*
G04 #@! TO.N,Net-(D1-Pad2)*
X147668000Y-118110000D02*
X147668000Y-121158000D01*
G04 #@! TO.N,/COL0*
X29210000Y-48950000D02*
X29210000Y-49650000D01*
X28284999Y-48024999D02*
X29210000Y-48950000D01*
X28284999Y-32105001D02*
X28284999Y-48024999D01*
X29210000Y-31180000D02*
X28284999Y-32105001D01*
X29210000Y-30480000D02*
X29210000Y-31180000D01*
X29210000Y-68260000D02*
X29210000Y-68960000D01*
X28284999Y-67334999D02*
X29210000Y-68260000D01*
X28284999Y-51275001D02*
X28284999Y-67334999D01*
X29210000Y-50350000D02*
X28284999Y-51275001D01*
X29210000Y-49650000D02*
X29210000Y-50350000D01*
X29210000Y-87310000D02*
X29210000Y-88010000D01*
X28284999Y-86384999D02*
X29210000Y-87310000D01*
X28284999Y-70585001D02*
X28284999Y-86384999D01*
X29210000Y-69660000D02*
X28284999Y-70585001D01*
X29210000Y-68960000D02*
X29210000Y-69660000D01*
X29210000Y-106740000D02*
X29210000Y-107440000D01*
X28284999Y-105814999D02*
X29210000Y-106740000D01*
X28284999Y-89635001D02*
X28284999Y-105814999D01*
X29210000Y-88710000D02*
X28284999Y-89635001D01*
X29210000Y-88010000D02*
X29210000Y-88710000D01*
X30060000Y-107440000D02*
X29210000Y-107440000D01*
X38175040Y-115555040D02*
X30060000Y-107440000D01*
X156227780Y-115555040D02*
X38175040Y-115555040D01*
X156616676Y-115555040D02*
X157675858Y-114495858D01*
X156227780Y-115555040D02*
X156616676Y-115555040D01*
G04 #@! TO.N,Net-(D2-Pad2)*
X32290000Y-27180000D02*
X36650000Y-31540000D01*
X29210000Y-27180000D02*
X32290000Y-27180000D01*
G04 #@! TO.N,Net-(D3-Pad2)*
X32460000Y-46350000D02*
X36650000Y-50540000D01*
X29210000Y-46350000D02*
X32460000Y-46350000D01*
G04 #@! TO.N,Net-(D4-Pad2)*
X32770000Y-65660000D02*
X36650000Y-69540000D01*
X29210000Y-65660000D02*
X32770000Y-65660000D01*
G04 #@! TO.N,Net-(D5-Pad2)*
X32820000Y-84710000D02*
X36650000Y-88540000D01*
X29210000Y-84710000D02*
X32820000Y-84710000D01*
G04 #@! TO.N,Net-(D6-Pad2)*
X33250000Y-104140000D02*
X36650000Y-107540000D01*
X29210000Y-104140000D02*
X33250000Y-104140000D01*
G04 #@! TO.N,/COL1*
X48260000Y-33084000D02*
X48260000Y-46990000D01*
X49784000Y-31560000D02*
X48260000Y-33084000D01*
X49784000Y-30860000D02*
X49784000Y-31560000D01*
X48599000Y-48725000D02*
X49784000Y-49910000D01*
X48260000Y-48725000D02*
X48599000Y-48725000D01*
X48260000Y-52134000D02*
X48260000Y-66040000D01*
X49784000Y-50610000D02*
X48260000Y-52134000D01*
X49784000Y-49910000D02*
X49784000Y-50610000D01*
X48549000Y-67725000D02*
X49784000Y-68960000D01*
X48260000Y-67725000D02*
X48549000Y-67725000D01*
X48260000Y-71184000D02*
X48260000Y-85090000D01*
X49784000Y-69660000D02*
X48260000Y-71184000D01*
X49784000Y-68960000D02*
X49784000Y-69660000D01*
X48625000Y-86725000D02*
X49784000Y-87884000D01*
X48260000Y-86725000D02*
X48625000Y-86725000D01*
X50634000Y-107060000D02*
X49784000Y-107060000D01*
X156041380Y-115105030D02*
X58679030Y-115105030D01*
X58679030Y-115105030D02*
X50634000Y-107060000D01*
X158750000Y-112396410D02*
X156041380Y-115105030D01*
X158750000Y-110521821D02*
X157632473Y-109404294D01*
X158750000Y-112396410D02*
X158750000Y-110521821D01*
X48260000Y-90108000D02*
X48260000Y-104140000D01*
X49784000Y-88584000D02*
X48260000Y-90108000D01*
X49784000Y-87884000D02*
X49784000Y-88584000D01*
X48449000Y-105725000D02*
X49784000Y-107060000D01*
X48260000Y-105725000D02*
X48449000Y-105725000D01*
G04 #@! TO.N,Net-(D7-Pad2)*
X50164000Y-27940000D02*
X49784000Y-27560000D01*
X55880000Y-27940000D02*
X50164000Y-27940000D01*
G04 #@! TO.N,Net-(D8-Pad2)*
X50164000Y-46990000D02*
X49784000Y-46610000D01*
X52070000Y-46990000D02*
X50164000Y-46990000D01*
G04 #@! TO.N,Net-(D9-Pad2)*
X50164000Y-66040000D02*
X49784000Y-65660000D01*
X52070000Y-66040000D02*
X50164000Y-66040000D01*
G04 #@! TO.N,Net-(D10-Pad2)*
X50290000Y-85090000D02*
X49784000Y-84584000D01*
X52070000Y-85090000D02*
X50290000Y-85090000D01*
G04 #@! TO.N,Net-(D11-Pad2)*
X50164000Y-104140000D02*
X49784000Y-103760000D01*
X52070000Y-104140000D02*
X50164000Y-104140000D01*
G04 #@! TO.N,/COL2*
X67310000Y-33084000D02*
X67310000Y-46990000D01*
X68834000Y-31560000D02*
X67310000Y-33084000D01*
X68834000Y-30860000D02*
X68834000Y-31560000D01*
X67649000Y-48725000D02*
X68834000Y-49910000D01*
X67310000Y-48725000D02*
X67649000Y-48725000D01*
X67310000Y-52134000D02*
X67310000Y-66040000D01*
X68834000Y-50610000D02*
X67310000Y-52134000D01*
X68834000Y-49910000D02*
X68834000Y-50610000D01*
X67599000Y-67725000D02*
X68834000Y-68960000D01*
X67310000Y-67725000D02*
X67599000Y-67725000D01*
X67310000Y-71184000D02*
X67310000Y-85090000D01*
X68834000Y-69660000D02*
X67310000Y-71184000D01*
X68834000Y-68960000D02*
X68834000Y-69660000D01*
X67549000Y-86725000D02*
X68834000Y-88010000D01*
X67310000Y-86725000D02*
X67549000Y-86725000D01*
X68834000Y-88710000D02*
X67310000Y-90234000D01*
X67310000Y-90234000D02*
X67310000Y-104140000D01*
X68834000Y-88010000D02*
X68834000Y-88710000D01*
X67499000Y-105725000D02*
X68834000Y-107060000D01*
X67310000Y-105725000D02*
X67499000Y-105725000D01*
X77279020Y-114655020D02*
X69684000Y-107060000D01*
X69684000Y-107060000D02*
X68834000Y-107060000D01*
X157480000Y-113030000D02*
X155854980Y-114655020D01*
X155854980Y-114655020D02*
X77279020Y-114655020D01*
X157480000Y-111760000D02*
X157480000Y-113030000D01*
G04 #@! TO.N,Net-(D12-Pad2)*
X69214000Y-27940000D02*
X68834000Y-27560000D01*
X71120000Y-27940000D02*
X69214000Y-27940000D01*
G04 #@! TO.N,Net-(D13-Pad2)*
X69214000Y-46990000D02*
X68834000Y-46610000D01*
X71120000Y-46990000D02*
X69214000Y-46990000D01*
G04 #@! TO.N,Net-(D14-Pad2)*
X69214000Y-66040000D02*
X68834000Y-65660000D01*
X71120000Y-66040000D02*
X69214000Y-66040000D01*
G04 #@! TO.N,Net-(D15-Pad2)*
X69214000Y-85090000D02*
X68834000Y-84710000D01*
X71120000Y-85090000D02*
X69214000Y-85090000D01*
G04 #@! TO.N,Net-(D16-Pad2)*
X69214000Y-104140000D02*
X68834000Y-103760000D01*
X71120000Y-104140000D02*
X69214000Y-104140000D01*
G04 #@! TO.N,/COL3*
X86360000Y-33084000D02*
X86360000Y-46990000D01*
X87884000Y-31560000D02*
X86360000Y-33084000D01*
X87884000Y-30860000D02*
X87884000Y-31560000D01*
X86787000Y-48685000D02*
X87884000Y-49782000D01*
X86360000Y-48685000D02*
X86787000Y-48685000D01*
X86360000Y-52006000D02*
X86360000Y-66040000D01*
X87884000Y-50482000D02*
X86360000Y-52006000D01*
X87884000Y-49782000D02*
X87884000Y-50482000D01*
X86649000Y-67725000D02*
X87884000Y-68960000D01*
X86360000Y-67725000D02*
X86649000Y-67725000D01*
X86360000Y-71184000D02*
X86360000Y-85090000D01*
X87884000Y-69660000D02*
X86360000Y-71184000D01*
X87884000Y-68960000D02*
X87884000Y-69660000D01*
X86599000Y-86725000D02*
X87884000Y-88010000D01*
X86360000Y-86725000D02*
X86599000Y-86725000D01*
X86360000Y-90234000D02*
X86360000Y-104140000D01*
X87884000Y-88710000D02*
X86360000Y-90234000D01*
X87884000Y-88010000D02*
X87884000Y-88710000D01*
X86675000Y-105725000D02*
X87884000Y-106934000D01*
X86360000Y-105725000D02*
X86675000Y-105725000D01*
X88734000Y-106934000D02*
X87884000Y-106934000D01*
X155034990Y-114205010D02*
X96005010Y-114205010D01*
X96005010Y-114205010D02*
X88734000Y-106934000D01*
X156210000Y-113030000D02*
X155034990Y-114205010D01*
G04 #@! TO.N,Net-(D17-Pad2)*
X88264000Y-27940000D02*
X87884000Y-27560000D01*
X90170000Y-27940000D02*
X88264000Y-27940000D01*
G04 #@! TO.N,Net-(D18-Pad2)*
X88392000Y-46990000D02*
X87884000Y-46482000D01*
X90170000Y-46990000D02*
X88392000Y-46990000D01*
G04 #@! TO.N,Net-(D19-Pad2)*
X88264000Y-66040000D02*
X87884000Y-65660000D01*
X90170000Y-66040000D02*
X88264000Y-66040000D01*
G04 #@! TO.N,Net-(D20-Pad2)*
X88264000Y-85090000D02*
X87884000Y-84710000D01*
X90170000Y-85090000D02*
X88264000Y-85090000D01*
G04 #@! TO.N,Net-(D21-Pad2)*
X88390000Y-104140000D02*
X87884000Y-103634000D01*
X90170000Y-104140000D02*
X88390000Y-104140000D01*
G04 #@! TO.N,Net-(D22-Pad2)*
X107314000Y-27940000D02*
X106934000Y-27560000D01*
X109220000Y-27940000D02*
X107314000Y-27940000D01*
G04 #@! TO.N,/COL4*
X105410000Y-33084000D02*
X105410000Y-46990000D01*
X106934000Y-31560000D02*
X105410000Y-33084000D01*
X106934000Y-30860000D02*
X106934000Y-31560000D01*
X105749000Y-48725000D02*
X106934000Y-49910000D01*
X105410000Y-48725000D02*
X105749000Y-48725000D01*
X106934000Y-50610000D02*
X105410000Y-52134000D01*
X105410000Y-52134000D02*
X105410000Y-66040000D01*
X106934000Y-49910000D02*
X106934000Y-50610000D01*
X105699000Y-67725000D02*
X106934000Y-68960000D01*
X105410000Y-67725000D02*
X105699000Y-67725000D01*
X106934000Y-69660000D02*
X105410000Y-71184000D01*
X105410000Y-71184000D02*
X105410000Y-85090000D01*
X106934000Y-68960000D02*
X106934000Y-69660000D01*
X105777000Y-86725000D02*
X106934000Y-87882000D01*
X105410000Y-86725000D02*
X105777000Y-86725000D01*
X154214999Y-113755001D02*
X114607001Y-113755001D01*
X107784000Y-106932000D02*
X106934000Y-106932000D01*
X114607001Y-113755001D02*
X107784000Y-106932000D01*
X154940000Y-113030000D02*
X154214999Y-113755001D01*
X105410000Y-90106000D02*
X105410000Y-104140000D01*
X106934000Y-88582000D02*
X105410000Y-90106000D01*
X106934000Y-87882000D02*
X106934000Y-88582000D01*
X105727000Y-105725000D02*
X106934000Y-106932000D01*
X105410000Y-105725000D02*
X105727000Y-105725000D01*
G04 #@! TO.N,Net-(D23-Pad2)*
X107314000Y-46990000D02*
X106934000Y-46610000D01*
X109220000Y-46990000D02*
X107314000Y-46990000D01*
G04 #@! TO.N,Net-(D24-Pad2)*
X107314000Y-66040000D02*
X106934000Y-65660000D01*
X109220000Y-66040000D02*
X107314000Y-66040000D01*
G04 #@! TO.N,Net-(D25-Pad2)*
X107442000Y-85090000D02*
X106934000Y-84582000D01*
X109220000Y-85090000D02*
X107442000Y-85090000D01*
G04 #@! TO.N,Net-(D26-Pad2)*
X107442000Y-104140000D02*
X106934000Y-103632000D01*
X109220000Y-104140000D02*
X107442000Y-104140000D01*
G04 #@! TO.N,/COL5*
X124460000Y-33084000D02*
X124460000Y-46990000D01*
X125984000Y-31560000D02*
X124460000Y-33084000D01*
X125984000Y-30860000D02*
X125984000Y-31560000D01*
X124799000Y-48725000D02*
X125984000Y-49910000D01*
X124460000Y-48725000D02*
X124799000Y-48725000D01*
X124460000Y-52134000D02*
X124460000Y-66040000D01*
X125984000Y-50610000D02*
X124460000Y-52134000D01*
X125984000Y-49910000D02*
X125984000Y-50610000D01*
X124709000Y-67685000D02*
X125984000Y-68960000D01*
X124460000Y-67685000D02*
X124709000Y-67685000D01*
X124460000Y-71184000D02*
X124460000Y-85090000D01*
X125984000Y-69660000D02*
X124460000Y-71184000D01*
X125984000Y-68960000D02*
X125984000Y-69660000D01*
X124699000Y-86725000D02*
X125984000Y-88010000D01*
X124460000Y-86725000D02*
X124699000Y-86725000D01*
X124460000Y-90234000D02*
X124460000Y-104140000D01*
X125984000Y-88710000D02*
X124460000Y-90234000D01*
X125984000Y-88010000D02*
X125984000Y-88710000D01*
X124460000Y-105725000D02*
X124903000Y-105725000D01*
X124903000Y-105725000D02*
X125984000Y-106806000D01*
X126134000Y-106806000D02*
X125984000Y-106806000D01*
X132080000Y-112752000D02*
X126134000Y-106806000D01*
X132080000Y-112752000D02*
X132358000Y-113030000D01*
X132358000Y-113030000D02*
X153670000Y-113030000D01*
G04 #@! TO.N,Net-(D27-Pad2)*
X126364000Y-27940000D02*
X125984000Y-27560000D01*
X128270000Y-27940000D02*
X126364000Y-27940000D01*
G04 #@! TO.N,Net-(D28-Pad2)*
X126364000Y-46990000D02*
X125984000Y-46610000D01*
X128270000Y-46990000D02*
X126364000Y-46990000D01*
G04 #@! TO.N,Net-(D29-Pad2)*
X126364000Y-66040000D02*
X125984000Y-65660000D01*
X128270000Y-66040000D02*
X126364000Y-66040000D01*
G04 #@! TO.N,Net-(D30-Pad2)*
X126364000Y-85090000D02*
X125984000Y-84710000D01*
X128270000Y-85090000D02*
X126364000Y-85090000D01*
G04 #@! TO.N,Net-(D31-Pad2)*
X126618000Y-104140000D02*
X125984000Y-103506000D01*
X128270000Y-104140000D02*
X126618000Y-104140000D01*
G04 #@! TO.N,/COL6*
X143510000Y-33084000D02*
X143510000Y-46990000D01*
X145034000Y-31560000D02*
X143510000Y-33084000D01*
X145034000Y-30860000D02*
X145034000Y-31560000D01*
X143849000Y-48725000D02*
X145034000Y-49910000D01*
X143510000Y-48725000D02*
X143849000Y-48725000D01*
X143510000Y-52134000D02*
X143510000Y-66040000D01*
X145034000Y-50610000D02*
X143510000Y-52134000D01*
X145034000Y-49910000D02*
X145034000Y-50610000D01*
X143799000Y-67725000D02*
X145034000Y-68960000D01*
X143510000Y-67725000D02*
X143799000Y-67725000D01*
X143510000Y-71184000D02*
X143510000Y-85090000D01*
X145034000Y-69660000D02*
X143510000Y-71184000D01*
X145034000Y-68960000D02*
X145034000Y-69660000D01*
X143749000Y-86725000D02*
X145034000Y-88010000D01*
X143510000Y-86725000D02*
X143749000Y-86725000D01*
X143510000Y-90234000D02*
X143510000Y-104140000D01*
X145034000Y-88710000D02*
X143510000Y-90234000D01*
X145034000Y-88010000D02*
X145034000Y-88710000D01*
X143510000Y-105790000D02*
X144780000Y-107060000D01*
X143510000Y-105725000D02*
X143510000Y-105790000D01*
X145160000Y-106680000D02*
X144780000Y-107060000D01*
X151130000Y-106680000D02*
X145160000Y-106680000D01*
G04 #@! TO.N,Net-(D32-Pad2)*
X145414000Y-27940000D02*
X145034000Y-27560000D01*
X147320000Y-27940000D02*
X145414000Y-27940000D01*
G04 #@! TO.N,Net-(D33-Pad2)*
X145414000Y-46990000D02*
X145034000Y-46610000D01*
X147320000Y-46990000D02*
X145414000Y-46990000D01*
G04 #@! TO.N,Net-(D34-Pad2)*
X145414000Y-66040000D02*
X145034000Y-65660000D01*
X147320000Y-66040000D02*
X145414000Y-66040000D01*
G04 #@! TO.N,Net-(D35-Pad2)*
X145414000Y-85090000D02*
X145034000Y-84710000D01*
X147320000Y-85090000D02*
X145414000Y-85090000D01*
G04 #@! TO.N,Net-(D36-Pad2)*
X144780000Y-101600000D02*
X144780000Y-103760000D01*
G04 #@! TO.N,/COL7*
X162899000Y-48725000D02*
X164084000Y-49910000D01*
X162560000Y-48725000D02*
X162899000Y-48725000D01*
X162560000Y-52134000D02*
X162560000Y-66040000D01*
X164084000Y-50610000D02*
X162560000Y-52134000D01*
X164084000Y-49910000D02*
X164084000Y-50610000D01*
X162977000Y-67725000D02*
X164084000Y-68832000D01*
X162560000Y-67725000D02*
X162977000Y-67725000D01*
X162560000Y-71056000D02*
X162560000Y-85090000D01*
X164084000Y-69532000D02*
X162560000Y-71056000D01*
X164084000Y-68832000D02*
X164084000Y-69532000D01*
X162927000Y-86725000D02*
X164084000Y-87882000D01*
X162560000Y-86725000D02*
X162927000Y-86725000D01*
X163066000Y-88900000D02*
X164084000Y-87882000D01*
X162560000Y-88900000D02*
X163066000Y-88900000D01*
X162160001Y-46590001D02*
X162560000Y-46990000D01*
X162160001Y-33483999D02*
X162160001Y-46590001D01*
X164084000Y-31560000D02*
X162160001Y-33483999D01*
X164084000Y-30860000D02*
X164084000Y-31560000D01*
G04 #@! TO.N,Net-(D37-Pad2)*
X164464000Y-27940000D02*
X164084000Y-27560000D01*
X166370000Y-27940000D02*
X164464000Y-27940000D01*
G04 #@! TO.N,Net-(D38-Pad2)*
X164464000Y-46990000D02*
X164084000Y-46610000D01*
X166370000Y-46990000D02*
X164464000Y-46990000D01*
G04 #@! TO.N,Net-(D39-Pad2)*
X164592000Y-66040000D02*
X164084000Y-65532000D01*
X166370000Y-66040000D02*
X164592000Y-66040000D01*
G04 #@! TO.N,Net-(D40-Pad2)*
X164592000Y-85090000D02*
X164084000Y-84582000D01*
X166370000Y-85090000D02*
X164592000Y-85090000D01*
G04 #@! TO.N,Net-(D41-Pad2)*
X180594000Y-121158000D02*
X180594000Y-118110000D01*
G04 #@! TO.N,Net-(D42-Pad2)*
X183388000Y-27940000D02*
X183134000Y-27686000D01*
X185420000Y-27940000D02*
X183388000Y-27940000D01*
G04 #@! TO.N,Net-(D43-Pad2)*
X183514000Y-46990000D02*
X183134000Y-46610000D01*
X185420000Y-46990000D02*
X183514000Y-46990000D01*
G04 #@! TO.N,Net-(D44-Pad2)*
X183514000Y-66040000D02*
X183134000Y-65660000D01*
X185420000Y-66040000D02*
X183514000Y-66040000D01*
G04 #@! TO.N,Net-(D45-Pad2)*
X183514000Y-85090000D02*
X183134000Y-84710000D01*
X185420000Y-85090000D02*
X183514000Y-85090000D01*
G04 #@! TO.N,Net-(D46-Pad2)*
X183768000Y-104140000D02*
X183388000Y-103760000D01*
X185420000Y-104140000D02*
X183768000Y-104140000D01*
G04 #@! TO.N,Net-(D47-Pad2)*
X202564000Y-27940000D02*
X202184000Y-27560000D01*
X204470000Y-27940000D02*
X202564000Y-27940000D01*
G04 #@! TO.N,/COL9*
X202184000Y-31560000D02*
X200660000Y-33084000D01*
X200660000Y-33084000D02*
X200660000Y-46990000D01*
X202184000Y-30860000D02*
X202184000Y-31560000D01*
X200999000Y-48725000D02*
X202184000Y-49910000D01*
X200660000Y-48725000D02*
X200999000Y-48725000D01*
X200660000Y-52134000D02*
X200660000Y-66040000D01*
X202184000Y-50610000D02*
X200660000Y-52134000D01*
X202184000Y-49910000D02*
X202184000Y-50610000D01*
X200949000Y-67725000D02*
X202184000Y-68960000D01*
X200660000Y-67725000D02*
X200949000Y-67725000D01*
X200660000Y-71184000D02*
X200660000Y-85090000D01*
X202184000Y-69660000D02*
X200660000Y-71184000D01*
X202184000Y-68960000D02*
X202184000Y-69660000D01*
X201027000Y-86725000D02*
X202184000Y-87882000D01*
X200660000Y-86725000D02*
X201027000Y-86725000D01*
X202184000Y-87882000D02*
X202184000Y-88582000D01*
X202184000Y-88582000D02*
X200660000Y-90106000D01*
X200660000Y-90106000D02*
X200660000Y-104140000D01*
X200977000Y-105725000D02*
X202184000Y-106932000D01*
X200660000Y-105725000D02*
X200977000Y-105725000D01*
X167719589Y-108965001D02*
X190133997Y-108965001D01*
X192166998Y-106932000D02*
X201334000Y-106932000D01*
X155273262Y-106114999D02*
X164869587Y-106114999D01*
X201334000Y-106932000D02*
X202184000Y-106932000D01*
X164869587Y-106114999D02*
X167719589Y-108965001D01*
X151040685Y-110347576D02*
X155273262Y-106114999D01*
X190133997Y-108965001D02*
X192166998Y-106932000D01*
X150475000Y-110347576D02*
X151040685Y-110347576D01*
G04 #@! TO.N,Net-(D48-Pad2)*
X202564000Y-46990000D02*
X202184000Y-46610000D01*
X204470000Y-46990000D02*
X202564000Y-46990000D01*
G04 #@! TO.N,Net-(D49-Pad2)*
X202564000Y-66040000D02*
X202184000Y-65660000D01*
X204470000Y-66040000D02*
X202564000Y-66040000D01*
G04 #@! TO.N,Net-(D50-Pad2)*
X202692000Y-85090000D02*
X202184000Y-84582000D01*
X204470000Y-85090000D02*
X202692000Y-85090000D01*
G04 #@! TO.N,Net-(D51-Pad2)*
X202692000Y-104140000D02*
X202184000Y-103632000D01*
X204470000Y-104140000D02*
X202692000Y-104140000D01*
G04 #@! TO.N,Net-(D52-Pad2)*
X221614000Y-27940000D02*
X221234000Y-27560000D01*
X223520000Y-27940000D02*
X221614000Y-27940000D01*
G04 #@! TO.N,/COL10*
X219710000Y-33084000D02*
X219710000Y-46990000D01*
X221234000Y-31560000D02*
X219710000Y-33084000D01*
X221234000Y-30860000D02*
X221234000Y-31560000D01*
X220049000Y-48725000D02*
X221234000Y-49910000D01*
X219710000Y-48725000D02*
X220049000Y-48725000D01*
X219710000Y-52134000D02*
X219710000Y-66040000D01*
X221234000Y-50610000D02*
X219710000Y-52134000D01*
X221234000Y-49910000D02*
X221234000Y-50610000D01*
X219999000Y-67725000D02*
X221234000Y-68960000D01*
X219710000Y-67725000D02*
X219999000Y-67725000D01*
X219710000Y-71184000D02*
X219710000Y-85090000D01*
X221234000Y-69660000D02*
X219710000Y-71184000D01*
X221234000Y-68960000D02*
X221234000Y-69660000D01*
X220077000Y-86725000D02*
X221234000Y-87882000D01*
X219710000Y-86725000D02*
X220077000Y-86725000D01*
X219710000Y-90106000D02*
X219710000Y-104140000D01*
X221234000Y-88582000D02*
X219710000Y-90106000D01*
X221234000Y-87882000D02*
X221234000Y-88582000D01*
X220153000Y-105725000D02*
X221234000Y-106806000D01*
X219710000Y-105725000D02*
X220153000Y-105725000D01*
X160020000Y-115570000D02*
X157480000Y-115570000D01*
X220384000Y-106806000D02*
X211620000Y-115570000D01*
X157480000Y-115570000D02*
X156210000Y-116840000D01*
X211620000Y-115570000D02*
X160020000Y-115570000D01*
X221234000Y-106806000D02*
X220384000Y-106806000D01*
G04 #@! TO.N,Net-(D53-Pad2)*
X221614000Y-46990000D02*
X221234000Y-46610000D01*
X223520000Y-46990000D02*
X221614000Y-46990000D01*
G04 #@! TO.N,Net-(D54-Pad2)*
X221614000Y-66040000D02*
X221234000Y-65660000D01*
X223520000Y-66040000D02*
X221614000Y-66040000D01*
G04 #@! TO.N,Net-(D55-Pad2)*
X221742000Y-85090000D02*
X221234000Y-84582000D01*
X223520000Y-85090000D02*
X221742000Y-85090000D01*
G04 #@! TO.N,Net-(D56-Pad2)*
X221868000Y-104140000D02*
X221234000Y-103506000D01*
X223520000Y-104140000D02*
X221868000Y-104140000D01*
G04 #@! TO.N,/COL11*
X240284000Y-31560000D02*
X238760000Y-33084000D01*
X238760000Y-33084000D02*
X238760000Y-46990000D01*
X240284000Y-30860000D02*
X240284000Y-31560000D01*
X239099000Y-48725000D02*
X240284000Y-49910000D01*
X238760000Y-48725000D02*
X239099000Y-48725000D01*
X240284000Y-50610000D02*
X238760000Y-52134000D01*
X238760000Y-52134000D02*
X238760000Y-66040000D01*
X240284000Y-49910000D02*
X240284000Y-50610000D01*
X239049000Y-67725000D02*
X240284000Y-68960000D01*
X238760000Y-67725000D02*
X239049000Y-67725000D01*
X238760000Y-71184000D02*
X238760000Y-85090000D01*
X240284000Y-69660000D02*
X238760000Y-71184000D01*
X240284000Y-68960000D02*
X240284000Y-69660000D01*
X238999000Y-86725000D02*
X240284000Y-88010000D01*
X238760000Y-86725000D02*
X238999000Y-86725000D01*
X238760000Y-90234000D02*
X238760000Y-104140000D01*
X240284000Y-88710000D02*
X238760000Y-90234000D01*
X240284000Y-88010000D02*
X240284000Y-88710000D01*
X239203000Y-105725000D02*
X240284000Y-106806000D01*
X238760000Y-105725000D02*
X239203000Y-105725000D01*
X239434000Y-106806000D02*
X240284000Y-106806000D01*
X230219990Y-116020010D02*
X239434000Y-106806000D01*
X158102992Y-116020010D02*
X230219990Y-116020010D01*
X156013002Y-118110000D02*
X158102992Y-116020010D01*
X154940000Y-118110000D02*
X156013002Y-118110000D01*
G04 #@! TO.N,Net-(D57-Pad2)*
X240664000Y-27940000D02*
X240284000Y-27560000D01*
X242570000Y-27940000D02*
X240664000Y-27940000D01*
G04 #@! TO.N,Net-(D58-Pad2)*
X240664000Y-46990000D02*
X240284000Y-46610000D01*
X242570000Y-46990000D02*
X240664000Y-46990000D01*
G04 #@! TO.N,Net-(D59-Pad2)*
X240664000Y-66040000D02*
X240284000Y-65660000D01*
X242570000Y-66040000D02*
X240664000Y-66040000D01*
G04 #@! TO.N,Net-(D60-Pad2)*
X240664000Y-85090000D02*
X240284000Y-84710000D01*
X242570000Y-85090000D02*
X240664000Y-85090000D01*
G04 #@! TO.N,Net-(D61-Pad2)*
X240918000Y-104140000D02*
X240284000Y-103506000D01*
X242570000Y-104140000D02*
X240918000Y-104140000D01*
G04 #@! TO.N,Net-(D62-Pad2)*
X259714000Y-27940000D02*
X259334000Y-27560000D01*
X261620000Y-27940000D02*
X259714000Y-27940000D01*
G04 #@! TO.N,/COL12*
X257810000Y-33084000D02*
X257810000Y-46990000D01*
X259334000Y-31560000D02*
X257810000Y-33084000D01*
X259334000Y-30860000D02*
X259334000Y-31560000D01*
X258277000Y-48725000D02*
X259334000Y-49782000D01*
X257810000Y-48725000D02*
X258277000Y-48725000D01*
X259334000Y-50482000D02*
X257810000Y-52006000D01*
X257810000Y-52006000D02*
X257810000Y-66040000D01*
X259334000Y-49782000D02*
X259334000Y-50482000D01*
X257973000Y-67725000D02*
X259334000Y-69086000D01*
X257810000Y-67725000D02*
X257973000Y-67725000D01*
X257810000Y-71310000D02*
X257810000Y-85090000D01*
X259334000Y-69786000D02*
X257810000Y-71310000D01*
X259334000Y-69086000D02*
X259334000Y-69786000D01*
X258049000Y-86725000D02*
X259334000Y-88010000D01*
X257810000Y-86725000D02*
X258049000Y-86725000D01*
X257810000Y-90234000D02*
X257810000Y-104140000D01*
X259334000Y-88710000D02*
X257810000Y-90234000D01*
X259334000Y-88010000D02*
X259334000Y-88710000D01*
X258253000Y-105725000D02*
X259334000Y-106806000D01*
X257810000Y-105725000D02*
X258253000Y-105725000D01*
X142240000Y-107950000D02*
X139700000Y-107950000D01*
X259334000Y-107506000D02*
X259334000Y-106806000D01*
X250000000Y-116840000D02*
X259334000Y-107506000D01*
X158750000Y-116840000D02*
X250000000Y-116840000D01*
G04 #@! TO.N,Net-(D63-Pad2)*
X259842000Y-46990000D02*
X259334000Y-46482000D01*
X261620000Y-46990000D02*
X259842000Y-46990000D01*
G04 #@! TO.N,Net-(D64-Pad2)*
X259588000Y-66040000D02*
X259334000Y-65786000D01*
X261620000Y-66040000D02*
X259588000Y-66040000D01*
G04 #@! TO.N,Net-(D65-Pad2)*
X259714000Y-85090000D02*
X259334000Y-84710000D01*
X261620000Y-85090000D02*
X259714000Y-85090000D01*
G04 #@! TO.N,Net-(D66-Pad2)*
X259968000Y-104140000D02*
X259334000Y-103506000D01*
X261620000Y-104140000D02*
X259968000Y-104140000D01*
G04 #@! TO.N,Net-(D67-Pad2)*
X278764000Y-27940000D02*
X278384000Y-27560000D01*
X280670000Y-27940000D02*
X278764000Y-27940000D01*
G04 #@! TO.N,/COL13*
X277199000Y-48725000D02*
X278384000Y-49910000D01*
X276860000Y-48725000D02*
X277199000Y-48725000D01*
X276860000Y-52134000D02*
X276860000Y-66040000D01*
X278384000Y-50610000D02*
X276860000Y-52134000D01*
X278384000Y-49910000D02*
X278384000Y-50610000D01*
X277149000Y-67725000D02*
X278384000Y-68960000D01*
X276860000Y-67725000D02*
X277149000Y-67725000D01*
X276860000Y-71184000D02*
X276860000Y-85090000D01*
X278384000Y-69660000D02*
X276860000Y-71184000D01*
X278384000Y-68960000D02*
X278384000Y-69660000D01*
X277353000Y-86725000D02*
X278384000Y-87756000D01*
X276860000Y-86725000D02*
X277353000Y-86725000D01*
X276860000Y-89980000D02*
X276860000Y-104140000D01*
X278384000Y-88456000D02*
X276860000Y-89980000D01*
X278384000Y-87756000D02*
X278384000Y-88456000D01*
X277303000Y-105725000D02*
X278384000Y-106806000D01*
X276860000Y-105725000D02*
X277303000Y-105725000D01*
X201930000Y-101600000D02*
X218440000Y-101600000D01*
X220980000Y-101600000D02*
X237490000Y-101600000D01*
X240030000Y-101600000D02*
X256540000Y-101600000D01*
X273050000Y-101600000D02*
X275590000Y-104140000D01*
X259080000Y-101600000D02*
X273050000Y-101600000D01*
X278258000Y-106680000D02*
X278384000Y-106806000D01*
X275590000Y-106680000D02*
X278258000Y-106680000D01*
X195580000Y-97790000D02*
X199390000Y-101600000D01*
X153670000Y-97790000D02*
X195580000Y-97790000D01*
X278384000Y-30860000D02*
X278384000Y-31560000D01*
X278384000Y-31560000D02*
X276552599Y-33391401D01*
X276860000Y-46424315D02*
X276860000Y-46990000D01*
X276552599Y-33391401D02*
X276552599Y-46116914D01*
X276552599Y-46116914D02*
X276860000Y-46424315D01*
G04 #@! TO.N,Net-(D68-Pad2)*
X278764000Y-46990000D02*
X278384000Y-46610000D01*
X280670000Y-46990000D02*
X278764000Y-46990000D01*
G04 #@! TO.N,Net-(D69-Pad2)*
X278764000Y-66040000D02*
X278384000Y-65660000D01*
X280670000Y-66040000D02*
X278764000Y-66040000D01*
G04 #@! TO.N,Net-(D70-Pad2)*
X279018000Y-85090000D02*
X278384000Y-84456000D01*
X280670000Y-85090000D02*
X279018000Y-85090000D01*
G04 #@! TO.N,Net-(D71-Pad2)*
X279018000Y-104140000D02*
X278384000Y-103506000D01*
X280670000Y-104140000D02*
X279018000Y-104140000D01*
G04 #@! TO.N,/VBUS*
X51338000Y-25182000D02*
X51338000Y-25657000D01*
X52350999Y-26669999D02*
X52638078Y-26669999D01*
X51338000Y-25657000D02*
X52350999Y-26669999D01*
G04 #@! TO.N,Net-(J1-Pad2)*
X140970000Y-104140000D02*
X139700000Y-102870000D01*
X142240000Y-104140000D02*
X140970000Y-104140000D01*
X55335001Y-27018000D02*
X58043000Y-27018000D01*
X54958001Y-27395001D02*
X55335001Y-27018000D01*
X50688000Y-26107000D02*
X51976001Y-27395001D01*
X58043000Y-27018000D02*
X58420000Y-27395000D01*
X51976001Y-27395001D02*
X54958001Y-27395001D01*
X50688000Y-25182000D02*
X50688000Y-26107000D01*
G04 #@! TO.N,Net-(J1-Pad3)*
X142240000Y-102870000D02*
X140970000Y-101600000D01*
X52392999Y-23807001D02*
X52612999Y-23587001D01*
X50487999Y-23807001D02*
X52392999Y-23807001D01*
X56605001Y-24674999D02*
X55009999Y-26270001D01*
X55009999Y-26270001D02*
X54610000Y-26670000D01*
X50038000Y-25182000D02*
X50038000Y-24257000D01*
X56605001Y-22763999D02*
X56605001Y-24674999D01*
X52612999Y-23587001D02*
X52612999Y-21321999D01*
X50038000Y-24257000D02*
X50487999Y-23807001D01*
X52612999Y-21321999D02*
X53034988Y-20900010D01*
X53034988Y-20900010D02*
X54741012Y-20900010D01*
X54741012Y-20900010D02*
X56605001Y-22763999D01*
G04 #@! TO.N,Net-(R1-Pad1)*
X162560000Y-99060000D02*
X165100000Y-99060000D01*
X176530000Y-119794000D02*
X177894000Y-121158000D01*
X176530000Y-119380000D02*
X176530000Y-119794000D01*
X165316526Y-71318474D02*
X168910000Y-67725000D01*
X165316526Y-84365000D02*
X165316526Y-71318474D01*
X165100000Y-87290685D02*
X167132000Y-89322685D01*
X165100000Y-86725000D02*
X165100000Y-87290685D01*
X167132000Y-94488000D02*
X165100000Y-96520000D01*
X167132000Y-89322685D02*
X167132000Y-94488000D01*
G04 #@! TO.N,/ROW0*
X43000000Y-29000000D02*
X62000000Y-29000000D01*
X62000000Y-29000000D02*
X81000000Y-29000000D01*
X81000000Y-29000000D02*
X100000000Y-29000000D01*
X101555634Y-29000000D02*
X119000000Y-29000000D01*
X100000000Y-29000000D02*
X101555634Y-29000000D01*
X119000000Y-29000000D02*
X138100000Y-29000000D01*
X138100000Y-29000000D02*
X157000000Y-29000000D01*
X157000000Y-29000000D02*
X176000000Y-29000000D01*
X176000000Y-29000000D02*
X195000000Y-29000000D01*
X195000000Y-29000000D02*
X214000000Y-29000000D01*
X214000000Y-29000000D02*
X233000000Y-29000000D01*
X233000000Y-29000000D02*
X252000000Y-29000000D01*
X252000000Y-29000000D02*
X271000000Y-29000000D01*
X271000000Y-29000000D02*
X290000000Y-29000000D01*
G04 #@! TO.N,/ROW1*
X43000000Y-48000000D02*
X62000000Y-48000000D01*
X81060000Y-48000000D02*
X81100000Y-47960000D01*
X62000000Y-48000000D02*
X81060000Y-48000000D01*
X99960000Y-47960000D02*
X100000000Y-48000000D01*
X81100000Y-47960000D02*
X99960000Y-47960000D01*
X101555634Y-48000000D02*
X119000000Y-48000000D01*
X100000000Y-48000000D02*
X101555634Y-48000000D01*
X120555634Y-48000000D02*
X138000000Y-48000000D01*
X119000000Y-48000000D02*
X120555634Y-48000000D01*
X139555634Y-48000000D02*
X157000000Y-48000000D01*
X138000000Y-48000000D02*
X139555634Y-48000000D01*
X169219002Y-48000000D02*
X176000000Y-48000000D01*
X157000000Y-48000000D02*
X169219002Y-48000000D01*
X177555634Y-48000000D02*
X195000000Y-48000000D01*
X176000000Y-48000000D02*
X177555634Y-48000000D01*
X195000000Y-48000000D02*
X214000000Y-48000000D01*
X214000000Y-48000000D02*
X233000000Y-48000000D01*
X233000000Y-48000000D02*
X252000000Y-48000000D01*
X252000000Y-48000000D02*
X271000000Y-48000000D01*
X271000000Y-48000000D02*
X290000000Y-48000000D01*
G04 #@! TO.N,/ROW2*
X43000000Y-67000000D02*
X62040000Y-67000000D01*
X69129002Y-67000000D02*
X81040000Y-67000000D01*
X62040000Y-67000000D02*
X69129002Y-67000000D01*
X81040000Y-67000000D02*
X100000000Y-67000000D01*
X119060000Y-67000000D02*
X119100000Y-66960000D01*
X100000000Y-67000000D02*
X119060000Y-67000000D01*
X137960000Y-66960000D02*
X138000000Y-67000000D01*
X119100000Y-66960000D02*
X137960000Y-66960000D01*
X138000000Y-67000000D02*
X157000000Y-67000000D01*
X158555634Y-67000000D02*
X176000000Y-67000000D01*
X157000000Y-67000000D02*
X158555634Y-67000000D01*
X177555634Y-67000000D02*
X195000000Y-67000000D01*
X176000000Y-67000000D02*
X177555634Y-67000000D01*
X196555634Y-67000000D02*
X214000000Y-67000000D01*
X195000000Y-67000000D02*
X196555634Y-67000000D01*
X214000000Y-67000000D02*
X233000000Y-67000000D01*
X233000000Y-67000000D02*
X252000000Y-67000000D01*
X252000000Y-67000000D02*
X271000000Y-67000000D01*
X278679002Y-67000000D02*
X290000000Y-67000000D01*
X271000000Y-67000000D02*
X278679002Y-67000000D01*
G04 #@! TO.N,/ROW3*
X43000000Y-86000000D02*
X62000000Y-86000000D01*
X62000000Y-86000000D02*
X81000000Y-86000000D01*
X81000000Y-86000000D02*
X100000000Y-86000000D01*
X100000000Y-86000000D02*
X119000000Y-86000000D01*
X120555634Y-86000000D02*
X138000000Y-86000000D01*
X119000000Y-86000000D02*
X120555634Y-86000000D01*
X139555634Y-86000000D02*
X157000000Y-86000000D01*
X138000000Y-86000000D02*
X139555634Y-86000000D01*
X158555634Y-86000000D02*
X176000000Y-86000000D01*
X157000000Y-86000000D02*
X158555634Y-86000000D01*
X177555634Y-86000000D02*
X195000000Y-86000000D01*
X176000000Y-86000000D02*
X177555634Y-86000000D01*
X195000000Y-86000000D02*
X214000000Y-86000000D01*
X214000000Y-86000000D02*
X233000000Y-86000000D01*
X240629002Y-86000000D02*
X252000000Y-86000000D01*
X233000000Y-86000000D02*
X240629002Y-86000000D01*
X252000000Y-86000000D02*
X271040000Y-86000000D01*
X289960000Y-86000000D02*
X290040000Y-85920000D01*
X271040000Y-86000000D02*
X289960000Y-86000000D01*
G04 #@! TO.N,/ROW4*
X50179002Y-105000000D02*
X62000000Y-105000000D01*
X43000000Y-105000000D02*
X50179002Y-105000000D01*
X62000000Y-105000000D02*
X81000000Y-105000000D01*
X81000000Y-105000000D02*
X100000000Y-105000000D01*
X101555634Y-105000000D02*
X119000000Y-105000000D01*
X100000000Y-105000000D02*
X101555634Y-105000000D01*
X119000000Y-105000000D02*
X138000000Y-105000000D01*
X159719002Y-105000000D02*
X166500000Y-105000000D01*
X188219002Y-105000000D02*
X195000000Y-105000000D01*
X166500000Y-105000000D02*
X188219002Y-105000000D01*
X195000000Y-105000000D02*
X214000000Y-105000000D01*
X214000000Y-105000000D02*
X233000000Y-105000000D01*
X233000000Y-105000000D02*
X252000000Y-105000000D01*
X252000000Y-105000000D02*
X271000000Y-105000000D01*
X271000000Y-105000000D02*
X290000000Y-105000000D01*
X153670000Y-105000000D02*
X159719002Y-105000000D01*
X153633601Y-104963601D02*
X153670000Y-105000000D01*
X153633601Y-104169457D02*
X153633601Y-104963601D01*
X138000000Y-105000000D02*
X153670000Y-105000000D01*
G04 #@! TO.N,Net-(SW40-Pad2)*
X163830000Y-95615000D02*
X154940000Y-86725000D01*
X163830000Y-96520000D02*
X163830000Y-95615000D01*
X147320000Y-78740000D02*
X147320000Y-67725000D01*
X153670000Y-85090000D02*
X147320000Y-78740000D01*
G04 #@! TO.N,Net-(SW_LAYOUT1-Pad3)*
X157480000Y-91440000D02*
X153670000Y-95250000D01*
X152944999Y-95975001D02*
X152944999Y-99604999D01*
X153670000Y-95250000D02*
X152944999Y-95975001D01*
X154940000Y-101600000D02*
X162560000Y-101600000D01*
X152944999Y-99604999D02*
X154940000Y-101600000D01*
G04 #@! TO.N,Net-(SW_LAYOUT1-Pad4)*
X151130000Y-97085685D02*
X151130000Y-96520000D01*
X156843590Y-104140000D02*
X151130000Y-98426410D01*
X151130000Y-98426410D02*
X151130000Y-97085685D01*
X158750000Y-104140000D02*
X156843590Y-104140000D01*
G04 #@! TO.N,/SWDIO*
X145976347Y-100590645D02*
X146236992Y-100330000D01*
X145976347Y-102943653D02*
X145976347Y-100590645D01*
X156610001Y-76200000D02*
X159150001Y-73660000D01*
X151130000Y-76200000D02*
X156610001Y-76200000D01*
G04 #@! TO.N,/COL8*
X183134000Y-31686000D02*
X181610000Y-33210000D01*
X181610000Y-33210000D02*
X181610000Y-46990000D01*
X183134000Y-30986000D02*
X183134000Y-31686000D01*
X181949000Y-48725000D02*
X183134000Y-49910000D01*
X181610000Y-48725000D02*
X181949000Y-48725000D01*
X181610000Y-52134000D02*
X181610000Y-66040000D01*
X183134000Y-50610000D02*
X181610000Y-52134000D01*
X183134000Y-49910000D02*
X183134000Y-50610000D01*
X181899000Y-67725000D02*
X183134000Y-68960000D01*
X181610000Y-67725000D02*
X181899000Y-67725000D01*
X183134000Y-69660000D02*
X181610000Y-71184000D01*
X181610000Y-71184000D02*
X181610000Y-85090000D01*
X183134000Y-68960000D02*
X183134000Y-69660000D01*
X181849000Y-86725000D02*
X183134000Y-88010000D01*
X181610000Y-86725000D02*
X181849000Y-86725000D01*
X182538000Y-107060000D02*
X183388000Y-107060000D01*
X166450998Y-107060000D02*
X182538000Y-107060000D01*
X164841008Y-105450010D02*
X166450998Y-107060000D01*
X154940000Y-105450010D02*
X164841008Y-105450010D01*
X154899990Y-105450010D02*
X154940000Y-105450010D01*
X151130000Y-109220000D02*
X154899990Y-105450010D01*
X183134000Y-96266000D02*
X182880000Y-96520000D01*
X183134000Y-88010000D02*
X183134000Y-96266000D01*
X181610000Y-100330000D02*
X181610000Y-104140000D01*
X182880000Y-99060000D02*
X181610000Y-100330000D01*
X182945000Y-107060000D02*
X181610000Y-105725000D01*
X183388000Y-107060000D02*
X182945000Y-107060000D01*
G04 #@! TO.N,Net-(J1-Pad6)*
X46188000Y-24332000D02*
X46938000Y-25082000D01*
X46188000Y-22532000D02*
X46188000Y-24332000D01*
X53138000Y-23282000D02*
X53888000Y-22532000D01*
X53138000Y-25082000D02*
X53138000Y-23282000D01*
X54286000Y-24130000D02*
X55880000Y-24130000D01*
X53888000Y-23732000D02*
X54286000Y-24130000D01*
X53888000Y-22532000D02*
X53888000Y-23732000D01*
X44450000Y-24130000D02*
X44450000Y-22860000D01*
X44778000Y-22532000D02*
X46188000Y-22532000D01*
X44450000Y-22860000D02*
X44778000Y-22532000D01*
G04 #@! TD*
M02*
