G04 #@! TF.GenerationSoftware,KiCad,Pcbnew,5.0.0-rc2-unknown-f785d27~65~ubuntu16.04.1*
G04 #@! TF.CreationDate,2018-08-02T21:07:42-05:00*
G04 #@! TF.ProjectId,keebee,6B65656265652E6B696361645F706362,rev?*
G04 #@! TF.SameCoordinates,Original*
G04 #@! TF.FileFunction,Soldermask,Top*
G04 #@! TF.FilePolarity,Negative*
%FSLAX46Y46*%
G04 Gerber Fmt 4.6, Leading zero omitted, Abs format (unit mm)*
G04 Created by KiCad (PCBNEW 5.0.0-rc2-unknown-f785d27~65~ubuntu16.04.1) date Thu Aug  2 21:07:42 2018*
%MOMM*%
%LPD*%
G01*
G04 APERTURE LIST*
%ADD10C,0.150000*%
%ADD11C,2.600000*%
%ADD12C,4.400000*%
%ADD13R,0.800000X1.750000*%
%ADD14R,2.300000X2.300000*%
%ADD15R,2.500000X2.000000*%
%ADD16R,1.900000X1.700000*%
%ADD17R,1.600000X1.300000*%
%ADD18C,2.100000*%
G04 APERTURE END LIST*
D10*
X301500000Y-20500000D02*
X301500000Y-123500000D01*
X26500000Y-123500000D02*
X301500000Y-123500000D01*
X26500000Y-20500000D02*
X301500000Y-20500000D01*
X26500000Y-20500000D02*
X26500000Y-123500000D01*
D11*
G04 #@! TO.C,SW64*
X271040000Y-86000000D03*
X264690000Y-88540000D03*
D12*
X268500000Y-91080000D03*
G04 #@! TD*
D13*
G04 #@! TO.C,J1*
X51338000Y-25182000D03*
X50688000Y-25182000D03*
X50038000Y-25182000D03*
X49388000Y-25182000D03*
X48738000Y-25182000D03*
D14*
X51238000Y-22532000D03*
X48838000Y-22532000D03*
X53888000Y-22532000D03*
D15*
X53138000Y-25082000D03*
X46938000Y-25082000D03*
D14*
X46188000Y-22532000D03*
G04 #@! TD*
D11*
G04 #@! TO.C,SW1*
X43000000Y-29000000D03*
X36650000Y-31540000D03*
D12*
X40460000Y-34080000D03*
G04 #@! TD*
D16*
G04 #@! TO.C,D1*
X147668000Y-118110000D03*
X150368000Y-118110000D03*
G04 #@! TD*
D17*
G04 #@! TO.C,D2*
X29210000Y-27180000D03*
X29210000Y-30480000D03*
G04 #@! TD*
G04 #@! TO.C,D3*
X29210000Y-49650000D03*
X29210000Y-46350000D03*
G04 #@! TD*
G04 #@! TO.C,D4*
X29210000Y-68960000D03*
X29210000Y-65660000D03*
G04 #@! TD*
G04 #@! TO.C,D5*
X29210000Y-84710000D03*
X29210000Y-88010000D03*
G04 #@! TD*
G04 #@! TO.C,D6*
X29210000Y-104140000D03*
X29210000Y-107440000D03*
G04 #@! TD*
G04 #@! TO.C,D7*
X49784000Y-27560000D03*
X49784000Y-30860000D03*
G04 #@! TD*
G04 #@! TO.C,D8*
X49784000Y-46610000D03*
X49784000Y-49910000D03*
G04 #@! TD*
G04 #@! TO.C,D9*
X49784000Y-65660000D03*
X49784000Y-68960000D03*
G04 #@! TD*
G04 #@! TO.C,D10*
X49784000Y-84584000D03*
X49784000Y-87884000D03*
G04 #@! TD*
G04 #@! TO.C,D11*
X49784000Y-107060000D03*
X49784000Y-103760000D03*
G04 #@! TD*
G04 #@! TO.C,D12*
X68834000Y-30860000D03*
X68834000Y-27560000D03*
G04 #@! TD*
G04 #@! TO.C,D13*
X68834000Y-49910000D03*
X68834000Y-46610000D03*
G04 #@! TD*
G04 #@! TO.C,D14*
X68834000Y-65660000D03*
X68834000Y-68960000D03*
G04 #@! TD*
G04 #@! TO.C,D15*
X68834000Y-88010000D03*
X68834000Y-84710000D03*
G04 #@! TD*
G04 #@! TO.C,D16*
X68834000Y-107060000D03*
X68834000Y-103760000D03*
G04 #@! TD*
G04 #@! TO.C,D17*
X87884000Y-27560000D03*
X87884000Y-30860000D03*
G04 #@! TD*
G04 #@! TO.C,D18*
X87884000Y-46482000D03*
X87884000Y-49782000D03*
G04 #@! TD*
G04 #@! TO.C,D19*
X87884000Y-68960000D03*
X87884000Y-65660000D03*
G04 #@! TD*
G04 #@! TO.C,D20*
X87884000Y-84710000D03*
X87884000Y-88010000D03*
G04 #@! TD*
G04 #@! TO.C,D21*
X87884000Y-106934000D03*
X87884000Y-103634000D03*
G04 #@! TD*
G04 #@! TO.C,D22*
X106934000Y-27560000D03*
X106934000Y-30860000D03*
G04 #@! TD*
G04 #@! TO.C,D23*
X106934000Y-49910000D03*
X106934000Y-46610000D03*
G04 #@! TD*
G04 #@! TO.C,D24*
X106934000Y-65660000D03*
X106934000Y-68960000D03*
G04 #@! TD*
G04 #@! TO.C,D25*
X106934000Y-84582000D03*
X106934000Y-87882000D03*
G04 #@! TD*
G04 #@! TO.C,D26*
X106934000Y-106932000D03*
X106934000Y-103632000D03*
G04 #@! TD*
G04 #@! TO.C,D27*
X125984000Y-30860000D03*
X125984000Y-27560000D03*
G04 #@! TD*
G04 #@! TO.C,D28*
X125984000Y-46610000D03*
X125984000Y-49910000D03*
G04 #@! TD*
G04 #@! TO.C,D29*
X125984000Y-65660000D03*
X125984000Y-68960000D03*
G04 #@! TD*
G04 #@! TO.C,D30*
X125984000Y-88010000D03*
X125984000Y-84710000D03*
G04 #@! TD*
G04 #@! TO.C,D31*
X125984000Y-106806000D03*
X125984000Y-103506000D03*
G04 #@! TD*
G04 #@! TO.C,D32*
X145034000Y-30860000D03*
X145034000Y-27560000D03*
G04 #@! TD*
G04 #@! TO.C,D33*
X145034000Y-49910000D03*
X145034000Y-46610000D03*
G04 #@! TD*
G04 #@! TO.C,D34*
X145034000Y-68960000D03*
X145034000Y-65660000D03*
G04 #@! TD*
G04 #@! TO.C,D35*
X145034000Y-84710000D03*
X145034000Y-88010000D03*
G04 #@! TD*
G04 #@! TO.C,D36*
X144780000Y-103760000D03*
X144780000Y-107060000D03*
G04 #@! TD*
G04 #@! TO.C,D37*
X164084000Y-30860000D03*
X164084000Y-27560000D03*
G04 #@! TD*
G04 #@! TO.C,D38*
X164084000Y-46610000D03*
X164084000Y-49910000D03*
G04 #@! TD*
G04 #@! TO.C,D39*
X164084000Y-65532000D03*
X164084000Y-68832000D03*
G04 #@! TD*
G04 #@! TO.C,D40*
X164084000Y-87882000D03*
X164084000Y-84582000D03*
G04 #@! TD*
D16*
G04 #@! TO.C,D41*
X177894000Y-118110000D03*
X180594000Y-118110000D03*
G04 #@! TD*
D17*
G04 #@! TO.C,D42*
X183134000Y-30986000D03*
X183134000Y-27686000D03*
G04 #@! TD*
G04 #@! TO.C,D43*
X183134000Y-46610000D03*
X183134000Y-49910000D03*
G04 #@! TD*
G04 #@! TO.C,D44*
X183134000Y-65660000D03*
X183134000Y-68960000D03*
G04 #@! TD*
G04 #@! TO.C,D45*
X183134000Y-88010000D03*
X183134000Y-84710000D03*
G04 #@! TD*
G04 #@! TO.C,D46*
X183388000Y-107060000D03*
X183388000Y-103760000D03*
G04 #@! TD*
G04 #@! TO.C,D47*
X202184000Y-27560000D03*
X202184000Y-30860000D03*
G04 #@! TD*
G04 #@! TO.C,D48*
X202184000Y-46610000D03*
X202184000Y-49910000D03*
G04 #@! TD*
G04 #@! TO.C,D49*
X202184000Y-65660000D03*
X202184000Y-68960000D03*
G04 #@! TD*
G04 #@! TO.C,D50*
X202184000Y-87882000D03*
X202184000Y-84582000D03*
G04 #@! TD*
G04 #@! TO.C,D51*
X202184000Y-103632000D03*
X202184000Y-106932000D03*
G04 #@! TD*
G04 #@! TO.C,D52*
X221234000Y-27560000D03*
X221234000Y-30860000D03*
G04 #@! TD*
G04 #@! TO.C,D53*
X221234000Y-49910000D03*
X221234000Y-46610000D03*
G04 #@! TD*
G04 #@! TO.C,D54*
X221234000Y-68960000D03*
X221234000Y-65660000D03*
G04 #@! TD*
G04 #@! TO.C,D55*
X221234000Y-87882000D03*
X221234000Y-84582000D03*
G04 #@! TD*
G04 #@! TO.C,D56*
X221234000Y-106806000D03*
X221234000Y-103506000D03*
G04 #@! TD*
G04 #@! TO.C,D57*
X240284000Y-30860000D03*
X240284000Y-27560000D03*
G04 #@! TD*
G04 #@! TO.C,D58*
X240284000Y-46610000D03*
X240284000Y-49910000D03*
G04 #@! TD*
G04 #@! TO.C,D59*
X240284000Y-65660000D03*
X240284000Y-68960000D03*
G04 #@! TD*
G04 #@! TO.C,D60*
X240284000Y-88010000D03*
X240284000Y-84710000D03*
G04 #@! TD*
G04 #@! TO.C,D61*
X240284000Y-103506000D03*
X240284000Y-106806000D03*
G04 #@! TD*
G04 #@! TO.C,D62*
X259334000Y-27560000D03*
X259334000Y-30860000D03*
G04 #@! TD*
G04 #@! TO.C,D63*
X259334000Y-46482000D03*
X259334000Y-49782000D03*
G04 #@! TD*
G04 #@! TO.C,D64*
X259334000Y-69086000D03*
X259334000Y-65786000D03*
G04 #@! TD*
G04 #@! TO.C,D65*
X259334000Y-84710000D03*
X259334000Y-88010000D03*
G04 #@! TD*
G04 #@! TO.C,D66*
X259334000Y-106806000D03*
X259334000Y-103506000D03*
G04 #@! TD*
G04 #@! TO.C,D67*
X278384000Y-27560000D03*
X278384000Y-30860000D03*
G04 #@! TD*
G04 #@! TO.C,D68*
X278384000Y-49910000D03*
X278384000Y-46610000D03*
G04 #@! TD*
G04 #@! TO.C,D69*
X278384000Y-68960000D03*
X278384000Y-65660000D03*
G04 #@! TD*
G04 #@! TO.C,D70*
X278384000Y-87756000D03*
X278384000Y-84456000D03*
G04 #@! TD*
G04 #@! TO.C,D71*
X278384000Y-103506000D03*
X278384000Y-106806000D03*
G04 #@! TD*
D16*
G04 #@! TO.C,R1*
X177894000Y-121158000D03*
X180594000Y-121158000D03*
G04 #@! TD*
G04 #@! TO.C,R2*
X147668000Y-121158000D03*
X150368000Y-121158000D03*
G04 #@! TD*
D12*
G04 #@! TO.C,SW2*
X40460000Y-53080000D03*
D11*
X36650000Y-50540000D03*
X43000000Y-48000000D03*
G04 #@! TD*
G04 #@! TO.C,SW3*
X43000000Y-67000000D03*
X36650000Y-69540000D03*
D12*
X40460000Y-72080000D03*
G04 #@! TD*
G04 #@! TO.C,SW4*
X40460000Y-91080000D03*
D11*
X36650000Y-88540000D03*
X43000000Y-86000000D03*
G04 #@! TD*
G04 #@! TO.C,SW5*
X43000000Y-105000000D03*
X36650000Y-107540000D03*
D12*
X40460000Y-110080000D03*
G04 #@! TD*
G04 #@! TO.C,SW6*
X59460000Y-34080000D03*
D11*
X55650000Y-31540000D03*
X62000000Y-29000000D03*
G04 #@! TD*
G04 #@! TO.C,SW7*
X62000000Y-48000000D03*
X55650000Y-50540000D03*
D12*
X59460000Y-53080000D03*
G04 #@! TD*
G04 #@! TO.C,SW8*
X59500000Y-72080000D03*
D11*
X55690000Y-69540000D03*
X62040000Y-67000000D03*
G04 #@! TD*
G04 #@! TO.C,SW9*
X62000000Y-86000000D03*
X55650000Y-88540000D03*
D12*
X59460000Y-91080000D03*
G04 #@! TD*
G04 #@! TO.C,SW10*
X59460000Y-110080000D03*
D11*
X55650000Y-107540000D03*
X62000000Y-105000000D03*
G04 #@! TD*
G04 #@! TO.C,SW11*
X81000000Y-29000000D03*
X74650000Y-31540000D03*
D12*
X78460000Y-34080000D03*
G04 #@! TD*
G04 #@! TO.C,SW12*
X78560000Y-53040000D03*
D11*
X74750000Y-50500000D03*
X81100000Y-47960000D03*
G04 #@! TD*
G04 #@! TO.C,SW13*
X81040000Y-67000000D03*
X74690000Y-69540000D03*
D12*
X78500000Y-72080000D03*
G04 #@! TD*
G04 #@! TO.C,SW14*
X78460000Y-91080000D03*
D11*
X74650000Y-88540000D03*
X81000000Y-86000000D03*
G04 #@! TD*
G04 #@! TO.C,SW15*
X81000000Y-105000000D03*
X74650000Y-107540000D03*
D12*
X78460000Y-110080000D03*
G04 #@! TD*
G04 #@! TO.C,SW16*
X97460000Y-34080000D03*
D11*
X93650000Y-31540000D03*
X100000000Y-29000000D03*
G04 #@! TD*
G04 #@! TO.C,SW17*
X100000000Y-48000000D03*
X93650000Y-50540000D03*
D12*
X97460000Y-53080000D03*
G04 #@! TD*
G04 #@! TO.C,SW18*
X97460000Y-72080000D03*
D11*
X93650000Y-69540000D03*
X100000000Y-67000000D03*
G04 #@! TD*
G04 #@! TO.C,SW19*
X100000000Y-86000000D03*
X93650000Y-88540000D03*
D12*
X97460000Y-91080000D03*
G04 #@! TD*
G04 #@! TO.C,SW20*
X97460000Y-110080000D03*
D11*
X93650000Y-107540000D03*
X100000000Y-105000000D03*
G04 #@! TD*
G04 #@! TO.C,SW21*
X119000000Y-29000000D03*
X112650000Y-31540000D03*
D12*
X116460000Y-34080000D03*
G04 #@! TD*
G04 #@! TO.C,SW22*
X116460000Y-53080000D03*
D11*
X112650000Y-50540000D03*
X119000000Y-48000000D03*
G04 #@! TD*
G04 #@! TO.C,SW23*
X119100000Y-66960000D03*
X112750000Y-69500000D03*
D12*
X116560000Y-72040000D03*
G04 #@! TD*
G04 #@! TO.C,SW24*
X116460000Y-91080000D03*
D11*
X112650000Y-88540000D03*
X119000000Y-86000000D03*
G04 #@! TD*
G04 #@! TO.C,SW25*
X119000000Y-105000000D03*
X112650000Y-107540000D03*
D12*
X116460000Y-110080000D03*
G04 #@! TD*
D11*
G04 #@! TO.C,SW26*
X138100000Y-29000000D03*
X131750000Y-31540000D03*
D12*
X135560000Y-34080000D03*
G04 #@! TD*
G04 #@! TO.C,SW27*
X135460000Y-53080000D03*
D11*
X131650000Y-50540000D03*
X138000000Y-48000000D03*
G04 #@! TD*
G04 #@! TO.C,SW28*
X138000000Y-67000000D03*
X131650000Y-69540000D03*
D12*
X135460000Y-72080000D03*
G04 #@! TD*
D11*
G04 #@! TO.C,SW29*
X138000000Y-86000000D03*
X131650000Y-88540000D03*
D12*
X135460000Y-91080000D03*
G04 #@! TD*
G04 #@! TO.C,SW30*
X135460000Y-110080000D03*
D11*
X131650000Y-107540000D03*
X138000000Y-105000000D03*
G04 #@! TD*
D12*
G04 #@! TO.C,SW31*
X154460000Y-34080000D03*
D11*
X150650000Y-31540000D03*
X157000000Y-29000000D03*
G04 #@! TD*
G04 #@! TO.C,SW32*
X157000000Y-48000000D03*
X150650000Y-50540000D03*
D12*
X154460000Y-53080000D03*
G04 #@! TD*
G04 #@! TO.C,SW33*
X154460000Y-72080000D03*
D11*
X150650000Y-69540000D03*
X157000000Y-67000000D03*
G04 #@! TD*
D12*
G04 #@! TO.C,SW34*
X154460000Y-91080000D03*
D11*
X150650000Y-88540000D03*
X157000000Y-86000000D03*
G04 #@! TD*
D12*
G04 #@! TO.C,SW35*
X163960000Y-110080000D03*
D11*
X160150000Y-107540000D03*
X166500000Y-105000000D03*
G04 #@! TD*
D12*
G04 #@! TO.C,SW36*
X173460000Y-34080000D03*
D11*
X169650000Y-31540000D03*
X176000000Y-29000000D03*
G04 #@! TD*
G04 #@! TO.C,SW37*
X176000000Y-48000000D03*
X169650000Y-50540000D03*
D12*
X173460000Y-53080000D03*
G04 #@! TD*
G04 #@! TO.C,SW38*
X173460000Y-72080000D03*
D11*
X169650000Y-69540000D03*
X176000000Y-67000000D03*
G04 #@! TD*
G04 #@! TO.C,SW39*
X176000000Y-86000000D03*
X169650000Y-88540000D03*
D12*
X173460000Y-91080000D03*
G04 #@! TD*
D18*
G04 #@! TO.C,SW_RST*
X146812000Y-58746000D03*
X140312000Y-58746000D03*
X146812000Y-63246000D03*
X140312000Y-63246000D03*
G04 #@! TD*
D12*
G04 #@! TO.C,SW41*
X192460000Y-34080000D03*
D11*
X188650000Y-31540000D03*
X195000000Y-29000000D03*
G04 #@! TD*
G04 #@! TO.C,SW42*
X195000000Y-48000000D03*
X188650000Y-50540000D03*
D12*
X192460000Y-53080000D03*
G04 #@! TD*
G04 #@! TO.C,SW43*
X192460000Y-72080000D03*
D11*
X188650000Y-69540000D03*
X195000000Y-67000000D03*
G04 #@! TD*
G04 #@! TO.C,SW44*
X195000000Y-86000000D03*
X188650000Y-88540000D03*
D12*
X192460000Y-91080000D03*
G04 #@! TD*
G04 #@! TO.C,SW45*
X192460000Y-110080000D03*
D11*
X188650000Y-107540000D03*
X195000000Y-105000000D03*
G04 #@! TD*
G04 #@! TO.C,SW46*
X214000000Y-29000000D03*
X207650000Y-31540000D03*
D12*
X211460000Y-34080000D03*
G04 #@! TD*
D11*
G04 #@! TO.C,SW47*
X214000000Y-48000000D03*
X207650000Y-50540000D03*
D12*
X211460000Y-53080000D03*
G04 #@! TD*
D11*
G04 #@! TO.C,SW48*
X214000000Y-67000000D03*
X207650000Y-69540000D03*
D12*
X211460000Y-72080000D03*
G04 #@! TD*
G04 #@! TO.C,SW49*
X211460000Y-91080000D03*
D11*
X207650000Y-88540000D03*
X214000000Y-86000000D03*
G04 #@! TD*
D12*
G04 #@! TO.C,SW50*
X211460000Y-110080000D03*
D11*
X207650000Y-107540000D03*
X214000000Y-105000000D03*
G04 #@! TD*
D12*
G04 #@! TO.C,SW51*
X230460000Y-34080000D03*
D11*
X226650000Y-31540000D03*
X233000000Y-29000000D03*
G04 #@! TD*
G04 #@! TO.C,SW52*
X233000000Y-48000000D03*
X226650000Y-50540000D03*
D12*
X230460000Y-53080000D03*
G04 #@! TD*
D11*
G04 #@! TO.C,SW53*
X233000000Y-67000000D03*
X226650000Y-69540000D03*
D12*
X230460000Y-72080000D03*
G04 #@! TD*
D11*
G04 #@! TO.C,SW54*
X233000000Y-86000000D03*
X226650000Y-88540000D03*
D12*
X230460000Y-91080000D03*
G04 #@! TD*
D11*
G04 #@! TO.C,SW55*
X233000000Y-105000000D03*
X226650000Y-107540000D03*
D12*
X230460000Y-110080000D03*
G04 #@! TD*
D11*
G04 #@! TO.C,SW56*
X252000000Y-29000000D03*
X245650000Y-31540000D03*
D12*
X249460000Y-34080000D03*
G04 #@! TD*
D11*
G04 #@! TO.C,SW57*
X252000000Y-48000000D03*
X245650000Y-50540000D03*
D12*
X249460000Y-53080000D03*
G04 #@! TD*
G04 #@! TO.C,SW58*
X249460000Y-72080000D03*
D11*
X245650000Y-69540000D03*
X252000000Y-67000000D03*
G04 #@! TD*
D12*
G04 #@! TO.C,SW59*
X249460000Y-91080000D03*
D11*
X245650000Y-88540000D03*
X252000000Y-86000000D03*
G04 #@! TD*
D12*
G04 #@! TO.C,SW60*
X249460000Y-110080000D03*
D11*
X245650000Y-107540000D03*
X252000000Y-105000000D03*
G04 #@! TD*
G04 #@! TO.C,SW61*
X271000000Y-29000000D03*
X264650000Y-31540000D03*
D12*
X268460000Y-34080000D03*
G04 #@! TD*
G04 #@! TO.C,SW62*
X268460000Y-53080000D03*
D11*
X264650000Y-50540000D03*
X271000000Y-48000000D03*
G04 #@! TD*
D12*
G04 #@! TO.C,SW63*
X268460000Y-72080000D03*
D11*
X264650000Y-69540000D03*
X271000000Y-67000000D03*
G04 #@! TD*
D12*
G04 #@! TO.C,SW65*
X268460000Y-110080000D03*
D11*
X264650000Y-107540000D03*
X271000000Y-105000000D03*
G04 #@! TD*
G04 #@! TO.C,SW66*
X290000000Y-29000000D03*
X283650000Y-31540000D03*
D12*
X287460000Y-34080000D03*
G04 #@! TD*
G04 #@! TO.C,SW67*
X287460000Y-53080000D03*
D11*
X283650000Y-50540000D03*
X290000000Y-48000000D03*
G04 #@! TD*
D12*
G04 #@! TO.C,SW68*
X287460000Y-72080000D03*
D11*
X283650000Y-69540000D03*
X290000000Y-67000000D03*
G04 #@! TD*
D12*
G04 #@! TO.C,SW69*
X287500000Y-91000000D03*
D11*
X283690000Y-88460000D03*
X290040000Y-85920000D03*
G04 #@! TD*
G04 #@! TO.C,SW70*
X290000000Y-105000000D03*
X283650000Y-107540000D03*
D12*
X287460000Y-110080000D03*
G04 #@! TD*
D18*
G04 #@! TO.C,SW_BOOT0*
X164084000Y-62992000D03*
X170584000Y-62992000D03*
X164084000Y-58492000D03*
X170584000Y-58492000D03*
G04 #@! TD*
D11*
G04 #@! TO.C,REF\002A\002A*
X49974500Y-34124900D03*
G04 #@! TD*
G04 #@! TO.C,REF\002A\002A*
X49974500Y-110121700D03*
G04 #@! TD*
G04 #@! TO.C,REF\002A\002A*
X163982400Y-34137600D03*
G04 #@! TD*
G04 #@! TO.C,REF\002A\002A*
X163969700Y-91135200D03*
G04 #@! TD*
G04 #@! TO.C,REF\002A\002A*
X277977600Y-34124900D03*
G04 #@! TD*
G04 #@! TO.C,REF\002A\002A*
X277964900Y-110121700D03*
G04 #@! TD*
M02*
