M48
; DRILL file {KiCad 5.1.4+dfsg1-1} date Sun 22 Dec 2019 02:50:49 PM CST
; FORMAT={-:-/ absolute / inch / decimal}
; #@! TF.CreationDate,2019-12-22T14:50:49-06:00
; #@! TF.GenerationSoftware,Kicad,Pcbnew,5.1.4+dfsg1-1
; #@! TF.FileFunction,Plated,1,2,PTH
FMAT,2
INCH
T1C0.0118
T2C0.0394
%
G90
G05
T1
X1.21Y-1.03
X1.28Y-1.08
X1.6Y-1.01
X1.88Y-1.4013
X1.91Y-1.06
X1.91Y-1.34
X1.91Y-1.4013
X1.96Y-0.91
X2.04Y-1.33
X2.07Y-0.97
X2.13Y-1.47
X2.15Y-0.97
X2.19Y-1.43
X2.2Y-1.03
X2.2541Y-1.41
X2.28Y-1.45
X2.28Y-1.48
X2.3Y-1.0
X2.3Y-1.59
X2.3202Y-1.5598
X2.33Y-1.48
X2.37Y-1.48
X2.4Y-0.96
X2.48Y-1.0
X2.5Y-1.19
X2.53Y-1.17
X2.53Y-1.25
X2.55Y-1.3
X2.56Y-1.34
X2.64Y-1.38
X2.65Y-1.5
X2.6751Y-1.5137
X2.79Y-1.06
X2.9Y-1.04
X2.92Y-1.3
X3.12Y-0.93
X3.14Y-1.51
T2
X2.98Y-1.12
X2.98Y-1.2972
X3.2359Y-1.12
X3.2359Y-1.2972
T2
G00X1.1095Y-1.0
M15
G01X1.0505Y-1.0
M16
G05
G00X1.1095Y-1.4488
M15
G01X1.0505Y-1.4488
M16
G05
T0
M30
