G04 #@! TF.GenerationSoftware,KiCad,Pcbnew,5.1.4+dfsg1-1*
G04 #@! TF.CreationDate,2019-12-28T11:26:46-06:00*
G04 #@! TF.ProjectId,oxidized_flash,6f786964-697a-4656-945f-666c6173682e,rev?*
G04 #@! TF.SameCoordinates,Original*
G04 #@! TF.FileFunction,Soldermask,Bot*
G04 #@! TF.FilePolarity,Negative*
%FSLAX46Y46*%
G04 Gerber Fmt 4.6, Leading zero omitted, Abs format (unit mm)*
G04 Created by KiCad (PCBNEW 5.1.4+dfsg1-1) date 2019-12-28 11:26:46*
%MOMM*%
%LPD*%
G04 APERTURE LIST*
%ADD10C,0.100000*%
G04 APERTURE END LIST*
D10*
G36*
X28838984Y-36010788D02*
G01*
X28989935Y-36056578D01*
X28989938Y-36056579D01*
X29129052Y-36130937D01*
X29250990Y-36231010D01*
X29351063Y-36352948D01*
X29425421Y-36492062D01*
X29425422Y-36492065D01*
X29471212Y-36643016D01*
X29486674Y-36800000D01*
X29471212Y-36956984D01*
X29425422Y-37107935D01*
X29425421Y-37107938D01*
X29351063Y-37247052D01*
X29250990Y-37368990D01*
X29129052Y-37469063D01*
X28989938Y-37543421D01*
X28989935Y-37543422D01*
X28838984Y-37589212D01*
X28721332Y-37600800D01*
X26142668Y-37600800D01*
X26025016Y-37589212D01*
X25874065Y-37543422D01*
X25874062Y-37543421D01*
X25734948Y-37469063D01*
X25613010Y-37368990D01*
X25512937Y-37247052D01*
X25438579Y-37107938D01*
X25438578Y-37107935D01*
X25392788Y-36956984D01*
X25377326Y-36800000D01*
X25392788Y-36643016D01*
X25438578Y-36492065D01*
X25438579Y-36492062D01*
X25512937Y-36352948D01*
X25613010Y-36231010D01*
X25734948Y-36130937D01*
X25874062Y-36056579D01*
X25874065Y-36056578D01*
X26025016Y-36010788D01*
X26142668Y-35999200D01*
X28721332Y-35999200D01*
X28838984Y-36010788D01*
X28838984Y-36010788D01*
G37*
G36*
X82324229Y-32055854D02*
G01*
X82454757Y-32081817D01*
X82618690Y-32149721D01*
X82766222Y-32248299D01*
X82766224Y-32248301D01*
X82766227Y-32248303D01*
X82891697Y-32373773D01*
X82891699Y-32373776D01*
X82891701Y-32373778D01*
X82990279Y-32521310D01*
X83058183Y-32685243D01*
X83092800Y-32859280D01*
X83092800Y-33036720D01*
X83058183Y-33210757D01*
X82990279Y-33374690D01*
X82891701Y-33522222D01*
X82891699Y-33522224D01*
X82891697Y-33522227D01*
X82766227Y-33647697D01*
X82766224Y-33647699D01*
X82766222Y-33647701D01*
X82618690Y-33746279D01*
X82454757Y-33814183D01*
X82324229Y-33840146D01*
X82280721Y-33848800D01*
X82103279Y-33848800D01*
X82059771Y-33840146D01*
X81929243Y-33814183D01*
X81765310Y-33746279D01*
X81617778Y-33647701D01*
X81617776Y-33647699D01*
X81617773Y-33647697D01*
X81492303Y-33522227D01*
X81492301Y-33522224D01*
X81492299Y-33522222D01*
X81393721Y-33374690D01*
X81325817Y-33210757D01*
X81291200Y-33036720D01*
X81291200Y-32859280D01*
X81325817Y-32685243D01*
X81393721Y-32521310D01*
X81492299Y-32373778D01*
X81492301Y-32373776D01*
X81492303Y-32373773D01*
X81617773Y-32248303D01*
X81617776Y-32248301D01*
X81617778Y-32248299D01*
X81765310Y-32149721D01*
X81929243Y-32081817D01*
X82059771Y-32055854D01*
X82103279Y-32047200D01*
X82280721Y-32047200D01*
X82324229Y-32055854D01*
X82324229Y-32055854D01*
G37*
G36*
X75824229Y-32055854D02*
G01*
X75954757Y-32081817D01*
X76118690Y-32149721D01*
X76266222Y-32248299D01*
X76266224Y-32248301D01*
X76266227Y-32248303D01*
X76391697Y-32373773D01*
X76391699Y-32373776D01*
X76391701Y-32373778D01*
X76490279Y-32521310D01*
X76558183Y-32685243D01*
X76592800Y-32859280D01*
X76592800Y-33036720D01*
X76558183Y-33210757D01*
X76490279Y-33374690D01*
X76391701Y-33522222D01*
X76391699Y-33522224D01*
X76391697Y-33522227D01*
X76266227Y-33647697D01*
X76266224Y-33647699D01*
X76266222Y-33647701D01*
X76118690Y-33746279D01*
X75954757Y-33814183D01*
X75824229Y-33840146D01*
X75780721Y-33848800D01*
X75603279Y-33848800D01*
X75559771Y-33840146D01*
X75429243Y-33814183D01*
X75265310Y-33746279D01*
X75117778Y-33647701D01*
X75117776Y-33647699D01*
X75117773Y-33647697D01*
X74992303Y-33522227D01*
X74992301Y-33522224D01*
X74992299Y-33522222D01*
X74893721Y-33374690D01*
X74825817Y-33210757D01*
X74791200Y-33036720D01*
X74791200Y-32859280D01*
X74825817Y-32685243D01*
X74893721Y-32521310D01*
X74992299Y-32373778D01*
X74992301Y-32373776D01*
X74992303Y-32373773D01*
X75117773Y-32248303D01*
X75117776Y-32248301D01*
X75117778Y-32248299D01*
X75265310Y-32149721D01*
X75429243Y-32081817D01*
X75559771Y-32055854D01*
X75603279Y-32047200D01*
X75780721Y-32047200D01*
X75824229Y-32055854D01*
X75824229Y-32055854D01*
G37*
G36*
X82324229Y-27555854D02*
G01*
X82454757Y-27581817D01*
X82618690Y-27649721D01*
X82766222Y-27748299D01*
X82766224Y-27748301D01*
X82766227Y-27748303D01*
X82891697Y-27873773D01*
X82891699Y-27873776D01*
X82891701Y-27873778D01*
X82990279Y-28021310D01*
X83058183Y-28185243D01*
X83092800Y-28359280D01*
X83092800Y-28536720D01*
X83058183Y-28710757D01*
X82990279Y-28874690D01*
X82891701Y-29022222D01*
X82891699Y-29022224D01*
X82891697Y-29022227D01*
X82766227Y-29147697D01*
X82766224Y-29147699D01*
X82766222Y-29147701D01*
X82618690Y-29246279D01*
X82454757Y-29314183D01*
X82324229Y-29340146D01*
X82280721Y-29348800D01*
X82103279Y-29348800D01*
X82059771Y-29340146D01*
X81929243Y-29314183D01*
X81765310Y-29246279D01*
X81617778Y-29147701D01*
X81617776Y-29147699D01*
X81617773Y-29147697D01*
X81492303Y-29022227D01*
X81492301Y-29022224D01*
X81492299Y-29022222D01*
X81393721Y-28874690D01*
X81325817Y-28710757D01*
X81291200Y-28536720D01*
X81291200Y-28359280D01*
X81325817Y-28185243D01*
X81393721Y-28021310D01*
X81492299Y-27873778D01*
X81492301Y-27873776D01*
X81492303Y-27873773D01*
X81617773Y-27748303D01*
X81617776Y-27748301D01*
X81617778Y-27748299D01*
X81765310Y-27649721D01*
X81929243Y-27581817D01*
X82059771Y-27555854D01*
X82103279Y-27547200D01*
X82280721Y-27547200D01*
X82324229Y-27555854D01*
X82324229Y-27555854D01*
G37*
G36*
X75824229Y-27555854D02*
G01*
X75954757Y-27581817D01*
X76118690Y-27649721D01*
X76266222Y-27748299D01*
X76266224Y-27748301D01*
X76266227Y-27748303D01*
X76391697Y-27873773D01*
X76391699Y-27873776D01*
X76391701Y-27873778D01*
X76490279Y-28021310D01*
X76558183Y-28185243D01*
X76592800Y-28359280D01*
X76592800Y-28536720D01*
X76558183Y-28710757D01*
X76490279Y-28874690D01*
X76391701Y-29022222D01*
X76391699Y-29022224D01*
X76391697Y-29022227D01*
X76266227Y-29147697D01*
X76266224Y-29147699D01*
X76266222Y-29147701D01*
X76118690Y-29246279D01*
X75954757Y-29314183D01*
X75824229Y-29340146D01*
X75780721Y-29348800D01*
X75603279Y-29348800D01*
X75559771Y-29340146D01*
X75429243Y-29314183D01*
X75265310Y-29246279D01*
X75117778Y-29147701D01*
X75117776Y-29147699D01*
X75117773Y-29147697D01*
X74992303Y-29022227D01*
X74992301Y-29022224D01*
X74992299Y-29022222D01*
X74893721Y-28874690D01*
X74825817Y-28710757D01*
X74791200Y-28536720D01*
X74791200Y-28359280D01*
X74825817Y-28185243D01*
X74893721Y-28021310D01*
X74992299Y-27873778D01*
X74992301Y-27873776D01*
X74992303Y-27873773D01*
X75117773Y-27748303D01*
X75117776Y-27748301D01*
X75117778Y-27748299D01*
X75265310Y-27649721D01*
X75429243Y-27581817D01*
X75559771Y-27555854D01*
X75603279Y-27547200D01*
X75780721Y-27547200D01*
X75824229Y-27555854D01*
X75824229Y-27555854D01*
G37*
G36*
X28838984Y-24610788D02*
G01*
X28989935Y-24656578D01*
X28989938Y-24656579D01*
X29129052Y-24730937D01*
X29250990Y-24831010D01*
X29351063Y-24952948D01*
X29425421Y-25092062D01*
X29425422Y-25092065D01*
X29471212Y-25243016D01*
X29486674Y-25400000D01*
X29471212Y-25556984D01*
X29425422Y-25707935D01*
X29425421Y-25707938D01*
X29351063Y-25847052D01*
X29250990Y-25968990D01*
X29129052Y-26069063D01*
X28989938Y-26143421D01*
X28989935Y-26143422D01*
X28838984Y-26189212D01*
X28721332Y-26200800D01*
X26142668Y-26200800D01*
X26025016Y-26189212D01*
X25874065Y-26143422D01*
X25874062Y-26143421D01*
X25734948Y-26069063D01*
X25613010Y-25968990D01*
X25512937Y-25847052D01*
X25438579Y-25707938D01*
X25438578Y-25707935D01*
X25392788Y-25556984D01*
X25377326Y-25400000D01*
X25392788Y-25243016D01*
X25438578Y-25092065D01*
X25438579Y-25092062D01*
X25512937Y-24952948D01*
X25613010Y-24831010D01*
X25734948Y-24730937D01*
X25874062Y-24656579D01*
X25874065Y-24656578D01*
X26025016Y-24610788D01*
X26142668Y-24599200D01*
X28721332Y-24599200D01*
X28838984Y-24610788D01*
X28838984Y-24610788D01*
G37*
M02*
