G04 #@! TF.GenerationSoftware,KiCad,Pcbnew,5.1.4+dfsg1-1*
G04 #@! TF.CreationDate,2019-12-28T11:26:46-06:00*
G04 #@! TF.ProjectId,oxidized_flash,6f786964-697a-4656-945f-666c6173682e,rev?*
G04 #@! TF.SameCoordinates,Original*
G04 #@! TF.FileFunction,Copper,L1,Top*
G04 #@! TF.FilePolarity,Positive*
%FSLAX46Y46*%
G04 Gerber Fmt 4.6, Leading zero omitted, Abs format (unit mm)*
G04 Created by KiCad (PCBNEW 5.1.4+dfsg1-1) date 2019-12-28 11:26:46*
%MOMM*%
%LPD*%
G04 APERTURE LIST*
%ADD10R,2.000000X1.500000*%
%ADD11R,2.000000X3.800000*%
%ADD12R,2.000000X1.100000*%
%ADD13R,1.800000X0.500000*%
%ADD14R,2.000000X1.200000*%
%ADD15O,4.000000X1.500000*%
%ADD16R,0.800000X0.750000*%
%ADD17R,0.800000X0.800000*%
%ADD18R,2.400000X0.740000*%
%ADD19R,0.500000X0.900000*%
%ADD20C,1.700000*%
%ADD21R,1.287500X1.287500*%
%ADD22R,0.250000X0.700000*%
%ADD23R,0.700000X0.250000*%
%ADD24C,0.600000*%
%ADD25C,0.127000*%
%ADD26C,0.250000*%
G04 APERTURE END LIST*
D10*
X32766000Y-28942000D03*
X32766000Y-33542000D03*
X32766000Y-31242000D03*
D11*
X39066000Y-31242000D03*
D12*
X77242000Y-36224000D03*
X77242000Y-37924000D03*
X77242000Y-39624000D03*
X82042000Y-39624000D03*
X82042000Y-37924000D03*
X82042000Y-36224000D03*
D13*
X50878000Y-31115000D03*
X50878000Y-29845000D03*
X50878000Y-27305000D03*
X50878000Y-28575000D03*
X50878000Y-26035000D03*
X50878000Y-32385000D03*
X50878000Y-34925000D03*
X50878000Y-33655000D03*
X41578000Y-33655000D03*
X41578000Y-34925000D03*
X41578000Y-32385000D03*
X41578000Y-26035000D03*
X41578000Y-28575000D03*
X41578000Y-27305000D03*
X41578000Y-29845000D03*
X41578000Y-31115000D03*
D12*
X77102000Y-22176000D03*
X77102000Y-23876000D03*
X77102000Y-25576000D03*
X81902000Y-25576000D03*
X81902000Y-23876000D03*
X81902000Y-22176000D03*
D14*
X30032000Y-34600000D03*
X30032000Y-32100000D03*
X30032000Y-30100000D03*
X30032000Y-27600000D03*
D15*
X27432000Y-36800000D03*
X27432000Y-25400000D03*
D16*
X56896000Y-37338000D03*
X55396000Y-37338000D03*
X64008000Y-28702000D03*
X62508000Y-28702000D03*
X56049001Y-23529001D03*
X54549001Y-23529001D03*
X47268000Y-24130000D03*
X48768000Y-24130000D03*
X59899001Y-23529001D03*
X58399001Y-23529001D03*
X52808000Y-23622000D03*
X51308000Y-23622000D03*
D17*
X39408000Y-23114000D03*
X37808000Y-23114000D03*
X33960000Y-23114000D03*
X35560000Y-23114000D03*
D18*
X67646000Y-28448000D03*
X71546000Y-28448000D03*
X67646000Y-29718000D03*
X71546000Y-29718000D03*
X67646000Y-30988000D03*
X71546000Y-30988000D03*
X67646000Y-32258000D03*
X71546000Y-32258000D03*
X67646000Y-33528000D03*
X71546000Y-33528000D03*
D19*
X39370000Y-25908000D03*
X37870000Y-25908000D03*
X35560000Y-25908000D03*
X34060000Y-25908000D03*
X67298000Y-36830000D03*
X65798000Y-36830000D03*
D20*
X75692000Y-28448000D03*
X82192000Y-28448000D03*
X75692000Y-32948000D03*
X82192000Y-32948000D03*
D21*
X55083000Y-29192500D03*
X55083000Y-30480000D03*
X55083000Y-31767500D03*
X55083000Y-33055000D03*
X56370500Y-29192500D03*
X56370500Y-30480000D03*
X56370500Y-31767500D03*
X56370500Y-33055000D03*
X57658000Y-29192500D03*
X57658000Y-30480000D03*
X57658000Y-31767500D03*
X57658000Y-33055000D03*
X58945500Y-29192500D03*
X58945500Y-30480000D03*
X58945500Y-31767500D03*
X58945500Y-33055000D03*
D22*
X54264250Y-27723750D03*
X54764250Y-27723750D03*
X55264250Y-27723750D03*
X55764250Y-27723750D03*
X56264250Y-27723750D03*
X56764250Y-27723750D03*
X57264250Y-27723750D03*
X57764250Y-27723750D03*
X58264250Y-27723750D03*
X58764250Y-27723750D03*
X59264250Y-27723750D03*
X59764250Y-27723750D03*
D23*
X60414250Y-28373750D03*
X60414250Y-28873750D03*
X60414250Y-29373750D03*
X60414250Y-29873750D03*
X60414250Y-30373750D03*
X60414250Y-30873750D03*
X60414250Y-31373750D03*
X60414250Y-31873750D03*
X60414250Y-32373750D03*
X60414250Y-32873750D03*
X60414250Y-33373750D03*
X60414250Y-33873750D03*
D22*
X59764250Y-34523750D03*
X59264250Y-34523750D03*
X58764250Y-34523750D03*
X58264250Y-34523750D03*
X57764250Y-34523750D03*
X57264250Y-34523750D03*
X56764250Y-34523750D03*
X56264250Y-34523750D03*
X55764250Y-34523750D03*
X55264250Y-34523750D03*
X54764250Y-34523750D03*
X54264250Y-34523750D03*
D23*
X53614250Y-33873750D03*
X53614250Y-33373750D03*
X53614250Y-32873750D03*
X53614250Y-32373750D03*
X53614250Y-31873750D03*
X53614250Y-31373750D03*
X53614250Y-30873750D03*
X53614250Y-30373750D03*
X53614250Y-29873750D03*
X53614250Y-29373750D03*
X53614250Y-28873750D03*
X53614250Y-28373750D03*
D16*
X45212000Y-24130000D03*
X43712000Y-24130000D03*
D24*
X70866000Y-26924000D03*
X60960000Y-24384000D03*
X57912000Y-36830000D03*
X52578000Y-24638000D03*
X49784000Y-23114000D03*
X30734000Y-26162000D03*
X54610000Y-24638000D03*
X64262000Y-29718000D03*
X75347522Y-38952478D03*
X49276000Y-33274000D03*
X53594000Y-26670000D03*
X42926000Y-23114000D03*
X75184000Y-24892000D03*
X73660000Y-26416000D03*
X62992000Y-25400000D03*
X58420000Y-25400000D03*
X55880000Y-26162000D03*
X52578000Y-26416000D03*
X50038000Y-24892000D03*
X67056000Y-35052000D03*
X65024000Y-34036000D03*
X59182000Y-37592000D03*
X67834520Y-37596602D03*
X67310000Y-38100000D03*
X60198000Y-37592000D03*
X64262000Y-31750000D03*
X58934068Y-39617932D03*
X63500000Y-30226000D03*
X58420000Y-40386000D03*
X64770000Y-33020000D03*
X74168000Y-33020000D03*
X57912000Y-37592000D03*
X54102000Y-37338000D03*
X57254750Y-35814000D03*
X55626000Y-36322000D03*
X47752000Y-35591999D03*
X49004500Y-32258000D03*
X48514000Y-34036000D03*
X48514000Y-35591999D03*
D25*
X56764250Y-37206250D02*
X56896000Y-37338000D01*
X56764250Y-34523750D02*
X56764250Y-37206250D01*
X71546000Y-28448000D02*
X71546000Y-27604000D01*
X71546000Y-27604000D02*
X70866000Y-26924000D01*
X71546000Y-32258000D02*
X71546000Y-30988000D01*
X71546000Y-30988000D02*
X70716000Y-30988000D01*
X60779000Y-24384000D02*
X60960000Y-24384000D01*
X59899001Y-23529001D02*
X59924001Y-23529001D01*
X59924001Y-23529001D02*
X60779000Y-24384000D01*
X56896000Y-37338000D02*
X57404000Y-37338000D01*
X57404000Y-37338000D02*
X57912000Y-36830000D01*
X52349000Y-24638000D02*
X52578000Y-24638000D01*
X51308000Y-23622000D02*
X51333000Y-23622000D01*
X51333000Y-23622000D02*
X52349000Y-24638000D01*
X42418000Y-24892000D02*
X43440000Y-23870000D01*
X40386000Y-24892000D02*
X42436000Y-24892000D01*
X47293000Y-24130000D02*
X47268000Y-24130000D01*
X47858501Y-23564499D02*
X47293000Y-24130000D01*
X49320401Y-23564499D02*
X47858501Y-23564499D01*
X52832009Y-30068509D02*
X52832009Y-27076107D01*
X53137250Y-30373750D02*
X52832009Y-30068509D01*
X53614250Y-30373750D02*
X53137250Y-30373750D01*
X49320401Y-23564499D02*
X49333501Y-23564499D01*
X49333501Y-23564499D02*
X49784000Y-23114000D01*
D26*
X30032000Y-27600000D02*
X30032000Y-26864000D01*
X30032000Y-26864000D02*
X30734000Y-26162000D01*
D25*
X62336250Y-28873750D02*
X62508000Y-28702000D01*
X60414250Y-28873750D02*
X62336250Y-28873750D01*
X57264250Y-27246750D02*
X57264250Y-27723750D01*
X57264250Y-26219250D02*
X57264250Y-27246750D01*
X54574001Y-23529001D02*
X57264250Y-26219250D01*
X54549001Y-23529001D02*
X54574001Y-23529001D01*
X54549001Y-23529001D02*
X54549001Y-24577001D01*
X54549001Y-24577001D02*
X54610000Y-24638000D01*
X63549000Y-29718000D02*
X64262000Y-29718000D01*
X62508000Y-28702000D02*
X62533000Y-28702000D01*
X62533000Y-28702000D02*
X63549000Y-29718000D01*
D26*
X77242000Y-39624000D02*
X76019044Y-39624000D01*
X76019044Y-39624000D02*
X75347522Y-38952478D01*
X70096000Y-28448000D02*
X71546000Y-28448000D01*
X69850000Y-30742000D02*
X69850000Y-28694000D01*
X69850000Y-28694000D02*
X70096000Y-28448000D01*
X70096000Y-30988000D02*
X69850000Y-30742000D01*
X71546000Y-30988000D02*
X70096000Y-30988000D01*
X30032000Y-28450000D02*
X30032000Y-27600000D01*
X30524000Y-28942000D02*
X30032000Y-28450000D01*
X32766000Y-28942000D02*
X30524000Y-28942000D01*
D25*
X40386000Y-24892000D02*
X39370000Y-25908000D01*
D26*
X35560000Y-26108000D02*
X35560000Y-25908000D01*
X34744000Y-26924000D02*
X35560000Y-26108000D01*
X31496000Y-26924000D02*
X34744000Y-26924000D01*
X30734000Y-26162000D02*
X31496000Y-26924000D01*
D25*
X50878000Y-33655000D02*
X50228000Y-33655000D01*
X49847000Y-33274000D02*
X49276000Y-33274000D01*
X50228000Y-33655000D02*
X49847000Y-33274000D01*
X52832009Y-27076107D02*
X53187893Y-27076107D01*
X53187893Y-27076107D02*
X53594000Y-26670000D01*
X42926000Y-23369000D02*
X42926000Y-23114000D01*
X43712000Y-24130000D02*
X43687000Y-24130000D01*
X43687000Y-24130000D02*
X42926000Y-23369000D01*
X77102000Y-25576000D02*
X75868000Y-25576000D01*
X75868000Y-25576000D02*
X75184000Y-24892000D01*
X55421000Y-37338000D02*
X55396000Y-37338000D01*
X56264250Y-36494750D02*
X55421000Y-37338000D01*
X56264250Y-34523750D02*
X56264250Y-36494750D01*
X52833000Y-23622000D02*
X52808000Y-23622000D01*
X56264250Y-27723750D02*
X56264250Y-27053250D01*
D26*
X55421000Y-37338000D02*
X56691000Y-38608000D01*
X65720000Y-38608000D02*
X67298000Y-37030000D01*
X67298000Y-37030000D02*
X67298000Y-36830000D01*
X56691000Y-38608000D02*
X65720000Y-38608000D01*
X71546000Y-34148000D02*
X71546000Y-33528000D01*
X68864000Y-36830000D02*
X71546000Y-34148000D01*
X67298000Y-36830000D02*
X68864000Y-36830000D01*
X72376000Y-33528000D02*
X73660000Y-32244000D01*
X71546000Y-33528000D02*
X72376000Y-33528000D01*
X73660000Y-32244000D02*
X73660000Y-26416000D01*
X62992000Y-25400000D02*
X58420000Y-25400000D01*
X55880000Y-26162000D02*
X55879500Y-26161500D01*
D25*
X55373000Y-26162000D02*
X55372500Y-26161500D01*
X55880000Y-26162000D02*
X55373000Y-26162000D01*
X56264250Y-27053250D02*
X55372500Y-26161500D01*
X55372500Y-26161500D02*
X52833000Y-23622000D01*
X53137250Y-30873750D02*
X52578000Y-30314500D01*
X53614250Y-30873750D02*
X53137250Y-30873750D01*
X52578000Y-30314500D02*
X52578000Y-27413000D01*
D26*
X45862000Y-24130000D02*
X45212000Y-24130000D01*
X46489001Y-24757001D02*
X45862000Y-24130000D01*
X48743000Y-24130000D02*
X48115999Y-24757001D01*
X48115999Y-24757001D02*
X46489001Y-24757001D01*
X48768000Y-24130000D02*
X48743000Y-24130000D01*
X55371000Y-37338000D02*
X55396000Y-37338000D01*
X54743999Y-37965001D02*
X55371000Y-37338000D01*
D25*
X63417499Y-28136499D02*
X63983000Y-28702000D01*
X61955599Y-28136499D02*
X63417499Y-28136499D01*
X61718348Y-28373750D02*
X61955599Y-28136499D01*
X60414250Y-28373750D02*
X61718348Y-28373750D01*
X63983000Y-28702000D02*
X64008000Y-28702000D01*
D26*
X64008000Y-26416000D02*
X62992000Y-25400000D01*
X64008000Y-28702000D02*
X64008000Y-26416000D01*
X33016000Y-31242000D02*
X36322000Y-27936000D01*
X36322000Y-24526000D02*
X35560000Y-23764000D01*
X36322000Y-27936000D02*
X36322000Y-24526000D01*
X35560000Y-23764000D02*
X35560000Y-23114000D01*
X36322000Y-27936000D02*
X36326000Y-27936000D01*
X36957000Y-27305000D02*
X41578000Y-27305000D01*
X36326000Y-27936000D02*
X36957000Y-27305000D01*
X41578000Y-27305000D02*
X40928000Y-27305000D01*
X40428000Y-27305000D02*
X40132000Y-27009000D01*
X40132000Y-27009000D02*
X40132000Y-26416000D01*
X41578000Y-27305000D02*
X40428000Y-27305000D01*
X40132000Y-26802999D02*
X40132000Y-26416000D01*
X40578490Y-25207510D02*
X44109490Y-25207510D01*
X44109490Y-25207510D02*
X45187000Y-24130000D01*
X40132000Y-25654000D02*
X40578490Y-25207510D01*
X45187000Y-24130000D02*
X45212000Y-24130000D01*
X40132000Y-26416000D02*
X40132000Y-25654000D01*
D25*
X52578000Y-27413000D02*
X52578000Y-26416000D01*
X49700264Y-24130000D02*
X48768000Y-24130000D01*
X50038000Y-24467736D02*
X49700264Y-24130000D01*
X50038000Y-24892000D02*
X50038000Y-24467736D01*
D26*
X41161001Y-37965001D02*
X41521001Y-37965001D01*
X39739001Y-37965001D02*
X41521001Y-37965001D01*
X33016000Y-31242000D02*
X39739001Y-37965001D01*
X32766000Y-31242000D02*
X33016000Y-31242000D01*
X41521001Y-37965001D02*
X54743999Y-37965001D01*
D25*
X58399001Y-24031001D02*
X57764250Y-24665752D01*
X58399001Y-23529001D02*
X58399001Y-24031001D01*
X57764250Y-27246750D02*
X57764250Y-27723750D01*
X57764250Y-25219250D02*
X57764250Y-25506250D01*
X56074001Y-23529001D02*
X57764250Y-25219250D01*
X56049001Y-23529001D02*
X56074001Y-23529001D01*
X57764250Y-24665752D02*
X57764250Y-25506250D01*
X57764250Y-25506250D02*
X57764250Y-27246750D01*
X68034902Y-35052000D02*
X67056000Y-35052000D01*
X69290511Y-33796391D02*
X68034902Y-35052000D01*
X40951019Y-22097981D02*
X63568107Y-22097981D01*
X39935000Y-23114000D02*
X40951019Y-22097981D01*
X39408000Y-23114000D02*
X39935000Y-23114000D01*
X69290511Y-27820385D02*
X69290511Y-33796391D01*
X63568107Y-22097981D02*
X69290511Y-27820385D01*
X62861750Y-31873750D02*
X60414250Y-31873750D01*
X65024000Y-34036000D02*
X62861750Y-31873750D01*
D26*
X37870000Y-23176000D02*
X37808000Y-23114000D01*
X37870000Y-25908000D02*
X37870000Y-23176000D01*
D25*
X59182000Y-37592000D02*
X59182000Y-36935224D01*
X59182000Y-36935224D02*
X58264250Y-36017474D01*
X58264250Y-36017474D02*
X58264250Y-35000750D01*
X58264250Y-35000750D02*
X58264250Y-34523750D01*
X68247623Y-37183499D02*
X75155501Y-37183499D01*
X76115000Y-36224000D02*
X77242000Y-36224000D01*
X75155501Y-37183499D02*
X76115000Y-36224000D01*
X67834520Y-37596602D02*
X68247623Y-37183499D01*
X83169000Y-36224000D02*
X83504480Y-35888520D01*
X82042000Y-36224000D02*
X83169000Y-36224000D01*
X83504480Y-35888520D02*
X83504480Y-27370480D01*
X83504480Y-27370480D02*
X83312000Y-27178000D01*
X77552000Y-22176000D02*
X77102000Y-22176000D01*
X78292501Y-22916501D02*
X77552000Y-22176000D01*
X78292501Y-23859403D02*
X78292501Y-22916501D01*
X80749599Y-26316501D02*
X78292501Y-23859403D01*
X82240195Y-26316501D02*
X80749599Y-26316501D01*
X83101694Y-27178000D02*
X82240195Y-26316501D01*
X83312000Y-27178000D02*
X83101694Y-27178000D01*
X82888000Y-38100000D02*
X82638000Y-38100000D01*
X80518000Y-35855098D02*
X80518000Y-36850000D01*
X83058000Y-35052000D02*
X81321098Y-35052000D01*
X81592000Y-37924000D02*
X82042000Y-37924000D01*
X83250470Y-34859530D02*
X83058000Y-35052000D01*
X83250470Y-27686000D02*
X83250470Y-34859530D01*
X77102000Y-23876000D02*
X77552000Y-23876000D01*
X77552000Y-23876000D02*
X80600000Y-26924000D01*
X80518000Y-36850000D02*
X81592000Y-37924000D01*
X81321098Y-35052000D02*
X80518000Y-35855098D01*
X80600000Y-26924000D02*
X82488470Y-26924000D01*
X82488470Y-26924000D02*
X83250470Y-27686000D01*
D26*
X31282000Y-34600000D02*
X35682000Y-39000000D01*
X30032000Y-34600000D02*
X31186000Y-34600000D01*
X31186000Y-34600000D02*
X31282000Y-34600000D01*
X74614398Y-39000000D02*
X76762398Y-41148000D01*
X35682000Y-39000000D02*
X74614398Y-39000000D01*
X80792000Y-39624000D02*
X82042000Y-39624000D01*
X79268000Y-41148000D02*
X80792000Y-39624000D01*
X76762398Y-41148000D02*
X79268000Y-41148000D01*
X82352000Y-25576000D02*
X81902000Y-25576000D01*
X84074000Y-25908000D02*
X83742000Y-25576000D01*
X83239601Y-39502001D02*
X84074000Y-38667602D01*
X83742000Y-25576000D02*
X81902000Y-25576000D01*
X84074000Y-38667602D02*
X84074000Y-25908000D01*
X30240000Y-33542000D02*
X31516000Y-33542000D01*
X31516000Y-33542000D02*
X32766000Y-33542000D01*
X30032000Y-33750000D02*
X30240000Y-33542000D01*
X30032000Y-34600000D02*
X30032000Y-33750000D01*
X82163999Y-39502001D02*
X82042000Y-39624000D01*
X83239601Y-39502001D02*
X82163999Y-39502001D01*
D25*
X58764250Y-36158250D02*
X58764250Y-34523750D01*
X60198000Y-37592000D02*
X58764250Y-36158250D01*
X77066000Y-38100000D02*
X77242000Y-37924000D01*
X67310000Y-38100000D02*
X77066000Y-38100000D01*
D26*
X34060000Y-23214000D02*
X33960000Y-23114000D01*
X34060000Y-25908000D02*
X34060000Y-23214000D01*
D25*
X62385750Y-29873750D02*
X60414250Y-29873750D01*
X64262000Y-31750000D02*
X62385750Y-29873750D01*
X28905000Y-32100000D02*
X30032000Y-32100000D01*
X29632000Y-32100000D02*
X30032000Y-32100000D01*
X28841499Y-32890501D02*
X29632000Y-32100000D01*
X28841499Y-35629418D02*
X28841499Y-32890501D01*
X32830013Y-39617932D02*
X28841499Y-35629418D01*
X58934068Y-39617932D02*
X32830013Y-39617932D01*
X63500000Y-30226000D02*
X62647750Y-29373750D01*
X62647750Y-29373750D02*
X60414250Y-29373750D01*
X25241490Y-34490510D02*
X29632000Y-30100000D01*
X25241490Y-37189571D02*
X25241490Y-34490510D01*
X29632000Y-30100000D02*
X30032000Y-30100000D01*
X28437919Y-40386000D02*
X25241490Y-37189571D01*
X58420000Y-40386000D02*
X28437919Y-40386000D01*
X66319000Y-32258000D02*
X65786000Y-31725000D01*
X67646000Y-32258000D02*
X66319000Y-32258000D01*
X65786000Y-31725000D02*
X65786000Y-27178000D01*
X65786000Y-27178000D02*
X61214000Y-22606000D01*
X51714098Y-25146000D02*
X53997776Y-25146000D01*
X50717499Y-24149401D02*
X51714098Y-25146000D01*
X50717499Y-23094599D02*
X50717499Y-24149401D01*
X61214000Y-22606000D02*
X51206098Y-22606000D01*
X51206098Y-22606000D02*
X50717499Y-23094599D01*
X55764250Y-26912474D02*
X55764250Y-27723750D01*
X53997776Y-25146000D02*
X55764250Y-26912474D01*
X66816000Y-32258000D02*
X67646000Y-32258000D01*
X65798000Y-33276000D02*
X66816000Y-32258000D01*
X65798000Y-36830000D02*
X65798000Y-33276000D01*
X53892562Y-25400010D02*
X55264250Y-26771698D01*
X51562010Y-25400010D02*
X53892562Y-25400010D01*
X50463489Y-24301479D02*
X51562010Y-25400000D01*
X63462892Y-22351990D02*
X51100884Y-22351990D01*
X50463489Y-22989385D02*
X50463489Y-24301489D01*
X51100884Y-22351990D02*
X50463489Y-22989385D01*
X69036501Y-27925599D02*
X63462892Y-22351990D01*
X69036501Y-33464499D02*
X69036501Y-27925599D01*
X68973000Y-33528000D02*
X69036501Y-33464499D01*
X55264250Y-26771698D02*
X55264250Y-27723750D01*
X67646000Y-33528000D02*
X68973000Y-33528000D01*
X60414250Y-31373750D02*
X63123750Y-31373750D01*
X63123750Y-31373750D02*
X64770000Y-33020000D01*
X74168000Y-29972000D02*
X75692000Y-28448000D01*
X74168000Y-33020000D02*
X74168000Y-29972000D01*
X58402501Y-37101499D02*
X57912000Y-37592000D01*
X58402501Y-36594559D02*
X58402501Y-37101499D01*
X57764250Y-34523750D02*
X57764250Y-35956308D01*
X57764250Y-35956308D02*
X58402501Y-36594559D01*
X40928000Y-33655000D02*
X41578000Y-33655000D01*
X40132000Y-34971902D02*
X40132000Y-34451000D01*
X40132000Y-34451000D02*
X40928000Y-33655000D01*
X42498098Y-37338000D02*
X40132000Y-34971902D01*
X54102000Y-37338000D02*
X42498098Y-37338000D01*
X57264250Y-34523750D02*
X57264250Y-35804500D01*
X57264250Y-35804500D02*
X57254750Y-35814000D01*
X48782000Y-36621999D02*
X47752000Y-35591999D01*
X55626000Y-36322000D02*
X55326001Y-36621999D01*
X55326001Y-36621999D02*
X48782000Y-36621999D01*
X49004500Y-32258000D02*
X49004500Y-26687500D01*
X50840776Y-26035000D02*
X50859388Y-26053612D01*
X49004500Y-26687500D02*
X49657000Y-26035000D01*
X49657000Y-26035000D02*
X50840776Y-26035000D01*
X49244001Y-36322000D02*
X48514000Y-35591999D01*
X54102000Y-36322000D02*
X49244001Y-36322000D01*
X54443000Y-36322000D02*
X54102000Y-36322000D01*
X55764250Y-34523750D02*
X55764250Y-35000750D01*
X55764250Y-35000750D02*
X54443000Y-36322000D01*
X48514000Y-34036000D02*
X48514000Y-26670000D01*
X47879000Y-26035000D02*
X41578000Y-26035000D01*
X48514000Y-26670000D02*
X47879000Y-26035000D01*
X55264250Y-35000750D02*
X54197000Y-36068000D01*
X54197000Y-36068000D02*
X51547000Y-36068000D01*
X55264250Y-34523750D02*
X55264250Y-35000750D01*
X50878000Y-35399000D02*
X50878000Y-34925000D01*
X51547000Y-36068000D02*
X50878000Y-35399000D01*
X54764250Y-35000750D02*
X53951000Y-35814000D01*
X54764250Y-34523750D02*
X54764250Y-35000750D01*
X51968501Y-34522599D02*
X51735902Y-34290000D01*
X51968501Y-35204501D02*
X51968501Y-34522599D01*
X53951000Y-35814000D02*
X52578000Y-35814000D01*
X52578000Y-35814000D02*
X51968501Y-35204501D01*
X48350942Y-34925000D02*
X42605000Y-34925000D01*
X48985942Y-34290000D02*
X48350942Y-34925000D01*
X42605000Y-34925000D02*
X41578000Y-34925000D01*
X51735902Y-34290000D02*
X48985942Y-34290000D01*
X51528000Y-27305000D02*
X50878000Y-27305000D01*
X52306501Y-28083501D02*
X51528000Y-27305000D01*
X54264250Y-34523750D02*
X54264250Y-35000750D01*
X54264250Y-35000750D02*
X53705000Y-35560000D01*
X53340000Y-35560000D02*
X52306501Y-34526501D01*
X53705000Y-35560000D02*
X53340000Y-35560000D01*
X52306501Y-34526501D02*
X52306501Y-28083501D01*
M02*
