G04 #@! TF.GenerationSoftware,KiCad,Pcbnew,5.1.4+dfsg1-1*
G04 #@! TF.CreationDate,2019-12-22T14:50:52-06:00*
G04 #@! TF.ProjectId,oxidized_flash,6f786964-697a-4656-945f-666c6173682e,rev?*
G04 #@! TF.SameCoordinates,Original*
G04 #@! TF.FileFunction,Legend,Top*
G04 #@! TF.FilePolarity,Positive*
%FSLAX46Y46*%
G04 Gerber Fmt 4.6, Leading zero omitted, Abs format (unit mm)*
G04 Created by KiCad (PCBNEW 5.1.4+dfsg1-1) date 2019-12-22 14:50:52*
%MOMM*%
%LPD*%
G04 APERTURE LIST*
%ADD10C,0.187500*%
%ADD11C,0.120000*%
%ADD12C,0.010000*%
%ADD13C,0.150000*%
%ADD14C,0.350000*%
%ADD15C,0.074930*%
G04 APERTURE END LIST*
D10*
X70289285Y-39975285D02*
X70432142Y-39975285D01*
X70503571Y-40011000D01*
X70575000Y-40082428D01*
X70610714Y-40225285D01*
X70610714Y-40475285D01*
X70575000Y-40618142D01*
X70503571Y-40689571D01*
X70432142Y-40725285D01*
X70289285Y-40725285D01*
X70217857Y-40689571D01*
X70146428Y-40618142D01*
X70110714Y-40475285D01*
X70110714Y-40225285D01*
X70146428Y-40082428D01*
X70217857Y-40011000D01*
X70289285Y-39975285D01*
X70860714Y-40725285D02*
X71253571Y-40225285D01*
X70860714Y-40225285D02*
X71253571Y-40725285D01*
X71539285Y-40725285D02*
X71539285Y-40225285D01*
X71539285Y-39975285D02*
X71503571Y-40011000D01*
X71539285Y-40046714D01*
X71575000Y-40011000D01*
X71539285Y-39975285D01*
X71539285Y-40046714D01*
X72217857Y-40725285D02*
X72217857Y-39975285D01*
X72217857Y-40689571D02*
X72146428Y-40725285D01*
X72003571Y-40725285D01*
X71932142Y-40689571D01*
X71896428Y-40653857D01*
X71860714Y-40582428D01*
X71860714Y-40368142D01*
X71896428Y-40296714D01*
X71932142Y-40261000D01*
X72003571Y-40225285D01*
X72146428Y-40225285D01*
X72217857Y-40261000D01*
X72575000Y-40725285D02*
X72575000Y-40225285D01*
X72575000Y-39975285D02*
X72539285Y-40011000D01*
X72575000Y-40046714D01*
X72610714Y-40011000D01*
X72575000Y-39975285D01*
X72575000Y-40046714D01*
X72860714Y-40225285D02*
X73253571Y-40225285D01*
X72860714Y-40725285D01*
X73253571Y-40725285D01*
X73825000Y-40689571D02*
X73753571Y-40725285D01*
X73610714Y-40725285D01*
X73539285Y-40689571D01*
X73503571Y-40618142D01*
X73503571Y-40332428D01*
X73539285Y-40261000D01*
X73610714Y-40225285D01*
X73753571Y-40225285D01*
X73825000Y-40261000D01*
X73860714Y-40332428D01*
X73860714Y-40403857D01*
X73503571Y-40475285D01*
X74503571Y-40725285D02*
X74503571Y-39975285D01*
X74503571Y-40689571D02*
X74432142Y-40725285D01*
X74289285Y-40725285D01*
X74217857Y-40689571D01*
X74182142Y-40653857D01*
X74146428Y-40582428D01*
X74146428Y-40368142D01*
X74182142Y-40296714D01*
X74217857Y-40261000D01*
X74289285Y-40225285D01*
X74432142Y-40225285D01*
X74503571Y-40261000D01*
X75682142Y-40332428D02*
X75432142Y-40332428D01*
X75432142Y-40725285D02*
X75432142Y-39975285D01*
X75789285Y-39975285D01*
X76182142Y-40725285D02*
X76110714Y-40689571D01*
X76075000Y-40618142D01*
X76075000Y-39975285D01*
X76789285Y-40725285D02*
X76789285Y-40332428D01*
X76753571Y-40261000D01*
X76682142Y-40225285D01*
X76539285Y-40225285D01*
X76467857Y-40261000D01*
X76789285Y-40689571D02*
X76717857Y-40725285D01*
X76539285Y-40725285D01*
X76467857Y-40689571D01*
X76432142Y-40618142D01*
X76432142Y-40546714D01*
X76467857Y-40475285D01*
X76539285Y-40439571D01*
X76717857Y-40439571D01*
X76789285Y-40403857D01*
X77110714Y-40689571D02*
X77182142Y-40725285D01*
X77325000Y-40725285D01*
X77396428Y-40689571D01*
X77432142Y-40618142D01*
X77432142Y-40582428D01*
X77396428Y-40511000D01*
X77325000Y-40475285D01*
X77217857Y-40475285D01*
X77146428Y-40439571D01*
X77110714Y-40368142D01*
X77110714Y-40332428D01*
X77146428Y-40261000D01*
X77217857Y-40225285D01*
X77325000Y-40225285D01*
X77396428Y-40261000D01*
X77753571Y-40725285D02*
X77753571Y-39975285D01*
X78075000Y-40725285D02*
X78075000Y-40332428D01*
X78039285Y-40261000D01*
X77967857Y-40225285D01*
X77860714Y-40225285D01*
X77789285Y-40261000D01*
X77753571Y-40296714D01*
X79432142Y-40725285D02*
X79182142Y-40368142D01*
X79003571Y-40725285D02*
X79003571Y-39975285D01*
X79289285Y-39975285D01*
X79360714Y-40011000D01*
X79396428Y-40046714D01*
X79432142Y-40118142D01*
X79432142Y-40225285D01*
X79396428Y-40296714D01*
X79360714Y-40332428D01*
X79289285Y-40368142D01*
X79003571Y-40368142D01*
X80039285Y-40689571D02*
X79967857Y-40725285D01*
X79825000Y-40725285D01*
X79753571Y-40689571D01*
X79717857Y-40618142D01*
X79717857Y-40332428D01*
X79753571Y-40261000D01*
X79825000Y-40225285D01*
X79967857Y-40225285D01*
X80039285Y-40261000D01*
X80075000Y-40332428D01*
X80075000Y-40403857D01*
X79717857Y-40475285D01*
X80325000Y-40225285D02*
X80503571Y-40725285D01*
X80682142Y-40225285D01*
X80967857Y-40653857D02*
X81003571Y-40689571D01*
X80967857Y-40725285D01*
X80932142Y-40689571D01*
X80967857Y-40653857D01*
X80967857Y-40725285D01*
X82289285Y-40725285D02*
X81860714Y-40725285D01*
X82075000Y-40725285D02*
X82075000Y-39975285D01*
X82003571Y-40082428D01*
X81932142Y-40153857D01*
X81860714Y-40189571D01*
D11*
X24832000Y-25400000D02*
X24832000Y-36800000D01*
D12*
G36*
X71005744Y-25795918D02*
G01*
X71061201Y-25823568D01*
X71110148Y-25874480D01*
X71123629Y-25893338D01*
X71138314Y-25918015D01*
X71147842Y-25944816D01*
X71153293Y-25980587D01*
X71155747Y-26032169D01*
X71156286Y-26100267D01*
X71153852Y-26193588D01*
X71145394Y-26263657D01*
X71129174Y-26315931D01*
X71103454Y-26355869D01*
X71066497Y-26388929D01*
X71063782Y-26390886D01*
X71027360Y-26410908D01*
X70983502Y-26420815D01*
X70927724Y-26423257D01*
X70837048Y-26423257D01*
X70837010Y-26511283D01*
X70836166Y-26560308D01*
X70831024Y-26589065D01*
X70817587Y-26606311D01*
X70791858Y-26620808D01*
X70785679Y-26623769D01*
X70756764Y-26637648D01*
X70734376Y-26646414D01*
X70717729Y-26647171D01*
X70706036Y-26637023D01*
X70698510Y-26613073D01*
X70694366Y-26572426D01*
X70692815Y-26512186D01*
X70693071Y-26429455D01*
X70694349Y-26321339D01*
X70694748Y-26289000D01*
X70696185Y-26177524D01*
X70697472Y-26104603D01*
X70836971Y-26104603D01*
X70837755Y-26166499D01*
X70841240Y-26206997D01*
X70849124Y-26233708D01*
X70863105Y-26254244D01*
X70872597Y-26264260D01*
X70911404Y-26293567D01*
X70945763Y-26295952D01*
X70981216Y-26271750D01*
X70982114Y-26270857D01*
X70996539Y-26252153D01*
X71005313Y-26226732D01*
X71009739Y-26187584D01*
X71011118Y-26127697D01*
X71011143Y-26114430D01*
X71007812Y-26031901D01*
X70996969Y-25974691D01*
X70977340Y-25939766D01*
X70947650Y-25924094D01*
X70930491Y-25922514D01*
X70889766Y-25929926D01*
X70861832Y-25954330D01*
X70845017Y-25998980D01*
X70837650Y-26067130D01*
X70836971Y-26104603D01*
X70697472Y-26104603D01*
X70697708Y-26091245D01*
X70699677Y-26026333D01*
X70702450Y-25978958D01*
X70706388Y-25945290D01*
X70711849Y-25921498D01*
X70719192Y-25903753D01*
X70728777Y-25888224D01*
X70732887Y-25882381D01*
X70787405Y-25827185D01*
X70856336Y-25795890D01*
X70936072Y-25787165D01*
X71005744Y-25795918D01*
X71005744Y-25795918D01*
G37*
X71005744Y-25795918D02*
X71061201Y-25823568D01*
X71110148Y-25874480D01*
X71123629Y-25893338D01*
X71138314Y-25918015D01*
X71147842Y-25944816D01*
X71153293Y-25980587D01*
X71155747Y-26032169D01*
X71156286Y-26100267D01*
X71153852Y-26193588D01*
X71145394Y-26263657D01*
X71129174Y-26315931D01*
X71103454Y-26355869D01*
X71066497Y-26388929D01*
X71063782Y-26390886D01*
X71027360Y-26410908D01*
X70983502Y-26420815D01*
X70927724Y-26423257D01*
X70837048Y-26423257D01*
X70837010Y-26511283D01*
X70836166Y-26560308D01*
X70831024Y-26589065D01*
X70817587Y-26606311D01*
X70791858Y-26620808D01*
X70785679Y-26623769D01*
X70756764Y-26637648D01*
X70734376Y-26646414D01*
X70717729Y-26647171D01*
X70706036Y-26637023D01*
X70698510Y-26613073D01*
X70694366Y-26572426D01*
X70692815Y-26512186D01*
X70693071Y-26429455D01*
X70694349Y-26321339D01*
X70694748Y-26289000D01*
X70696185Y-26177524D01*
X70697472Y-26104603D01*
X70836971Y-26104603D01*
X70837755Y-26166499D01*
X70841240Y-26206997D01*
X70849124Y-26233708D01*
X70863105Y-26254244D01*
X70872597Y-26264260D01*
X70911404Y-26293567D01*
X70945763Y-26295952D01*
X70981216Y-26271750D01*
X70982114Y-26270857D01*
X70996539Y-26252153D01*
X71005313Y-26226732D01*
X71009739Y-26187584D01*
X71011118Y-26127697D01*
X71011143Y-26114430D01*
X71007812Y-26031901D01*
X70996969Y-25974691D01*
X70977340Y-25939766D01*
X70947650Y-25924094D01*
X70930491Y-25922514D01*
X70889766Y-25929926D01*
X70861832Y-25954330D01*
X70845017Y-25998980D01*
X70837650Y-26067130D01*
X70836971Y-26104603D01*
X70697472Y-26104603D01*
X70697708Y-26091245D01*
X70699677Y-26026333D01*
X70702450Y-25978958D01*
X70706388Y-25945290D01*
X70711849Y-25921498D01*
X70719192Y-25903753D01*
X70728777Y-25888224D01*
X70732887Y-25882381D01*
X70787405Y-25827185D01*
X70856336Y-25795890D01*
X70936072Y-25787165D01*
X71005744Y-25795918D01*
G36*
X72122093Y-25803780D02*
G01*
X72168672Y-25830723D01*
X72201057Y-25857466D01*
X72224742Y-25885484D01*
X72241059Y-25919748D01*
X72251339Y-25965227D01*
X72256914Y-26026892D01*
X72259116Y-26109711D01*
X72259371Y-26169246D01*
X72259371Y-26388391D01*
X72197686Y-26416044D01*
X72136000Y-26443697D01*
X72128743Y-26203670D01*
X72125744Y-26114028D01*
X72122598Y-26048962D01*
X72118701Y-26004026D01*
X72113447Y-25974770D01*
X72106231Y-25956748D01*
X72096450Y-25945511D01*
X72093312Y-25943079D01*
X72045761Y-25924083D01*
X71997697Y-25931600D01*
X71969086Y-25951543D01*
X71957447Y-25965675D01*
X71949391Y-25984220D01*
X71944271Y-26012334D01*
X71941441Y-26055173D01*
X71940256Y-26117895D01*
X71940057Y-26183261D01*
X71940018Y-26265268D01*
X71938614Y-26323316D01*
X71933914Y-26362465D01*
X71923987Y-26387780D01*
X71906903Y-26404323D01*
X71880732Y-26417156D01*
X71845775Y-26430491D01*
X71807596Y-26445007D01*
X71812141Y-26187389D01*
X71813971Y-26094519D01*
X71816112Y-26025889D01*
X71819181Y-25976711D01*
X71823794Y-25942198D01*
X71830568Y-25917562D01*
X71840119Y-25898016D01*
X71851634Y-25880770D01*
X71907190Y-25825680D01*
X71974980Y-25793822D01*
X72048713Y-25786191D01*
X72122093Y-25803780D01*
X72122093Y-25803780D01*
G37*
X72122093Y-25803780D02*
X72168672Y-25830723D01*
X72201057Y-25857466D01*
X72224742Y-25885484D01*
X72241059Y-25919748D01*
X72251339Y-25965227D01*
X72256914Y-26026892D01*
X72259116Y-26109711D01*
X72259371Y-26169246D01*
X72259371Y-26388391D01*
X72197686Y-26416044D01*
X72136000Y-26443697D01*
X72128743Y-26203670D01*
X72125744Y-26114028D01*
X72122598Y-26048962D01*
X72118701Y-26004026D01*
X72113447Y-25974770D01*
X72106231Y-25956748D01*
X72096450Y-25945511D01*
X72093312Y-25943079D01*
X72045761Y-25924083D01*
X71997697Y-25931600D01*
X71969086Y-25951543D01*
X71957447Y-25965675D01*
X71949391Y-25984220D01*
X71944271Y-26012334D01*
X71941441Y-26055173D01*
X71940256Y-26117895D01*
X71940057Y-26183261D01*
X71940018Y-26265268D01*
X71938614Y-26323316D01*
X71933914Y-26362465D01*
X71923987Y-26387780D01*
X71906903Y-26404323D01*
X71880732Y-26417156D01*
X71845775Y-26430491D01*
X71807596Y-26445007D01*
X71812141Y-26187389D01*
X71813971Y-26094519D01*
X71816112Y-26025889D01*
X71819181Y-25976711D01*
X71823794Y-25942198D01*
X71830568Y-25917562D01*
X71840119Y-25898016D01*
X71851634Y-25880770D01*
X71907190Y-25825680D01*
X71974980Y-25793822D01*
X72048713Y-25786191D01*
X72122093Y-25803780D01*
G36*
X70447115Y-25797962D02*
G01*
X70515145Y-25833733D01*
X70565351Y-25891301D01*
X70583185Y-25928312D01*
X70597063Y-25983882D01*
X70604167Y-26054096D01*
X70604840Y-26130727D01*
X70599427Y-26205552D01*
X70588270Y-26270342D01*
X70571714Y-26316873D01*
X70566626Y-26324887D01*
X70506355Y-26384707D01*
X70434769Y-26420535D01*
X70357092Y-26431020D01*
X70278548Y-26414810D01*
X70256689Y-26405092D01*
X70214122Y-26375143D01*
X70176763Y-26335433D01*
X70173232Y-26330397D01*
X70158881Y-26306124D01*
X70149394Y-26280178D01*
X70143790Y-26246022D01*
X70141086Y-26197119D01*
X70140299Y-26126935D01*
X70140286Y-26111200D01*
X70140322Y-26106192D01*
X70285429Y-26106192D01*
X70286273Y-26172430D01*
X70289596Y-26216386D01*
X70296583Y-26244779D01*
X70308416Y-26264325D01*
X70314457Y-26270857D01*
X70349186Y-26295680D01*
X70382903Y-26294548D01*
X70416995Y-26273016D01*
X70437329Y-26250029D01*
X70449371Y-26216478D01*
X70456134Y-26163569D01*
X70456598Y-26157399D01*
X70457752Y-26061513D01*
X70445688Y-25990299D01*
X70420570Y-25944194D01*
X70382560Y-25923635D01*
X70368992Y-25922514D01*
X70333364Y-25928152D01*
X70308994Y-25947686D01*
X70294093Y-25985042D01*
X70286875Y-26044150D01*
X70285429Y-26106192D01*
X70140322Y-26106192D01*
X70140826Y-26036413D01*
X70143096Y-25984159D01*
X70148068Y-25947949D01*
X70156713Y-25921299D01*
X70170005Y-25897722D01*
X70172943Y-25893338D01*
X70222313Y-25834249D01*
X70276109Y-25799947D01*
X70341602Y-25786331D01*
X70363842Y-25785665D01*
X70447115Y-25797962D01*
X70447115Y-25797962D01*
G37*
X70447115Y-25797962D02*
X70515145Y-25833733D01*
X70565351Y-25891301D01*
X70583185Y-25928312D01*
X70597063Y-25983882D01*
X70604167Y-26054096D01*
X70604840Y-26130727D01*
X70599427Y-26205552D01*
X70588270Y-26270342D01*
X70571714Y-26316873D01*
X70566626Y-26324887D01*
X70506355Y-26384707D01*
X70434769Y-26420535D01*
X70357092Y-26431020D01*
X70278548Y-26414810D01*
X70256689Y-26405092D01*
X70214122Y-26375143D01*
X70176763Y-26335433D01*
X70173232Y-26330397D01*
X70158881Y-26306124D01*
X70149394Y-26280178D01*
X70143790Y-26246022D01*
X70141086Y-26197119D01*
X70140299Y-26126935D01*
X70140286Y-26111200D01*
X70140322Y-26106192D01*
X70285429Y-26106192D01*
X70286273Y-26172430D01*
X70289596Y-26216386D01*
X70296583Y-26244779D01*
X70308416Y-26264325D01*
X70314457Y-26270857D01*
X70349186Y-26295680D01*
X70382903Y-26294548D01*
X70416995Y-26273016D01*
X70437329Y-26250029D01*
X70449371Y-26216478D01*
X70456134Y-26163569D01*
X70456598Y-26157399D01*
X70457752Y-26061513D01*
X70445688Y-25990299D01*
X70420570Y-25944194D01*
X70382560Y-25923635D01*
X70368992Y-25922514D01*
X70333364Y-25928152D01*
X70308994Y-25947686D01*
X70294093Y-25985042D01*
X70286875Y-26044150D01*
X70285429Y-26106192D01*
X70140322Y-26106192D01*
X70140826Y-26036413D01*
X70143096Y-25984159D01*
X70148068Y-25947949D01*
X70156713Y-25921299D01*
X70170005Y-25897722D01*
X70172943Y-25893338D01*
X70222313Y-25834249D01*
X70276109Y-25799947D01*
X70341602Y-25786331D01*
X70363842Y-25785665D01*
X70447115Y-25797962D01*
G36*
X71574303Y-25807239D02*
G01*
X71631527Y-25845735D01*
X71675749Y-25901335D01*
X71702167Y-25972086D01*
X71707510Y-26024162D01*
X71706903Y-26045893D01*
X71701822Y-26062531D01*
X71687855Y-26077437D01*
X71660589Y-26093973D01*
X71615612Y-26115498D01*
X71548511Y-26145374D01*
X71548171Y-26145524D01*
X71486407Y-26173813D01*
X71435759Y-26198933D01*
X71401404Y-26218179D01*
X71388518Y-26228848D01*
X71388514Y-26228934D01*
X71399872Y-26252166D01*
X71426431Y-26277774D01*
X71456923Y-26296221D01*
X71472370Y-26299886D01*
X71514515Y-26287212D01*
X71550808Y-26255471D01*
X71568517Y-26220572D01*
X71585552Y-26194845D01*
X71618922Y-26165546D01*
X71658149Y-26140235D01*
X71692756Y-26126471D01*
X71699993Y-26125714D01*
X71708139Y-26138160D01*
X71708630Y-26169972D01*
X71702643Y-26212866D01*
X71691357Y-26258558D01*
X71675950Y-26298761D01*
X71675171Y-26300322D01*
X71628804Y-26365062D01*
X71568711Y-26409097D01*
X71500465Y-26430711D01*
X71429638Y-26428185D01*
X71361804Y-26399804D01*
X71358788Y-26397808D01*
X71305427Y-26349448D01*
X71270340Y-26286352D01*
X71250922Y-26203387D01*
X71248316Y-26180078D01*
X71243701Y-26070055D01*
X71249233Y-26018748D01*
X71388514Y-26018748D01*
X71390324Y-26050753D01*
X71400222Y-26060093D01*
X71424898Y-26053105D01*
X71463795Y-26036587D01*
X71507275Y-26015881D01*
X71508356Y-26015333D01*
X71545209Y-25995949D01*
X71560000Y-25983013D01*
X71556353Y-25969451D01*
X71540995Y-25951632D01*
X71501923Y-25925845D01*
X71459846Y-25923950D01*
X71422103Y-25942717D01*
X71396034Y-25978915D01*
X71388514Y-26018748D01*
X71249233Y-26018748D01*
X71253194Y-25982027D01*
X71277550Y-25912212D01*
X71311456Y-25863302D01*
X71372653Y-25813878D01*
X71440063Y-25789359D01*
X71508880Y-25787797D01*
X71574303Y-25807239D01*
X71574303Y-25807239D01*
G37*
X71574303Y-25807239D02*
X71631527Y-25845735D01*
X71675749Y-25901335D01*
X71702167Y-25972086D01*
X71707510Y-26024162D01*
X71706903Y-26045893D01*
X71701822Y-26062531D01*
X71687855Y-26077437D01*
X71660589Y-26093973D01*
X71615612Y-26115498D01*
X71548511Y-26145374D01*
X71548171Y-26145524D01*
X71486407Y-26173813D01*
X71435759Y-26198933D01*
X71401404Y-26218179D01*
X71388518Y-26228848D01*
X71388514Y-26228934D01*
X71399872Y-26252166D01*
X71426431Y-26277774D01*
X71456923Y-26296221D01*
X71472370Y-26299886D01*
X71514515Y-26287212D01*
X71550808Y-26255471D01*
X71568517Y-26220572D01*
X71585552Y-26194845D01*
X71618922Y-26165546D01*
X71658149Y-26140235D01*
X71692756Y-26126471D01*
X71699993Y-26125714D01*
X71708139Y-26138160D01*
X71708630Y-26169972D01*
X71702643Y-26212866D01*
X71691357Y-26258558D01*
X71675950Y-26298761D01*
X71675171Y-26300322D01*
X71628804Y-26365062D01*
X71568711Y-26409097D01*
X71500465Y-26430711D01*
X71429638Y-26428185D01*
X71361804Y-26399804D01*
X71358788Y-26397808D01*
X71305427Y-26349448D01*
X71270340Y-26286352D01*
X71250922Y-26203387D01*
X71248316Y-26180078D01*
X71243701Y-26070055D01*
X71249233Y-26018748D01*
X71388514Y-26018748D01*
X71390324Y-26050753D01*
X71400222Y-26060093D01*
X71424898Y-26053105D01*
X71463795Y-26036587D01*
X71507275Y-26015881D01*
X71508356Y-26015333D01*
X71545209Y-25995949D01*
X71560000Y-25983013D01*
X71556353Y-25969451D01*
X71540995Y-25951632D01*
X71501923Y-25925845D01*
X71459846Y-25923950D01*
X71422103Y-25942717D01*
X71396034Y-25978915D01*
X71388514Y-26018748D01*
X71249233Y-26018748D01*
X71253194Y-25982027D01*
X71277550Y-25912212D01*
X71311456Y-25863302D01*
X71372653Y-25813878D01*
X71440063Y-25789359D01*
X71508880Y-25787797D01*
X71574303Y-25807239D01*
G36*
X72781886Y-25727289D02*
G01*
X72786139Y-25786613D01*
X72791025Y-25821572D01*
X72797795Y-25836820D01*
X72807702Y-25837015D01*
X72810914Y-25835195D01*
X72853644Y-25822015D01*
X72909227Y-25822785D01*
X72965737Y-25836333D01*
X73001082Y-25853861D01*
X73037321Y-25881861D01*
X73063813Y-25913549D01*
X73081999Y-25953813D01*
X73093322Y-26007543D01*
X73099222Y-26079626D01*
X73101143Y-26174951D01*
X73101177Y-26193237D01*
X73101200Y-26398646D01*
X73055491Y-26414580D01*
X73023027Y-26425420D01*
X73005215Y-26430468D01*
X73004691Y-26430514D01*
X73002937Y-26416828D01*
X73001444Y-26379076D01*
X73000326Y-26322224D01*
X72999697Y-26251234D01*
X72999600Y-26208073D01*
X72999398Y-26122973D01*
X72998358Y-26061981D01*
X72995831Y-26020177D01*
X72991164Y-25992642D01*
X72983707Y-25974456D01*
X72972811Y-25960698D01*
X72966007Y-25954073D01*
X72919272Y-25927375D01*
X72868272Y-25925375D01*
X72822001Y-25947955D01*
X72813444Y-25956107D01*
X72800893Y-25971436D01*
X72792188Y-25989618D01*
X72786631Y-26015909D01*
X72783526Y-26055562D01*
X72782176Y-26113832D01*
X72781886Y-26194173D01*
X72781886Y-26398646D01*
X72736177Y-26414580D01*
X72703713Y-26425420D01*
X72685901Y-26430468D01*
X72685377Y-26430514D01*
X72684037Y-26416623D01*
X72682828Y-26377439D01*
X72681801Y-26316700D01*
X72681002Y-26238141D01*
X72680481Y-26145498D01*
X72680286Y-26042509D01*
X72680286Y-25645342D01*
X72727457Y-25625444D01*
X72774629Y-25605547D01*
X72781886Y-25727289D01*
X72781886Y-25727289D01*
G37*
X72781886Y-25727289D02*
X72786139Y-25786613D01*
X72791025Y-25821572D01*
X72797795Y-25836820D01*
X72807702Y-25837015D01*
X72810914Y-25835195D01*
X72853644Y-25822015D01*
X72909227Y-25822785D01*
X72965737Y-25836333D01*
X73001082Y-25853861D01*
X73037321Y-25881861D01*
X73063813Y-25913549D01*
X73081999Y-25953813D01*
X73093322Y-26007543D01*
X73099222Y-26079626D01*
X73101143Y-26174951D01*
X73101177Y-26193237D01*
X73101200Y-26398646D01*
X73055491Y-26414580D01*
X73023027Y-26425420D01*
X73005215Y-26430468D01*
X73004691Y-26430514D01*
X73002937Y-26416828D01*
X73001444Y-26379076D01*
X73000326Y-26322224D01*
X72999697Y-26251234D01*
X72999600Y-26208073D01*
X72999398Y-26122973D01*
X72998358Y-26061981D01*
X72995831Y-26020177D01*
X72991164Y-25992642D01*
X72983707Y-25974456D01*
X72972811Y-25960698D01*
X72966007Y-25954073D01*
X72919272Y-25927375D01*
X72868272Y-25925375D01*
X72822001Y-25947955D01*
X72813444Y-25956107D01*
X72800893Y-25971436D01*
X72792188Y-25989618D01*
X72786631Y-26015909D01*
X72783526Y-26055562D01*
X72782176Y-26113832D01*
X72781886Y-26194173D01*
X72781886Y-26398646D01*
X72736177Y-26414580D01*
X72703713Y-26425420D01*
X72685901Y-26430468D01*
X72685377Y-26430514D01*
X72684037Y-26416623D01*
X72682828Y-26377439D01*
X72681801Y-26316700D01*
X72681002Y-26238141D01*
X72680481Y-26145498D01*
X72680286Y-26042509D01*
X72680286Y-25645342D01*
X72727457Y-25625444D01*
X72774629Y-25605547D01*
X72781886Y-25727289D01*
G36*
X73445744Y-25826968D02*
G01*
X73502616Y-25848087D01*
X73503267Y-25848493D01*
X73538440Y-25874380D01*
X73564407Y-25904633D01*
X73582670Y-25944058D01*
X73594732Y-25997462D01*
X73602096Y-26069651D01*
X73606264Y-26165432D01*
X73606629Y-26179078D01*
X73611876Y-26384842D01*
X73567716Y-26407678D01*
X73535763Y-26423110D01*
X73516470Y-26430423D01*
X73515578Y-26430514D01*
X73512239Y-26417022D01*
X73509587Y-26380626D01*
X73507956Y-26327452D01*
X73507600Y-26284393D01*
X73507592Y-26214641D01*
X73504403Y-26170837D01*
X73493288Y-26149944D01*
X73469501Y-26148925D01*
X73428296Y-26164741D01*
X73366086Y-26193815D01*
X73320341Y-26217963D01*
X73296813Y-26238913D01*
X73289896Y-26261747D01*
X73289886Y-26262877D01*
X73301299Y-26302212D01*
X73335092Y-26323462D01*
X73386809Y-26326539D01*
X73424061Y-26326006D01*
X73443703Y-26336735D01*
X73455952Y-26362505D01*
X73463002Y-26395337D01*
X73452842Y-26413966D01*
X73449017Y-26416632D01*
X73413001Y-26427340D01*
X73362566Y-26428856D01*
X73310626Y-26421759D01*
X73273822Y-26408788D01*
X73222938Y-26365585D01*
X73194014Y-26305446D01*
X73188286Y-26258462D01*
X73192657Y-26216082D01*
X73208475Y-26181488D01*
X73239797Y-26150763D01*
X73290678Y-26119990D01*
X73365176Y-26085252D01*
X73369714Y-26083288D01*
X73436821Y-26052287D01*
X73478232Y-26026862D01*
X73495981Y-26004014D01*
X73492107Y-25980745D01*
X73468643Y-25954056D01*
X73461627Y-25947914D01*
X73414630Y-25924100D01*
X73365933Y-25925103D01*
X73323522Y-25948451D01*
X73295384Y-25991675D01*
X73292769Y-26000160D01*
X73267308Y-26041308D01*
X73235001Y-26061128D01*
X73188286Y-26080770D01*
X73188286Y-26029950D01*
X73202496Y-25956082D01*
X73244675Y-25888327D01*
X73266624Y-25865661D01*
X73316517Y-25836569D01*
X73379967Y-25823400D01*
X73445744Y-25826968D01*
X73445744Y-25826968D01*
G37*
X73445744Y-25826968D02*
X73502616Y-25848087D01*
X73503267Y-25848493D01*
X73538440Y-25874380D01*
X73564407Y-25904633D01*
X73582670Y-25944058D01*
X73594732Y-25997462D01*
X73602096Y-26069651D01*
X73606264Y-26165432D01*
X73606629Y-26179078D01*
X73611876Y-26384842D01*
X73567716Y-26407678D01*
X73535763Y-26423110D01*
X73516470Y-26430423D01*
X73515578Y-26430514D01*
X73512239Y-26417022D01*
X73509587Y-26380626D01*
X73507956Y-26327452D01*
X73507600Y-26284393D01*
X73507592Y-26214641D01*
X73504403Y-26170837D01*
X73493288Y-26149944D01*
X73469501Y-26148925D01*
X73428296Y-26164741D01*
X73366086Y-26193815D01*
X73320341Y-26217963D01*
X73296813Y-26238913D01*
X73289896Y-26261747D01*
X73289886Y-26262877D01*
X73301299Y-26302212D01*
X73335092Y-26323462D01*
X73386809Y-26326539D01*
X73424061Y-26326006D01*
X73443703Y-26336735D01*
X73455952Y-26362505D01*
X73463002Y-26395337D01*
X73452842Y-26413966D01*
X73449017Y-26416632D01*
X73413001Y-26427340D01*
X73362566Y-26428856D01*
X73310626Y-26421759D01*
X73273822Y-26408788D01*
X73222938Y-26365585D01*
X73194014Y-26305446D01*
X73188286Y-26258462D01*
X73192657Y-26216082D01*
X73208475Y-26181488D01*
X73239797Y-26150763D01*
X73290678Y-26119990D01*
X73365176Y-26085252D01*
X73369714Y-26083288D01*
X73436821Y-26052287D01*
X73478232Y-26026862D01*
X73495981Y-26004014D01*
X73492107Y-25980745D01*
X73468643Y-25954056D01*
X73461627Y-25947914D01*
X73414630Y-25924100D01*
X73365933Y-25925103D01*
X73323522Y-25948451D01*
X73295384Y-25991675D01*
X73292769Y-26000160D01*
X73267308Y-26041308D01*
X73235001Y-26061128D01*
X73188286Y-26080770D01*
X73188286Y-26029950D01*
X73202496Y-25956082D01*
X73244675Y-25888327D01*
X73266624Y-25865661D01*
X73316517Y-25836569D01*
X73379967Y-25823400D01*
X73445744Y-25826968D01*
G36*
X73935926Y-25825755D02*
G01*
X74001858Y-25850084D01*
X74055273Y-25893117D01*
X74076164Y-25923409D01*
X74098939Y-25978994D01*
X74098466Y-26019186D01*
X74074562Y-26046217D01*
X74065717Y-26050813D01*
X74027530Y-26065144D01*
X74008028Y-26061472D01*
X74001422Y-26037407D01*
X74001086Y-26024114D01*
X73988992Y-25975210D01*
X73957471Y-25940999D01*
X73913659Y-25924476D01*
X73864695Y-25928634D01*
X73824894Y-25950227D01*
X73811450Y-25962544D01*
X73801921Y-25977487D01*
X73795485Y-26000075D01*
X73791317Y-26035328D01*
X73788597Y-26088266D01*
X73786502Y-26163907D01*
X73785960Y-26187857D01*
X73783981Y-26269790D01*
X73781731Y-26327455D01*
X73778357Y-26365608D01*
X73773006Y-26389004D01*
X73764824Y-26402398D01*
X73752959Y-26410545D01*
X73745362Y-26414144D01*
X73713102Y-26426452D01*
X73694111Y-26430514D01*
X73687836Y-26416948D01*
X73684006Y-26375934D01*
X73682600Y-26306999D01*
X73683598Y-26209669D01*
X73683908Y-26194657D01*
X73686101Y-26105859D01*
X73688693Y-26041019D01*
X73692382Y-25995067D01*
X73697864Y-25962935D01*
X73705835Y-25939553D01*
X73716993Y-25919852D01*
X73722830Y-25911410D01*
X73756296Y-25874057D01*
X73793727Y-25845003D01*
X73798309Y-25842467D01*
X73865426Y-25822443D01*
X73935926Y-25825755D01*
X73935926Y-25825755D01*
G37*
X73935926Y-25825755D02*
X74001858Y-25850084D01*
X74055273Y-25893117D01*
X74076164Y-25923409D01*
X74098939Y-25978994D01*
X74098466Y-26019186D01*
X74074562Y-26046217D01*
X74065717Y-26050813D01*
X74027530Y-26065144D01*
X74008028Y-26061472D01*
X74001422Y-26037407D01*
X74001086Y-26024114D01*
X73988992Y-25975210D01*
X73957471Y-25940999D01*
X73913659Y-25924476D01*
X73864695Y-25928634D01*
X73824894Y-25950227D01*
X73811450Y-25962544D01*
X73801921Y-25977487D01*
X73795485Y-26000075D01*
X73791317Y-26035328D01*
X73788597Y-26088266D01*
X73786502Y-26163907D01*
X73785960Y-26187857D01*
X73783981Y-26269790D01*
X73781731Y-26327455D01*
X73778357Y-26365608D01*
X73773006Y-26389004D01*
X73764824Y-26402398D01*
X73752959Y-26410545D01*
X73745362Y-26414144D01*
X73713102Y-26426452D01*
X73694111Y-26430514D01*
X73687836Y-26416948D01*
X73684006Y-26375934D01*
X73682600Y-26306999D01*
X73683598Y-26209669D01*
X73683908Y-26194657D01*
X73686101Y-26105859D01*
X73688693Y-26041019D01*
X73692382Y-25995067D01*
X73697864Y-25962935D01*
X73705835Y-25939553D01*
X73716993Y-25919852D01*
X73722830Y-25911410D01*
X73756296Y-25874057D01*
X73793727Y-25845003D01*
X73798309Y-25842467D01*
X73865426Y-25822443D01*
X73935926Y-25825755D01*
G36*
X74596117Y-25941358D02*
G01*
X74595933Y-26049837D01*
X74595219Y-26133287D01*
X74593675Y-26195704D01*
X74591001Y-26241085D01*
X74586894Y-26273429D01*
X74581055Y-26296733D01*
X74573182Y-26314995D01*
X74567221Y-26325418D01*
X74517855Y-26381945D01*
X74455264Y-26417377D01*
X74386013Y-26430090D01*
X74316668Y-26418463D01*
X74275375Y-26397568D01*
X74232025Y-26361422D01*
X74202481Y-26317276D01*
X74184655Y-26259462D01*
X74176463Y-26182313D01*
X74175302Y-26125714D01*
X74175458Y-26121647D01*
X74276857Y-26121647D01*
X74277476Y-26186550D01*
X74280314Y-26229514D01*
X74286840Y-26257622D01*
X74298523Y-26277953D01*
X74312483Y-26293288D01*
X74359365Y-26322890D01*
X74409701Y-26325419D01*
X74457276Y-26300705D01*
X74460979Y-26297356D01*
X74476783Y-26279935D01*
X74486693Y-26259209D01*
X74492058Y-26228362D01*
X74494228Y-26180577D01*
X74494571Y-26127748D01*
X74493827Y-26061381D01*
X74490748Y-26017106D01*
X74484061Y-25988009D01*
X74472496Y-25967173D01*
X74463013Y-25956107D01*
X74418960Y-25928198D01*
X74368224Y-25924843D01*
X74319796Y-25946159D01*
X74310450Y-25954073D01*
X74294540Y-25971647D01*
X74284610Y-25992587D01*
X74279278Y-26023782D01*
X74277163Y-26072122D01*
X74276857Y-26121647D01*
X74175458Y-26121647D01*
X74178810Y-26034568D01*
X74190726Y-25966086D01*
X74213135Y-25914600D01*
X74248124Y-25874443D01*
X74275375Y-25853861D01*
X74324907Y-25831625D01*
X74382316Y-25821304D01*
X74435682Y-25824067D01*
X74465543Y-25835212D01*
X74477261Y-25838383D01*
X74485037Y-25826557D01*
X74490465Y-25794866D01*
X74494571Y-25746593D01*
X74499067Y-25692829D01*
X74505313Y-25660482D01*
X74516676Y-25641985D01*
X74536528Y-25629770D01*
X74549000Y-25624362D01*
X74596171Y-25604601D01*
X74596117Y-25941358D01*
X74596117Y-25941358D01*
G37*
X74596117Y-25941358D02*
X74595933Y-26049837D01*
X74595219Y-26133287D01*
X74593675Y-26195704D01*
X74591001Y-26241085D01*
X74586894Y-26273429D01*
X74581055Y-26296733D01*
X74573182Y-26314995D01*
X74567221Y-26325418D01*
X74517855Y-26381945D01*
X74455264Y-26417377D01*
X74386013Y-26430090D01*
X74316668Y-26418463D01*
X74275375Y-26397568D01*
X74232025Y-26361422D01*
X74202481Y-26317276D01*
X74184655Y-26259462D01*
X74176463Y-26182313D01*
X74175302Y-26125714D01*
X74175458Y-26121647D01*
X74276857Y-26121647D01*
X74277476Y-26186550D01*
X74280314Y-26229514D01*
X74286840Y-26257622D01*
X74298523Y-26277953D01*
X74312483Y-26293288D01*
X74359365Y-26322890D01*
X74409701Y-26325419D01*
X74457276Y-26300705D01*
X74460979Y-26297356D01*
X74476783Y-26279935D01*
X74486693Y-26259209D01*
X74492058Y-26228362D01*
X74494228Y-26180577D01*
X74494571Y-26127748D01*
X74493827Y-26061381D01*
X74490748Y-26017106D01*
X74484061Y-25988009D01*
X74472496Y-25967173D01*
X74463013Y-25956107D01*
X74418960Y-25928198D01*
X74368224Y-25924843D01*
X74319796Y-25946159D01*
X74310450Y-25954073D01*
X74294540Y-25971647D01*
X74284610Y-25992587D01*
X74279278Y-26023782D01*
X74277163Y-26072122D01*
X74276857Y-26121647D01*
X74175458Y-26121647D01*
X74178810Y-26034568D01*
X74190726Y-25966086D01*
X74213135Y-25914600D01*
X74248124Y-25874443D01*
X74275375Y-25853861D01*
X74324907Y-25831625D01*
X74382316Y-25821304D01*
X74435682Y-25824067D01*
X74465543Y-25835212D01*
X74477261Y-25838383D01*
X74485037Y-25826557D01*
X74490465Y-25794866D01*
X74494571Y-25746593D01*
X74499067Y-25692829D01*
X74505313Y-25660482D01*
X74516676Y-25641985D01*
X74536528Y-25629770D01*
X74549000Y-25624362D01*
X74596171Y-25604601D01*
X74596117Y-25941358D01*
G36*
X75185833Y-25834663D02*
G01*
X75188048Y-25872850D01*
X75189784Y-25930886D01*
X75190899Y-26004180D01*
X75191257Y-26081055D01*
X75191257Y-26341196D01*
X75145326Y-26387127D01*
X75113675Y-26415429D01*
X75085890Y-26426893D01*
X75047915Y-26426168D01*
X75032840Y-26424321D01*
X74985726Y-26418948D01*
X74946756Y-26415869D01*
X74937257Y-26415585D01*
X74905233Y-26417445D01*
X74859432Y-26422114D01*
X74841674Y-26424321D01*
X74798057Y-26427735D01*
X74768745Y-26420320D01*
X74739680Y-26397427D01*
X74729188Y-26387127D01*
X74683257Y-26341196D01*
X74683257Y-25854602D01*
X74720226Y-25837758D01*
X74752059Y-25825282D01*
X74770683Y-25820914D01*
X74775458Y-25834718D01*
X74779921Y-25873286D01*
X74783775Y-25932356D01*
X74786722Y-26007663D01*
X74788143Y-26071286D01*
X74792114Y-26321657D01*
X74826759Y-26326556D01*
X74858268Y-26323131D01*
X74873708Y-26312041D01*
X74878023Y-26291308D01*
X74881708Y-26247145D01*
X74884469Y-26185146D01*
X74886012Y-26110909D01*
X74886235Y-26072706D01*
X74886457Y-25852783D01*
X74932166Y-25836849D01*
X74964518Y-25826015D01*
X74982115Y-25820962D01*
X74982623Y-25820914D01*
X74984388Y-25834648D01*
X74986329Y-25872730D01*
X74988282Y-25930482D01*
X74990084Y-26003227D01*
X74991343Y-26071286D01*
X74995314Y-26321657D01*
X75082400Y-26321657D01*
X75086396Y-26093240D01*
X75090392Y-25864822D01*
X75132847Y-25842868D01*
X75164192Y-25827793D01*
X75182744Y-25820951D01*
X75183279Y-25820914D01*
X75185833Y-25834663D01*
X75185833Y-25834663D01*
G37*
X75185833Y-25834663D02*
X75188048Y-25872850D01*
X75189784Y-25930886D01*
X75190899Y-26004180D01*
X75191257Y-26081055D01*
X75191257Y-26341196D01*
X75145326Y-26387127D01*
X75113675Y-26415429D01*
X75085890Y-26426893D01*
X75047915Y-26426168D01*
X75032840Y-26424321D01*
X74985726Y-26418948D01*
X74946756Y-26415869D01*
X74937257Y-26415585D01*
X74905233Y-26417445D01*
X74859432Y-26422114D01*
X74841674Y-26424321D01*
X74798057Y-26427735D01*
X74768745Y-26420320D01*
X74739680Y-26397427D01*
X74729188Y-26387127D01*
X74683257Y-26341196D01*
X74683257Y-25854602D01*
X74720226Y-25837758D01*
X74752059Y-25825282D01*
X74770683Y-25820914D01*
X74775458Y-25834718D01*
X74779921Y-25873286D01*
X74783775Y-25932356D01*
X74786722Y-26007663D01*
X74788143Y-26071286D01*
X74792114Y-26321657D01*
X74826759Y-26326556D01*
X74858268Y-26323131D01*
X74873708Y-26312041D01*
X74878023Y-26291308D01*
X74881708Y-26247145D01*
X74884469Y-26185146D01*
X74886012Y-26110909D01*
X74886235Y-26072706D01*
X74886457Y-25852783D01*
X74932166Y-25836849D01*
X74964518Y-25826015D01*
X74982115Y-25820962D01*
X74982623Y-25820914D01*
X74984388Y-25834648D01*
X74986329Y-25872730D01*
X74988282Y-25930482D01*
X74990084Y-26003227D01*
X74991343Y-26071286D01*
X74995314Y-26321657D01*
X75082400Y-26321657D01*
X75086396Y-26093240D01*
X75090392Y-25864822D01*
X75132847Y-25842868D01*
X75164192Y-25827793D01*
X75182744Y-25820951D01*
X75183279Y-25820914D01*
X75185833Y-25834663D01*
G36*
X75550876Y-25832335D02*
G01*
X75592667Y-25851344D01*
X75625469Y-25874378D01*
X75649503Y-25900133D01*
X75666097Y-25933358D01*
X75676577Y-25978800D01*
X75682271Y-26041207D01*
X75684507Y-26125327D01*
X75684743Y-26180721D01*
X75684743Y-26396826D01*
X75647774Y-26413670D01*
X75618656Y-26425981D01*
X75604231Y-26430514D01*
X75601472Y-26417025D01*
X75599282Y-26380653D01*
X75597942Y-26327542D01*
X75597657Y-26285372D01*
X75596434Y-26224447D01*
X75593136Y-26176115D01*
X75588321Y-26146518D01*
X75584496Y-26140229D01*
X75558783Y-26146652D01*
X75518418Y-26163125D01*
X75471679Y-26185458D01*
X75426845Y-26209457D01*
X75392193Y-26230930D01*
X75376002Y-26245685D01*
X75375938Y-26245845D01*
X75377330Y-26273152D01*
X75389818Y-26299219D01*
X75411743Y-26320392D01*
X75443743Y-26327474D01*
X75471092Y-26326649D01*
X75509826Y-26326042D01*
X75530158Y-26335116D01*
X75542369Y-26359092D01*
X75543909Y-26363613D01*
X75549203Y-26397806D01*
X75535047Y-26418568D01*
X75498148Y-26428462D01*
X75458289Y-26430292D01*
X75386562Y-26416727D01*
X75349432Y-26397355D01*
X75303576Y-26351845D01*
X75279256Y-26295983D01*
X75277073Y-26236957D01*
X75297629Y-26181953D01*
X75328549Y-26147486D01*
X75359420Y-26128189D01*
X75407942Y-26103759D01*
X75464485Y-26078985D01*
X75473910Y-26075199D01*
X75536019Y-26047791D01*
X75571822Y-26023634D01*
X75583337Y-25999619D01*
X75572580Y-25972635D01*
X75554114Y-25951543D01*
X75510469Y-25925572D01*
X75462446Y-25923624D01*
X75418406Y-25943637D01*
X75386709Y-25983551D01*
X75382549Y-25993848D01*
X75358327Y-26031724D01*
X75322965Y-26059842D01*
X75278343Y-26082917D01*
X75278343Y-26017485D01*
X75280969Y-25977506D01*
X75292230Y-25945997D01*
X75317199Y-25912378D01*
X75341169Y-25886484D01*
X75378441Y-25849817D01*
X75407401Y-25830121D01*
X75438505Y-25822220D01*
X75473713Y-25820914D01*
X75550876Y-25832335D01*
X75550876Y-25832335D01*
G37*
X75550876Y-25832335D02*
X75592667Y-25851344D01*
X75625469Y-25874378D01*
X75649503Y-25900133D01*
X75666097Y-25933358D01*
X75676577Y-25978800D01*
X75682271Y-26041207D01*
X75684507Y-26125327D01*
X75684743Y-26180721D01*
X75684743Y-26396826D01*
X75647774Y-26413670D01*
X75618656Y-26425981D01*
X75604231Y-26430514D01*
X75601472Y-26417025D01*
X75599282Y-26380653D01*
X75597942Y-26327542D01*
X75597657Y-26285372D01*
X75596434Y-26224447D01*
X75593136Y-26176115D01*
X75588321Y-26146518D01*
X75584496Y-26140229D01*
X75558783Y-26146652D01*
X75518418Y-26163125D01*
X75471679Y-26185458D01*
X75426845Y-26209457D01*
X75392193Y-26230930D01*
X75376002Y-26245685D01*
X75375938Y-26245845D01*
X75377330Y-26273152D01*
X75389818Y-26299219D01*
X75411743Y-26320392D01*
X75443743Y-26327474D01*
X75471092Y-26326649D01*
X75509826Y-26326042D01*
X75530158Y-26335116D01*
X75542369Y-26359092D01*
X75543909Y-26363613D01*
X75549203Y-26397806D01*
X75535047Y-26418568D01*
X75498148Y-26428462D01*
X75458289Y-26430292D01*
X75386562Y-26416727D01*
X75349432Y-26397355D01*
X75303576Y-26351845D01*
X75279256Y-26295983D01*
X75277073Y-26236957D01*
X75297629Y-26181953D01*
X75328549Y-26147486D01*
X75359420Y-26128189D01*
X75407942Y-26103759D01*
X75464485Y-26078985D01*
X75473910Y-26075199D01*
X75536019Y-26047791D01*
X75571822Y-26023634D01*
X75583337Y-25999619D01*
X75572580Y-25972635D01*
X75554114Y-25951543D01*
X75510469Y-25925572D01*
X75462446Y-25923624D01*
X75418406Y-25943637D01*
X75386709Y-25983551D01*
X75382549Y-25993848D01*
X75358327Y-26031724D01*
X75322965Y-26059842D01*
X75278343Y-26082917D01*
X75278343Y-26017485D01*
X75280969Y-25977506D01*
X75292230Y-25945997D01*
X75317199Y-25912378D01*
X75341169Y-25886484D01*
X75378441Y-25849817D01*
X75407401Y-25830121D01*
X75438505Y-25822220D01*
X75473713Y-25820914D01*
X75550876Y-25832335D01*
G36*
X76058600Y-25834752D02*
G01*
X76075948Y-25842334D01*
X76117356Y-25875128D01*
X76152765Y-25922547D01*
X76174664Y-25973151D01*
X76178229Y-25998098D01*
X76166279Y-26032927D01*
X76140067Y-26051357D01*
X76111964Y-26062516D01*
X76099095Y-26064572D01*
X76092829Y-26049649D01*
X76080456Y-26017175D01*
X76075028Y-26002502D01*
X76044590Y-25951744D01*
X76000520Y-25926427D01*
X75944010Y-25927206D01*
X75939825Y-25928203D01*
X75909655Y-25942507D01*
X75887476Y-25970393D01*
X75872327Y-26015287D01*
X75863250Y-26080615D01*
X75859286Y-26169804D01*
X75858914Y-26217261D01*
X75858730Y-26292071D01*
X75857522Y-26343069D01*
X75854309Y-26375471D01*
X75848109Y-26394495D01*
X75837940Y-26405356D01*
X75822819Y-26413272D01*
X75821946Y-26413670D01*
X75792828Y-26425981D01*
X75778403Y-26430514D01*
X75776186Y-26416809D01*
X75774289Y-26378925D01*
X75772847Y-26321715D01*
X75771998Y-26250027D01*
X75771829Y-26197565D01*
X75772692Y-26096047D01*
X75776070Y-26019032D01*
X75783142Y-25962023D01*
X75795088Y-25920526D01*
X75813090Y-25890043D01*
X75838327Y-25866080D01*
X75863247Y-25849355D01*
X75923171Y-25827097D01*
X75992911Y-25822076D01*
X76058600Y-25834752D01*
X76058600Y-25834752D01*
G37*
X76058600Y-25834752D02*
X76075948Y-25842334D01*
X76117356Y-25875128D01*
X76152765Y-25922547D01*
X76174664Y-25973151D01*
X76178229Y-25998098D01*
X76166279Y-26032927D01*
X76140067Y-26051357D01*
X76111964Y-26062516D01*
X76099095Y-26064572D01*
X76092829Y-26049649D01*
X76080456Y-26017175D01*
X76075028Y-26002502D01*
X76044590Y-25951744D01*
X76000520Y-25926427D01*
X75944010Y-25927206D01*
X75939825Y-25928203D01*
X75909655Y-25942507D01*
X75887476Y-25970393D01*
X75872327Y-26015287D01*
X75863250Y-26080615D01*
X75859286Y-26169804D01*
X75858914Y-26217261D01*
X75858730Y-26292071D01*
X75857522Y-26343069D01*
X75854309Y-26375471D01*
X75848109Y-26394495D01*
X75837940Y-26405356D01*
X75822819Y-26413272D01*
X75821946Y-26413670D01*
X75792828Y-26425981D01*
X75778403Y-26430514D01*
X75776186Y-26416809D01*
X75774289Y-26378925D01*
X75772847Y-26321715D01*
X75771998Y-26250027D01*
X75771829Y-26197565D01*
X75772692Y-26096047D01*
X75776070Y-26019032D01*
X75783142Y-25962023D01*
X75795088Y-25920526D01*
X75813090Y-25890043D01*
X75838327Y-25866080D01*
X75863247Y-25849355D01*
X75923171Y-25827097D01*
X75992911Y-25822076D01*
X76058600Y-25834752D01*
G36*
X76559595Y-25842966D02*
G01*
X76617021Y-25880497D01*
X76644719Y-25914096D01*
X76666662Y-25975064D01*
X76668405Y-26023308D01*
X76664457Y-26087816D01*
X76515686Y-26152934D01*
X76443349Y-26186202D01*
X76396084Y-26212964D01*
X76371507Y-26236144D01*
X76367237Y-26258667D01*
X76380889Y-26283455D01*
X76395943Y-26299886D01*
X76439746Y-26326235D01*
X76487389Y-26328081D01*
X76531145Y-26307546D01*
X76563289Y-26266752D01*
X76569038Y-26252347D01*
X76596576Y-26207356D01*
X76628258Y-26188182D01*
X76671714Y-26171779D01*
X76671714Y-26233966D01*
X76667872Y-26276283D01*
X76652823Y-26311969D01*
X76621280Y-26352943D01*
X76616592Y-26358267D01*
X76581506Y-26394720D01*
X76551347Y-26414283D01*
X76513615Y-26423283D01*
X76482335Y-26426230D01*
X76426385Y-26426965D01*
X76386555Y-26417660D01*
X76361708Y-26403846D01*
X76322656Y-26373467D01*
X76295625Y-26340613D01*
X76278517Y-26299294D01*
X76269238Y-26243521D01*
X76265693Y-26167305D01*
X76265410Y-26128622D01*
X76266372Y-26082247D01*
X76354007Y-26082247D01*
X76355023Y-26107126D01*
X76357556Y-26111200D01*
X76374274Y-26105665D01*
X76410249Y-26091017D01*
X76458331Y-26070190D01*
X76468386Y-26065714D01*
X76529152Y-26034814D01*
X76562632Y-26007657D01*
X76569990Y-25982220D01*
X76552391Y-25956481D01*
X76537856Y-25945109D01*
X76485410Y-25922364D01*
X76436322Y-25926122D01*
X76395227Y-25953884D01*
X76366758Y-26003152D01*
X76357631Y-26042257D01*
X76354007Y-26082247D01*
X76266372Y-26082247D01*
X76267285Y-26038249D01*
X76274196Y-25971384D01*
X76287884Y-25922695D01*
X76310096Y-25886849D01*
X76342574Y-25858513D01*
X76356733Y-25849355D01*
X76421053Y-25825507D01*
X76491473Y-25824006D01*
X76559595Y-25842966D01*
X76559595Y-25842966D01*
G37*
X76559595Y-25842966D02*
X76617021Y-25880497D01*
X76644719Y-25914096D01*
X76666662Y-25975064D01*
X76668405Y-26023308D01*
X76664457Y-26087816D01*
X76515686Y-26152934D01*
X76443349Y-26186202D01*
X76396084Y-26212964D01*
X76371507Y-26236144D01*
X76367237Y-26258667D01*
X76380889Y-26283455D01*
X76395943Y-26299886D01*
X76439746Y-26326235D01*
X76487389Y-26328081D01*
X76531145Y-26307546D01*
X76563289Y-26266752D01*
X76569038Y-26252347D01*
X76596576Y-26207356D01*
X76628258Y-26188182D01*
X76671714Y-26171779D01*
X76671714Y-26233966D01*
X76667872Y-26276283D01*
X76652823Y-26311969D01*
X76621280Y-26352943D01*
X76616592Y-26358267D01*
X76581506Y-26394720D01*
X76551347Y-26414283D01*
X76513615Y-26423283D01*
X76482335Y-26426230D01*
X76426385Y-26426965D01*
X76386555Y-26417660D01*
X76361708Y-26403846D01*
X76322656Y-26373467D01*
X76295625Y-26340613D01*
X76278517Y-26299294D01*
X76269238Y-26243521D01*
X76265693Y-26167305D01*
X76265410Y-26128622D01*
X76266372Y-26082247D01*
X76354007Y-26082247D01*
X76355023Y-26107126D01*
X76357556Y-26111200D01*
X76374274Y-26105665D01*
X76410249Y-26091017D01*
X76458331Y-26070190D01*
X76468386Y-26065714D01*
X76529152Y-26034814D01*
X76562632Y-26007657D01*
X76569990Y-25982220D01*
X76552391Y-25956481D01*
X76537856Y-25945109D01*
X76485410Y-25922364D01*
X76436322Y-25926122D01*
X76395227Y-25953884D01*
X76366758Y-26003152D01*
X76357631Y-26042257D01*
X76354007Y-26082247D01*
X76266372Y-26082247D01*
X76267285Y-26038249D01*
X76274196Y-25971384D01*
X76287884Y-25922695D01*
X76310096Y-25886849D01*
X76342574Y-25858513D01*
X76356733Y-25849355D01*
X76421053Y-25825507D01*
X76491473Y-25824006D01*
X76559595Y-25842966D01*
G36*
X73509910Y-21118348D02*
G01*
X73588454Y-21118778D01*
X73645298Y-21119942D01*
X73684105Y-21122207D01*
X73708538Y-21125940D01*
X73722262Y-21131506D01*
X73728940Y-21139273D01*
X73732236Y-21149605D01*
X73732556Y-21150943D01*
X73737562Y-21175079D01*
X73746829Y-21222701D01*
X73759392Y-21288741D01*
X73774287Y-21368128D01*
X73790551Y-21455796D01*
X73791119Y-21458875D01*
X73807410Y-21544789D01*
X73822652Y-21620696D01*
X73835861Y-21682045D01*
X73846054Y-21724282D01*
X73852248Y-21742855D01*
X73852543Y-21743184D01*
X73870788Y-21752253D01*
X73908405Y-21767367D01*
X73957271Y-21785262D01*
X73957543Y-21785358D01*
X74019093Y-21808493D01*
X74091657Y-21837965D01*
X74160057Y-21867597D01*
X74163294Y-21869062D01*
X74274702Y-21919626D01*
X74521399Y-21751160D01*
X74597077Y-21699803D01*
X74665631Y-21653889D01*
X74723088Y-21616030D01*
X74765476Y-21588837D01*
X74788825Y-21574921D01*
X74791042Y-21573889D01*
X74808010Y-21578484D01*
X74839701Y-21600655D01*
X74887352Y-21641447D01*
X74952198Y-21701905D01*
X75018397Y-21766227D01*
X75082214Y-21829612D01*
X75139329Y-21887451D01*
X75186305Y-21936175D01*
X75219703Y-21972210D01*
X75236085Y-21991984D01*
X75236694Y-21993002D01*
X75238505Y-22006572D01*
X75231683Y-22028733D01*
X75214540Y-22062478D01*
X75185393Y-22110800D01*
X75142555Y-22176692D01*
X75085448Y-22261517D01*
X75034766Y-22336177D01*
X74989461Y-22403140D01*
X74952150Y-22458516D01*
X74925452Y-22498420D01*
X74911985Y-22518962D01*
X74911137Y-22520356D01*
X74912781Y-22540038D01*
X74925245Y-22578293D01*
X74946048Y-22627889D01*
X74953462Y-22643728D01*
X74985814Y-22714290D01*
X75020328Y-22794353D01*
X75048365Y-22863629D01*
X75068568Y-22915045D01*
X75084615Y-22954119D01*
X75093888Y-22974541D01*
X75095041Y-22976114D01*
X75112096Y-22978721D01*
X75152298Y-22985863D01*
X75210302Y-22996523D01*
X75280763Y-23009685D01*
X75358335Y-23024333D01*
X75437672Y-23039449D01*
X75513431Y-23054018D01*
X75580264Y-23067022D01*
X75632828Y-23077445D01*
X75665776Y-23084270D01*
X75673857Y-23086199D01*
X75682205Y-23090962D01*
X75688506Y-23101718D01*
X75693045Y-23122098D01*
X75696104Y-23155734D01*
X75697967Y-23206255D01*
X75698918Y-23277292D01*
X75699240Y-23372476D01*
X75699257Y-23411492D01*
X75699257Y-23728799D01*
X75623057Y-23743839D01*
X75580663Y-23751995D01*
X75517400Y-23763899D01*
X75440962Y-23778116D01*
X75359043Y-23793210D01*
X75336400Y-23797355D01*
X75260806Y-23812053D01*
X75194953Y-23826505D01*
X75144366Y-23839375D01*
X75114574Y-23849322D01*
X75109612Y-23852287D01*
X75097426Y-23873283D01*
X75079953Y-23913967D01*
X75060577Y-23966322D01*
X75056734Y-23977600D01*
X75031339Y-24047523D01*
X74999817Y-24126418D01*
X74968969Y-24197266D01*
X74968817Y-24197595D01*
X74917447Y-24308733D01*
X75086399Y-24557253D01*
X75255352Y-24805772D01*
X75038429Y-25023058D01*
X74972819Y-25087726D01*
X74912979Y-25144733D01*
X74862267Y-25191033D01*
X74824046Y-25223584D01*
X74801675Y-25239343D01*
X74798466Y-25240343D01*
X74779626Y-25232469D01*
X74741180Y-25210578D01*
X74687330Y-25177267D01*
X74622276Y-25135131D01*
X74551940Y-25087943D01*
X74480555Y-25039810D01*
X74416908Y-24997928D01*
X74365041Y-24964871D01*
X74328995Y-24943218D01*
X74312867Y-24935543D01*
X74293189Y-24942037D01*
X74255875Y-24959150D01*
X74208621Y-24983326D01*
X74203612Y-24986013D01*
X74139977Y-25017927D01*
X74096341Y-25033579D01*
X74069202Y-25033745D01*
X74055057Y-25019204D01*
X74054975Y-25019000D01*
X74047905Y-25001779D01*
X74031042Y-24960899D01*
X74005695Y-24899525D01*
X73973171Y-24820819D01*
X73934778Y-24727947D01*
X73891822Y-24624072D01*
X73850222Y-24523502D01*
X73804504Y-24412516D01*
X73762526Y-24309703D01*
X73725548Y-24218215D01*
X73694827Y-24141201D01*
X73671622Y-24081815D01*
X73657190Y-24043209D01*
X73652743Y-24028800D01*
X73663896Y-24012272D01*
X73693069Y-23985930D01*
X73731971Y-23956887D01*
X73842757Y-23865039D01*
X73929351Y-23759759D01*
X73990716Y-23643266D01*
X74025815Y-23517776D01*
X74033608Y-23385507D01*
X74027943Y-23324457D01*
X73997078Y-23197795D01*
X73943920Y-23085941D01*
X73871767Y-22990001D01*
X73783917Y-22911076D01*
X73683665Y-22850270D01*
X73574310Y-22808687D01*
X73459147Y-22787428D01*
X73341475Y-22787599D01*
X73224590Y-22810301D01*
X73111789Y-22856638D01*
X73006369Y-22927713D01*
X72962368Y-22967911D01*
X72877979Y-23071129D01*
X72819222Y-23183925D01*
X72785704Y-23303010D01*
X72777035Y-23425095D01*
X72792823Y-23546893D01*
X72832678Y-23665116D01*
X72896207Y-23776475D01*
X72983021Y-23877684D01*
X73080029Y-23956887D01*
X73120437Y-23987162D01*
X73148982Y-24013219D01*
X73159257Y-24028825D01*
X73153877Y-24045843D01*
X73138575Y-24086500D01*
X73114612Y-24147642D01*
X73083244Y-24226119D01*
X73045732Y-24318780D01*
X73003333Y-24422472D01*
X72961663Y-24523526D01*
X72915690Y-24634607D01*
X72873107Y-24737541D01*
X72835221Y-24829165D01*
X72803340Y-24906316D01*
X72778771Y-24965831D01*
X72762820Y-25004544D01*
X72756910Y-25019000D01*
X72742948Y-25033685D01*
X72715940Y-25033642D01*
X72672413Y-25018099D01*
X72608890Y-24986284D01*
X72608388Y-24986013D01*
X72560560Y-24961323D01*
X72521897Y-24943338D01*
X72500095Y-24935614D01*
X72499133Y-24935543D01*
X72482721Y-24943378D01*
X72446487Y-24965165D01*
X72394474Y-24998328D01*
X72330725Y-25040291D01*
X72260060Y-25087943D01*
X72188116Y-25136191D01*
X72123274Y-25178151D01*
X72069735Y-25211227D01*
X72031697Y-25232821D01*
X72013533Y-25240343D01*
X71996808Y-25230457D01*
X71963180Y-25202826D01*
X71916010Y-25160495D01*
X71858658Y-25106505D01*
X71794484Y-25043899D01*
X71773497Y-25022983D01*
X71556499Y-24805623D01*
X71721668Y-24563220D01*
X71771864Y-24488781D01*
X71815919Y-24421972D01*
X71851362Y-24366665D01*
X71875719Y-24326729D01*
X71886522Y-24306036D01*
X71886838Y-24304563D01*
X71881143Y-24285058D01*
X71865826Y-24245822D01*
X71843537Y-24193430D01*
X71827893Y-24158355D01*
X71798641Y-24091201D01*
X71771094Y-24023358D01*
X71749737Y-23966034D01*
X71743935Y-23948572D01*
X71727452Y-23901938D01*
X71711340Y-23865905D01*
X71702490Y-23852287D01*
X71682960Y-23843952D01*
X71640334Y-23832137D01*
X71580145Y-23818181D01*
X71507922Y-23803422D01*
X71475600Y-23797355D01*
X71393522Y-23782273D01*
X71314795Y-23767669D01*
X71247109Y-23754980D01*
X71198160Y-23745642D01*
X71188943Y-23743839D01*
X71112743Y-23728799D01*
X71112743Y-23411492D01*
X71112914Y-23307154D01*
X71113616Y-23228213D01*
X71115134Y-23171038D01*
X71117749Y-23131999D01*
X71121746Y-23107465D01*
X71127409Y-23093805D01*
X71135020Y-23087389D01*
X71138143Y-23086199D01*
X71156978Y-23081980D01*
X71198588Y-23073562D01*
X71257630Y-23061961D01*
X71328757Y-23048195D01*
X71406625Y-23033280D01*
X71485887Y-23018232D01*
X71561198Y-23004069D01*
X71627213Y-22991806D01*
X71678587Y-22982461D01*
X71709975Y-22977050D01*
X71716959Y-22976114D01*
X71723285Y-22963596D01*
X71737290Y-22930246D01*
X71756355Y-22882377D01*
X71763634Y-22863629D01*
X71792996Y-22791195D01*
X71827571Y-22711170D01*
X71858537Y-22643728D01*
X71881323Y-22592159D01*
X71896482Y-22549785D01*
X71901542Y-22523834D01*
X71900736Y-22520356D01*
X71890041Y-22503936D01*
X71865620Y-22467417D01*
X71830095Y-22414687D01*
X71786087Y-22349635D01*
X71736217Y-22276151D01*
X71726356Y-22261645D01*
X71668492Y-22175704D01*
X71625956Y-22110261D01*
X71597054Y-22062304D01*
X71580090Y-22028820D01*
X71573367Y-22006795D01*
X71575190Y-21993217D01*
X71575236Y-21993131D01*
X71589586Y-21975297D01*
X71621323Y-21940817D01*
X71667010Y-21893268D01*
X71723204Y-21836222D01*
X71786468Y-21773255D01*
X71793602Y-21766227D01*
X71873330Y-21689020D01*
X71934857Y-21632330D01*
X71979421Y-21595110D01*
X72008257Y-21576315D01*
X72020958Y-21573889D01*
X72039494Y-21584471D01*
X72077961Y-21608916D01*
X72132386Y-21644612D01*
X72198798Y-21688947D01*
X72273225Y-21739311D01*
X72290601Y-21751160D01*
X72537297Y-21919626D01*
X72648706Y-21869062D01*
X72716457Y-21839595D01*
X72789183Y-21809959D01*
X72851703Y-21786330D01*
X72854457Y-21785358D01*
X72903360Y-21767457D01*
X72941057Y-21752320D01*
X72959425Y-21743210D01*
X72959456Y-21743184D01*
X72965285Y-21726717D01*
X72975192Y-21686219D01*
X72988195Y-21626242D01*
X73003309Y-21551340D01*
X73019552Y-21466064D01*
X73020881Y-21458875D01*
X73037175Y-21371014D01*
X73052133Y-21291260D01*
X73064791Y-21224681D01*
X73074186Y-21176347D01*
X73079354Y-21151325D01*
X73079444Y-21150943D01*
X73082589Y-21140299D01*
X73088704Y-21132262D01*
X73101453Y-21126467D01*
X73124500Y-21122547D01*
X73161509Y-21120135D01*
X73216144Y-21118865D01*
X73292067Y-21118371D01*
X73392944Y-21118286D01*
X73406000Y-21118286D01*
X73509910Y-21118348D01*
X73509910Y-21118348D01*
G37*
X73509910Y-21118348D02*
X73588454Y-21118778D01*
X73645298Y-21119942D01*
X73684105Y-21122207D01*
X73708538Y-21125940D01*
X73722262Y-21131506D01*
X73728940Y-21139273D01*
X73732236Y-21149605D01*
X73732556Y-21150943D01*
X73737562Y-21175079D01*
X73746829Y-21222701D01*
X73759392Y-21288741D01*
X73774287Y-21368128D01*
X73790551Y-21455796D01*
X73791119Y-21458875D01*
X73807410Y-21544789D01*
X73822652Y-21620696D01*
X73835861Y-21682045D01*
X73846054Y-21724282D01*
X73852248Y-21742855D01*
X73852543Y-21743184D01*
X73870788Y-21752253D01*
X73908405Y-21767367D01*
X73957271Y-21785262D01*
X73957543Y-21785358D01*
X74019093Y-21808493D01*
X74091657Y-21837965D01*
X74160057Y-21867597D01*
X74163294Y-21869062D01*
X74274702Y-21919626D01*
X74521399Y-21751160D01*
X74597077Y-21699803D01*
X74665631Y-21653889D01*
X74723088Y-21616030D01*
X74765476Y-21588837D01*
X74788825Y-21574921D01*
X74791042Y-21573889D01*
X74808010Y-21578484D01*
X74839701Y-21600655D01*
X74887352Y-21641447D01*
X74952198Y-21701905D01*
X75018397Y-21766227D01*
X75082214Y-21829612D01*
X75139329Y-21887451D01*
X75186305Y-21936175D01*
X75219703Y-21972210D01*
X75236085Y-21991984D01*
X75236694Y-21993002D01*
X75238505Y-22006572D01*
X75231683Y-22028733D01*
X75214540Y-22062478D01*
X75185393Y-22110800D01*
X75142555Y-22176692D01*
X75085448Y-22261517D01*
X75034766Y-22336177D01*
X74989461Y-22403140D01*
X74952150Y-22458516D01*
X74925452Y-22498420D01*
X74911985Y-22518962D01*
X74911137Y-22520356D01*
X74912781Y-22540038D01*
X74925245Y-22578293D01*
X74946048Y-22627889D01*
X74953462Y-22643728D01*
X74985814Y-22714290D01*
X75020328Y-22794353D01*
X75048365Y-22863629D01*
X75068568Y-22915045D01*
X75084615Y-22954119D01*
X75093888Y-22974541D01*
X75095041Y-22976114D01*
X75112096Y-22978721D01*
X75152298Y-22985863D01*
X75210302Y-22996523D01*
X75280763Y-23009685D01*
X75358335Y-23024333D01*
X75437672Y-23039449D01*
X75513431Y-23054018D01*
X75580264Y-23067022D01*
X75632828Y-23077445D01*
X75665776Y-23084270D01*
X75673857Y-23086199D01*
X75682205Y-23090962D01*
X75688506Y-23101718D01*
X75693045Y-23122098D01*
X75696104Y-23155734D01*
X75697967Y-23206255D01*
X75698918Y-23277292D01*
X75699240Y-23372476D01*
X75699257Y-23411492D01*
X75699257Y-23728799D01*
X75623057Y-23743839D01*
X75580663Y-23751995D01*
X75517400Y-23763899D01*
X75440962Y-23778116D01*
X75359043Y-23793210D01*
X75336400Y-23797355D01*
X75260806Y-23812053D01*
X75194953Y-23826505D01*
X75144366Y-23839375D01*
X75114574Y-23849322D01*
X75109612Y-23852287D01*
X75097426Y-23873283D01*
X75079953Y-23913967D01*
X75060577Y-23966322D01*
X75056734Y-23977600D01*
X75031339Y-24047523D01*
X74999817Y-24126418D01*
X74968969Y-24197266D01*
X74968817Y-24197595D01*
X74917447Y-24308733D01*
X75086399Y-24557253D01*
X75255352Y-24805772D01*
X75038429Y-25023058D01*
X74972819Y-25087726D01*
X74912979Y-25144733D01*
X74862267Y-25191033D01*
X74824046Y-25223584D01*
X74801675Y-25239343D01*
X74798466Y-25240343D01*
X74779626Y-25232469D01*
X74741180Y-25210578D01*
X74687330Y-25177267D01*
X74622276Y-25135131D01*
X74551940Y-25087943D01*
X74480555Y-25039810D01*
X74416908Y-24997928D01*
X74365041Y-24964871D01*
X74328995Y-24943218D01*
X74312867Y-24935543D01*
X74293189Y-24942037D01*
X74255875Y-24959150D01*
X74208621Y-24983326D01*
X74203612Y-24986013D01*
X74139977Y-25017927D01*
X74096341Y-25033579D01*
X74069202Y-25033745D01*
X74055057Y-25019204D01*
X74054975Y-25019000D01*
X74047905Y-25001779D01*
X74031042Y-24960899D01*
X74005695Y-24899525D01*
X73973171Y-24820819D01*
X73934778Y-24727947D01*
X73891822Y-24624072D01*
X73850222Y-24523502D01*
X73804504Y-24412516D01*
X73762526Y-24309703D01*
X73725548Y-24218215D01*
X73694827Y-24141201D01*
X73671622Y-24081815D01*
X73657190Y-24043209D01*
X73652743Y-24028800D01*
X73663896Y-24012272D01*
X73693069Y-23985930D01*
X73731971Y-23956887D01*
X73842757Y-23865039D01*
X73929351Y-23759759D01*
X73990716Y-23643266D01*
X74025815Y-23517776D01*
X74033608Y-23385507D01*
X74027943Y-23324457D01*
X73997078Y-23197795D01*
X73943920Y-23085941D01*
X73871767Y-22990001D01*
X73783917Y-22911076D01*
X73683665Y-22850270D01*
X73574310Y-22808687D01*
X73459147Y-22787428D01*
X73341475Y-22787599D01*
X73224590Y-22810301D01*
X73111789Y-22856638D01*
X73006369Y-22927713D01*
X72962368Y-22967911D01*
X72877979Y-23071129D01*
X72819222Y-23183925D01*
X72785704Y-23303010D01*
X72777035Y-23425095D01*
X72792823Y-23546893D01*
X72832678Y-23665116D01*
X72896207Y-23776475D01*
X72983021Y-23877684D01*
X73080029Y-23956887D01*
X73120437Y-23987162D01*
X73148982Y-24013219D01*
X73159257Y-24028825D01*
X73153877Y-24045843D01*
X73138575Y-24086500D01*
X73114612Y-24147642D01*
X73083244Y-24226119D01*
X73045732Y-24318780D01*
X73003333Y-24422472D01*
X72961663Y-24523526D01*
X72915690Y-24634607D01*
X72873107Y-24737541D01*
X72835221Y-24829165D01*
X72803340Y-24906316D01*
X72778771Y-24965831D01*
X72762820Y-25004544D01*
X72756910Y-25019000D01*
X72742948Y-25033685D01*
X72715940Y-25033642D01*
X72672413Y-25018099D01*
X72608890Y-24986284D01*
X72608388Y-24986013D01*
X72560560Y-24961323D01*
X72521897Y-24943338D01*
X72500095Y-24935614D01*
X72499133Y-24935543D01*
X72482721Y-24943378D01*
X72446487Y-24965165D01*
X72394474Y-24998328D01*
X72330725Y-25040291D01*
X72260060Y-25087943D01*
X72188116Y-25136191D01*
X72123274Y-25178151D01*
X72069735Y-25211227D01*
X72031697Y-25232821D01*
X72013533Y-25240343D01*
X71996808Y-25230457D01*
X71963180Y-25202826D01*
X71916010Y-25160495D01*
X71858658Y-25106505D01*
X71794484Y-25043899D01*
X71773497Y-25022983D01*
X71556499Y-24805623D01*
X71721668Y-24563220D01*
X71771864Y-24488781D01*
X71815919Y-24421972D01*
X71851362Y-24366665D01*
X71875719Y-24326729D01*
X71886522Y-24306036D01*
X71886838Y-24304563D01*
X71881143Y-24285058D01*
X71865826Y-24245822D01*
X71843537Y-24193430D01*
X71827893Y-24158355D01*
X71798641Y-24091201D01*
X71771094Y-24023358D01*
X71749737Y-23966034D01*
X71743935Y-23948572D01*
X71727452Y-23901938D01*
X71711340Y-23865905D01*
X71702490Y-23852287D01*
X71682960Y-23843952D01*
X71640334Y-23832137D01*
X71580145Y-23818181D01*
X71507922Y-23803422D01*
X71475600Y-23797355D01*
X71393522Y-23782273D01*
X71314795Y-23767669D01*
X71247109Y-23754980D01*
X71198160Y-23745642D01*
X71188943Y-23743839D01*
X71112743Y-23728799D01*
X71112743Y-23411492D01*
X71112914Y-23307154D01*
X71113616Y-23228213D01*
X71115134Y-23171038D01*
X71117749Y-23131999D01*
X71121746Y-23107465D01*
X71127409Y-23093805D01*
X71135020Y-23087389D01*
X71138143Y-23086199D01*
X71156978Y-23081980D01*
X71198588Y-23073562D01*
X71257630Y-23061961D01*
X71328757Y-23048195D01*
X71406625Y-23033280D01*
X71485887Y-23018232D01*
X71561198Y-23004069D01*
X71627213Y-22991806D01*
X71678587Y-22982461D01*
X71709975Y-22977050D01*
X71716959Y-22976114D01*
X71723285Y-22963596D01*
X71737290Y-22930246D01*
X71756355Y-22882377D01*
X71763634Y-22863629D01*
X71792996Y-22791195D01*
X71827571Y-22711170D01*
X71858537Y-22643728D01*
X71881323Y-22592159D01*
X71896482Y-22549785D01*
X71901542Y-22523834D01*
X71900736Y-22520356D01*
X71890041Y-22503936D01*
X71865620Y-22467417D01*
X71830095Y-22414687D01*
X71786087Y-22349635D01*
X71736217Y-22276151D01*
X71726356Y-22261645D01*
X71668492Y-22175704D01*
X71625956Y-22110261D01*
X71597054Y-22062304D01*
X71580090Y-22028820D01*
X71573367Y-22006795D01*
X71575190Y-21993217D01*
X71575236Y-21993131D01*
X71589586Y-21975297D01*
X71621323Y-21940817D01*
X71667010Y-21893268D01*
X71723204Y-21836222D01*
X71786468Y-21773255D01*
X71793602Y-21766227D01*
X71873330Y-21689020D01*
X71934857Y-21632330D01*
X71979421Y-21595110D01*
X72008257Y-21576315D01*
X72020958Y-21573889D01*
X72039494Y-21584471D01*
X72077961Y-21608916D01*
X72132386Y-21644612D01*
X72198798Y-21688947D01*
X72273225Y-21739311D01*
X72290601Y-21751160D01*
X72537297Y-21919626D01*
X72648706Y-21869062D01*
X72716457Y-21839595D01*
X72789183Y-21809959D01*
X72851703Y-21786330D01*
X72854457Y-21785358D01*
X72903360Y-21767457D01*
X72941057Y-21752320D01*
X72959425Y-21743210D01*
X72959456Y-21743184D01*
X72965285Y-21726717D01*
X72975192Y-21686219D01*
X72988195Y-21626242D01*
X73003309Y-21551340D01*
X73019552Y-21466064D01*
X73020881Y-21458875D01*
X73037175Y-21371014D01*
X73052133Y-21291260D01*
X73064791Y-21224681D01*
X73074186Y-21176347D01*
X73079354Y-21151325D01*
X73079444Y-21150943D01*
X73082589Y-21140299D01*
X73088704Y-21132262D01*
X73101453Y-21126467D01*
X73124500Y-21122547D01*
X73161509Y-21120135D01*
X73216144Y-21118865D01*
X73292067Y-21118371D01*
X73392944Y-21118286D01*
X73406000Y-21118286D01*
X73509910Y-21118348D01*
D11*
X56496000Y-37938000D02*
X55796000Y-37938000D01*
X55796000Y-36738000D02*
X56496000Y-36738000D01*
X63608000Y-29302000D02*
X62908000Y-29302000D01*
X62908000Y-28102000D02*
X63608000Y-28102000D01*
X55649001Y-24129001D02*
X54949001Y-24129001D01*
X54949001Y-22929001D02*
X55649001Y-22929001D01*
X47668000Y-23530000D02*
X48368000Y-23530000D01*
X48368000Y-24730000D02*
X47668000Y-24730000D01*
X59499001Y-24129001D02*
X58799001Y-24129001D01*
X58799001Y-22929001D02*
X59499001Y-22929001D01*
X52408000Y-24222000D02*
X51708000Y-24222000D01*
X51708000Y-23022000D02*
X52408000Y-23022000D01*
X37308000Y-22614000D02*
X37308000Y-23614000D01*
X37308000Y-23614000D02*
X39408000Y-23614000D01*
X37308000Y-22614000D02*
X39408000Y-22614000D01*
D13*
X80788000Y-39100000D02*
X80788000Y-37100000D01*
X82788000Y-39100000D02*
X80788000Y-39100000D01*
X82788000Y-37100000D02*
X82788000Y-39100000D01*
X80788000Y-37100000D02*
X82788000Y-37100000D01*
D14*
X81988000Y-37700000D02*
X81988000Y-37200000D01*
X82688000Y-37700000D02*
X81988000Y-37700000D01*
X81934000Y-24434000D02*
X81934000Y-23734000D01*
X81934000Y-23734000D02*
X82434000Y-23734000D01*
D13*
X82534000Y-22534000D02*
X82534000Y-24534000D01*
X82534000Y-24534000D02*
X80534000Y-24534000D01*
X80534000Y-24534000D02*
X80534000Y-22534000D01*
X80534000Y-22534000D02*
X82534000Y-22534000D01*
D11*
X33460000Y-22614000D02*
X35560000Y-22614000D01*
X33460000Y-23614000D02*
X35560000Y-23614000D01*
X33460000Y-22614000D02*
X33460000Y-23614000D01*
X67831000Y-27818000D02*
X67831000Y-27753000D01*
X71361000Y-27818000D02*
X71361000Y-27753000D01*
X67831000Y-34223000D02*
X67831000Y-34158000D01*
X71361000Y-34223000D02*
X71361000Y-34158000D01*
X72686000Y-34158000D02*
X71361000Y-34158000D01*
X71361000Y-27753000D02*
X67831000Y-27753000D01*
X71361000Y-34223000D02*
X67831000Y-34223000D01*
X38120000Y-25228000D02*
X39120000Y-25228000D01*
X39120000Y-26588000D02*
X38120000Y-26588000D01*
X34310000Y-25228000D02*
X35310000Y-25228000D01*
X35310000Y-26588000D02*
X34310000Y-26588000D01*
X66048000Y-36150000D02*
X67048000Y-36150000D01*
X67048000Y-37510000D02*
X66048000Y-37510000D01*
X82062000Y-29358000D02*
X82062000Y-32038000D01*
X75822000Y-32038000D02*
X75822000Y-29358000D01*
X75972000Y-27578000D02*
X81912000Y-27578000D01*
X75972000Y-33818000D02*
X81912000Y-33818000D01*
X80356214Y-30698000D02*
G75*
G03X80356214Y-30698000I-1414214J0D01*
G01*
X33238000Y-27832000D02*
X39248000Y-27832000D01*
X35488000Y-34652000D02*
X39248000Y-34652000D01*
X39248000Y-27832000D02*
X39248000Y-29092000D01*
X39248000Y-34652000D02*
X39248000Y-33392000D01*
D13*
X60639250Y-27498750D02*
X60114250Y-27498750D01*
X60639250Y-34748750D02*
X60114250Y-34748750D01*
X53389250Y-34748750D02*
X53914250Y-34748750D01*
X53389250Y-27498750D02*
X53914250Y-27498750D01*
X60639250Y-34748750D02*
X60639250Y-34223750D01*
X53389250Y-34748750D02*
X53389250Y-34223750D01*
X60639250Y-27498750D02*
X60639250Y-28023750D01*
D11*
X44812000Y-24730000D02*
X44112000Y-24730000D01*
X44112000Y-23530000D02*
X44812000Y-23530000D01*
X44844000Y-36642000D02*
X49644000Y-36642000D01*
X44844000Y-25842000D02*
X49644000Y-25842000D01*
X44844000Y-26242000D02*
X43444000Y-26242000D01*
X44844000Y-25842000D02*
X44844000Y-26242000D01*
D13*
X25868380Y-23447333D02*
X26582666Y-23447333D01*
X26725523Y-23494952D01*
X26820761Y-23590190D01*
X26868380Y-23733047D01*
X26868380Y-23828285D01*
X26868380Y-22447333D02*
X26868380Y-23018761D01*
X26868380Y-22733047D02*
X25868380Y-22733047D01*
X26011238Y-22828285D01*
X26106476Y-22923523D01*
X26154095Y-23018761D01*
X55979333Y-36195142D02*
X55931714Y-36242761D01*
X55788857Y-36290380D01*
X55693619Y-36290380D01*
X55550761Y-36242761D01*
X55455523Y-36147523D01*
X55407904Y-36052285D01*
X55360285Y-35861809D01*
X55360285Y-35718952D01*
X55407904Y-35528476D01*
X55455523Y-35433238D01*
X55550761Y-35338000D01*
X55693619Y-35290380D01*
X55788857Y-35290380D01*
X55931714Y-35338000D01*
X55979333Y-35385619D01*
X56836476Y-35623714D02*
X56836476Y-36290380D01*
X56598380Y-35242761D02*
X56360285Y-35957047D01*
X56979333Y-35957047D01*
X63091333Y-30559142D02*
X63043714Y-30606761D01*
X62900857Y-30654380D01*
X62805619Y-30654380D01*
X62662761Y-30606761D01*
X62567523Y-30511523D01*
X62519904Y-30416285D01*
X62472285Y-30225809D01*
X62472285Y-30082952D01*
X62519904Y-29892476D01*
X62567523Y-29797238D01*
X62662761Y-29702000D01*
X62805619Y-29654380D01*
X62900857Y-29654380D01*
X63043714Y-29702000D01*
X63091333Y-29749619D01*
X63996095Y-29654380D02*
X63519904Y-29654380D01*
X63472285Y-30130571D01*
X63519904Y-30082952D01*
X63615142Y-30035333D01*
X63853238Y-30035333D01*
X63948476Y-30082952D01*
X63996095Y-30130571D01*
X64043714Y-30225809D01*
X64043714Y-30463904D01*
X63996095Y-30559142D01*
X63948476Y-30606761D01*
X63853238Y-30654380D01*
X63615142Y-30654380D01*
X63519904Y-30606761D01*
X63472285Y-30559142D01*
X55132334Y-25386143D02*
X55084715Y-25433762D01*
X54941858Y-25481381D01*
X54846620Y-25481381D01*
X54703762Y-25433762D01*
X54608524Y-25338524D01*
X54560905Y-25243286D01*
X54513286Y-25052810D01*
X54513286Y-24909953D01*
X54560905Y-24719477D01*
X54608524Y-24624239D01*
X54703762Y-24529001D01*
X54846620Y-24481381D01*
X54941858Y-24481381D01*
X55084715Y-24529001D01*
X55132334Y-24576620D01*
X55989477Y-24481381D02*
X55799001Y-24481381D01*
X55703762Y-24529001D01*
X55656143Y-24576620D01*
X55560905Y-24719477D01*
X55513286Y-24909953D01*
X55513286Y-25290905D01*
X55560905Y-25386143D01*
X55608524Y-25433762D01*
X55703762Y-25481381D01*
X55894239Y-25481381D01*
X55989477Y-25433762D01*
X56037096Y-25386143D01*
X56084715Y-25290905D01*
X56084715Y-25052810D01*
X56037096Y-24957572D01*
X55989477Y-24909953D01*
X55894239Y-24862334D01*
X55703762Y-24862334D01*
X55608524Y-24909953D01*
X55560905Y-24957572D01*
X55513286Y-25052810D01*
X47839333Y-22963142D02*
X47791714Y-23010761D01*
X47648857Y-23058380D01*
X47553619Y-23058380D01*
X47410761Y-23010761D01*
X47315523Y-22915523D01*
X47267904Y-22820285D01*
X47220285Y-22629809D01*
X47220285Y-22486952D01*
X47267904Y-22296476D01*
X47315523Y-22201238D01*
X47410761Y-22106000D01*
X47553619Y-22058380D01*
X47648857Y-22058380D01*
X47791714Y-22106000D01*
X47839333Y-22153619D01*
X48172666Y-22058380D02*
X48839333Y-22058380D01*
X48410761Y-23058380D01*
X58982334Y-22386143D02*
X58934715Y-22433762D01*
X58791858Y-22481381D01*
X58696620Y-22481381D01*
X58553762Y-22433762D01*
X58458524Y-22338524D01*
X58410905Y-22243286D01*
X58363286Y-22052810D01*
X58363286Y-21909953D01*
X58410905Y-21719477D01*
X58458524Y-21624239D01*
X58553762Y-21529001D01*
X58696620Y-21481381D01*
X58791858Y-21481381D01*
X58934715Y-21529001D01*
X58982334Y-21576620D01*
X59553762Y-21909953D02*
X59458524Y-21862334D01*
X59410905Y-21814715D01*
X59363286Y-21719477D01*
X59363286Y-21671858D01*
X59410905Y-21576620D01*
X59458524Y-21529001D01*
X59553762Y-21481381D01*
X59744239Y-21481381D01*
X59839477Y-21529001D01*
X59887096Y-21576620D01*
X59934715Y-21671858D01*
X59934715Y-21719477D01*
X59887096Y-21814715D01*
X59839477Y-21862334D01*
X59744239Y-21909953D01*
X59553762Y-21909953D01*
X59458524Y-21957572D01*
X59410905Y-22005191D01*
X59363286Y-22100429D01*
X59363286Y-22290905D01*
X59410905Y-22386143D01*
X59458524Y-22433762D01*
X59553762Y-22481381D01*
X59744239Y-22481381D01*
X59839477Y-22433762D01*
X59887096Y-22386143D01*
X59934715Y-22290905D01*
X59934715Y-22100429D01*
X59887096Y-22005191D01*
X59839477Y-21957572D01*
X59744239Y-21909953D01*
X51903333Y-22201142D02*
X51855714Y-22248761D01*
X51712857Y-22296380D01*
X51617619Y-22296380D01*
X51474761Y-22248761D01*
X51379523Y-22153523D01*
X51331904Y-22058285D01*
X51284285Y-21867809D01*
X51284285Y-21724952D01*
X51331904Y-21534476D01*
X51379523Y-21439238D01*
X51474761Y-21344000D01*
X51617619Y-21296380D01*
X51712857Y-21296380D01*
X51855714Y-21344000D01*
X51903333Y-21391619D01*
X52379523Y-22296380D02*
X52570000Y-22296380D01*
X52665238Y-22248761D01*
X52712857Y-22201142D01*
X52808095Y-22058285D01*
X52855714Y-21867809D01*
X52855714Y-21486857D01*
X52808095Y-21391619D01*
X52760476Y-21344000D01*
X52665238Y-21296380D01*
X52474761Y-21296380D01*
X52379523Y-21344000D01*
X52331904Y-21391619D01*
X52284285Y-21486857D01*
X52284285Y-21724952D01*
X52331904Y-21820190D01*
X52379523Y-21867809D01*
X52474761Y-21915428D01*
X52665238Y-21915428D01*
X52760476Y-21867809D01*
X52808095Y-21820190D01*
X52855714Y-21724952D01*
X37869904Y-22316380D02*
X37869904Y-21316380D01*
X38108000Y-21316380D01*
X38250857Y-21364000D01*
X38346095Y-21459238D01*
X38393714Y-21554476D01*
X38441333Y-21744952D01*
X38441333Y-21887809D01*
X38393714Y-22078285D01*
X38346095Y-22173523D01*
X38250857Y-22268761D01*
X38108000Y-22316380D01*
X37869904Y-22316380D01*
X39393714Y-22316380D02*
X38822285Y-22316380D01*
X39108000Y-22316380D02*
X39108000Y-21316380D01*
X39012761Y-21459238D01*
X38917523Y-21554476D01*
X38822285Y-21602095D01*
D15*
X81566778Y-38726362D02*
X81566778Y-38225982D01*
X81638140Y-38225982D01*
X81680957Y-38249810D01*
X81709501Y-38297465D01*
X81723774Y-38345120D01*
X81738046Y-38440430D01*
X81738046Y-38511913D01*
X81723774Y-38607224D01*
X81709501Y-38654879D01*
X81680957Y-38702534D01*
X81638140Y-38726362D01*
X81566778Y-38726362D01*
X81852225Y-38273637D02*
X81866498Y-38249810D01*
X81895042Y-38225982D01*
X81966404Y-38225982D01*
X81994949Y-38249810D01*
X82009221Y-38273637D01*
X82023494Y-38321292D01*
X82023494Y-38368948D01*
X82009221Y-38440430D01*
X81837953Y-38726362D01*
X82023494Y-38726362D01*
X81360362Y-23755221D02*
X80859982Y-23755221D01*
X80859982Y-23683860D01*
X80883810Y-23641042D01*
X80931465Y-23612498D01*
X80979120Y-23598225D01*
X81074430Y-23583953D01*
X81145913Y-23583953D01*
X81241224Y-23598225D01*
X81288879Y-23612498D01*
X81336534Y-23641042D01*
X81360362Y-23683860D01*
X81360362Y-23755221D01*
X80859982Y-23484046D02*
X80859982Y-23298505D01*
X81050603Y-23398412D01*
X81050603Y-23355595D01*
X81074430Y-23327050D01*
X81098258Y-23312778D01*
X81145913Y-23298505D01*
X81265051Y-23298505D01*
X81312707Y-23312778D01*
X81336534Y-23327050D01*
X81360362Y-23355595D01*
X81360362Y-23441229D01*
X81336534Y-23469774D01*
X81312707Y-23484046D01*
D13*
X34021904Y-22316380D02*
X34021904Y-21316380D01*
X34260000Y-21316380D01*
X34402857Y-21364000D01*
X34498095Y-21459238D01*
X34545714Y-21554476D01*
X34593333Y-21744952D01*
X34593333Y-21887809D01*
X34545714Y-22078285D01*
X34498095Y-22173523D01*
X34402857Y-22268761D01*
X34260000Y-22316380D01*
X34021904Y-22316380D01*
X35450476Y-21649714D02*
X35450476Y-22316380D01*
X35212380Y-21268761D02*
X34974285Y-21983047D01*
X35593333Y-21983047D01*
X69262666Y-34675380D02*
X69262666Y-35389666D01*
X69215047Y-35532523D01*
X69119809Y-35627761D01*
X68976952Y-35675380D01*
X68881714Y-35675380D01*
X69691238Y-34770619D02*
X69738857Y-34723000D01*
X69834095Y-34675380D01*
X70072190Y-34675380D01*
X70167428Y-34723000D01*
X70215047Y-34770619D01*
X70262666Y-34865857D01*
X70262666Y-34961095D01*
X70215047Y-35103952D01*
X69643619Y-35675380D01*
X70262666Y-35675380D01*
X38453333Y-24910380D02*
X38120000Y-24434190D01*
X37881904Y-24910380D02*
X37881904Y-23910380D01*
X38262857Y-23910380D01*
X38358095Y-23958000D01*
X38405714Y-24005619D01*
X38453333Y-24100857D01*
X38453333Y-24243714D01*
X38405714Y-24338952D01*
X38358095Y-24386571D01*
X38262857Y-24434190D01*
X37881904Y-24434190D01*
X39405714Y-24910380D02*
X38834285Y-24910380D01*
X39120000Y-24910380D02*
X39120000Y-23910380D01*
X39024761Y-24053238D01*
X38929523Y-24148476D01*
X38834285Y-24196095D01*
X34643333Y-24910380D02*
X34310000Y-24434190D01*
X34071904Y-24910380D02*
X34071904Y-23910380D01*
X34452857Y-23910380D01*
X34548095Y-23958000D01*
X34595714Y-24005619D01*
X34643333Y-24100857D01*
X34643333Y-24243714D01*
X34595714Y-24338952D01*
X34548095Y-24386571D01*
X34452857Y-24434190D01*
X34071904Y-24434190D01*
X35214761Y-24338952D02*
X35119523Y-24291333D01*
X35071904Y-24243714D01*
X35024285Y-24148476D01*
X35024285Y-24100857D01*
X35071904Y-24005619D01*
X35119523Y-23958000D01*
X35214761Y-23910380D01*
X35405238Y-23910380D01*
X35500476Y-23958000D01*
X35548095Y-24005619D01*
X35595714Y-24100857D01*
X35595714Y-24148476D01*
X35548095Y-24243714D01*
X35500476Y-24291333D01*
X35405238Y-24338952D01*
X35214761Y-24338952D01*
X35119523Y-24386571D01*
X35071904Y-24434190D01*
X35024285Y-24529428D01*
X35024285Y-24719904D01*
X35071904Y-24815142D01*
X35119523Y-24862761D01*
X35214761Y-24910380D01*
X35405238Y-24910380D01*
X35500476Y-24862761D01*
X35548095Y-24815142D01*
X35595714Y-24719904D01*
X35595714Y-24529428D01*
X35548095Y-24434190D01*
X35500476Y-24386571D01*
X35405238Y-24338952D01*
X66381333Y-38732380D02*
X66048000Y-38256190D01*
X65809904Y-38732380D02*
X65809904Y-37732380D01*
X66190857Y-37732380D01*
X66286095Y-37780000D01*
X66333714Y-37827619D01*
X66381333Y-37922857D01*
X66381333Y-38065714D01*
X66333714Y-38160952D01*
X66286095Y-38208571D01*
X66190857Y-38256190D01*
X65809904Y-38256190D01*
X66857523Y-38732380D02*
X67048000Y-38732380D01*
X67143238Y-38684761D01*
X67190857Y-38637142D01*
X67286095Y-38494285D01*
X67333714Y-38303809D01*
X67333714Y-37922857D01*
X67286095Y-37827619D01*
X67238476Y-37780000D01*
X67143238Y-37732380D01*
X66952761Y-37732380D01*
X66857523Y-37780000D01*
X66809904Y-37827619D01*
X66762285Y-37922857D01*
X66762285Y-38160952D01*
X66809904Y-38256190D01*
X66857523Y-38303809D01*
X66952761Y-38351428D01*
X67143238Y-38351428D01*
X67238476Y-38303809D01*
X67286095Y-38256190D01*
X67333714Y-38160952D01*
X78180095Y-26802761D02*
X78322952Y-26850380D01*
X78561047Y-26850380D01*
X78656285Y-26802761D01*
X78703904Y-26755142D01*
X78751523Y-26659904D01*
X78751523Y-26564666D01*
X78703904Y-26469428D01*
X78656285Y-26421809D01*
X78561047Y-26374190D01*
X78370571Y-26326571D01*
X78275333Y-26278952D01*
X78227714Y-26231333D01*
X78180095Y-26136095D01*
X78180095Y-26040857D01*
X78227714Y-25945619D01*
X78275333Y-25898000D01*
X78370571Y-25850380D01*
X78608666Y-25850380D01*
X78751523Y-25898000D01*
X79703904Y-26850380D02*
X79132476Y-26850380D01*
X79418190Y-26850380D02*
X79418190Y-25850380D01*
X79322952Y-25993238D01*
X79227714Y-26088476D01*
X79132476Y-26136095D01*
X36576095Y-35520380D02*
X36576095Y-36329904D01*
X36623714Y-36425142D01*
X36671333Y-36472761D01*
X36766571Y-36520380D01*
X36957047Y-36520380D01*
X37052285Y-36472761D01*
X37099904Y-36425142D01*
X37147523Y-36329904D01*
X37147523Y-35520380D01*
X38147523Y-36520380D02*
X37576095Y-36520380D01*
X37861809Y-36520380D02*
X37861809Y-35520380D01*
X37766571Y-35663238D01*
X37671333Y-35758476D01*
X37576095Y-35806095D01*
X56252345Y-25826130D02*
X56252345Y-26635654D01*
X56299964Y-26730892D01*
X56347583Y-26778511D01*
X56442821Y-26826130D01*
X56633297Y-26826130D01*
X56728535Y-26778511D01*
X56776154Y-26730892D01*
X56823773Y-26635654D01*
X56823773Y-25826130D01*
X57252345Y-25921369D02*
X57299964Y-25873750D01*
X57395202Y-25826130D01*
X57633297Y-25826130D01*
X57728535Y-25873750D01*
X57776154Y-25921369D01*
X57823773Y-26016607D01*
X57823773Y-26111845D01*
X57776154Y-26254702D01*
X57204726Y-26826130D01*
X57823773Y-26826130D01*
X44537333Y-22963142D02*
X44489714Y-23010761D01*
X44346857Y-23058380D01*
X44251619Y-23058380D01*
X44108761Y-23010761D01*
X44013523Y-22915523D01*
X43965904Y-22820285D01*
X43918285Y-22629809D01*
X43918285Y-22486952D01*
X43965904Y-22296476D01*
X44013523Y-22201238D01*
X44108761Y-22106000D01*
X44251619Y-22058380D01*
X44346857Y-22058380D01*
X44489714Y-22106000D01*
X44537333Y-22153619D01*
X45489714Y-23058380D02*
X44918285Y-23058380D01*
X45204000Y-23058380D02*
X45204000Y-22058380D01*
X45108761Y-22201238D01*
X45013523Y-22296476D01*
X44918285Y-22344095D01*
X41656095Y-36790380D02*
X41656095Y-37599904D01*
X41703714Y-37695142D01*
X41751333Y-37742761D01*
X41846571Y-37790380D01*
X42037047Y-37790380D01*
X42132285Y-37742761D01*
X42179904Y-37695142D01*
X42227523Y-37599904D01*
X42227523Y-36790380D01*
X42608476Y-36790380D02*
X43227523Y-36790380D01*
X42894190Y-37171333D01*
X43037047Y-37171333D01*
X43132285Y-37218952D01*
X43179904Y-37266571D01*
X43227523Y-37361809D01*
X43227523Y-37599904D01*
X43179904Y-37695142D01*
X43132285Y-37742761D01*
X43037047Y-37790380D01*
X42751333Y-37790380D01*
X42656095Y-37742761D01*
X42608476Y-37695142D01*
M02*
