G04 #@! TF.GenerationSoftware,KiCad,Pcbnew,5.1.4+dfsg1-1*
G04 #@! TF.CreationDate,2019-12-22T14:50:52-06:00*
G04 #@! TF.ProjectId,oxidized_flash,6f786964-697a-4656-945f-666c6173682e,rev?*
G04 #@! TF.SameCoordinates,Original*
G04 #@! TF.FileFunction,Paste,Top*
G04 #@! TF.FilePolarity,Positive*
%FSLAX46Y46*%
G04 Gerber Fmt 4.6, Leading zero omitted, Abs format (unit mm)*
G04 Created by KiCad (PCBNEW 5.1.4+dfsg1-1) date 2019-12-22 14:50:52*
%MOMM*%
%LPD*%
G04 APERTURE LIST*
%ADD10R,2.000000X1.200000*%
%ADD11R,0.800000X0.750000*%
%ADD12R,0.800000X0.800000*%
%ADD13R,0.800000X0.500000*%
%ADD14R,0.800000X0.300000*%
%ADD15R,0.500000X0.800000*%
%ADD16R,0.300000X0.800000*%
%ADD17R,2.400000X0.740000*%
%ADD18R,0.500000X0.900000*%
%ADD19R,2.000000X1.500000*%
%ADD20R,2.000000X3.800000*%
%ADD21R,0.772500X0.772500*%
%ADD22R,0.250000X0.700000*%
%ADD23R,0.700000X0.250000*%
%ADD24R,1.300000X0.800000*%
G04 APERTURE END LIST*
D10*
X30032000Y-34600000D03*
X30032000Y-32100000D03*
X30032000Y-30100000D03*
X30032000Y-27600000D03*
D11*
X56896000Y-37338000D03*
X55396000Y-37338000D03*
X64008000Y-28702000D03*
X62508000Y-28702000D03*
X56049001Y-23529001D03*
X54549001Y-23529001D03*
X47268000Y-24130000D03*
X48768000Y-24130000D03*
X59899001Y-23529001D03*
X58399001Y-23529001D03*
X52808000Y-23622000D03*
X51308000Y-23622000D03*
D12*
X39408000Y-23114000D03*
X37808000Y-23114000D03*
D13*
X82638000Y-37200000D03*
D14*
X82638000Y-38100000D03*
D13*
X82638000Y-39000000D03*
X80938000Y-39000000D03*
D14*
X80938000Y-38100000D03*
D13*
X80938000Y-37200000D03*
D15*
X82434000Y-22684000D03*
D16*
X81534000Y-22684000D03*
D15*
X80634000Y-22684000D03*
X80634000Y-24384000D03*
D16*
X81534000Y-24384000D03*
D15*
X82434000Y-24384000D03*
D12*
X33960000Y-23114000D03*
X35560000Y-23114000D03*
D17*
X67646000Y-28448000D03*
X71546000Y-28448000D03*
X67646000Y-29718000D03*
X71546000Y-29718000D03*
X67646000Y-30988000D03*
X71546000Y-30988000D03*
X67646000Y-32258000D03*
X71546000Y-32258000D03*
X67646000Y-33528000D03*
X71546000Y-33528000D03*
D18*
X39370000Y-25908000D03*
X37870000Y-25908000D03*
X35560000Y-25908000D03*
X34060000Y-25908000D03*
X67298000Y-36830000D03*
X65798000Y-36830000D03*
D19*
X34188000Y-28942000D03*
X34188000Y-33542000D03*
X34188000Y-31242000D03*
D20*
X40488000Y-31242000D03*
D21*
X55083000Y-29192500D03*
X55083000Y-30480000D03*
X55083000Y-31767500D03*
X55083000Y-33055000D03*
X56370500Y-29192500D03*
X56370500Y-30480000D03*
X56370500Y-31767500D03*
X56370500Y-33055000D03*
X57658000Y-29192500D03*
X57658000Y-30480000D03*
X57658000Y-31767500D03*
X57658000Y-33055000D03*
X58945500Y-29192500D03*
X58945500Y-30480000D03*
X58945500Y-31767500D03*
X58945500Y-33055000D03*
D22*
X54264250Y-27723750D03*
X54764250Y-27723750D03*
X55264250Y-27723750D03*
X55764250Y-27723750D03*
X56264250Y-27723750D03*
X56764250Y-27723750D03*
X57264250Y-27723750D03*
X57764250Y-27723750D03*
X58264250Y-27723750D03*
X58764250Y-27723750D03*
X59264250Y-27723750D03*
X59764250Y-27723750D03*
D23*
X60414250Y-28373750D03*
X60414250Y-28873750D03*
X60414250Y-29373750D03*
X60414250Y-29873750D03*
X60414250Y-30373750D03*
X60414250Y-30873750D03*
X60414250Y-31373750D03*
X60414250Y-31873750D03*
X60414250Y-32373750D03*
X60414250Y-32873750D03*
X60414250Y-33373750D03*
X60414250Y-33873750D03*
D22*
X59764250Y-34523750D03*
X59264250Y-34523750D03*
X58764250Y-34523750D03*
X58264250Y-34523750D03*
X57764250Y-34523750D03*
X57264250Y-34523750D03*
X56764250Y-34523750D03*
X56264250Y-34523750D03*
X55764250Y-34523750D03*
X55264250Y-34523750D03*
X54764250Y-34523750D03*
X54264250Y-34523750D03*
D23*
X53614250Y-33873750D03*
X53614250Y-33373750D03*
X53614250Y-32873750D03*
X53614250Y-32373750D03*
X53614250Y-31873750D03*
X53614250Y-31373750D03*
X53614250Y-30873750D03*
X53614250Y-30373750D03*
X53614250Y-29873750D03*
X53614250Y-29373750D03*
X53614250Y-28873750D03*
X53614250Y-28373750D03*
D11*
X45212000Y-24130000D03*
X43712000Y-24130000D03*
D24*
X50394000Y-26792000D03*
X50394000Y-28072000D03*
X50394000Y-29332000D03*
X50394000Y-30602000D03*
X50394000Y-31882000D03*
X50394000Y-33152000D03*
X50394000Y-34412000D03*
X50394000Y-35692000D03*
X44094000Y-35692000D03*
X44094000Y-34412000D03*
X44094000Y-33152000D03*
X44094000Y-31882000D03*
X44094000Y-30602000D03*
X44094000Y-29332000D03*
X44094000Y-28072000D03*
X44094000Y-26792000D03*
M02*
