G04 #@! TF.GenerationSoftware,KiCad,Pcbnew,5.1.4+dfsg1-1*
G04 #@! TF.CreationDate,2019-12-28T11:26:46-06:00*
G04 #@! TF.ProjectId,oxidized_flash,6f786964-697a-4656-945f-666c6173682e,rev?*
G04 #@! TF.SameCoordinates,Original*
G04 #@! TF.FileFunction,Legend,Top*
G04 #@! TF.FilePolarity,Positive*
%FSLAX46Y46*%
G04 Gerber Fmt 4.6, Leading zero omitted, Abs format (unit mm)*
G04 Created by KiCad (PCBNEW 5.1.4+dfsg1-1) date 2019-12-28 11:26:46*
%MOMM*%
%LPD*%
G04 APERTURE LIST*
%ADD10C,0.187500*%
%ADD11C,0.120000*%
%ADD12C,0.100000*%
%ADD13C,0.010000*%
%ADD14C,0.150000*%
G04 APERTURE END LIST*
D10*
X61653285Y-39721285D02*
X61796142Y-39721285D01*
X61867571Y-39757000D01*
X61939000Y-39828428D01*
X61974714Y-39971285D01*
X61974714Y-40221285D01*
X61939000Y-40364142D01*
X61867571Y-40435571D01*
X61796142Y-40471285D01*
X61653285Y-40471285D01*
X61581857Y-40435571D01*
X61510428Y-40364142D01*
X61474714Y-40221285D01*
X61474714Y-39971285D01*
X61510428Y-39828428D01*
X61581857Y-39757000D01*
X61653285Y-39721285D01*
X62224714Y-40471285D02*
X62617571Y-39971285D01*
X62224714Y-39971285D02*
X62617571Y-40471285D01*
X62903285Y-40471285D02*
X62903285Y-39971285D01*
X62903285Y-39721285D02*
X62867571Y-39757000D01*
X62903285Y-39792714D01*
X62939000Y-39757000D01*
X62903285Y-39721285D01*
X62903285Y-39792714D01*
X63581857Y-40471285D02*
X63581857Y-39721285D01*
X63581857Y-40435571D02*
X63510428Y-40471285D01*
X63367571Y-40471285D01*
X63296142Y-40435571D01*
X63260428Y-40399857D01*
X63224714Y-40328428D01*
X63224714Y-40114142D01*
X63260428Y-40042714D01*
X63296142Y-40007000D01*
X63367571Y-39971285D01*
X63510428Y-39971285D01*
X63581857Y-40007000D01*
X63939000Y-40471285D02*
X63939000Y-39971285D01*
X63939000Y-39721285D02*
X63903285Y-39757000D01*
X63939000Y-39792714D01*
X63974714Y-39757000D01*
X63939000Y-39721285D01*
X63939000Y-39792714D01*
X64224714Y-39971285D02*
X64617571Y-39971285D01*
X64224714Y-40471285D01*
X64617571Y-40471285D01*
X65189000Y-40435571D02*
X65117571Y-40471285D01*
X64974714Y-40471285D01*
X64903285Y-40435571D01*
X64867571Y-40364142D01*
X64867571Y-40078428D01*
X64903285Y-40007000D01*
X64974714Y-39971285D01*
X65117571Y-39971285D01*
X65189000Y-40007000D01*
X65224714Y-40078428D01*
X65224714Y-40149857D01*
X64867571Y-40221285D01*
X65867571Y-40471285D02*
X65867571Y-39721285D01*
X65867571Y-40435571D02*
X65796142Y-40471285D01*
X65653285Y-40471285D01*
X65581857Y-40435571D01*
X65546142Y-40399857D01*
X65510428Y-40328428D01*
X65510428Y-40114142D01*
X65546142Y-40042714D01*
X65581857Y-40007000D01*
X65653285Y-39971285D01*
X65796142Y-39971285D01*
X65867571Y-40007000D01*
X67046142Y-40078428D02*
X66796142Y-40078428D01*
X66796142Y-40471285D02*
X66796142Y-39721285D01*
X67153285Y-39721285D01*
X67546142Y-40471285D02*
X67474714Y-40435571D01*
X67439000Y-40364142D01*
X67439000Y-39721285D01*
X68153285Y-40471285D02*
X68153285Y-40078428D01*
X68117571Y-40007000D01*
X68046142Y-39971285D01*
X67903285Y-39971285D01*
X67831857Y-40007000D01*
X68153285Y-40435571D02*
X68081857Y-40471285D01*
X67903285Y-40471285D01*
X67831857Y-40435571D01*
X67796142Y-40364142D01*
X67796142Y-40292714D01*
X67831857Y-40221285D01*
X67903285Y-40185571D01*
X68081857Y-40185571D01*
X68153285Y-40149857D01*
X68474714Y-40435571D02*
X68546142Y-40471285D01*
X68689000Y-40471285D01*
X68760428Y-40435571D01*
X68796142Y-40364142D01*
X68796142Y-40328428D01*
X68760428Y-40257000D01*
X68689000Y-40221285D01*
X68581857Y-40221285D01*
X68510428Y-40185571D01*
X68474714Y-40114142D01*
X68474714Y-40078428D01*
X68510428Y-40007000D01*
X68581857Y-39971285D01*
X68689000Y-39971285D01*
X68760428Y-40007000D01*
X69117571Y-40471285D02*
X69117571Y-39721285D01*
X69439000Y-40471285D02*
X69439000Y-40078428D01*
X69403285Y-40007000D01*
X69331857Y-39971285D01*
X69224714Y-39971285D01*
X69153285Y-40007000D01*
X69117571Y-40042714D01*
X70796142Y-40471285D02*
X70546142Y-40114142D01*
X70367571Y-40471285D02*
X70367571Y-39721285D01*
X70653285Y-39721285D01*
X70724714Y-39757000D01*
X70760428Y-39792714D01*
X70796142Y-39864142D01*
X70796142Y-39971285D01*
X70760428Y-40042714D01*
X70724714Y-40078428D01*
X70653285Y-40114142D01*
X70367571Y-40114142D01*
X71403285Y-40435571D02*
X71331857Y-40471285D01*
X71189000Y-40471285D01*
X71117571Y-40435571D01*
X71081857Y-40364142D01*
X71081857Y-40078428D01*
X71117571Y-40007000D01*
X71189000Y-39971285D01*
X71331857Y-39971285D01*
X71403285Y-40007000D01*
X71439000Y-40078428D01*
X71439000Y-40149857D01*
X71081857Y-40221285D01*
X71689000Y-39971285D02*
X71867571Y-40471285D01*
X72046142Y-39971285D01*
X72331857Y-40399857D02*
X72367571Y-40435571D01*
X72331857Y-40471285D01*
X72296142Y-40435571D01*
X72331857Y-40399857D01*
X72331857Y-40471285D01*
X73224714Y-39792714D02*
X73260428Y-39757000D01*
X73331857Y-39721285D01*
X73510428Y-39721285D01*
X73581857Y-39757000D01*
X73617571Y-39792714D01*
X73653285Y-39864142D01*
X73653285Y-39935571D01*
X73617571Y-40042714D01*
X73189000Y-40471285D01*
X73653285Y-40471285D01*
D11*
X31816000Y-27832000D02*
X37826000Y-27832000D01*
X34066000Y-34652000D02*
X37826000Y-34652000D01*
X37826000Y-27832000D02*
X37826000Y-29092000D01*
X37826000Y-34652000D02*
X37826000Y-33392000D01*
X76042000Y-35224000D02*
X82142000Y-35224000D01*
X76042000Y-36324000D02*
X76042000Y-35224000D01*
X82142000Y-40624000D02*
X77142000Y-40624000D01*
D12*
X42101872Y-25067000D02*
G75*
G03X42101872Y-25067000I-89872J0D01*
G01*
X49978000Y-35230000D02*
X49978000Y-35630000D01*
X49978000Y-35630000D02*
X42478000Y-35630000D01*
X42478000Y-35630000D02*
X42478000Y-35230000D01*
X42478000Y-25730000D02*
X42478000Y-25330000D01*
X42478000Y-25330000D02*
X49978000Y-25330000D01*
X49978000Y-25330000D02*
X49978000Y-25730000D01*
D11*
X75902000Y-21176000D02*
X82002000Y-21176000D01*
X75902000Y-22276000D02*
X75902000Y-21176000D01*
X82002000Y-26576000D02*
X77002000Y-26576000D01*
X24832000Y-25400000D02*
X24832000Y-36800000D01*
D13*
G36*
X67957744Y-25541918D02*
G01*
X68013201Y-25569568D01*
X68062148Y-25620480D01*
X68075629Y-25639338D01*
X68090314Y-25664015D01*
X68099842Y-25690816D01*
X68105293Y-25726587D01*
X68107747Y-25778169D01*
X68108286Y-25846267D01*
X68105852Y-25939588D01*
X68097394Y-26009657D01*
X68081174Y-26061931D01*
X68055454Y-26101869D01*
X68018497Y-26134929D01*
X68015782Y-26136886D01*
X67979360Y-26156908D01*
X67935502Y-26166815D01*
X67879724Y-26169257D01*
X67789048Y-26169257D01*
X67789010Y-26257283D01*
X67788166Y-26306308D01*
X67783024Y-26335065D01*
X67769587Y-26352311D01*
X67743858Y-26366808D01*
X67737679Y-26369769D01*
X67708764Y-26383648D01*
X67686376Y-26392414D01*
X67669729Y-26393171D01*
X67658036Y-26383023D01*
X67650510Y-26359073D01*
X67646366Y-26318426D01*
X67644815Y-26258186D01*
X67645071Y-26175455D01*
X67646349Y-26067339D01*
X67646748Y-26035000D01*
X67648185Y-25923524D01*
X67649472Y-25850603D01*
X67788971Y-25850603D01*
X67789755Y-25912499D01*
X67793240Y-25952997D01*
X67801124Y-25979708D01*
X67815105Y-26000244D01*
X67824597Y-26010260D01*
X67863404Y-26039567D01*
X67897763Y-26041952D01*
X67933216Y-26017750D01*
X67934114Y-26016857D01*
X67948539Y-25998153D01*
X67957313Y-25972732D01*
X67961739Y-25933584D01*
X67963118Y-25873697D01*
X67963143Y-25860430D01*
X67959812Y-25777901D01*
X67948969Y-25720691D01*
X67929340Y-25685766D01*
X67899650Y-25670094D01*
X67882491Y-25668514D01*
X67841766Y-25675926D01*
X67813832Y-25700330D01*
X67797017Y-25744980D01*
X67789650Y-25813130D01*
X67788971Y-25850603D01*
X67649472Y-25850603D01*
X67649708Y-25837245D01*
X67651677Y-25772333D01*
X67654450Y-25724958D01*
X67658388Y-25691290D01*
X67663849Y-25667498D01*
X67671192Y-25649753D01*
X67680777Y-25634224D01*
X67684887Y-25628381D01*
X67739405Y-25573185D01*
X67808336Y-25541890D01*
X67888072Y-25533165D01*
X67957744Y-25541918D01*
X67957744Y-25541918D01*
G37*
X67957744Y-25541918D02*
X68013201Y-25569568D01*
X68062148Y-25620480D01*
X68075629Y-25639338D01*
X68090314Y-25664015D01*
X68099842Y-25690816D01*
X68105293Y-25726587D01*
X68107747Y-25778169D01*
X68108286Y-25846267D01*
X68105852Y-25939588D01*
X68097394Y-26009657D01*
X68081174Y-26061931D01*
X68055454Y-26101869D01*
X68018497Y-26134929D01*
X68015782Y-26136886D01*
X67979360Y-26156908D01*
X67935502Y-26166815D01*
X67879724Y-26169257D01*
X67789048Y-26169257D01*
X67789010Y-26257283D01*
X67788166Y-26306308D01*
X67783024Y-26335065D01*
X67769587Y-26352311D01*
X67743858Y-26366808D01*
X67737679Y-26369769D01*
X67708764Y-26383648D01*
X67686376Y-26392414D01*
X67669729Y-26393171D01*
X67658036Y-26383023D01*
X67650510Y-26359073D01*
X67646366Y-26318426D01*
X67644815Y-26258186D01*
X67645071Y-26175455D01*
X67646349Y-26067339D01*
X67646748Y-26035000D01*
X67648185Y-25923524D01*
X67649472Y-25850603D01*
X67788971Y-25850603D01*
X67789755Y-25912499D01*
X67793240Y-25952997D01*
X67801124Y-25979708D01*
X67815105Y-26000244D01*
X67824597Y-26010260D01*
X67863404Y-26039567D01*
X67897763Y-26041952D01*
X67933216Y-26017750D01*
X67934114Y-26016857D01*
X67948539Y-25998153D01*
X67957313Y-25972732D01*
X67961739Y-25933584D01*
X67963118Y-25873697D01*
X67963143Y-25860430D01*
X67959812Y-25777901D01*
X67948969Y-25720691D01*
X67929340Y-25685766D01*
X67899650Y-25670094D01*
X67882491Y-25668514D01*
X67841766Y-25675926D01*
X67813832Y-25700330D01*
X67797017Y-25744980D01*
X67789650Y-25813130D01*
X67788971Y-25850603D01*
X67649472Y-25850603D01*
X67649708Y-25837245D01*
X67651677Y-25772333D01*
X67654450Y-25724958D01*
X67658388Y-25691290D01*
X67663849Y-25667498D01*
X67671192Y-25649753D01*
X67680777Y-25634224D01*
X67684887Y-25628381D01*
X67739405Y-25573185D01*
X67808336Y-25541890D01*
X67888072Y-25533165D01*
X67957744Y-25541918D01*
G36*
X69074093Y-25549780D02*
G01*
X69120672Y-25576723D01*
X69153057Y-25603466D01*
X69176742Y-25631484D01*
X69193059Y-25665748D01*
X69203339Y-25711227D01*
X69208914Y-25772892D01*
X69211116Y-25855711D01*
X69211371Y-25915246D01*
X69211371Y-26134391D01*
X69149686Y-26162044D01*
X69088000Y-26189697D01*
X69080743Y-25949670D01*
X69077744Y-25860028D01*
X69074598Y-25794962D01*
X69070701Y-25750026D01*
X69065447Y-25720770D01*
X69058231Y-25702748D01*
X69048450Y-25691511D01*
X69045312Y-25689079D01*
X68997761Y-25670083D01*
X68949697Y-25677600D01*
X68921086Y-25697543D01*
X68909447Y-25711675D01*
X68901391Y-25730220D01*
X68896271Y-25758334D01*
X68893441Y-25801173D01*
X68892256Y-25863895D01*
X68892057Y-25929261D01*
X68892018Y-26011268D01*
X68890614Y-26069316D01*
X68885914Y-26108465D01*
X68875987Y-26133780D01*
X68858903Y-26150323D01*
X68832732Y-26163156D01*
X68797775Y-26176491D01*
X68759596Y-26191007D01*
X68764141Y-25933389D01*
X68765971Y-25840519D01*
X68768112Y-25771889D01*
X68771181Y-25722711D01*
X68775794Y-25688198D01*
X68782568Y-25663562D01*
X68792119Y-25644016D01*
X68803634Y-25626770D01*
X68859190Y-25571680D01*
X68926980Y-25539822D01*
X69000713Y-25532191D01*
X69074093Y-25549780D01*
X69074093Y-25549780D01*
G37*
X69074093Y-25549780D02*
X69120672Y-25576723D01*
X69153057Y-25603466D01*
X69176742Y-25631484D01*
X69193059Y-25665748D01*
X69203339Y-25711227D01*
X69208914Y-25772892D01*
X69211116Y-25855711D01*
X69211371Y-25915246D01*
X69211371Y-26134391D01*
X69149686Y-26162044D01*
X69088000Y-26189697D01*
X69080743Y-25949670D01*
X69077744Y-25860028D01*
X69074598Y-25794962D01*
X69070701Y-25750026D01*
X69065447Y-25720770D01*
X69058231Y-25702748D01*
X69048450Y-25691511D01*
X69045312Y-25689079D01*
X68997761Y-25670083D01*
X68949697Y-25677600D01*
X68921086Y-25697543D01*
X68909447Y-25711675D01*
X68901391Y-25730220D01*
X68896271Y-25758334D01*
X68893441Y-25801173D01*
X68892256Y-25863895D01*
X68892057Y-25929261D01*
X68892018Y-26011268D01*
X68890614Y-26069316D01*
X68885914Y-26108465D01*
X68875987Y-26133780D01*
X68858903Y-26150323D01*
X68832732Y-26163156D01*
X68797775Y-26176491D01*
X68759596Y-26191007D01*
X68764141Y-25933389D01*
X68765971Y-25840519D01*
X68768112Y-25771889D01*
X68771181Y-25722711D01*
X68775794Y-25688198D01*
X68782568Y-25663562D01*
X68792119Y-25644016D01*
X68803634Y-25626770D01*
X68859190Y-25571680D01*
X68926980Y-25539822D01*
X69000713Y-25532191D01*
X69074093Y-25549780D01*
G36*
X67399115Y-25543962D02*
G01*
X67467145Y-25579733D01*
X67517351Y-25637301D01*
X67535185Y-25674312D01*
X67549063Y-25729882D01*
X67556167Y-25800096D01*
X67556840Y-25876727D01*
X67551427Y-25951552D01*
X67540270Y-26016342D01*
X67523714Y-26062873D01*
X67518626Y-26070887D01*
X67458355Y-26130707D01*
X67386769Y-26166535D01*
X67309092Y-26177020D01*
X67230548Y-26160810D01*
X67208689Y-26151092D01*
X67166122Y-26121143D01*
X67128763Y-26081433D01*
X67125232Y-26076397D01*
X67110881Y-26052124D01*
X67101394Y-26026178D01*
X67095790Y-25992022D01*
X67093086Y-25943119D01*
X67092299Y-25872935D01*
X67092286Y-25857200D01*
X67092322Y-25852192D01*
X67237429Y-25852192D01*
X67238273Y-25918430D01*
X67241596Y-25962386D01*
X67248583Y-25990779D01*
X67260416Y-26010325D01*
X67266457Y-26016857D01*
X67301186Y-26041680D01*
X67334903Y-26040548D01*
X67368995Y-26019016D01*
X67389329Y-25996029D01*
X67401371Y-25962478D01*
X67408134Y-25909569D01*
X67408598Y-25903399D01*
X67409752Y-25807513D01*
X67397688Y-25736299D01*
X67372570Y-25690194D01*
X67334560Y-25669635D01*
X67320992Y-25668514D01*
X67285364Y-25674152D01*
X67260994Y-25693686D01*
X67246093Y-25731042D01*
X67238875Y-25790150D01*
X67237429Y-25852192D01*
X67092322Y-25852192D01*
X67092826Y-25782413D01*
X67095096Y-25730159D01*
X67100068Y-25693949D01*
X67108713Y-25667299D01*
X67122005Y-25643722D01*
X67124943Y-25639338D01*
X67174313Y-25580249D01*
X67228109Y-25545947D01*
X67293602Y-25532331D01*
X67315842Y-25531665D01*
X67399115Y-25543962D01*
X67399115Y-25543962D01*
G37*
X67399115Y-25543962D02*
X67467145Y-25579733D01*
X67517351Y-25637301D01*
X67535185Y-25674312D01*
X67549063Y-25729882D01*
X67556167Y-25800096D01*
X67556840Y-25876727D01*
X67551427Y-25951552D01*
X67540270Y-26016342D01*
X67523714Y-26062873D01*
X67518626Y-26070887D01*
X67458355Y-26130707D01*
X67386769Y-26166535D01*
X67309092Y-26177020D01*
X67230548Y-26160810D01*
X67208689Y-26151092D01*
X67166122Y-26121143D01*
X67128763Y-26081433D01*
X67125232Y-26076397D01*
X67110881Y-26052124D01*
X67101394Y-26026178D01*
X67095790Y-25992022D01*
X67093086Y-25943119D01*
X67092299Y-25872935D01*
X67092286Y-25857200D01*
X67092322Y-25852192D01*
X67237429Y-25852192D01*
X67238273Y-25918430D01*
X67241596Y-25962386D01*
X67248583Y-25990779D01*
X67260416Y-26010325D01*
X67266457Y-26016857D01*
X67301186Y-26041680D01*
X67334903Y-26040548D01*
X67368995Y-26019016D01*
X67389329Y-25996029D01*
X67401371Y-25962478D01*
X67408134Y-25909569D01*
X67408598Y-25903399D01*
X67409752Y-25807513D01*
X67397688Y-25736299D01*
X67372570Y-25690194D01*
X67334560Y-25669635D01*
X67320992Y-25668514D01*
X67285364Y-25674152D01*
X67260994Y-25693686D01*
X67246093Y-25731042D01*
X67238875Y-25790150D01*
X67237429Y-25852192D01*
X67092322Y-25852192D01*
X67092826Y-25782413D01*
X67095096Y-25730159D01*
X67100068Y-25693949D01*
X67108713Y-25667299D01*
X67122005Y-25643722D01*
X67124943Y-25639338D01*
X67174313Y-25580249D01*
X67228109Y-25545947D01*
X67293602Y-25532331D01*
X67315842Y-25531665D01*
X67399115Y-25543962D01*
G36*
X68526303Y-25553239D02*
G01*
X68583527Y-25591735D01*
X68627749Y-25647335D01*
X68654167Y-25718086D01*
X68659510Y-25770162D01*
X68658903Y-25791893D01*
X68653822Y-25808531D01*
X68639855Y-25823437D01*
X68612589Y-25839973D01*
X68567612Y-25861498D01*
X68500511Y-25891374D01*
X68500171Y-25891524D01*
X68438407Y-25919813D01*
X68387759Y-25944933D01*
X68353404Y-25964179D01*
X68340518Y-25974848D01*
X68340514Y-25974934D01*
X68351872Y-25998166D01*
X68378431Y-26023774D01*
X68408923Y-26042221D01*
X68424370Y-26045886D01*
X68466515Y-26033212D01*
X68502808Y-26001471D01*
X68520517Y-25966572D01*
X68537552Y-25940845D01*
X68570922Y-25911546D01*
X68610149Y-25886235D01*
X68644756Y-25872471D01*
X68651993Y-25871714D01*
X68660139Y-25884160D01*
X68660630Y-25915972D01*
X68654643Y-25958866D01*
X68643357Y-26004558D01*
X68627950Y-26044761D01*
X68627171Y-26046322D01*
X68580804Y-26111062D01*
X68520711Y-26155097D01*
X68452465Y-26176711D01*
X68381638Y-26174185D01*
X68313804Y-26145804D01*
X68310788Y-26143808D01*
X68257427Y-26095448D01*
X68222340Y-26032352D01*
X68202922Y-25949387D01*
X68200316Y-25926078D01*
X68195701Y-25816055D01*
X68201233Y-25764748D01*
X68340514Y-25764748D01*
X68342324Y-25796753D01*
X68352222Y-25806093D01*
X68376898Y-25799105D01*
X68415795Y-25782587D01*
X68459275Y-25761881D01*
X68460356Y-25761333D01*
X68497209Y-25741949D01*
X68512000Y-25729013D01*
X68508353Y-25715451D01*
X68492995Y-25697632D01*
X68453923Y-25671845D01*
X68411846Y-25669950D01*
X68374103Y-25688717D01*
X68348034Y-25724915D01*
X68340514Y-25764748D01*
X68201233Y-25764748D01*
X68205194Y-25728027D01*
X68229550Y-25658212D01*
X68263456Y-25609302D01*
X68324653Y-25559878D01*
X68392063Y-25535359D01*
X68460880Y-25533797D01*
X68526303Y-25553239D01*
X68526303Y-25553239D01*
G37*
X68526303Y-25553239D02*
X68583527Y-25591735D01*
X68627749Y-25647335D01*
X68654167Y-25718086D01*
X68659510Y-25770162D01*
X68658903Y-25791893D01*
X68653822Y-25808531D01*
X68639855Y-25823437D01*
X68612589Y-25839973D01*
X68567612Y-25861498D01*
X68500511Y-25891374D01*
X68500171Y-25891524D01*
X68438407Y-25919813D01*
X68387759Y-25944933D01*
X68353404Y-25964179D01*
X68340518Y-25974848D01*
X68340514Y-25974934D01*
X68351872Y-25998166D01*
X68378431Y-26023774D01*
X68408923Y-26042221D01*
X68424370Y-26045886D01*
X68466515Y-26033212D01*
X68502808Y-26001471D01*
X68520517Y-25966572D01*
X68537552Y-25940845D01*
X68570922Y-25911546D01*
X68610149Y-25886235D01*
X68644756Y-25872471D01*
X68651993Y-25871714D01*
X68660139Y-25884160D01*
X68660630Y-25915972D01*
X68654643Y-25958866D01*
X68643357Y-26004558D01*
X68627950Y-26044761D01*
X68627171Y-26046322D01*
X68580804Y-26111062D01*
X68520711Y-26155097D01*
X68452465Y-26176711D01*
X68381638Y-26174185D01*
X68313804Y-26145804D01*
X68310788Y-26143808D01*
X68257427Y-26095448D01*
X68222340Y-26032352D01*
X68202922Y-25949387D01*
X68200316Y-25926078D01*
X68195701Y-25816055D01*
X68201233Y-25764748D01*
X68340514Y-25764748D01*
X68342324Y-25796753D01*
X68352222Y-25806093D01*
X68376898Y-25799105D01*
X68415795Y-25782587D01*
X68459275Y-25761881D01*
X68460356Y-25761333D01*
X68497209Y-25741949D01*
X68512000Y-25729013D01*
X68508353Y-25715451D01*
X68492995Y-25697632D01*
X68453923Y-25671845D01*
X68411846Y-25669950D01*
X68374103Y-25688717D01*
X68348034Y-25724915D01*
X68340514Y-25764748D01*
X68201233Y-25764748D01*
X68205194Y-25728027D01*
X68229550Y-25658212D01*
X68263456Y-25609302D01*
X68324653Y-25559878D01*
X68392063Y-25535359D01*
X68460880Y-25533797D01*
X68526303Y-25553239D01*
G36*
X69733886Y-25473289D02*
G01*
X69738139Y-25532613D01*
X69743025Y-25567572D01*
X69749795Y-25582820D01*
X69759702Y-25583015D01*
X69762914Y-25581195D01*
X69805644Y-25568015D01*
X69861227Y-25568785D01*
X69917737Y-25582333D01*
X69953082Y-25599861D01*
X69989321Y-25627861D01*
X70015813Y-25659549D01*
X70033999Y-25699813D01*
X70045322Y-25753543D01*
X70051222Y-25825626D01*
X70053143Y-25920951D01*
X70053177Y-25939237D01*
X70053200Y-26144646D01*
X70007491Y-26160580D01*
X69975027Y-26171420D01*
X69957215Y-26176468D01*
X69956691Y-26176514D01*
X69954937Y-26162828D01*
X69953444Y-26125076D01*
X69952326Y-26068224D01*
X69951697Y-25997234D01*
X69951600Y-25954073D01*
X69951398Y-25868973D01*
X69950358Y-25807981D01*
X69947831Y-25766177D01*
X69943164Y-25738642D01*
X69935707Y-25720456D01*
X69924811Y-25706698D01*
X69918007Y-25700073D01*
X69871272Y-25673375D01*
X69820272Y-25671375D01*
X69774001Y-25693955D01*
X69765444Y-25702107D01*
X69752893Y-25717436D01*
X69744188Y-25735618D01*
X69738631Y-25761909D01*
X69735526Y-25801562D01*
X69734176Y-25859832D01*
X69733886Y-25940173D01*
X69733886Y-26144646D01*
X69688177Y-26160580D01*
X69655713Y-26171420D01*
X69637901Y-26176468D01*
X69637377Y-26176514D01*
X69636037Y-26162623D01*
X69634828Y-26123439D01*
X69633801Y-26062700D01*
X69633002Y-25984141D01*
X69632481Y-25891498D01*
X69632286Y-25788509D01*
X69632286Y-25391342D01*
X69679457Y-25371444D01*
X69726629Y-25351547D01*
X69733886Y-25473289D01*
X69733886Y-25473289D01*
G37*
X69733886Y-25473289D02*
X69738139Y-25532613D01*
X69743025Y-25567572D01*
X69749795Y-25582820D01*
X69759702Y-25583015D01*
X69762914Y-25581195D01*
X69805644Y-25568015D01*
X69861227Y-25568785D01*
X69917737Y-25582333D01*
X69953082Y-25599861D01*
X69989321Y-25627861D01*
X70015813Y-25659549D01*
X70033999Y-25699813D01*
X70045322Y-25753543D01*
X70051222Y-25825626D01*
X70053143Y-25920951D01*
X70053177Y-25939237D01*
X70053200Y-26144646D01*
X70007491Y-26160580D01*
X69975027Y-26171420D01*
X69957215Y-26176468D01*
X69956691Y-26176514D01*
X69954937Y-26162828D01*
X69953444Y-26125076D01*
X69952326Y-26068224D01*
X69951697Y-25997234D01*
X69951600Y-25954073D01*
X69951398Y-25868973D01*
X69950358Y-25807981D01*
X69947831Y-25766177D01*
X69943164Y-25738642D01*
X69935707Y-25720456D01*
X69924811Y-25706698D01*
X69918007Y-25700073D01*
X69871272Y-25673375D01*
X69820272Y-25671375D01*
X69774001Y-25693955D01*
X69765444Y-25702107D01*
X69752893Y-25717436D01*
X69744188Y-25735618D01*
X69738631Y-25761909D01*
X69735526Y-25801562D01*
X69734176Y-25859832D01*
X69733886Y-25940173D01*
X69733886Y-26144646D01*
X69688177Y-26160580D01*
X69655713Y-26171420D01*
X69637901Y-26176468D01*
X69637377Y-26176514D01*
X69636037Y-26162623D01*
X69634828Y-26123439D01*
X69633801Y-26062700D01*
X69633002Y-25984141D01*
X69632481Y-25891498D01*
X69632286Y-25788509D01*
X69632286Y-25391342D01*
X69679457Y-25371444D01*
X69726629Y-25351547D01*
X69733886Y-25473289D01*
G36*
X70397744Y-25572968D02*
G01*
X70454616Y-25594087D01*
X70455267Y-25594493D01*
X70490440Y-25620380D01*
X70516407Y-25650633D01*
X70534670Y-25690058D01*
X70546732Y-25743462D01*
X70554096Y-25815651D01*
X70558264Y-25911432D01*
X70558629Y-25925078D01*
X70563876Y-26130842D01*
X70519716Y-26153678D01*
X70487763Y-26169110D01*
X70468470Y-26176423D01*
X70467578Y-26176514D01*
X70464239Y-26163022D01*
X70461587Y-26126626D01*
X70459956Y-26073452D01*
X70459600Y-26030393D01*
X70459592Y-25960641D01*
X70456403Y-25916837D01*
X70445288Y-25895944D01*
X70421501Y-25894925D01*
X70380296Y-25910741D01*
X70318086Y-25939815D01*
X70272341Y-25963963D01*
X70248813Y-25984913D01*
X70241896Y-26007747D01*
X70241886Y-26008877D01*
X70253299Y-26048212D01*
X70287092Y-26069462D01*
X70338809Y-26072539D01*
X70376061Y-26072006D01*
X70395703Y-26082735D01*
X70407952Y-26108505D01*
X70415002Y-26141337D01*
X70404842Y-26159966D01*
X70401017Y-26162632D01*
X70365001Y-26173340D01*
X70314566Y-26174856D01*
X70262626Y-26167759D01*
X70225822Y-26154788D01*
X70174938Y-26111585D01*
X70146014Y-26051446D01*
X70140286Y-26004462D01*
X70144657Y-25962082D01*
X70160475Y-25927488D01*
X70191797Y-25896763D01*
X70242678Y-25865990D01*
X70317176Y-25831252D01*
X70321714Y-25829288D01*
X70388821Y-25798287D01*
X70430232Y-25772862D01*
X70447981Y-25750014D01*
X70444107Y-25726745D01*
X70420643Y-25700056D01*
X70413627Y-25693914D01*
X70366630Y-25670100D01*
X70317933Y-25671103D01*
X70275522Y-25694451D01*
X70247384Y-25737675D01*
X70244769Y-25746160D01*
X70219308Y-25787308D01*
X70187001Y-25807128D01*
X70140286Y-25826770D01*
X70140286Y-25775950D01*
X70154496Y-25702082D01*
X70196675Y-25634327D01*
X70218624Y-25611661D01*
X70268517Y-25582569D01*
X70331967Y-25569400D01*
X70397744Y-25572968D01*
X70397744Y-25572968D01*
G37*
X70397744Y-25572968D02*
X70454616Y-25594087D01*
X70455267Y-25594493D01*
X70490440Y-25620380D01*
X70516407Y-25650633D01*
X70534670Y-25690058D01*
X70546732Y-25743462D01*
X70554096Y-25815651D01*
X70558264Y-25911432D01*
X70558629Y-25925078D01*
X70563876Y-26130842D01*
X70519716Y-26153678D01*
X70487763Y-26169110D01*
X70468470Y-26176423D01*
X70467578Y-26176514D01*
X70464239Y-26163022D01*
X70461587Y-26126626D01*
X70459956Y-26073452D01*
X70459600Y-26030393D01*
X70459592Y-25960641D01*
X70456403Y-25916837D01*
X70445288Y-25895944D01*
X70421501Y-25894925D01*
X70380296Y-25910741D01*
X70318086Y-25939815D01*
X70272341Y-25963963D01*
X70248813Y-25984913D01*
X70241896Y-26007747D01*
X70241886Y-26008877D01*
X70253299Y-26048212D01*
X70287092Y-26069462D01*
X70338809Y-26072539D01*
X70376061Y-26072006D01*
X70395703Y-26082735D01*
X70407952Y-26108505D01*
X70415002Y-26141337D01*
X70404842Y-26159966D01*
X70401017Y-26162632D01*
X70365001Y-26173340D01*
X70314566Y-26174856D01*
X70262626Y-26167759D01*
X70225822Y-26154788D01*
X70174938Y-26111585D01*
X70146014Y-26051446D01*
X70140286Y-26004462D01*
X70144657Y-25962082D01*
X70160475Y-25927488D01*
X70191797Y-25896763D01*
X70242678Y-25865990D01*
X70317176Y-25831252D01*
X70321714Y-25829288D01*
X70388821Y-25798287D01*
X70430232Y-25772862D01*
X70447981Y-25750014D01*
X70444107Y-25726745D01*
X70420643Y-25700056D01*
X70413627Y-25693914D01*
X70366630Y-25670100D01*
X70317933Y-25671103D01*
X70275522Y-25694451D01*
X70247384Y-25737675D01*
X70244769Y-25746160D01*
X70219308Y-25787308D01*
X70187001Y-25807128D01*
X70140286Y-25826770D01*
X70140286Y-25775950D01*
X70154496Y-25702082D01*
X70196675Y-25634327D01*
X70218624Y-25611661D01*
X70268517Y-25582569D01*
X70331967Y-25569400D01*
X70397744Y-25572968D01*
G36*
X70887926Y-25571755D02*
G01*
X70953858Y-25596084D01*
X71007273Y-25639117D01*
X71028164Y-25669409D01*
X71050939Y-25724994D01*
X71050466Y-25765186D01*
X71026562Y-25792217D01*
X71017717Y-25796813D01*
X70979530Y-25811144D01*
X70960028Y-25807472D01*
X70953422Y-25783407D01*
X70953086Y-25770114D01*
X70940992Y-25721210D01*
X70909471Y-25686999D01*
X70865659Y-25670476D01*
X70816695Y-25674634D01*
X70776894Y-25696227D01*
X70763450Y-25708544D01*
X70753921Y-25723487D01*
X70747485Y-25746075D01*
X70743317Y-25781328D01*
X70740597Y-25834266D01*
X70738502Y-25909907D01*
X70737960Y-25933857D01*
X70735981Y-26015790D01*
X70733731Y-26073455D01*
X70730357Y-26111608D01*
X70725006Y-26135004D01*
X70716824Y-26148398D01*
X70704959Y-26156545D01*
X70697362Y-26160144D01*
X70665102Y-26172452D01*
X70646111Y-26176514D01*
X70639836Y-26162948D01*
X70636006Y-26121934D01*
X70634600Y-26052999D01*
X70635598Y-25955669D01*
X70635908Y-25940657D01*
X70638101Y-25851859D01*
X70640693Y-25787019D01*
X70644382Y-25741067D01*
X70649864Y-25708935D01*
X70657835Y-25685553D01*
X70668993Y-25665852D01*
X70674830Y-25657410D01*
X70708296Y-25620057D01*
X70745727Y-25591003D01*
X70750309Y-25588467D01*
X70817426Y-25568443D01*
X70887926Y-25571755D01*
X70887926Y-25571755D01*
G37*
X70887926Y-25571755D02*
X70953858Y-25596084D01*
X71007273Y-25639117D01*
X71028164Y-25669409D01*
X71050939Y-25724994D01*
X71050466Y-25765186D01*
X71026562Y-25792217D01*
X71017717Y-25796813D01*
X70979530Y-25811144D01*
X70960028Y-25807472D01*
X70953422Y-25783407D01*
X70953086Y-25770114D01*
X70940992Y-25721210D01*
X70909471Y-25686999D01*
X70865659Y-25670476D01*
X70816695Y-25674634D01*
X70776894Y-25696227D01*
X70763450Y-25708544D01*
X70753921Y-25723487D01*
X70747485Y-25746075D01*
X70743317Y-25781328D01*
X70740597Y-25834266D01*
X70738502Y-25909907D01*
X70737960Y-25933857D01*
X70735981Y-26015790D01*
X70733731Y-26073455D01*
X70730357Y-26111608D01*
X70725006Y-26135004D01*
X70716824Y-26148398D01*
X70704959Y-26156545D01*
X70697362Y-26160144D01*
X70665102Y-26172452D01*
X70646111Y-26176514D01*
X70639836Y-26162948D01*
X70636006Y-26121934D01*
X70634600Y-26052999D01*
X70635598Y-25955669D01*
X70635908Y-25940657D01*
X70638101Y-25851859D01*
X70640693Y-25787019D01*
X70644382Y-25741067D01*
X70649864Y-25708935D01*
X70657835Y-25685553D01*
X70668993Y-25665852D01*
X70674830Y-25657410D01*
X70708296Y-25620057D01*
X70745727Y-25591003D01*
X70750309Y-25588467D01*
X70817426Y-25568443D01*
X70887926Y-25571755D01*
G36*
X71548117Y-25687358D02*
G01*
X71547933Y-25795837D01*
X71547219Y-25879287D01*
X71545675Y-25941704D01*
X71543001Y-25987085D01*
X71538894Y-26019429D01*
X71533055Y-26042733D01*
X71525182Y-26060995D01*
X71519221Y-26071418D01*
X71469855Y-26127945D01*
X71407264Y-26163377D01*
X71338013Y-26176090D01*
X71268668Y-26164463D01*
X71227375Y-26143568D01*
X71184025Y-26107422D01*
X71154481Y-26063276D01*
X71136655Y-26005462D01*
X71128463Y-25928313D01*
X71127302Y-25871714D01*
X71127458Y-25867647D01*
X71228857Y-25867647D01*
X71229476Y-25932550D01*
X71232314Y-25975514D01*
X71238840Y-26003622D01*
X71250523Y-26023953D01*
X71264483Y-26039288D01*
X71311365Y-26068890D01*
X71361701Y-26071419D01*
X71409276Y-26046705D01*
X71412979Y-26043356D01*
X71428783Y-26025935D01*
X71438693Y-26005209D01*
X71444058Y-25974362D01*
X71446228Y-25926577D01*
X71446571Y-25873748D01*
X71445827Y-25807381D01*
X71442748Y-25763106D01*
X71436061Y-25734009D01*
X71424496Y-25713173D01*
X71415013Y-25702107D01*
X71370960Y-25674198D01*
X71320224Y-25670843D01*
X71271796Y-25692159D01*
X71262450Y-25700073D01*
X71246540Y-25717647D01*
X71236610Y-25738587D01*
X71231278Y-25769782D01*
X71229163Y-25818122D01*
X71228857Y-25867647D01*
X71127458Y-25867647D01*
X71130810Y-25780568D01*
X71142726Y-25712086D01*
X71165135Y-25660600D01*
X71200124Y-25620443D01*
X71227375Y-25599861D01*
X71276907Y-25577625D01*
X71334316Y-25567304D01*
X71387682Y-25570067D01*
X71417543Y-25581212D01*
X71429261Y-25584383D01*
X71437037Y-25572557D01*
X71442465Y-25540866D01*
X71446571Y-25492593D01*
X71451067Y-25438829D01*
X71457313Y-25406482D01*
X71468676Y-25387985D01*
X71488528Y-25375770D01*
X71501000Y-25370362D01*
X71548171Y-25350601D01*
X71548117Y-25687358D01*
X71548117Y-25687358D01*
G37*
X71548117Y-25687358D02*
X71547933Y-25795837D01*
X71547219Y-25879287D01*
X71545675Y-25941704D01*
X71543001Y-25987085D01*
X71538894Y-26019429D01*
X71533055Y-26042733D01*
X71525182Y-26060995D01*
X71519221Y-26071418D01*
X71469855Y-26127945D01*
X71407264Y-26163377D01*
X71338013Y-26176090D01*
X71268668Y-26164463D01*
X71227375Y-26143568D01*
X71184025Y-26107422D01*
X71154481Y-26063276D01*
X71136655Y-26005462D01*
X71128463Y-25928313D01*
X71127302Y-25871714D01*
X71127458Y-25867647D01*
X71228857Y-25867647D01*
X71229476Y-25932550D01*
X71232314Y-25975514D01*
X71238840Y-26003622D01*
X71250523Y-26023953D01*
X71264483Y-26039288D01*
X71311365Y-26068890D01*
X71361701Y-26071419D01*
X71409276Y-26046705D01*
X71412979Y-26043356D01*
X71428783Y-26025935D01*
X71438693Y-26005209D01*
X71444058Y-25974362D01*
X71446228Y-25926577D01*
X71446571Y-25873748D01*
X71445827Y-25807381D01*
X71442748Y-25763106D01*
X71436061Y-25734009D01*
X71424496Y-25713173D01*
X71415013Y-25702107D01*
X71370960Y-25674198D01*
X71320224Y-25670843D01*
X71271796Y-25692159D01*
X71262450Y-25700073D01*
X71246540Y-25717647D01*
X71236610Y-25738587D01*
X71231278Y-25769782D01*
X71229163Y-25818122D01*
X71228857Y-25867647D01*
X71127458Y-25867647D01*
X71130810Y-25780568D01*
X71142726Y-25712086D01*
X71165135Y-25660600D01*
X71200124Y-25620443D01*
X71227375Y-25599861D01*
X71276907Y-25577625D01*
X71334316Y-25567304D01*
X71387682Y-25570067D01*
X71417543Y-25581212D01*
X71429261Y-25584383D01*
X71437037Y-25572557D01*
X71442465Y-25540866D01*
X71446571Y-25492593D01*
X71451067Y-25438829D01*
X71457313Y-25406482D01*
X71468676Y-25387985D01*
X71488528Y-25375770D01*
X71501000Y-25370362D01*
X71548171Y-25350601D01*
X71548117Y-25687358D01*
G36*
X72137833Y-25580663D02*
G01*
X72140048Y-25618850D01*
X72141784Y-25676886D01*
X72142899Y-25750180D01*
X72143257Y-25827055D01*
X72143257Y-26087196D01*
X72097326Y-26133127D01*
X72065675Y-26161429D01*
X72037890Y-26172893D01*
X71999915Y-26172168D01*
X71984840Y-26170321D01*
X71937726Y-26164948D01*
X71898756Y-26161869D01*
X71889257Y-26161585D01*
X71857233Y-26163445D01*
X71811432Y-26168114D01*
X71793674Y-26170321D01*
X71750057Y-26173735D01*
X71720745Y-26166320D01*
X71691680Y-26143427D01*
X71681188Y-26133127D01*
X71635257Y-26087196D01*
X71635257Y-25600602D01*
X71672226Y-25583758D01*
X71704059Y-25571282D01*
X71722683Y-25566914D01*
X71727458Y-25580718D01*
X71731921Y-25619286D01*
X71735775Y-25678356D01*
X71738722Y-25753663D01*
X71740143Y-25817286D01*
X71744114Y-26067657D01*
X71778759Y-26072556D01*
X71810268Y-26069131D01*
X71825708Y-26058041D01*
X71830023Y-26037308D01*
X71833708Y-25993145D01*
X71836469Y-25931146D01*
X71838012Y-25856909D01*
X71838235Y-25818706D01*
X71838457Y-25598783D01*
X71884166Y-25582849D01*
X71916518Y-25572015D01*
X71934115Y-25566962D01*
X71934623Y-25566914D01*
X71936388Y-25580648D01*
X71938329Y-25618730D01*
X71940282Y-25676482D01*
X71942084Y-25749227D01*
X71943343Y-25817286D01*
X71947314Y-26067657D01*
X72034400Y-26067657D01*
X72038396Y-25839240D01*
X72042392Y-25610822D01*
X72084847Y-25588868D01*
X72116192Y-25573793D01*
X72134744Y-25566951D01*
X72135279Y-25566914D01*
X72137833Y-25580663D01*
X72137833Y-25580663D01*
G37*
X72137833Y-25580663D02*
X72140048Y-25618850D01*
X72141784Y-25676886D01*
X72142899Y-25750180D01*
X72143257Y-25827055D01*
X72143257Y-26087196D01*
X72097326Y-26133127D01*
X72065675Y-26161429D01*
X72037890Y-26172893D01*
X71999915Y-26172168D01*
X71984840Y-26170321D01*
X71937726Y-26164948D01*
X71898756Y-26161869D01*
X71889257Y-26161585D01*
X71857233Y-26163445D01*
X71811432Y-26168114D01*
X71793674Y-26170321D01*
X71750057Y-26173735D01*
X71720745Y-26166320D01*
X71691680Y-26143427D01*
X71681188Y-26133127D01*
X71635257Y-26087196D01*
X71635257Y-25600602D01*
X71672226Y-25583758D01*
X71704059Y-25571282D01*
X71722683Y-25566914D01*
X71727458Y-25580718D01*
X71731921Y-25619286D01*
X71735775Y-25678356D01*
X71738722Y-25753663D01*
X71740143Y-25817286D01*
X71744114Y-26067657D01*
X71778759Y-26072556D01*
X71810268Y-26069131D01*
X71825708Y-26058041D01*
X71830023Y-26037308D01*
X71833708Y-25993145D01*
X71836469Y-25931146D01*
X71838012Y-25856909D01*
X71838235Y-25818706D01*
X71838457Y-25598783D01*
X71884166Y-25582849D01*
X71916518Y-25572015D01*
X71934115Y-25566962D01*
X71934623Y-25566914D01*
X71936388Y-25580648D01*
X71938329Y-25618730D01*
X71940282Y-25676482D01*
X71942084Y-25749227D01*
X71943343Y-25817286D01*
X71947314Y-26067657D01*
X72034400Y-26067657D01*
X72038396Y-25839240D01*
X72042392Y-25610822D01*
X72084847Y-25588868D01*
X72116192Y-25573793D01*
X72134744Y-25566951D01*
X72135279Y-25566914D01*
X72137833Y-25580663D01*
G36*
X72502876Y-25578335D02*
G01*
X72544667Y-25597344D01*
X72577469Y-25620378D01*
X72601503Y-25646133D01*
X72618097Y-25679358D01*
X72628577Y-25724800D01*
X72634271Y-25787207D01*
X72636507Y-25871327D01*
X72636743Y-25926721D01*
X72636743Y-26142826D01*
X72599774Y-26159670D01*
X72570656Y-26171981D01*
X72556231Y-26176514D01*
X72553472Y-26163025D01*
X72551282Y-26126653D01*
X72549942Y-26073542D01*
X72549657Y-26031372D01*
X72548434Y-25970447D01*
X72545136Y-25922115D01*
X72540321Y-25892518D01*
X72536496Y-25886229D01*
X72510783Y-25892652D01*
X72470418Y-25909125D01*
X72423679Y-25931458D01*
X72378845Y-25955457D01*
X72344193Y-25976930D01*
X72328002Y-25991685D01*
X72327938Y-25991845D01*
X72329330Y-26019152D01*
X72341818Y-26045219D01*
X72363743Y-26066392D01*
X72395743Y-26073474D01*
X72423092Y-26072649D01*
X72461826Y-26072042D01*
X72482158Y-26081116D01*
X72494369Y-26105092D01*
X72495909Y-26109613D01*
X72501203Y-26143806D01*
X72487047Y-26164568D01*
X72450148Y-26174462D01*
X72410289Y-26176292D01*
X72338562Y-26162727D01*
X72301432Y-26143355D01*
X72255576Y-26097845D01*
X72231256Y-26041983D01*
X72229073Y-25982957D01*
X72249629Y-25927953D01*
X72280549Y-25893486D01*
X72311420Y-25874189D01*
X72359942Y-25849759D01*
X72416485Y-25824985D01*
X72425910Y-25821199D01*
X72488019Y-25793791D01*
X72523822Y-25769634D01*
X72535337Y-25745619D01*
X72524580Y-25718635D01*
X72506114Y-25697543D01*
X72462469Y-25671572D01*
X72414446Y-25669624D01*
X72370406Y-25689637D01*
X72338709Y-25729551D01*
X72334549Y-25739848D01*
X72310327Y-25777724D01*
X72274965Y-25805842D01*
X72230343Y-25828917D01*
X72230343Y-25763485D01*
X72232969Y-25723506D01*
X72244230Y-25691997D01*
X72269199Y-25658378D01*
X72293169Y-25632484D01*
X72330441Y-25595817D01*
X72359401Y-25576121D01*
X72390505Y-25568220D01*
X72425713Y-25566914D01*
X72502876Y-25578335D01*
X72502876Y-25578335D01*
G37*
X72502876Y-25578335D02*
X72544667Y-25597344D01*
X72577469Y-25620378D01*
X72601503Y-25646133D01*
X72618097Y-25679358D01*
X72628577Y-25724800D01*
X72634271Y-25787207D01*
X72636507Y-25871327D01*
X72636743Y-25926721D01*
X72636743Y-26142826D01*
X72599774Y-26159670D01*
X72570656Y-26171981D01*
X72556231Y-26176514D01*
X72553472Y-26163025D01*
X72551282Y-26126653D01*
X72549942Y-26073542D01*
X72549657Y-26031372D01*
X72548434Y-25970447D01*
X72545136Y-25922115D01*
X72540321Y-25892518D01*
X72536496Y-25886229D01*
X72510783Y-25892652D01*
X72470418Y-25909125D01*
X72423679Y-25931458D01*
X72378845Y-25955457D01*
X72344193Y-25976930D01*
X72328002Y-25991685D01*
X72327938Y-25991845D01*
X72329330Y-26019152D01*
X72341818Y-26045219D01*
X72363743Y-26066392D01*
X72395743Y-26073474D01*
X72423092Y-26072649D01*
X72461826Y-26072042D01*
X72482158Y-26081116D01*
X72494369Y-26105092D01*
X72495909Y-26109613D01*
X72501203Y-26143806D01*
X72487047Y-26164568D01*
X72450148Y-26174462D01*
X72410289Y-26176292D01*
X72338562Y-26162727D01*
X72301432Y-26143355D01*
X72255576Y-26097845D01*
X72231256Y-26041983D01*
X72229073Y-25982957D01*
X72249629Y-25927953D01*
X72280549Y-25893486D01*
X72311420Y-25874189D01*
X72359942Y-25849759D01*
X72416485Y-25824985D01*
X72425910Y-25821199D01*
X72488019Y-25793791D01*
X72523822Y-25769634D01*
X72535337Y-25745619D01*
X72524580Y-25718635D01*
X72506114Y-25697543D01*
X72462469Y-25671572D01*
X72414446Y-25669624D01*
X72370406Y-25689637D01*
X72338709Y-25729551D01*
X72334549Y-25739848D01*
X72310327Y-25777724D01*
X72274965Y-25805842D01*
X72230343Y-25828917D01*
X72230343Y-25763485D01*
X72232969Y-25723506D01*
X72244230Y-25691997D01*
X72269199Y-25658378D01*
X72293169Y-25632484D01*
X72330441Y-25595817D01*
X72359401Y-25576121D01*
X72390505Y-25568220D01*
X72425713Y-25566914D01*
X72502876Y-25578335D01*
G36*
X73010600Y-25580752D02*
G01*
X73027948Y-25588334D01*
X73069356Y-25621128D01*
X73104765Y-25668547D01*
X73126664Y-25719151D01*
X73130229Y-25744098D01*
X73118279Y-25778927D01*
X73092067Y-25797357D01*
X73063964Y-25808516D01*
X73051095Y-25810572D01*
X73044829Y-25795649D01*
X73032456Y-25763175D01*
X73027028Y-25748502D01*
X72996590Y-25697744D01*
X72952520Y-25672427D01*
X72896010Y-25673206D01*
X72891825Y-25674203D01*
X72861655Y-25688507D01*
X72839476Y-25716393D01*
X72824327Y-25761287D01*
X72815250Y-25826615D01*
X72811286Y-25915804D01*
X72810914Y-25963261D01*
X72810730Y-26038071D01*
X72809522Y-26089069D01*
X72806309Y-26121471D01*
X72800109Y-26140495D01*
X72789940Y-26151356D01*
X72774819Y-26159272D01*
X72773946Y-26159670D01*
X72744828Y-26171981D01*
X72730403Y-26176514D01*
X72728186Y-26162809D01*
X72726289Y-26124925D01*
X72724847Y-26067715D01*
X72723998Y-25996027D01*
X72723829Y-25943565D01*
X72724692Y-25842047D01*
X72728070Y-25765032D01*
X72735142Y-25708023D01*
X72747088Y-25666526D01*
X72765090Y-25636043D01*
X72790327Y-25612080D01*
X72815247Y-25595355D01*
X72875171Y-25573097D01*
X72944911Y-25568076D01*
X73010600Y-25580752D01*
X73010600Y-25580752D01*
G37*
X73010600Y-25580752D02*
X73027948Y-25588334D01*
X73069356Y-25621128D01*
X73104765Y-25668547D01*
X73126664Y-25719151D01*
X73130229Y-25744098D01*
X73118279Y-25778927D01*
X73092067Y-25797357D01*
X73063964Y-25808516D01*
X73051095Y-25810572D01*
X73044829Y-25795649D01*
X73032456Y-25763175D01*
X73027028Y-25748502D01*
X72996590Y-25697744D01*
X72952520Y-25672427D01*
X72896010Y-25673206D01*
X72891825Y-25674203D01*
X72861655Y-25688507D01*
X72839476Y-25716393D01*
X72824327Y-25761287D01*
X72815250Y-25826615D01*
X72811286Y-25915804D01*
X72810914Y-25963261D01*
X72810730Y-26038071D01*
X72809522Y-26089069D01*
X72806309Y-26121471D01*
X72800109Y-26140495D01*
X72789940Y-26151356D01*
X72774819Y-26159272D01*
X72773946Y-26159670D01*
X72744828Y-26171981D01*
X72730403Y-26176514D01*
X72728186Y-26162809D01*
X72726289Y-26124925D01*
X72724847Y-26067715D01*
X72723998Y-25996027D01*
X72723829Y-25943565D01*
X72724692Y-25842047D01*
X72728070Y-25765032D01*
X72735142Y-25708023D01*
X72747088Y-25666526D01*
X72765090Y-25636043D01*
X72790327Y-25612080D01*
X72815247Y-25595355D01*
X72875171Y-25573097D01*
X72944911Y-25568076D01*
X73010600Y-25580752D01*
G36*
X73511595Y-25588966D02*
G01*
X73569021Y-25626497D01*
X73596719Y-25660096D01*
X73618662Y-25721064D01*
X73620405Y-25769308D01*
X73616457Y-25833816D01*
X73467686Y-25898934D01*
X73395349Y-25932202D01*
X73348084Y-25958964D01*
X73323507Y-25982144D01*
X73319237Y-26004667D01*
X73332889Y-26029455D01*
X73347943Y-26045886D01*
X73391746Y-26072235D01*
X73439389Y-26074081D01*
X73483145Y-26053546D01*
X73515289Y-26012752D01*
X73521038Y-25998347D01*
X73548576Y-25953356D01*
X73580258Y-25934182D01*
X73623714Y-25917779D01*
X73623714Y-25979966D01*
X73619872Y-26022283D01*
X73604823Y-26057969D01*
X73573280Y-26098943D01*
X73568592Y-26104267D01*
X73533506Y-26140720D01*
X73503347Y-26160283D01*
X73465615Y-26169283D01*
X73434335Y-26172230D01*
X73378385Y-26172965D01*
X73338555Y-26163660D01*
X73313708Y-26149846D01*
X73274656Y-26119467D01*
X73247625Y-26086613D01*
X73230517Y-26045294D01*
X73221238Y-25989521D01*
X73217693Y-25913305D01*
X73217410Y-25874622D01*
X73218372Y-25828247D01*
X73306007Y-25828247D01*
X73307023Y-25853126D01*
X73309556Y-25857200D01*
X73326274Y-25851665D01*
X73362249Y-25837017D01*
X73410331Y-25816190D01*
X73420386Y-25811714D01*
X73481152Y-25780814D01*
X73514632Y-25753657D01*
X73521990Y-25728220D01*
X73504391Y-25702481D01*
X73489856Y-25691109D01*
X73437410Y-25668364D01*
X73388322Y-25672122D01*
X73347227Y-25699884D01*
X73318758Y-25749152D01*
X73309631Y-25788257D01*
X73306007Y-25828247D01*
X73218372Y-25828247D01*
X73219285Y-25784249D01*
X73226196Y-25717384D01*
X73239884Y-25668695D01*
X73262096Y-25632849D01*
X73294574Y-25604513D01*
X73308733Y-25595355D01*
X73373053Y-25571507D01*
X73443473Y-25570006D01*
X73511595Y-25588966D01*
X73511595Y-25588966D01*
G37*
X73511595Y-25588966D02*
X73569021Y-25626497D01*
X73596719Y-25660096D01*
X73618662Y-25721064D01*
X73620405Y-25769308D01*
X73616457Y-25833816D01*
X73467686Y-25898934D01*
X73395349Y-25932202D01*
X73348084Y-25958964D01*
X73323507Y-25982144D01*
X73319237Y-26004667D01*
X73332889Y-26029455D01*
X73347943Y-26045886D01*
X73391746Y-26072235D01*
X73439389Y-26074081D01*
X73483145Y-26053546D01*
X73515289Y-26012752D01*
X73521038Y-25998347D01*
X73548576Y-25953356D01*
X73580258Y-25934182D01*
X73623714Y-25917779D01*
X73623714Y-25979966D01*
X73619872Y-26022283D01*
X73604823Y-26057969D01*
X73573280Y-26098943D01*
X73568592Y-26104267D01*
X73533506Y-26140720D01*
X73503347Y-26160283D01*
X73465615Y-26169283D01*
X73434335Y-26172230D01*
X73378385Y-26172965D01*
X73338555Y-26163660D01*
X73313708Y-26149846D01*
X73274656Y-26119467D01*
X73247625Y-26086613D01*
X73230517Y-26045294D01*
X73221238Y-25989521D01*
X73217693Y-25913305D01*
X73217410Y-25874622D01*
X73218372Y-25828247D01*
X73306007Y-25828247D01*
X73307023Y-25853126D01*
X73309556Y-25857200D01*
X73326274Y-25851665D01*
X73362249Y-25837017D01*
X73410331Y-25816190D01*
X73420386Y-25811714D01*
X73481152Y-25780814D01*
X73514632Y-25753657D01*
X73521990Y-25728220D01*
X73504391Y-25702481D01*
X73489856Y-25691109D01*
X73437410Y-25668364D01*
X73388322Y-25672122D01*
X73347227Y-25699884D01*
X73318758Y-25749152D01*
X73309631Y-25788257D01*
X73306007Y-25828247D01*
X73218372Y-25828247D01*
X73219285Y-25784249D01*
X73226196Y-25717384D01*
X73239884Y-25668695D01*
X73262096Y-25632849D01*
X73294574Y-25604513D01*
X73308733Y-25595355D01*
X73373053Y-25571507D01*
X73443473Y-25570006D01*
X73511595Y-25588966D01*
G36*
X70461910Y-20864348D02*
G01*
X70540454Y-20864778D01*
X70597298Y-20865942D01*
X70636105Y-20868207D01*
X70660538Y-20871940D01*
X70674262Y-20877506D01*
X70680940Y-20885273D01*
X70684236Y-20895605D01*
X70684556Y-20896943D01*
X70689562Y-20921079D01*
X70698829Y-20968701D01*
X70711392Y-21034741D01*
X70726287Y-21114128D01*
X70742551Y-21201796D01*
X70743119Y-21204875D01*
X70759410Y-21290789D01*
X70774652Y-21366696D01*
X70787861Y-21428045D01*
X70798054Y-21470282D01*
X70804248Y-21488855D01*
X70804543Y-21489184D01*
X70822788Y-21498253D01*
X70860405Y-21513367D01*
X70909271Y-21531262D01*
X70909543Y-21531358D01*
X70971093Y-21554493D01*
X71043657Y-21583965D01*
X71112057Y-21613597D01*
X71115294Y-21615062D01*
X71226702Y-21665626D01*
X71473399Y-21497160D01*
X71549077Y-21445803D01*
X71617631Y-21399889D01*
X71675088Y-21362030D01*
X71717476Y-21334837D01*
X71740825Y-21320921D01*
X71743042Y-21319889D01*
X71760010Y-21324484D01*
X71791701Y-21346655D01*
X71839352Y-21387447D01*
X71904198Y-21447905D01*
X71970397Y-21512227D01*
X72034214Y-21575612D01*
X72091329Y-21633451D01*
X72138305Y-21682175D01*
X72171703Y-21718210D01*
X72188085Y-21737984D01*
X72188694Y-21739002D01*
X72190505Y-21752572D01*
X72183683Y-21774733D01*
X72166540Y-21808478D01*
X72137393Y-21856800D01*
X72094555Y-21922692D01*
X72037448Y-22007517D01*
X71986766Y-22082177D01*
X71941461Y-22149140D01*
X71904150Y-22204516D01*
X71877452Y-22244420D01*
X71863985Y-22264962D01*
X71863137Y-22266356D01*
X71864781Y-22286038D01*
X71877245Y-22324293D01*
X71898048Y-22373889D01*
X71905462Y-22389728D01*
X71937814Y-22460290D01*
X71972328Y-22540353D01*
X72000365Y-22609629D01*
X72020568Y-22661045D01*
X72036615Y-22700119D01*
X72045888Y-22720541D01*
X72047041Y-22722114D01*
X72064096Y-22724721D01*
X72104298Y-22731863D01*
X72162302Y-22742523D01*
X72232763Y-22755685D01*
X72310335Y-22770333D01*
X72389672Y-22785449D01*
X72465431Y-22800018D01*
X72532264Y-22813022D01*
X72584828Y-22823445D01*
X72617776Y-22830270D01*
X72625857Y-22832199D01*
X72634205Y-22836962D01*
X72640506Y-22847718D01*
X72645045Y-22868098D01*
X72648104Y-22901734D01*
X72649967Y-22952255D01*
X72650918Y-23023292D01*
X72651240Y-23118476D01*
X72651257Y-23157492D01*
X72651257Y-23474799D01*
X72575057Y-23489839D01*
X72532663Y-23497995D01*
X72469400Y-23509899D01*
X72392962Y-23524116D01*
X72311043Y-23539210D01*
X72288400Y-23543355D01*
X72212806Y-23558053D01*
X72146953Y-23572505D01*
X72096366Y-23585375D01*
X72066574Y-23595322D01*
X72061612Y-23598287D01*
X72049426Y-23619283D01*
X72031953Y-23659967D01*
X72012577Y-23712322D01*
X72008734Y-23723600D01*
X71983339Y-23793523D01*
X71951817Y-23872418D01*
X71920969Y-23943266D01*
X71920817Y-23943595D01*
X71869447Y-24054733D01*
X72038399Y-24303253D01*
X72207352Y-24551772D01*
X71990429Y-24769058D01*
X71924819Y-24833726D01*
X71864979Y-24890733D01*
X71814267Y-24937033D01*
X71776046Y-24969584D01*
X71753675Y-24985343D01*
X71750466Y-24986343D01*
X71731626Y-24978469D01*
X71693180Y-24956578D01*
X71639330Y-24923267D01*
X71574276Y-24881131D01*
X71503940Y-24833943D01*
X71432555Y-24785810D01*
X71368908Y-24743928D01*
X71317041Y-24710871D01*
X71280995Y-24689218D01*
X71264867Y-24681543D01*
X71245189Y-24688037D01*
X71207875Y-24705150D01*
X71160621Y-24729326D01*
X71155612Y-24732013D01*
X71091977Y-24763927D01*
X71048341Y-24779579D01*
X71021202Y-24779745D01*
X71007057Y-24765204D01*
X71006975Y-24765000D01*
X70999905Y-24747779D01*
X70983042Y-24706899D01*
X70957695Y-24645525D01*
X70925171Y-24566819D01*
X70886778Y-24473947D01*
X70843822Y-24370072D01*
X70802222Y-24269502D01*
X70756504Y-24158516D01*
X70714526Y-24055703D01*
X70677548Y-23964215D01*
X70646827Y-23887201D01*
X70623622Y-23827815D01*
X70609190Y-23789209D01*
X70604743Y-23774800D01*
X70615896Y-23758272D01*
X70645069Y-23731930D01*
X70683971Y-23702887D01*
X70794757Y-23611039D01*
X70881351Y-23505759D01*
X70942716Y-23389266D01*
X70977815Y-23263776D01*
X70985608Y-23131507D01*
X70979943Y-23070457D01*
X70949078Y-22943795D01*
X70895920Y-22831941D01*
X70823767Y-22736001D01*
X70735917Y-22657076D01*
X70635665Y-22596270D01*
X70526310Y-22554687D01*
X70411147Y-22533428D01*
X70293475Y-22533599D01*
X70176590Y-22556301D01*
X70063789Y-22602638D01*
X69958369Y-22673713D01*
X69914368Y-22713911D01*
X69829979Y-22817129D01*
X69771222Y-22929925D01*
X69737704Y-23049010D01*
X69729035Y-23171095D01*
X69744823Y-23292893D01*
X69784678Y-23411116D01*
X69848207Y-23522475D01*
X69935021Y-23623684D01*
X70032029Y-23702887D01*
X70072437Y-23733162D01*
X70100982Y-23759219D01*
X70111257Y-23774825D01*
X70105877Y-23791843D01*
X70090575Y-23832500D01*
X70066612Y-23893642D01*
X70035244Y-23972119D01*
X69997732Y-24064780D01*
X69955333Y-24168472D01*
X69913663Y-24269526D01*
X69867690Y-24380607D01*
X69825107Y-24483541D01*
X69787221Y-24575165D01*
X69755340Y-24652316D01*
X69730771Y-24711831D01*
X69714820Y-24750544D01*
X69708910Y-24765000D01*
X69694948Y-24779685D01*
X69667940Y-24779642D01*
X69624413Y-24764099D01*
X69560890Y-24732284D01*
X69560388Y-24732013D01*
X69512560Y-24707323D01*
X69473897Y-24689338D01*
X69452095Y-24681614D01*
X69451133Y-24681543D01*
X69434721Y-24689378D01*
X69398487Y-24711165D01*
X69346474Y-24744328D01*
X69282725Y-24786291D01*
X69212060Y-24833943D01*
X69140116Y-24882191D01*
X69075274Y-24924151D01*
X69021735Y-24957227D01*
X68983697Y-24978821D01*
X68965533Y-24986343D01*
X68948808Y-24976457D01*
X68915180Y-24948826D01*
X68868010Y-24906495D01*
X68810658Y-24852505D01*
X68746484Y-24789899D01*
X68725497Y-24768983D01*
X68508499Y-24551623D01*
X68673668Y-24309220D01*
X68723864Y-24234781D01*
X68767919Y-24167972D01*
X68803362Y-24112665D01*
X68827719Y-24072729D01*
X68838522Y-24052036D01*
X68838838Y-24050563D01*
X68833143Y-24031058D01*
X68817826Y-23991822D01*
X68795537Y-23939430D01*
X68779893Y-23904355D01*
X68750641Y-23837201D01*
X68723094Y-23769358D01*
X68701737Y-23712034D01*
X68695935Y-23694572D01*
X68679452Y-23647938D01*
X68663340Y-23611905D01*
X68654490Y-23598287D01*
X68634960Y-23589952D01*
X68592334Y-23578137D01*
X68532145Y-23564181D01*
X68459922Y-23549422D01*
X68427600Y-23543355D01*
X68345522Y-23528273D01*
X68266795Y-23513669D01*
X68199109Y-23500980D01*
X68150160Y-23491642D01*
X68140943Y-23489839D01*
X68064743Y-23474799D01*
X68064743Y-23157492D01*
X68064914Y-23053154D01*
X68065616Y-22974213D01*
X68067134Y-22917038D01*
X68069749Y-22877999D01*
X68073746Y-22853465D01*
X68079409Y-22839805D01*
X68087020Y-22833389D01*
X68090143Y-22832199D01*
X68108978Y-22827980D01*
X68150588Y-22819562D01*
X68209630Y-22807961D01*
X68280757Y-22794195D01*
X68358625Y-22779280D01*
X68437887Y-22764232D01*
X68513198Y-22750069D01*
X68579213Y-22737806D01*
X68630587Y-22728461D01*
X68661975Y-22723050D01*
X68668959Y-22722114D01*
X68675285Y-22709596D01*
X68689290Y-22676246D01*
X68708355Y-22628377D01*
X68715634Y-22609629D01*
X68744996Y-22537195D01*
X68779571Y-22457170D01*
X68810537Y-22389728D01*
X68833323Y-22338159D01*
X68848482Y-22295785D01*
X68853542Y-22269834D01*
X68852736Y-22266356D01*
X68842041Y-22249936D01*
X68817620Y-22213417D01*
X68782095Y-22160687D01*
X68738087Y-22095635D01*
X68688217Y-22022151D01*
X68678356Y-22007645D01*
X68620492Y-21921704D01*
X68577956Y-21856261D01*
X68549054Y-21808304D01*
X68532090Y-21774820D01*
X68525367Y-21752795D01*
X68527190Y-21739217D01*
X68527236Y-21739131D01*
X68541586Y-21721297D01*
X68573323Y-21686817D01*
X68619010Y-21639268D01*
X68675204Y-21582222D01*
X68738468Y-21519255D01*
X68745602Y-21512227D01*
X68825330Y-21435020D01*
X68886857Y-21378330D01*
X68931421Y-21341110D01*
X68960257Y-21322315D01*
X68972958Y-21319889D01*
X68991494Y-21330471D01*
X69029961Y-21354916D01*
X69084386Y-21390612D01*
X69150798Y-21434947D01*
X69225225Y-21485311D01*
X69242601Y-21497160D01*
X69489297Y-21665626D01*
X69600706Y-21615062D01*
X69668457Y-21585595D01*
X69741183Y-21555959D01*
X69803703Y-21532330D01*
X69806457Y-21531358D01*
X69855360Y-21513457D01*
X69893057Y-21498320D01*
X69911425Y-21489210D01*
X69911456Y-21489184D01*
X69917285Y-21472717D01*
X69927192Y-21432219D01*
X69940195Y-21372242D01*
X69955309Y-21297340D01*
X69971552Y-21212064D01*
X69972881Y-21204875D01*
X69989175Y-21117014D01*
X70004133Y-21037260D01*
X70016791Y-20970681D01*
X70026186Y-20922347D01*
X70031354Y-20897325D01*
X70031444Y-20896943D01*
X70034589Y-20886299D01*
X70040704Y-20878262D01*
X70053453Y-20872467D01*
X70076500Y-20868547D01*
X70113509Y-20866135D01*
X70168144Y-20864865D01*
X70244067Y-20864371D01*
X70344944Y-20864286D01*
X70358000Y-20864286D01*
X70461910Y-20864348D01*
X70461910Y-20864348D01*
G37*
X70461910Y-20864348D02*
X70540454Y-20864778D01*
X70597298Y-20865942D01*
X70636105Y-20868207D01*
X70660538Y-20871940D01*
X70674262Y-20877506D01*
X70680940Y-20885273D01*
X70684236Y-20895605D01*
X70684556Y-20896943D01*
X70689562Y-20921079D01*
X70698829Y-20968701D01*
X70711392Y-21034741D01*
X70726287Y-21114128D01*
X70742551Y-21201796D01*
X70743119Y-21204875D01*
X70759410Y-21290789D01*
X70774652Y-21366696D01*
X70787861Y-21428045D01*
X70798054Y-21470282D01*
X70804248Y-21488855D01*
X70804543Y-21489184D01*
X70822788Y-21498253D01*
X70860405Y-21513367D01*
X70909271Y-21531262D01*
X70909543Y-21531358D01*
X70971093Y-21554493D01*
X71043657Y-21583965D01*
X71112057Y-21613597D01*
X71115294Y-21615062D01*
X71226702Y-21665626D01*
X71473399Y-21497160D01*
X71549077Y-21445803D01*
X71617631Y-21399889D01*
X71675088Y-21362030D01*
X71717476Y-21334837D01*
X71740825Y-21320921D01*
X71743042Y-21319889D01*
X71760010Y-21324484D01*
X71791701Y-21346655D01*
X71839352Y-21387447D01*
X71904198Y-21447905D01*
X71970397Y-21512227D01*
X72034214Y-21575612D01*
X72091329Y-21633451D01*
X72138305Y-21682175D01*
X72171703Y-21718210D01*
X72188085Y-21737984D01*
X72188694Y-21739002D01*
X72190505Y-21752572D01*
X72183683Y-21774733D01*
X72166540Y-21808478D01*
X72137393Y-21856800D01*
X72094555Y-21922692D01*
X72037448Y-22007517D01*
X71986766Y-22082177D01*
X71941461Y-22149140D01*
X71904150Y-22204516D01*
X71877452Y-22244420D01*
X71863985Y-22264962D01*
X71863137Y-22266356D01*
X71864781Y-22286038D01*
X71877245Y-22324293D01*
X71898048Y-22373889D01*
X71905462Y-22389728D01*
X71937814Y-22460290D01*
X71972328Y-22540353D01*
X72000365Y-22609629D01*
X72020568Y-22661045D01*
X72036615Y-22700119D01*
X72045888Y-22720541D01*
X72047041Y-22722114D01*
X72064096Y-22724721D01*
X72104298Y-22731863D01*
X72162302Y-22742523D01*
X72232763Y-22755685D01*
X72310335Y-22770333D01*
X72389672Y-22785449D01*
X72465431Y-22800018D01*
X72532264Y-22813022D01*
X72584828Y-22823445D01*
X72617776Y-22830270D01*
X72625857Y-22832199D01*
X72634205Y-22836962D01*
X72640506Y-22847718D01*
X72645045Y-22868098D01*
X72648104Y-22901734D01*
X72649967Y-22952255D01*
X72650918Y-23023292D01*
X72651240Y-23118476D01*
X72651257Y-23157492D01*
X72651257Y-23474799D01*
X72575057Y-23489839D01*
X72532663Y-23497995D01*
X72469400Y-23509899D01*
X72392962Y-23524116D01*
X72311043Y-23539210D01*
X72288400Y-23543355D01*
X72212806Y-23558053D01*
X72146953Y-23572505D01*
X72096366Y-23585375D01*
X72066574Y-23595322D01*
X72061612Y-23598287D01*
X72049426Y-23619283D01*
X72031953Y-23659967D01*
X72012577Y-23712322D01*
X72008734Y-23723600D01*
X71983339Y-23793523D01*
X71951817Y-23872418D01*
X71920969Y-23943266D01*
X71920817Y-23943595D01*
X71869447Y-24054733D01*
X72038399Y-24303253D01*
X72207352Y-24551772D01*
X71990429Y-24769058D01*
X71924819Y-24833726D01*
X71864979Y-24890733D01*
X71814267Y-24937033D01*
X71776046Y-24969584D01*
X71753675Y-24985343D01*
X71750466Y-24986343D01*
X71731626Y-24978469D01*
X71693180Y-24956578D01*
X71639330Y-24923267D01*
X71574276Y-24881131D01*
X71503940Y-24833943D01*
X71432555Y-24785810D01*
X71368908Y-24743928D01*
X71317041Y-24710871D01*
X71280995Y-24689218D01*
X71264867Y-24681543D01*
X71245189Y-24688037D01*
X71207875Y-24705150D01*
X71160621Y-24729326D01*
X71155612Y-24732013D01*
X71091977Y-24763927D01*
X71048341Y-24779579D01*
X71021202Y-24779745D01*
X71007057Y-24765204D01*
X71006975Y-24765000D01*
X70999905Y-24747779D01*
X70983042Y-24706899D01*
X70957695Y-24645525D01*
X70925171Y-24566819D01*
X70886778Y-24473947D01*
X70843822Y-24370072D01*
X70802222Y-24269502D01*
X70756504Y-24158516D01*
X70714526Y-24055703D01*
X70677548Y-23964215D01*
X70646827Y-23887201D01*
X70623622Y-23827815D01*
X70609190Y-23789209D01*
X70604743Y-23774800D01*
X70615896Y-23758272D01*
X70645069Y-23731930D01*
X70683971Y-23702887D01*
X70794757Y-23611039D01*
X70881351Y-23505759D01*
X70942716Y-23389266D01*
X70977815Y-23263776D01*
X70985608Y-23131507D01*
X70979943Y-23070457D01*
X70949078Y-22943795D01*
X70895920Y-22831941D01*
X70823767Y-22736001D01*
X70735917Y-22657076D01*
X70635665Y-22596270D01*
X70526310Y-22554687D01*
X70411147Y-22533428D01*
X70293475Y-22533599D01*
X70176590Y-22556301D01*
X70063789Y-22602638D01*
X69958369Y-22673713D01*
X69914368Y-22713911D01*
X69829979Y-22817129D01*
X69771222Y-22929925D01*
X69737704Y-23049010D01*
X69729035Y-23171095D01*
X69744823Y-23292893D01*
X69784678Y-23411116D01*
X69848207Y-23522475D01*
X69935021Y-23623684D01*
X70032029Y-23702887D01*
X70072437Y-23733162D01*
X70100982Y-23759219D01*
X70111257Y-23774825D01*
X70105877Y-23791843D01*
X70090575Y-23832500D01*
X70066612Y-23893642D01*
X70035244Y-23972119D01*
X69997732Y-24064780D01*
X69955333Y-24168472D01*
X69913663Y-24269526D01*
X69867690Y-24380607D01*
X69825107Y-24483541D01*
X69787221Y-24575165D01*
X69755340Y-24652316D01*
X69730771Y-24711831D01*
X69714820Y-24750544D01*
X69708910Y-24765000D01*
X69694948Y-24779685D01*
X69667940Y-24779642D01*
X69624413Y-24764099D01*
X69560890Y-24732284D01*
X69560388Y-24732013D01*
X69512560Y-24707323D01*
X69473897Y-24689338D01*
X69452095Y-24681614D01*
X69451133Y-24681543D01*
X69434721Y-24689378D01*
X69398487Y-24711165D01*
X69346474Y-24744328D01*
X69282725Y-24786291D01*
X69212060Y-24833943D01*
X69140116Y-24882191D01*
X69075274Y-24924151D01*
X69021735Y-24957227D01*
X68983697Y-24978821D01*
X68965533Y-24986343D01*
X68948808Y-24976457D01*
X68915180Y-24948826D01*
X68868010Y-24906495D01*
X68810658Y-24852505D01*
X68746484Y-24789899D01*
X68725497Y-24768983D01*
X68508499Y-24551623D01*
X68673668Y-24309220D01*
X68723864Y-24234781D01*
X68767919Y-24167972D01*
X68803362Y-24112665D01*
X68827719Y-24072729D01*
X68838522Y-24052036D01*
X68838838Y-24050563D01*
X68833143Y-24031058D01*
X68817826Y-23991822D01*
X68795537Y-23939430D01*
X68779893Y-23904355D01*
X68750641Y-23837201D01*
X68723094Y-23769358D01*
X68701737Y-23712034D01*
X68695935Y-23694572D01*
X68679452Y-23647938D01*
X68663340Y-23611905D01*
X68654490Y-23598287D01*
X68634960Y-23589952D01*
X68592334Y-23578137D01*
X68532145Y-23564181D01*
X68459922Y-23549422D01*
X68427600Y-23543355D01*
X68345522Y-23528273D01*
X68266795Y-23513669D01*
X68199109Y-23500980D01*
X68150160Y-23491642D01*
X68140943Y-23489839D01*
X68064743Y-23474799D01*
X68064743Y-23157492D01*
X68064914Y-23053154D01*
X68065616Y-22974213D01*
X68067134Y-22917038D01*
X68069749Y-22877999D01*
X68073746Y-22853465D01*
X68079409Y-22839805D01*
X68087020Y-22833389D01*
X68090143Y-22832199D01*
X68108978Y-22827980D01*
X68150588Y-22819562D01*
X68209630Y-22807961D01*
X68280757Y-22794195D01*
X68358625Y-22779280D01*
X68437887Y-22764232D01*
X68513198Y-22750069D01*
X68579213Y-22737806D01*
X68630587Y-22728461D01*
X68661975Y-22723050D01*
X68668959Y-22722114D01*
X68675285Y-22709596D01*
X68689290Y-22676246D01*
X68708355Y-22628377D01*
X68715634Y-22609629D01*
X68744996Y-22537195D01*
X68779571Y-22457170D01*
X68810537Y-22389728D01*
X68833323Y-22338159D01*
X68848482Y-22295785D01*
X68853542Y-22269834D01*
X68852736Y-22266356D01*
X68842041Y-22249936D01*
X68817620Y-22213417D01*
X68782095Y-22160687D01*
X68738087Y-22095635D01*
X68688217Y-22022151D01*
X68678356Y-22007645D01*
X68620492Y-21921704D01*
X68577956Y-21856261D01*
X68549054Y-21808304D01*
X68532090Y-21774820D01*
X68525367Y-21752795D01*
X68527190Y-21739217D01*
X68527236Y-21739131D01*
X68541586Y-21721297D01*
X68573323Y-21686817D01*
X68619010Y-21639268D01*
X68675204Y-21582222D01*
X68738468Y-21519255D01*
X68745602Y-21512227D01*
X68825330Y-21435020D01*
X68886857Y-21378330D01*
X68931421Y-21341110D01*
X68960257Y-21322315D01*
X68972958Y-21319889D01*
X68991494Y-21330471D01*
X69029961Y-21354916D01*
X69084386Y-21390612D01*
X69150798Y-21434947D01*
X69225225Y-21485311D01*
X69242601Y-21497160D01*
X69489297Y-21665626D01*
X69600706Y-21615062D01*
X69668457Y-21585595D01*
X69741183Y-21555959D01*
X69803703Y-21532330D01*
X69806457Y-21531358D01*
X69855360Y-21513457D01*
X69893057Y-21498320D01*
X69911425Y-21489210D01*
X69911456Y-21489184D01*
X69917285Y-21472717D01*
X69927192Y-21432219D01*
X69940195Y-21372242D01*
X69955309Y-21297340D01*
X69971552Y-21212064D01*
X69972881Y-21204875D01*
X69989175Y-21117014D01*
X70004133Y-21037260D01*
X70016791Y-20970681D01*
X70026186Y-20922347D01*
X70031354Y-20897325D01*
X70031444Y-20896943D01*
X70034589Y-20886299D01*
X70040704Y-20878262D01*
X70053453Y-20872467D01*
X70076500Y-20868547D01*
X70113509Y-20866135D01*
X70168144Y-20864865D01*
X70244067Y-20864371D01*
X70344944Y-20864286D01*
X70358000Y-20864286D01*
X70461910Y-20864348D01*
D11*
X56496000Y-37938000D02*
X55796000Y-37938000D01*
X55796000Y-36738000D02*
X56496000Y-36738000D01*
X63608000Y-29302000D02*
X62908000Y-29302000D01*
X62908000Y-28102000D02*
X63608000Y-28102000D01*
X55649001Y-24129001D02*
X54949001Y-24129001D01*
X54949001Y-22929001D02*
X55649001Y-22929001D01*
X47668000Y-23530000D02*
X48368000Y-23530000D01*
X48368000Y-24730000D02*
X47668000Y-24730000D01*
X59499001Y-24129001D02*
X58799001Y-24129001D01*
X58799001Y-22929001D02*
X59499001Y-22929001D01*
X52408000Y-24222000D02*
X51708000Y-24222000D01*
X51708000Y-23022000D02*
X52408000Y-23022000D01*
X37308000Y-22614000D02*
X37308000Y-23614000D01*
X37308000Y-23614000D02*
X39408000Y-23614000D01*
X37308000Y-22614000D02*
X39408000Y-22614000D01*
X33460000Y-22614000D02*
X35560000Y-22614000D01*
X33460000Y-23614000D02*
X35560000Y-23614000D01*
X33460000Y-22614000D02*
X33460000Y-23614000D01*
X67831000Y-27818000D02*
X67831000Y-27753000D01*
X71361000Y-27818000D02*
X71361000Y-27753000D01*
X67831000Y-34223000D02*
X67831000Y-34158000D01*
X71361000Y-34223000D02*
X71361000Y-34158000D01*
X72686000Y-34158000D02*
X71361000Y-34158000D01*
X71361000Y-27753000D02*
X67831000Y-27753000D01*
X71361000Y-34223000D02*
X67831000Y-34223000D01*
X38120000Y-25228000D02*
X39120000Y-25228000D01*
X39120000Y-26588000D02*
X38120000Y-26588000D01*
X34310000Y-25228000D02*
X35310000Y-25228000D01*
X35310000Y-26588000D02*
X34310000Y-26588000D01*
X66048000Y-36150000D02*
X67048000Y-36150000D01*
X67048000Y-37510000D02*
X66048000Y-37510000D01*
X82062000Y-29358000D02*
X82062000Y-32038000D01*
X75822000Y-32038000D02*
X75822000Y-29358000D01*
X75972000Y-27578000D02*
X81912000Y-27578000D01*
X75972000Y-33818000D02*
X81912000Y-33818000D01*
X80356214Y-30698000D02*
G75*
G03X80356214Y-30698000I-1414214J0D01*
G01*
D14*
X60639250Y-27498750D02*
X60114250Y-27498750D01*
X60639250Y-34748750D02*
X60114250Y-34748750D01*
X53389250Y-34748750D02*
X53914250Y-34748750D01*
X53389250Y-27498750D02*
X53914250Y-27498750D01*
X60639250Y-34748750D02*
X60639250Y-34223750D01*
X53389250Y-34748750D02*
X53389250Y-34223750D01*
X60639250Y-27498750D02*
X60639250Y-28023750D01*
D11*
X44812000Y-24730000D02*
X44112000Y-24730000D01*
X44112000Y-23530000D02*
X44812000Y-23530000D01*
D14*
X35154095Y-35520380D02*
X35154095Y-36329904D01*
X35201714Y-36425142D01*
X35249333Y-36472761D01*
X35344571Y-36520380D01*
X35535047Y-36520380D01*
X35630285Y-36472761D01*
X35677904Y-36425142D01*
X35725523Y-36329904D01*
X35725523Y-35520380D01*
X36725523Y-36520380D02*
X36154095Y-36520380D01*
X36439809Y-36520380D02*
X36439809Y-35520380D01*
X36344571Y-35663238D01*
X36249333Y-35758476D01*
X36154095Y-35806095D01*
X73683904Y-36774380D02*
X73683904Y-35774380D01*
X73922000Y-35774380D01*
X74064857Y-35822000D01*
X74160095Y-35917238D01*
X74207714Y-36012476D01*
X74255333Y-36202952D01*
X74255333Y-36345809D01*
X74207714Y-36536285D01*
X74160095Y-36631523D01*
X74064857Y-36726761D01*
X73922000Y-36774380D01*
X73683904Y-36774380D01*
X74636285Y-35869619D02*
X74683904Y-35822000D01*
X74779142Y-35774380D01*
X75017238Y-35774380D01*
X75112476Y-35822000D01*
X75160095Y-35869619D01*
X75207714Y-35964857D01*
X75207714Y-36060095D01*
X75160095Y-36202952D01*
X74588666Y-36774380D01*
X75207714Y-36774380D01*
D12*
X45851047Y-24618190D02*
X45851047Y-25022952D01*
X45874857Y-25070571D01*
X45898666Y-25094380D01*
X45946285Y-25118190D01*
X46041523Y-25118190D01*
X46089142Y-25094380D01*
X46112952Y-25070571D01*
X46136761Y-25022952D01*
X46136761Y-24618190D01*
X46327238Y-24618190D02*
X46636761Y-24618190D01*
X46470095Y-24808666D01*
X46541523Y-24808666D01*
X46589142Y-24832476D01*
X46612952Y-24856285D01*
X46636761Y-24903904D01*
X46636761Y-25022952D01*
X46612952Y-25070571D01*
X46589142Y-25094380D01*
X46541523Y-25118190D01*
X46398666Y-25118190D01*
X46351047Y-25094380D01*
X46327238Y-25070571D01*
D14*
X73429904Y-22550380D02*
X73429904Y-21550380D01*
X73668000Y-21550380D01*
X73810857Y-21598000D01*
X73906095Y-21693238D01*
X73953714Y-21788476D01*
X74001333Y-21978952D01*
X74001333Y-22121809D01*
X73953714Y-22312285D01*
X73906095Y-22407523D01*
X73810857Y-22502761D01*
X73668000Y-22550380D01*
X73429904Y-22550380D01*
X74334666Y-21550380D02*
X74953714Y-21550380D01*
X74620380Y-21931333D01*
X74763238Y-21931333D01*
X74858476Y-21978952D01*
X74906095Y-22026571D01*
X74953714Y-22121809D01*
X74953714Y-22359904D01*
X74906095Y-22455142D01*
X74858476Y-22502761D01*
X74763238Y-22550380D01*
X74477523Y-22550380D01*
X74382285Y-22502761D01*
X74334666Y-22455142D01*
X25868380Y-23447333D02*
X26582666Y-23447333D01*
X26725523Y-23494952D01*
X26820761Y-23590190D01*
X26868380Y-23733047D01*
X26868380Y-23828285D01*
X26868380Y-22447333D02*
X26868380Y-23018761D01*
X26868380Y-22733047D02*
X25868380Y-22733047D01*
X26011238Y-22828285D01*
X26106476Y-22923523D01*
X26154095Y-23018761D01*
X55979333Y-36195142D02*
X55931714Y-36242761D01*
X55788857Y-36290380D01*
X55693619Y-36290380D01*
X55550761Y-36242761D01*
X55455523Y-36147523D01*
X55407904Y-36052285D01*
X55360285Y-35861809D01*
X55360285Y-35718952D01*
X55407904Y-35528476D01*
X55455523Y-35433238D01*
X55550761Y-35338000D01*
X55693619Y-35290380D01*
X55788857Y-35290380D01*
X55931714Y-35338000D01*
X55979333Y-35385619D01*
X56836476Y-35623714D02*
X56836476Y-36290380D01*
X56598380Y-35242761D02*
X56360285Y-35957047D01*
X56979333Y-35957047D01*
X63091333Y-30559142D02*
X63043714Y-30606761D01*
X62900857Y-30654380D01*
X62805619Y-30654380D01*
X62662761Y-30606761D01*
X62567523Y-30511523D01*
X62519904Y-30416285D01*
X62472285Y-30225809D01*
X62472285Y-30082952D01*
X62519904Y-29892476D01*
X62567523Y-29797238D01*
X62662761Y-29702000D01*
X62805619Y-29654380D01*
X62900857Y-29654380D01*
X63043714Y-29702000D01*
X63091333Y-29749619D01*
X63996095Y-29654380D02*
X63519904Y-29654380D01*
X63472285Y-30130571D01*
X63519904Y-30082952D01*
X63615142Y-30035333D01*
X63853238Y-30035333D01*
X63948476Y-30082952D01*
X63996095Y-30130571D01*
X64043714Y-30225809D01*
X64043714Y-30463904D01*
X63996095Y-30559142D01*
X63948476Y-30606761D01*
X63853238Y-30654380D01*
X63615142Y-30654380D01*
X63519904Y-30606761D01*
X63472285Y-30559142D01*
X55132334Y-25386143D02*
X55084715Y-25433762D01*
X54941858Y-25481381D01*
X54846620Y-25481381D01*
X54703762Y-25433762D01*
X54608524Y-25338524D01*
X54560905Y-25243286D01*
X54513286Y-25052810D01*
X54513286Y-24909953D01*
X54560905Y-24719477D01*
X54608524Y-24624239D01*
X54703762Y-24529001D01*
X54846620Y-24481381D01*
X54941858Y-24481381D01*
X55084715Y-24529001D01*
X55132334Y-24576620D01*
X55989477Y-24481381D02*
X55799001Y-24481381D01*
X55703762Y-24529001D01*
X55656143Y-24576620D01*
X55560905Y-24719477D01*
X55513286Y-24909953D01*
X55513286Y-25290905D01*
X55560905Y-25386143D01*
X55608524Y-25433762D01*
X55703762Y-25481381D01*
X55894239Y-25481381D01*
X55989477Y-25433762D01*
X56037096Y-25386143D01*
X56084715Y-25290905D01*
X56084715Y-25052810D01*
X56037096Y-24957572D01*
X55989477Y-24909953D01*
X55894239Y-24862334D01*
X55703762Y-24862334D01*
X55608524Y-24909953D01*
X55560905Y-24957572D01*
X55513286Y-25052810D01*
X47839333Y-22963142D02*
X47791714Y-23010761D01*
X47648857Y-23058380D01*
X47553619Y-23058380D01*
X47410761Y-23010761D01*
X47315523Y-22915523D01*
X47267904Y-22820285D01*
X47220285Y-22629809D01*
X47220285Y-22486952D01*
X47267904Y-22296476D01*
X47315523Y-22201238D01*
X47410761Y-22106000D01*
X47553619Y-22058380D01*
X47648857Y-22058380D01*
X47791714Y-22106000D01*
X47839333Y-22153619D01*
X48172666Y-22058380D02*
X48839333Y-22058380D01*
X48410761Y-23058380D01*
X58982334Y-22386143D02*
X58934715Y-22433762D01*
X58791858Y-22481381D01*
X58696620Y-22481381D01*
X58553762Y-22433762D01*
X58458524Y-22338524D01*
X58410905Y-22243286D01*
X58363286Y-22052810D01*
X58363286Y-21909953D01*
X58410905Y-21719477D01*
X58458524Y-21624239D01*
X58553762Y-21529001D01*
X58696620Y-21481381D01*
X58791858Y-21481381D01*
X58934715Y-21529001D01*
X58982334Y-21576620D01*
X59553762Y-21909953D02*
X59458524Y-21862334D01*
X59410905Y-21814715D01*
X59363286Y-21719477D01*
X59363286Y-21671858D01*
X59410905Y-21576620D01*
X59458524Y-21529001D01*
X59553762Y-21481381D01*
X59744239Y-21481381D01*
X59839477Y-21529001D01*
X59887096Y-21576620D01*
X59934715Y-21671858D01*
X59934715Y-21719477D01*
X59887096Y-21814715D01*
X59839477Y-21862334D01*
X59744239Y-21909953D01*
X59553762Y-21909953D01*
X59458524Y-21957572D01*
X59410905Y-22005191D01*
X59363286Y-22100429D01*
X59363286Y-22290905D01*
X59410905Y-22386143D01*
X59458524Y-22433762D01*
X59553762Y-22481381D01*
X59744239Y-22481381D01*
X59839477Y-22433762D01*
X59887096Y-22386143D01*
X59934715Y-22290905D01*
X59934715Y-22100429D01*
X59887096Y-22005191D01*
X59839477Y-21957572D01*
X59744239Y-21909953D01*
X51903333Y-22201142D02*
X51855714Y-22248761D01*
X51712857Y-22296380D01*
X51617619Y-22296380D01*
X51474761Y-22248761D01*
X51379523Y-22153523D01*
X51331904Y-22058285D01*
X51284285Y-21867809D01*
X51284285Y-21724952D01*
X51331904Y-21534476D01*
X51379523Y-21439238D01*
X51474761Y-21344000D01*
X51617619Y-21296380D01*
X51712857Y-21296380D01*
X51855714Y-21344000D01*
X51903333Y-21391619D01*
X52379523Y-22296380D02*
X52570000Y-22296380D01*
X52665238Y-22248761D01*
X52712857Y-22201142D01*
X52808095Y-22058285D01*
X52855714Y-21867809D01*
X52855714Y-21486857D01*
X52808095Y-21391619D01*
X52760476Y-21344000D01*
X52665238Y-21296380D01*
X52474761Y-21296380D01*
X52379523Y-21344000D01*
X52331904Y-21391619D01*
X52284285Y-21486857D01*
X52284285Y-21724952D01*
X52331904Y-21820190D01*
X52379523Y-21867809D01*
X52474761Y-21915428D01*
X52665238Y-21915428D01*
X52760476Y-21867809D01*
X52808095Y-21820190D01*
X52855714Y-21724952D01*
X37869904Y-22316380D02*
X37869904Y-21316380D01*
X38108000Y-21316380D01*
X38250857Y-21364000D01*
X38346095Y-21459238D01*
X38393714Y-21554476D01*
X38441333Y-21744952D01*
X38441333Y-21887809D01*
X38393714Y-22078285D01*
X38346095Y-22173523D01*
X38250857Y-22268761D01*
X38108000Y-22316380D01*
X37869904Y-22316380D01*
X39393714Y-22316380D02*
X38822285Y-22316380D01*
X39108000Y-22316380D02*
X39108000Y-21316380D01*
X39012761Y-21459238D01*
X38917523Y-21554476D01*
X38822285Y-21602095D01*
X34021904Y-22316380D02*
X34021904Y-21316380D01*
X34260000Y-21316380D01*
X34402857Y-21364000D01*
X34498095Y-21459238D01*
X34545714Y-21554476D01*
X34593333Y-21744952D01*
X34593333Y-21887809D01*
X34545714Y-22078285D01*
X34498095Y-22173523D01*
X34402857Y-22268761D01*
X34260000Y-22316380D01*
X34021904Y-22316380D01*
X35450476Y-21649714D02*
X35450476Y-22316380D01*
X35212380Y-21268761D02*
X34974285Y-21983047D01*
X35593333Y-21983047D01*
X69262666Y-34675380D02*
X69262666Y-35389666D01*
X69215047Y-35532523D01*
X69119809Y-35627761D01*
X68976952Y-35675380D01*
X68881714Y-35675380D01*
X69691238Y-34770619D02*
X69738857Y-34723000D01*
X69834095Y-34675380D01*
X70072190Y-34675380D01*
X70167428Y-34723000D01*
X70215047Y-34770619D01*
X70262666Y-34865857D01*
X70262666Y-34961095D01*
X70215047Y-35103952D01*
X69643619Y-35675380D01*
X70262666Y-35675380D01*
X38453333Y-24910380D02*
X38120000Y-24434190D01*
X37881904Y-24910380D02*
X37881904Y-23910380D01*
X38262857Y-23910380D01*
X38358095Y-23958000D01*
X38405714Y-24005619D01*
X38453333Y-24100857D01*
X38453333Y-24243714D01*
X38405714Y-24338952D01*
X38358095Y-24386571D01*
X38262857Y-24434190D01*
X37881904Y-24434190D01*
X39405714Y-24910380D02*
X38834285Y-24910380D01*
X39120000Y-24910380D02*
X39120000Y-23910380D01*
X39024761Y-24053238D01*
X38929523Y-24148476D01*
X38834285Y-24196095D01*
X34643333Y-24910380D02*
X34310000Y-24434190D01*
X34071904Y-24910380D02*
X34071904Y-23910380D01*
X34452857Y-23910380D01*
X34548095Y-23958000D01*
X34595714Y-24005619D01*
X34643333Y-24100857D01*
X34643333Y-24243714D01*
X34595714Y-24338952D01*
X34548095Y-24386571D01*
X34452857Y-24434190D01*
X34071904Y-24434190D01*
X35214761Y-24338952D02*
X35119523Y-24291333D01*
X35071904Y-24243714D01*
X35024285Y-24148476D01*
X35024285Y-24100857D01*
X35071904Y-24005619D01*
X35119523Y-23958000D01*
X35214761Y-23910380D01*
X35405238Y-23910380D01*
X35500476Y-23958000D01*
X35548095Y-24005619D01*
X35595714Y-24100857D01*
X35595714Y-24148476D01*
X35548095Y-24243714D01*
X35500476Y-24291333D01*
X35405238Y-24338952D01*
X35214761Y-24338952D01*
X35119523Y-24386571D01*
X35071904Y-24434190D01*
X35024285Y-24529428D01*
X35024285Y-24719904D01*
X35071904Y-24815142D01*
X35119523Y-24862761D01*
X35214761Y-24910380D01*
X35405238Y-24910380D01*
X35500476Y-24862761D01*
X35548095Y-24815142D01*
X35595714Y-24719904D01*
X35595714Y-24529428D01*
X35548095Y-24434190D01*
X35500476Y-24386571D01*
X35405238Y-24338952D01*
X66381333Y-38732380D02*
X66048000Y-38256190D01*
X65809904Y-38732380D02*
X65809904Y-37732380D01*
X66190857Y-37732380D01*
X66286095Y-37780000D01*
X66333714Y-37827619D01*
X66381333Y-37922857D01*
X66381333Y-38065714D01*
X66333714Y-38160952D01*
X66286095Y-38208571D01*
X66190857Y-38256190D01*
X65809904Y-38256190D01*
X66857523Y-38732380D02*
X67048000Y-38732380D01*
X67143238Y-38684761D01*
X67190857Y-38637142D01*
X67286095Y-38494285D01*
X67333714Y-38303809D01*
X67333714Y-37922857D01*
X67286095Y-37827619D01*
X67238476Y-37780000D01*
X67143238Y-37732380D01*
X66952761Y-37732380D01*
X66857523Y-37780000D01*
X66809904Y-37827619D01*
X66762285Y-37922857D01*
X66762285Y-38160952D01*
X66809904Y-38256190D01*
X66857523Y-38303809D01*
X66952761Y-38351428D01*
X67143238Y-38351428D01*
X67238476Y-38303809D01*
X67286095Y-38256190D01*
X67333714Y-38160952D01*
X78232095Y-31138761D02*
X78374952Y-31186380D01*
X78613047Y-31186380D01*
X78708285Y-31138761D01*
X78755904Y-31091142D01*
X78803523Y-30995904D01*
X78803523Y-30900666D01*
X78755904Y-30805428D01*
X78708285Y-30757809D01*
X78613047Y-30710190D01*
X78422571Y-30662571D01*
X78327333Y-30614952D01*
X78279714Y-30567333D01*
X78232095Y-30472095D01*
X78232095Y-30376857D01*
X78279714Y-30281619D01*
X78327333Y-30234000D01*
X78422571Y-30186380D01*
X78660666Y-30186380D01*
X78803523Y-30234000D01*
X79755904Y-31186380D02*
X79184476Y-31186380D01*
X79470190Y-31186380D02*
X79470190Y-30186380D01*
X79374952Y-30329238D01*
X79279714Y-30424476D01*
X79184476Y-30472095D01*
X56252345Y-25826130D02*
X56252345Y-26635654D01*
X56299964Y-26730892D01*
X56347583Y-26778511D01*
X56442821Y-26826130D01*
X56633297Y-26826130D01*
X56728535Y-26778511D01*
X56776154Y-26730892D01*
X56823773Y-26635654D01*
X56823773Y-25826130D01*
X57252345Y-25921369D02*
X57299964Y-25873750D01*
X57395202Y-25826130D01*
X57633297Y-25826130D01*
X57728535Y-25873750D01*
X57776154Y-25921369D01*
X57823773Y-26016607D01*
X57823773Y-26111845D01*
X57776154Y-26254702D01*
X57204726Y-26826130D01*
X57823773Y-26826130D01*
X44537333Y-22963142D02*
X44489714Y-23010761D01*
X44346857Y-23058380D01*
X44251619Y-23058380D01*
X44108761Y-23010761D01*
X44013523Y-22915523D01*
X43965904Y-22820285D01*
X43918285Y-22629809D01*
X43918285Y-22486952D01*
X43965904Y-22296476D01*
X44013523Y-22201238D01*
X44108761Y-22106000D01*
X44251619Y-22058380D01*
X44346857Y-22058380D01*
X44489714Y-22106000D01*
X44537333Y-22153619D01*
X45489714Y-23058380D02*
X44918285Y-23058380D01*
X45204000Y-23058380D02*
X45204000Y-22058380D01*
X45108761Y-22201238D01*
X45013523Y-22296476D01*
X44918285Y-22344095D01*
M02*
