G04 #@! TF.GenerationSoftware,KiCad,Pcbnew,5.1.4+dfsg1-1*
G04 #@! TF.CreationDate,2019-12-22T14:50:52-06:00*
G04 #@! TF.ProjectId,oxidized_flash,6f786964-697a-4656-945f-666c6173682e,rev?*
G04 #@! TF.SameCoordinates,Original*
G04 #@! TF.FileFunction,Soldermask,Top*
G04 #@! TF.FilePolarity,Negative*
%FSLAX46Y46*%
G04 Gerber Fmt 4.6, Leading zero omitted, Abs format (unit mm)*
G04 Created by KiCad (PCBNEW 5.1.4+dfsg1-1) date 2019-12-22 14:50:52*
%MOMM*%
%LPD*%
G04 APERTURE LIST*
%ADD10C,0.100000*%
G04 APERTURE END LIST*
D10*
G36*
X83088800Y-39300800D02*
G01*
X82187200Y-39300800D01*
X82187200Y-38699200D01*
X83088800Y-38699200D01*
X83088800Y-39300800D01*
X83088800Y-39300800D01*
G37*
G36*
X81388800Y-39300800D02*
G01*
X80487200Y-39300800D01*
X80487200Y-38699200D01*
X81388800Y-38699200D01*
X81388800Y-39300800D01*
X81388800Y-39300800D01*
G37*
G36*
X81388800Y-38300800D02*
G01*
X80487200Y-38300800D01*
X80487200Y-37899200D01*
X81388800Y-37899200D01*
X81388800Y-38300800D01*
X81388800Y-38300800D01*
G37*
G36*
X83088800Y-38300800D02*
G01*
X82187200Y-38300800D01*
X82187200Y-37899200D01*
X83088800Y-37899200D01*
X83088800Y-38300800D01*
X83088800Y-38300800D01*
G37*
G36*
X57346800Y-37763800D02*
G01*
X56445200Y-37763800D01*
X56445200Y-36912200D01*
X57346800Y-36912200D01*
X57346800Y-37763800D01*
X57346800Y-37763800D01*
G37*
G36*
X55846800Y-37763800D02*
G01*
X54945200Y-37763800D01*
X54945200Y-36912200D01*
X55846800Y-36912200D01*
X55846800Y-37763800D01*
X55846800Y-37763800D01*
G37*
G36*
X28838984Y-36010788D02*
G01*
X28989935Y-36056578D01*
X28989938Y-36056579D01*
X29129052Y-36130937D01*
X29250990Y-36231010D01*
X29351063Y-36352948D01*
X29425421Y-36492062D01*
X29425422Y-36492065D01*
X29471212Y-36643016D01*
X29486674Y-36800000D01*
X29471212Y-36956984D01*
X29425422Y-37107935D01*
X29425421Y-37107938D01*
X29351063Y-37247052D01*
X29250990Y-37368990D01*
X29129052Y-37469063D01*
X28989938Y-37543421D01*
X28989935Y-37543422D01*
X28838984Y-37589212D01*
X28721332Y-37600800D01*
X26142668Y-37600800D01*
X26025016Y-37589212D01*
X25874065Y-37543422D01*
X25874062Y-37543421D01*
X25734948Y-37469063D01*
X25613010Y-37368990D01*
X25512937Y-37247052D01*
X25438579Y-37107938D01*
X25438578Y-37107935D01*
X25392788Y-36956984D01*
X25377326Y-36800000D01*
X25392788Y-36643016D01*
X25438578Y-36492065D01*
X25438579Y-36492062D01*
X25512937Y-36352948D01*
X25613010Y-36231010D01*
X25734948Y-36130937D01*
X25874062Y-36056579D01*
X25874065Y-36056578D01*
X26025016Y-36010788D01*
X26142668Y-35999200D01*
X28721332Y-35999200D01*
X28838984Y-36010788D01*
X28838984Y-36010788D01*
G37*
G36*
X81388800Y-37500800D02*
G01*
X80487200Y-37500800D01*
X80487200Y-36899200D01*
X81388800Y-36899200D01*
X81388800Y-37500800D01*
X81388800Y-37500800D01*
G37*
G36*
X83088800Y-37500800D02*
G01*
X82187200Y-37500800D01*
X82187200Y-36899200D01*
X83088800Y-36899200D01*
X83088800Y-37500800D01*
X83088800Y-37500800D01*
G37*
G36*
X66098800Y-37330800D02*
G01*
X65497200Y-37330800D01*
X65497200Y-36329200D01*
X66098800Y-36329200D01*
X66098800Y-37330800D01*
X66098800Y-37330800D01*
G37*
G36*
X67598800Y-37330800D02*
G01*
X66997200Y-37330800D01*
X66997200Y-36329200D01*
X67598800Y-36329200D01*
X67598800Y-37330800D01*
X67598800Y-37330800D01*
G37*
G36*
X51094800Y-36142800D02*
G01*
X49693200Y-36142800D01*
X49693200Y-35241200D01*
X51094800Y-35241200D01*
X51094800Y-36142800D01*
X51094800Y-36142800D01*
G37*
G36*
X44794800Y-36142800D02*
G01*
X43393200Y-36142800D01*
X43393200Y-35241200D01*
X44794800Y-35241200D01*
X44794800Y-36142800D01*
X44794800Y-36142800D01*
G37*
G36*
X31082800Y-35250800D02*
G01*
X28981200Y-35250800D01*
X28981200Y-33949200D01*
X31082800Y-33949200D01*
X31082800Y-35250800D01*
X31082800Y-35250800D01*
G37*
G36*
X54440050Y-34924550D02*
G01*
X54088450Y-34924550D01*
X54088450Y-34122950D01*
X54440050Y-34122950D01*
X54440050Y-34924550D01*
X54440050Y-34924550D01*
G37*
G36*
X59440050Y-34924550D02*
G01*
X59088450Y-34924550D01*
X59088450Y-34122950D01*
X59440050Y-34122950D01*
X59440050Y-34924550D01*
X59440050Y-34924550D01*
G37*
G36*
X58940050Y-34924550D02*
G01*
X58588450Y-34924550D01*
X58588450Y-34122950D01*
X58940050Y-34122950D01*
X58940050Y-34924550D01*
X58940050Y-34924550D01*
G37*
G36*
X58440050Y-34924550D02*
G01*
X58088450Y-34924550D01*
X58088450Y-34122950D01*
X58440050Y-34122950D01*
X58440050Y-34924550D01*
X58440050Y-34924550D01*
G37*
G36*
X57940050Y-34924550D02*
G01*
X57588450Y-34924550D01*
X57588450Y-34122950D01*
X57940050Y-34122950D01*
X57940050Y-34924550D01*
X57940050Y-34924550D01*
G37*
G36*
X57440050Y-34924550D02*
G01*
X57088450Y-34924550D01*
X57088450Y-34122950D01*
X57440050Y-34122950D01*
X57440050Y-34924550D01*
X57440050Y-34924550D01*
G37*
G36*
X56940050Y-34924550D02*
G01*
X56588450Y-34924550D01*
X56588450Y-34122950D01*
X56940050Y-34122950D01*
X56940050Y-34924550D01*
X56940050Y-34924550D01*
G37*
G36*
X59940050Y-34924550D02*
G01*
X59588450Y-34924550D01*
X59588450Y-34122950D01*
X59940050Y-34122950D01*
X59940050Y-34924550D01*
X59940050Y-34924550D01*
G37*
G36*
X54940050Y-34924550D02*
G01*
X54588450Y-34924550D01*
X54588450Y-34122950D01*
X54940050Y-34122950D01*
X54940050Y-34924550D01*
X54940050Y-34924550D01*
G37*
G36*
X55440050Y-34924550D02*
G01*
X55088450Y-34924550D01*
X55088450Y-34122950D01*
X55440050Y-34122950D01*
X55440050Y-34924550D01*
X55440050Y-34924550D01*
G37*
G36*
X55940050Y-34924550D02*
G01*
X55588450Y-34924550D01*
X55588450Y-34122950D01*
X55940050Y-34122950D01*
X55940050Y-34924550D01*
X55940050Y-34924550D01*
G37*
G36*
X56440050Y-34924550D02*
G01*
X56088450Y-34924550D01*
X56088450Y-34122950D01*
X56440050Y-34122950D01*
X56440050Y-34924550D01*
X56440050Y-34924550D01*
G37*
G36*
X44794800Y-34862800D02*
G01*
X43393200Y-34862800D01*
X43393200Y-33961200D01*
X44794800Y-33961200D01*
X44794800Y-34862800D01*
X44794800Y-34862800D01*
G37*
G36*
X51094800Y-34862800D02*
G01*
X49693200Y-34862800D01*
X49693200Y-33961200D01*
X51094800Y-33961200D01*
X51094800Y-34862800D01*
X51094800Y-34862800D01*
G37*
G36*
X35238800Y-34342800D02*
G01*
X33137200Y-34342800D01*
X33137200Y-32741200D01*
X35238800Y-32741200D01*
X35238800Y-34342800D01*
X35238800Y-34342800D01*
G37*
G36*
X60815050Y-34049550D02*
G01*
X60013450Y-34049550D01*
X60013450Y-33697950D01*
X60815050Y-33697950D01*
X60815050Y-34049550D01*
X60815050Y-34049550D01*
G37*
G36*
X54015050Y-34049550D02*
G01*
X53213450Y-34049550D01*
X53213450Y-33697950D01*
X54015050Y-33697950D01*
X54015050Y-34049550D01*
X54015050Y-34049550D01*
G37*
G36*
X68896800Y-33948800D02*
G01*
X66395200Y-33948800D01*
X66395200Y-33107200D01*
X68896800Y-33107200D01*
X68896800Y-33948800D01*
X68896800Y-33948800D01*
G37*
G36*
X72796800Y-33948800D02*
G01*
X70295200Y-33948800D01*
X70295200Y-33107200D01*
X72796800Y-33107200D01*
X72796800Y-33948800D01*
X72796800Y-33948800D01*
G37*
G36*
X82292535Y-32049550D02*
G01*
X82454757Y-32081817D01*
X82618690Y-32149721D01*
X82766222Y-32248299D01*
X82766224Y-32248301D01*
X82766227Y-32248303D01*
X82891697Y-32373773D01*
X82891699Y-32373776D01*
X82891701Y-32373778D01*
X82990279Y-32521310D01*
X83058183Y-32685243D01*
X83092800Y-32859280D01*
X83092800Y-33036720D01*
X83058183Y-33210757D01*
X82990279Y-33374690D01*
X82891701Y-33522222D01*
X82891699Y-33522224D01*
X82891697Y-33522227D01*
X82766227Y-33647697D01*
X82766224Y-33647699D01*
X82766222Y-33647701D01*
X82618690Y-33746279D01*
X82454757Y-33814183D01*
X82324229Y-33840146D01*
X82280721Y-33848800D01*
X82103279Y-33848800D01*
X82059771Y-33840146D01*
X81929243Y-33814183D01*
X81765310Y-33746279D01*
X81617778Y-33647701D01*
X81617776Y-33647699D01*
X81617773Y-33647697D01*
X81492303Y-33522227D01*
X81492301Y-33522224D01*
X81492299Y-33522222D01*
X81393721Y-33374690D01*
X81325817Y-33210757D01*
X81291200Y-33036720D01*
X81291200Y-32859280D01*
X81325817Y-32685243D01*
X81393721Y-32521310D01*
X81492299Y-32373778D01*
X81492301Y-32373776D01*
X81492303Y-32373773D01*
X81617773Y-32248303D01*
X81617776Y-32248301D01*
X81617778Y-32248299D01*
X81765310Y-32149721D01*
X81929243Y-32081817D01*
X82091465Y-32049550D01*
X82103279Y-32047200D01*
X82280721Y-32047200D01*
X82292535Y-32049550D01*
X82292535Y-32049550D01*
G37*
G36*
X75792535Y-32049550D02*
G01*
X75954757Y-32081817D01*
X76118690Y-32149721D01*
X76266222Y-32248299D01*
X76266224Y-32248301D01*
X76266227Y-32248303D01*
X76391697Y-32373773D01*
X76391699Y-32373776D01*
X76391701Y-32373778D01*
X76490279Y-32521310D01*
X76558183Y-32685243D01*
X76592800Y-32859280D01*
X76592800Y-33036720D01*
X76558183Y-33210757D01*
X76490279Y-33374690D01*
X76391701Y-33522222D01*
X76391699Y-33522224D01*
X76391697Y-33522227D01*
X76266227Y-33647697D01*
X76266224Y-33647699D01*
X76266222Y-33647701D01*
X76118690Y-33746279D01*
X75954757Y-33814183D01*
X75824229Y-33840146D01*
X75780721Y-33848800D01*
X75603279Y-33848800D01*
X75559771Y-33840146D01*
X75429243Y-33814183D01*
X75265310Y-33746279D01*
X75117778Y-33647701D01*
X75117776Y-33647699D01*
X75117773Y-33647697D01*
X74992303Y-33522227D01*
X74992301Y-33522224D01*
X74992299Y-33522222D01*
X74893721Y-33374690D01*
X74825817Y-33210757D01*
X74791200Y-33036720D01*
X74791200Y-32859280D01*
X74825817Y-32685243D01*
X74893721Y-32521310D01*
X74992299Y-32373778D01*
X74992301Y-32373776D01*
X74992303Y-32373773D01*
X75117773Y-32248303D01*
X75117776Y-32248301D01*
X75117778Y-32248299D01*
X75265310Y-32149721D01*
X75429243Y-32081817D01*
X75591465Y-32049550D01*
X75603279Y-32047200D01*
X75780721Y-32047200D01*
X75792535Y-32049550D01*
X75792535Y-32049550D01*
G37*
G36*
X59640050Y-33749550D02*
G01*
X54388450Y-33749550D01*
X54388450Y-28497950D01*
X59640050Y-28497950D01*
X59640050Y-33749550D01*
X59640050Y-33749550D01*
G37*
G36*
X51094800Y-33602800D02*
G01*
X49693200Y-33602800D01*
X49693200Y-32701200D01*
X51094800Y-32701200D01*
X51094800Y-33602800D01*
X51094800Y-33602800D01*
G37*
G36*
X44794800Y-33602800D02*
G01*
X43393200Y-33602800D01*
X43393200Y-32701200D01*
X44794800Y-32701200D01*
X44794800Y-33602800D01*
X44794800Y-33602800D01*
G37*
G36*
X60815050Y-33549550D02*
G01*
X60013450Y-33549550D01*
X60013450Y-33197950D01*
X60815050Y-33197950D01*
X60815050Y-33549550D01*
X60815050Y-33549550D01*
G37*
G36*
X54015050Y-33549550D02*
G01*
X53213450Y-33549550D01*
X53213450Y-33197950D01*
X54015050Y-33197950D01*
X54015050Y-33549550D01*
X54015050Y-33549550D01*
G37*
G36*
X41538800Y-33192800D02*
G01*
X39437200Y-33192800D01*
X39437200Y-29291200D01*
X41538800Y-29291200D01*
X41538800Y-33192800D01*
X41538800Y-33192800D01*
G37*
G36*
X60815050Y-33049550D02*
G01*
X60013450Y-33049550D01*
X60013450Y-32697950D01*
X60815050Y-32697950D01*
X60815050Y-33049550D01*
X60815050Y-33049550D01*
G37*
G36*
X54015050Y-33049550D02*
G01*
X53213450Y-33049550D01*
X53213450Y-32697950D01*
X54015050Y-32697950D01*
X54015050Y-33049550D01*
X54015050Y-33049550D01*
G37*
G36*
X31082800Y-32750800D02*
G01*
X28981200Y-32750800D01*
X28981200Y-31449200D01*
X31082800Y-31449200D01*
X31082800Y-32750800D01*
X31082800Y-32750800D01*
G37*
G36*
X68896800Y-32678800D02*
G01*
X66395200Y-32678800D01*
X66395200Y-31837200D01*
X68896800Y-31837200D01*
X68896800Y-32678800D01*
X68896800Y-32678800D01*
G37*
G36*
X72796800Y-32678800D02*
G01*
X70295200Y-32678800D01*
X70295200Y-31837200D01*
X72796800Y-31837200D01*
X72796800Y-32678800D01*
X72796800Y-32678800D01*
G37*
G36*
X54015050Y-32549550D02*
G01*
X53213450Y-32549550D01*
X53213450Y-32197950D01*
X54015050Y-32197950D01*
X54015050Y-32549550D01*
X54015050Y-32549550D01*
G37*
G36*
X60815050Y-32549550D02*
G01*
X60013450Y-32549550D01*
X60013450Y-32197950D01*
X60815050Y-32197950D01*
X60815050Y-32549550D01*
X60815050Y-32549550D01*
G37*
G36*
X44794800Y-32332800D02*
G01*
X43393200Y-32332800D01*
X43393200Y-31431200D01*
X44794800Y-31431200D01*
X44794800Y-32332800D01*
X44794800Y-32332800D01*
G37*
G36*
X51094800Y-32332800D02*
G01*
X49693200Y-32332800D01*
X49693200Y-31431200D01*
X51094800Y-31431200D01*
X51094800Y-32332800D01*
X51094800Y-32332800D01*
G37*
G36*
X54015050Y-32049550D02*
G01*
X53213450Y-32049550D01*
X53213450Y-31697950D01*
X54015050Y-31697950D01*
X54015050Y-32049550D01*
X54015050Y-32049550D01*
G37*
G36*
X60815050Y-32049550D02*
G01*
X60013450Y-32049550D01*
X60013450Y-31697950D01*
X60815050Y-31697950D01*
X60815050Y-32049550D01*
X60815050Y-32049550D01*
G37*
G36*
X35238800Y-32042800D02*
G01*
X33137200Y-32042800D01*
X33137200Y-30441200D01*
X35238800Y-30441200D01*
X35238800Y-32042800D01*
X35238800Y-32042800D01*
G37*
G36*
X54015050Y-31549550D02*
G01*
X53213450Y-31549550D01*
X53213450Y-31197950D01*
X54015050Y-31197950D01*
X54015050Y-31549550D01*
X54015050Y-31549550D01*
G37*
G36*
X60815050Y-31549550D02*
G01*
X60013450Y-31549550D01*
X60013450Y-31197950D01*
X60815050Y-31197950D01*
X60815050Y-31549550D01*
X60815050Y-31549550D01*
G37*
G36*
X72796800Y-31408800D02*
G01*
X70295200Y-31408800D01*
X70295200Y-30567200D01*
X72796800Y-30567200D01*
X72796800Y-31408800D01*
X72796800Y-31408800D01*
G37*
G36*
X68896800Y-31408800D02*
G01*
X66395200Y-31408800D01*
X66395200Y-30567200D01*
X68896800Y-30567200D01*
X68896800Y-31408800D01*
X68896800Y-31408800D01*
G37*
G36*
X44794800Y-31052800D02*
G01*
X43393200Y-31052800D01*
X43393200Y-30151200D01*
X44794800Y-30151200D01*
X44794800Y-31052800D01*
X44794800Y-31052800D01*
G37*
G36*
X51094800Y-31052800D02*
G01*
X49693200Y-31052800D01*
X49693200Y-30151200D01*
X51094800Y-30151200D01*
X51094800Y-31052800D01*
X51094800Y-31052800D01*
G37*
G36*
X54015050Y-31049550D02*
G01*
X53213450Y-31049550D01*
X53213450Y-30697950D01*
X54015050Y-30697950D01*
X54015050Y-31049550D01*
X54015050Y-31049550D01*
G37*
G36*
X60815050Y-31049550D02*
G01*
X60013450Y-31049550D01*
X60013450Y-30697950D01*
X60815050Y-30697950D01*
X60815050Y-31049550D01*
X60815050Y-31049550D01*
G37*
G36*
X31082800Y-30750800D02*
G01*
X28981200Y-30750800D01*
X28981200Y-29449200D01*
X31082800Y-29449200D01*
X31082800Y-30750800D01*
X31082800Y-30750800D01*
G37*
G36*
X60815050Y-30549550D02*
G01*
X60013450Y-30549550D01*
X60013450Y-30197950D01*
X60815050Y-30197950D01*
X60815050Y-30549550D01*
X60815050Y-30549550D01*
G37*
G36*
X54015050Y-30549550D02*
G01*
X53213450Y-30549550D01*
X53213450Y-30197950D01*
X54015050Y-30197950D01*
X54015050Y-30549550D01*
X54015050Y-30549550D01*
G37*
G36*
X72796800Y-30138800D02*
G01*
X70295200Y-30138800D01*
X70295200Y-29297200D01*
X72796800Y-29297200D01*
X72796800Y-30138800D01*
X72796800Y-30138800D01*
G37*
G36*
X68896800Y-30138800D02*
G01*
X66395200Y-30138800D01*
X66395200Y-29297200D01*
X68896800Y-29297200D01*
X68896800Y-30138800D01*
X68896800Y-30138800D01*
G37*
G36*
X60815050Y-30049550D02*
G01*
X60013450Y-30049550D01*
X60013450Y-29697950D01*
X60815050Y-29697950D01*
X60815050Y-30049550D01*
X60815050Y-30049550D01*
G37*
G36*
X54015050Y-30049550D02*
G01*
X53213450Y-30049550D01*
X53213450Y-29697950D01*
X54015050Y-29697950D01*
X54015050Y-30049550D01*
X54015050Y-30049550D01*
G37*
G36*
X51094800Y-29782800D02*
G01*
X49693200Y-29782800D01*
X49693200Y-28881200D01*
X51094800Y-28881200D01*
X51094800Y-29782800D01*
X51094800Y-29782800D01*
G37*
G36*
X44794800Y-29782800D02*
G01*
X43393200Y-29782800D01*
X43393200Y-28881200D01*
X44794800Y-28881200D01*
X44794800Y-29782800D01*
X44794800Y-29782800D01*
G37*
G36*
X35238800Y-29742800D02*
G01*
X33137200Y-29742800D01*
X33137200Y-28141200D01*
X35238800Y-28141200D01*
X35238800Y-29742800D01*
X35238800Y-29742800D01*
G37*
G36*
X60815050Y-29549550D02*
G01*
X60013450Y-29549550D01*
X60013450Y-29197950D01*
X60815050Y-29197950D01*
X60815050Y-29549550D01*
X60815050Y-29549550D01*
G37*
G36*
X54015050Y-29549550D02*
G01*
X53213450Y-29549550D01*
X53213450Y-29197950D01*
X54015050Y-29197950D01*
X54015050Y-29549550D01*
X54015050Y-29549550D01*
G37*
G36*
X75824229Y-27555854D02*
G01*
X75954757Y-27581817D01*
X76118690Y-27649721D01*
X76266222Y-27748299D01*
X76266224Y-27748301D01*
X76266227Y-27748303D01*
X76391697Y-27873773D01*
X76391699Y-27873776D01*
X76391701Y-27873778D01*
X76490279Y-28021310D01*
X76558183Y-28185243D01*
X76592800Y-28359280D01*
X76592800Y-28536720D01*
X76558183Y-28710757D01*
X76490279Y-28874690D01*
X76391701Y-29022222D01*
X76391699Y-29022224D01*
X76391697Y-29022227D01*
X76266227Y-29147697D01*
X76266224Y-29147699D01*
X76266222Y-29147701D01*
X76118690Y-29246279D01*
X75954757Y-29314183D01*
X75824229Y-29340146D01*
X75780721Y-29348800D01*
X75603279Y-29348800D01*
X75559771Y-29340146D01*
X75429243Y-29314183D01*
X75265310Y-29246279D01*
X75117778Y-29147701D01*
X75117776Y-29147699D01*
X75117773Y-29147697D01*
X74992303Y-29022227D01*
X74992301Y-29022224D01*
X74992299Y-29022222D01*
X74893721Y-28874690D01*
X74825817Y-28710757D01*
X74791200Y-28536720D01*
X74791200Y-28359280D01*
X74825817Y-28185243D01*
X74893721Y-28021310D01*
X74992299Y-27873778D01*
X74992301Y-27873776D01*
X74992303Y-27873773D01*
X75117773Y-27748303D01*
X75117776Y-27748301D01*
X75117778Y-27748299D01*
X75265310Y-27649721D01*
X75429243Y-27581817D01*
X75559771Y-27555854D01*
X75603279Y-27547200D01*
X75780721Y-27547200D01*
X75824229Y-27555854D01*
X75824229Y-27555854D01*
G37*
G36*
X82324229Y-27555854D02*
G01*
X82454757Y-27581817D01*
X82618690Y-27649721D01*
X82766222Y-27748299D01*
X82766224Y-27748301D01*
X82766227Y-27748303D01*
X82891697Y-27873773D01*
X82891699Y-27873776D01*
X82891701Y-27873778D01*
X82990279Y-28021310D01*
X83058183Y-28185243D01*
X83092800Y-28359280D01*
X83092800Y-28536720D01*
X83058183Y-28710757D01*
X82990279Y-28874690D01*
X82891701Y-29022222D01*
X82891699Y-29022224D01*
X82891697Y-29022227D01*
X82766227Y-29147697D01*
X82766224Y-29147699D01*
X82766222Y-29147701D01*
X82618690Y-29246279D01*
X82454757Y-29314183D01*
X82324229Y-29340146D01*
X82280721Y-29348800D01*
X82103279Y-29348800D01*
X82059771Y-29340146D01*
X81929243Y-29314183D01*
X81765310Y-29246279D01*
X81617778Y-29147701D01*
X81617776Y-29147699D01*
X81617773Y-29147697D01*
X81492303Y-29022227D01*
X81492301Y-29022224D01*
X81492299Y-29022222D01*
X81393721Y-28874690D01*
X81325817Y-28710757D01*
X81291200Y-28536720D01*
X81291200Y-28359280D01*
X81325817Y-28185243D01*
X81393721Y-28021310D01*
X81492299Y-27873778D01*
X81492301Y-27873776D01*
X81492303Y-27873773D01*
X81617773Y-27748303D01*
X81617776Y-27748301D01*
X81617778Y-27748299D01*
X81765310Y-27649721D01*
X81929243Y-27581817D01*
X82059771Y-27555854D01*
X82103279Y-27547200D01*
X82280721Y-27547200D01*
X82324229Y-27555854D01*
X82324229Y-27555854D01*
G37*
G36*
X64458800Y-29127800D02*
G01*
X63557200Y-29127800D01*
X63557200Y-28276200D01*
X64458800Y-28276200D01*
X64458800Y-29127800D01*
X64458800Y-29127800D01*
G37*
G36*
X62958800Y-29127800D02*
G01*
X62057200Y-29127800D01*
X62057200Y-28276200D01*
X62958800Y-28276200D01*
X62958800Y-29127800D01*
X62958800Y-29127800D01*
G37*
G36*
X60815050Y-29049550D02*
G01*
X60013450Y-29049550D01*
X60013450Y-28697950D01*
X60815050Y-28697950D01*
X60815050Y-29049550D01*
X60815050Y-29049550D01*
G37*
G36*
X54015050Y-29049550D02*
G01*
X53213450Y-29049550D01*
X53213450Y-28697950D01*
X54015050Y-28697950D01*
X54015050Y-29049550D01*
X54015050Y-29049550D01*
G37*
G36*
X68896800Y-28868800D02*
G01*
X66395200Y-28868800D01*
X66395200Y-28027200D01*
X68896800Y-28027200D01*
X68896800Y-28868800D01*
X68896800Y-28868800D01*
G37*
G36*
X72796800Y-28868800D02*
G01*
X70295200Y-28868800D01*
X70295200Y-28027200D01*
X72796800Y-28027200D01*
X72796800Y-28868800D01*
X72796800Y-28868800D01*
G37*
G36*
X60815050Y-28549550D02*
G01*
X60013450Y-28549550D01*
X60013450Y-28197950D01*
X60815050Y-28197950D01*
X60815050Y-28549550D01*
X60815050Y-28549550D01*
G37*
G36*
X54015050Y-28549550D02*
G01*
X53213450Y-28549550D01*
X53213450Y-28197950D01*
X54015050Y-28197950D01*
X54015050Y-28549550D01*
X54015050Y-28549550D01*
G37*
G36*
X44794800Y-28522800D02*
G01*
X43393200Y-28522800D01*
X43393200Y-27621200D01*
X44794800Y-27621200D01*
X44794800Y-28522800D01*
X44794800Y-28522800D01*
G37*
G36*
X51094800Y-28522800D02*
G01*
X49693200Y-28522800D01*
X49693200Y-27621200D01*
X51094800Y-27621200D01*
X51094800Y-28522800D01*
X51094800Y-28522800D01*
G37*
G36*
X31082800Y-28250800D02*
G01*
X28981200Y-28250800D01*
X28981200Y-26949200D01*
X31082800Y-26949200D01*
X31082800Y-28250800D01*
X31082800Y-28250800D01*
G37*
G36*
X54440050Y-28124550D02*
G01*
X54088450Y-28124550D01*
X54088450Y-27322950D01*
X54440050Y-27322950D01*
X54440050Y-28124550D01*
X54440050Y-28124550D01*
G37*
G36*
X57440050Y-28124550D02*
G01*
X57088450Y-28124550D01*
X57088450Y-27322950D01*
X57440050Y-27322950D01*
X57440050Y-28124550D01*
X57440050Y-28124550D01*
G37*
G36*
X54940050Y-28124550D02*
G01*
X54588450Y-28124550D01*
X54588450Y-27322950D01*
X54940050Y-27322950D01*
X54940050Y-28124550D01*
X54940050Y-28124550D01*
G37*
G36*
X59940050Y-28124550D02*
G01*
X59588450Y-28124550D01*
X59588450Y-27322950D01*
X59940050Y-27322950D01*
X59940050Y-28124550D01*
X59940050Y-28124550D01*
G37*
G36*
X59440050Y-28124550D02*
G01*
X59088450Y-28124550D01*
X59088450Y-27322950D01*
X59440050Y-27322950D01*
X59440050Y-28124550D01*
X59440050Y-28124550D01*
G37*
G36*
X57940050Y-28124550D02*
G01*
X57588450Y-28124550D01*
X57588450Y-27322950D01*
X57940050Y-27322950D01*
X57940050Y-28124550D01*
X57940050Y-28124550D01*
G37*
G36*
X58440050Y-28124550D02*
G01*
X58088450Y-28124550D01*
X58088450Y-27322950D01*
X58440050Y-27322950D01*
X58440050Y-28124550D01*
X58440050Y-28124550D01*
G37*
G36*
X55940050Y-28124550D02*
G01*
X55588450Y-28124550D01*
X55588450Y-27322950D01*
X55940050Y-27322950D01*
X55940050Y-28124550D01*
X55940050Y-28124550D01*
G37*
G36*
X56440050Y-28124550D02*
G01*
X56088450Y-28124550D01*
X56088450Y-27322950D01*
X56440050Y-27322950D01*
X56440050Y-28124550D01*
X56440050Y-28124550D01*
G37*
G36*
X56940050Y-28124550D02*
G01*
X56588450Y-28124550D01*
X56588450Y-27322950D01*
X56940050Y-27322950D01*
X56940050Y-28124550D01*
X56940050Y-28124550D01*
G37*
G36*
X58940050Y-28124550D02*
G01*
X58588450Y-28124550D01*
X58588450Y-27322950D01*
X58940050Y-27322950D01*
X58940050Y-28124550D01*
X58940050Y-28124550D01*
G37*
G36*
X55440050Y-28124550D02*
G01*
X55088450Y-28124550D01*
X55088450Y-27322950D01*
X55440050Y-27322950D01*
X55440050Y-28124550D01*
X55440050Y-28124550D01*
G37*
G36*
X51094800Y-27242800D02*
G01*
X49693200Y-27242800D01*
X49693200Y-26341200D01*
X51094800Y-26341200D01*
X51094800Y-27242800D01*
X51094800Y-27242800D01*
G37*
G36*
X44794800Y-27242800D02*
G01*
X43393200Y-27242800D01*
X43393200Y-26341200D01*
X44794800Y-26341200D01*
X44794800Y-27242800D01*
X44794800Y-27242800D01*
G37*
G36*
X39670800Y-26408800D02*
G01*
X39069200Y-26408800D01*
X39069200Y-25407200D01*
X39670800Y-25407200D01*
X39670800Y-26408800D01*
X39670800Y-26408800D01*
G37*
G36*
X34360800Y-26408800D02*
G01*
X33759200Y-26408800D01*
X33759200Y-25407200D01*
X34360800Y-25407200D01*
X34360800Y-26408800D01*
X34360800Y-26408800D01*
G37*
G36*
X38170800Y-26408800D02*
G01*
X37569200Y-26408800D01*
X37569200Y-25407200D01*
X38170800Y-25407200D01*
X38170800Y-26408800D01*
X38170800Y-26408800D01*
G37*
G36*
X35860800Y-26408800D02*
G01*
X35259200Y-26408800D01*
X35259200Y-25407200D01*
X35860800Y-25407200D01*
X35860800Y-26408800D01*
X35860800Y-26408800D01*
G37*
G36*
X28838984Y-24610788D02*
G01*
X28989935Y-24656578D01*
X28989938Y-24656579D01*
X29129052Y-24730937D01*
X29250990Y-24831010D01*
X29351063Y-24952948D01*
X29425421Y-25092062D01*
X29425422Y-25092065D01*
X29471212Y-25243016D01*
X29486674Y-25400000D01*
X29471212Y-25556984D01*
X29425422Y-25707935D01*
X29425421Y-25707938D01*
X29351063Y-25847052D01*
X29250990Y-25968990D01*
X29129052Y-26069063D01*
X28989938Y-26143421D01*
X28989935Y-26143422D01*
X28838984Y-26189212D01*
X28721332Y-26200800D01*
X26142668Y-26200800D01*
X26025016Y-26189212D01*
X25874065Y-26143422D01*
X25874062Y-26143421D01*
X25734948Y-26069063D01*
X25613010Y-25968990D01*
X25512937Y-25847052D01*
X25438579Y-25707938D01*
X25438578Y-25707935D01*
X25392788Y-25556984D01*
X25377326Y-25400000D01*
X25392788Y-25243016D01*
X25438578Y-25092065D01*
X25438579Y-25092062D01*
X25512937Y-24952948D01*
X25613010Y-24831010D01*
X25734948Y-24730937D01*
X25874062Y-24656579D01*
X25874065Y-24656578D01*
X26025016Y-24610788D01*
X26142668Y-24599200D01*
X28721332Y-24599200D01*
X28838984Y-24610788D01*
X28838984Y-24610788D01*
G37*
G36*
X80934800Y-24834800D02*
G01*
X80333200Y-24834800D01*
X80333200Y-23933200D01*
X80934800Y-23933200D01*
X80934800Y-24834800D01*
X80934800Y-24834800D01*
G37*
G36*
X82734800Y-24834800D02*
G01*
X82133200Y-24834800D01*
X82133200Y-23933200D01*
X82734800Y-23933200D01*
X82734800Y-24834800D01*
X82734800Y-24834800D01*
G37*
G36*
X81734800Y-24834800D02*
G01*
X81333200Y-24834800D01*
X81333200Y-23933200D01*
X81734800Y-23933200D01*
X81734800Y-24834800D01*
X81734800Y-24834800D01*
G37*
G36*
X45662800Y-24555800D02*
G01*
X44761200Y-24555800D01*
X44761200Y-23704200D01*
X45662800Y-23704200D01*
X45662800Y-24555800D01*
X45662800Y-24555800D01*
G37*
G36*
X44162800Y-24555800D02*
G01*
X43261200Y-24555800D01*
X43261200Y-23704200D01*
X44162800Y-23704200D01*
X44162800Y-24555800D01*
X44162800Y-24555800D01*
G37*
G36*
X47718800Y-24555800D02*
G01*
X46817200Y-24555800D01*
X46817200Y-23704200D01*
X47718800Y-23704200D01*
X47718800Y-24555800D01*
X47718800Y-24555800D01*
G37*
G36*
X49218800Y-24555800D02*
G01*
X48317200Y-24555800D01*
X48317200Y-23704200D01*
X49218800Y-23704200D01*
X49218800Y-24555800D01*
X49218800Y-24555800D01*
G37*
G36*
X51758800Y-24047800D02*
G01*
X50857200Y-24047800D01*
X50857200Y-23196200D01*
X51758800Y-23196200D01*
X51758800Y-24047800D01*
X51758800Y-24047800D01*
G37*
G36*
X53258800Y-24047800D02*
G01*
X52357200Y-24047800D01*
X52357200Y-23196200D01*
X53258800Y-23196200D01*
X53258800Y-24047800D01*
X53258800Y-24047800D01*
G37*
G36*
X58849801Y-23954801D02*
G01*
X57948201Y-23954801D01*
X57948201Y-23103201D01*
X58849801Y-23103201D01*
X58849801Y-23954801D01*
X58849801Y-23954801D01*
G37*
G36*
X54999801Y-23954801D02*
G01*
X54098201Y-23954801D01*
X54098201Y-23103201D01*
X54999801Y-23103201D01*
X54999801Y-23954801D01*
X54999801Y-23954801D01*
G37*
G36*
X56499801Y-23954801D02*
G01*
X55598201Y-23954801D01*
X55598201Y-23103201D01*
X56499801Y-23103201D01*
X56499801Y-23954801D01*
X56499801Y-23954801D01*
G37*
G36*
X60349801Y-23954801D02*
G01*
X59448201Y-23954801D01*
X59448201Y-23103201D01*
X60349801Y-23103201D01*
X60349801Y-23954801D01*
X60349801Y-23954801D01*
G37*
G36*
X39858800Y-23564800D02*
G01*
X38957200Y-23564800D01*
X38957200Y-22663200D01*
X39858800Y-22663200D01*
X39858800Y-23564800D01*
X39858800Y-23564800D01*
G37*
G36*
X38258800Y-23564800D02*
G01*
X37357200Y-23564800D01*
X37357200Y-22663200D01*
X38258800Y-22663200D01*
X38258800Y-23564800D01*
X38258800Y-23564800D01*
G37*
G36*
X36010800Y-23564800D02*
G01*
X35109200Y-23564800D01*
X35109200Y-22663200D01*
X36010800Y-22663200D01*
X36010800Y-23564800D01*
X36010800Y-23564800D01*
G37*
G36*
X34410800Y-23564800D02*
G01*
X33509200Y-23564800D01*
X33509200Y-22663200D01*
X34410800Y-22663200D01*
X34410800Y-23564800D01*
X34410800Y-23564800D01*
G37*
G36*
X82734800Y-23134800D02*
G01*
X82133200Y-23134800D01*
X82133200Y-22233200D01*
X82734800Y-22233200D01*
X82734800Y-23134800D01*
X82734800Y-23134800D01*
G37*
G36*
X80934800Y-23134800D02*
G01*
X80333200Y-23134800D01*
X80333200Y-22233200D01*
X80934800Y-22233200D01*
X80934800Y-23134800D01*
X80934800Y-23134800D01*
G37*
G36*
X81734800Y-23134800D02*
G01*
X81333200Y-23134800D01*
X81333200Y-22233200D01*
X81734800Y-22233200D01*
X81734800Y-23134800D01*
X81734800Y-23134800D01*
G37*
M02*
